<?xml version="1.0" encoding="utf-8"?>
<!-- Generator: Adobe Illustrator 15.0.0, SVG Export Plug-In . SVG Version: 6.00 Build 0)  -->
<!DOCTYPE svg PUBLIC "-//W3C//DTD SVG 1.1//EN" "http://www.w3.org/Graphics/SVG/1.1/DTD/svg11.dtd">
<svg version="1.1" id="Layer_1" xmlns="http://www.w3.org/2000/svg" xmlns:xlink="http://www.w3.org/1999/xlink" x="0px" y="0px"
	 width="32px" height="32px" viewBox="0 0 32 32" enable-background="new 0 0 32 32" xml:space="preserve">
<path fill-rule="evenodd" clip-rule="evenodd" fill="#000000" d="M19.146,15.773c2.782-1.361,3.996-5.904,4.953-7.271
	c0.395-0.564,6.814-0.697,6.85,0.106c0.054,1.201-1.194,3.18-2.213,4.532c-0.666,0.883-2.675,2.776-2.635,4.004
	c0.036,1.102,1.897,2.122,2.635,3.161c0.562,0.789,2.61,2.217,2.213,3.479c-0.33,1.048-5.015,1.079-6.533,0.632
	c-2.173-0.638-2.607-3.332-4.638-3.899c-1.79-0.064-0.764,3.598-1.896,3.793c-5.426,0.941-9.166-2.183-11.697-5.796
	c-2.127-3.034-5.48-9.152-5.164-9.905c0.341-0.813,1.725-0.526,2.738-0.526c0.926,0,2.206-0.108,2.951,0.21
	c0.778,0.332,1.819,3.244,2.32,4.11c0.376,0.651,1.801,3.609,2.952,3.372c1.036-0.213,1.196-4.687,0.526-6.111
	c-0.304-0.643-0.894-0.787-1.582-1.054c-0.052-1.461,6.4-1.756,7.377-0.526C19.638,9.757,17.323,14.326,19.146,15.773z"/>
</svg>
