<?xml version="1.0" encoding="utf-8"?>
<!-- Generator: Adobe Illustrator 15.0.0, SVG Export Plug-In . SVG Version: 6.00 Build 0)  -->
<!DOCTYPE svg PUBLIC "-//W3C//DTD SVG 1.1//EN" "http://www.w3.org/Graphics/SVG/1.1/DTD/svg11.dtd">
<svg version="1.1" id="Layer_1" xmlns="http://www.w3.org/2000/svg" xmlns:xlink="http://www.w3.org/1999/xlink" x="0px" y="0px"
	 width="60px" height="60px" viewBox="0 0 60 60" enable-background="new 0 0 60 60" xml:space="preserve">
<g>
	<path fill="#1D1D1B" d="M43.404,48.208c0.224,0.075,0.484,0.206,0.782,0.391c0.297,0.188,0.576,0.392,0.838,0.615
		c0.26,0.223,0.503,0.502,0.727,0.838c0.223,0.335,0.335,0.688,0.335,1.061v4.469c0,0.818-0.299,1.525-0.894,2.122
		c-0.598,0.596-1.304,0.894-2.123,0.894H4.419c-0.82,0-1.527-0.298-2.122-0.894c-0.597-0.597-0.894-1.304-0.894-2.122v-4.469
		c0-1.117,1.005-2.122,3.016-3.016l11.506-6.256c-1.862-1.563-3.259-3.667-4.188-6.312c-0.933-2.643-1.396-5.008-1.396-7.093V20.84
		c0-2.457,1.413-4.82,4.244-7.093c2.83-2.271,5.901-3.407,9.216-3.407c3.313,0,6.368,1.117,9.16,3.351
		c2.793,2.234,4.189,4.619,4.189,7.149v7.597c0,2.309-0.43,4.747-1.285,7.316c-0.856,2.569-2.217,4.599-4.077,6.088l11.282,6.256
		L43.404,48.208z M42.511,51.783c-0.298-0.148-0.559-0.297-0.781-0.447c-0.15-0.073-0.262-0.111-0.336-0.111l-11.282-6.256
		c-1.117-0.596-1.731-1.545-1.843-2.849c-0.111-1.302,0.315-2.326,1.284-3.072c1.414-1.117,2.438-2.717,3.072-4.803
		c0.632-2.084,0.949-4.021,0.949-5.809V20.84c0-1.414-1.024-2.922-3.071-4.524c-2.05-1.6-4.265-2.401-6.646-2.401
		c-2.385,0-4.636,0.82-6.759,2.458c-2.122,1.639-3.184,3.128-3.184,4.468v7.597c0,1.714,0.372,3.63,1.117,5.752
		c0.743,2.123,1.787,3.742,3.128,4.859c1.042,0.746,1.508,1.771,1.396,3.072c-0.112,1.304-0.727,2.253-1.844,2.849L6.095,51.225
		c-0.075,0-0.15,0.038-0.224,0.111c-0.298,0.15-0.597,0.335-0.894,0.559v3.128h37.533V51.783z M56.362,39.495
		c0.447,0.224,0.931,0.597,1.452,1.117c0.521,0.521,0.782,1.044,0.782,1.563v4.469c0,0.82-0.298,1.527-0.894,2.122
		c-0.597,0.597-1.304,0.894-2.122,0.894H49.66c-0.521-1.787-1.155-2.978-1.898-3.574h7.261v-3.128
		c-0.299-0.224-0.559-0.408-0.782-0.559c-0.15,0-0.262-0.037-0.335-0.111l-11.506-6.256c-1.117-0.596-1.731-1.525-1.843-2.793
		c-0.112-1.266,0.353-2.308,1.396-3.128c1.414-1.117,2.458-2.717,3.128-4.803c0.671-2.084,1.006-4.021,1.006-5.809v-7.484
		c0-1.414-1.044-2.941-3.128-4.58c-2.086-1.638-4.356-2.458-6.814-2.458c-2.532,0-4.803,0.782-6.813,2.346
		c-0.671-0.223-2.161-0.408-4.469-0.559c1.341-1.563,3.033-2.849,5.083-3.854c2.047-1.005,4.113-1.508,6.199-1.508
		c3.352,0,6.44,1.136,9.271,3.407c2.83,2.272,4.245,4.674,4.245,7.205V19.5c0,2.309-0.446,4.747-1.341,7.316
		c-0.894,2.569-2.272,4.599-4.133,6.088l11.395,6.256L56.362,39.495z"/>
</g>
</svg>
