<?xml version="1.0" encoding="utf-8"?>
<!-- Generator: Adobe Illustrator 15.0.0, SVG Export Plug-In . SVG Version: 6.00 Build 0)  -->
<!DOCTYPE svg PUBLIC "-//W3C//DTD SVG 1.1//EN" "http://www.w3.org/Graphics/SVG/1.1/DTD/svg11.dtd">
<svg version="1.1" id="Layer_1" xmlns="http://www.w3.org/2000/svg" xmlns:xlink="http://www.w3.org/1999/xlink" x="0px" y="0px"
	 width="32px" height="32px" viewBox="0 0 32 32" enable-background="new 0 0 32 32" xml:space="preserve">
<g>
	<path fill="#ff9933" d="M26.25,23.914h-2.9v1.432c0,0.398,0.049,0.68,0.15,0.83c0.1,0.158,0.27,0.229,0.51,0.229
		c0.26,0,0.43-0.059,0.529-0.189c0.1-0.141,0.15-0.42,0.15-0.869v-0.352h1.561v0.391c0,0.779-0.18,1.369-0.57,1.76
		c-0.381,0.4-0.951,0.59-1.701,0.59c-0.68,0-1.219-0.209-1.609-0.619c-0.391-0.42-0.58-0.99-0.58-1.73v-3.41
		c0-0.65,0.211-1.189,0.641-1.609c0.43-0.41,0.98-0.621,1.66-0.621c0.699,0,1.23,0.191,1.6,0.58c0.381,0.381,0.561,0.932,0.561,1.65
		V23.914L26.25,23.914z M20.99,25.965c0,0.529-0.121,0.939-0.361,1.23c-0.23,0.289-0.58,0.43-1.029,0.43
		c-0.301,0-0.561-0.051-0.791-0.16c-0.229-0.109-0.449-0.279-0.648-0.52v0.58h-1.531V17.234h1.531v3.32
		c0.209-0.23,0.42-0.41,0.648-0.529c0.23-0.121,0.461-0.18,0.701-0.18c0.48,0,0.85,0.16,1.1,0.479c0.25,0.33,0.381,0.801,0.381,1.42
		V25.965L20.99,25.965z M15.479,27.525h-1.51v-0.83c-0.289,0.311-0.57,0.539-0.879,0.699c-0.301,0.17-0.6,0.25-0.881,0.25
		c-0.35,0-0.619-0.119-0.789-0.34c-0.18-0.23-0.271-0.57-0.271-1.02v-6.35h1.521v5.83c0,0.18,0.029,0.299,0.09,0.379
		c0.07,0.09,0.17,0.131,0.311,0.131c0.109,0,0.25-0.061,0.43-0.16c0.17-0.111,0.32-0.25,0.469-0.41v-5.77h1.51V27.525L15.479,27.525
		z M10.479,18.734h-1.77v8.791H7v-8.791H5.229v-1.5h5.25V18.734L10.479,18.734z M25.52,15.305H6.479c-3.02,0-5.479,2.46-5.479,5.48
		v4.41c0,3.02,2.459,5.48,5.479,5.48H25.52c3.029,0,5.48-2.461,5.48-5.48v-4.41C31,17.766,28.549,15.305,25.52,15.305L25.52,15.305z
		"/>
	<path fill="#ff9933" d="M24.029,21.074c-0.24,0-0.42,0.07-0.52,0.211c-0.111,0.129-0.16,0.359-0.16,0.68v0.77h1.34v-0.77
		c0-0.32-0.051-0.551-0.16-0.68C24.43,21.145,24.26,21.074,24.029,21.074L24.029,21.074z"/>
	<path fill="#ff9933" d="M18.789,21.045c-0.1,0-0.209,0.029-0.32,0.08c-0.1,0.051-0.209,0.131-0.309,0.23v4.73
		c0.119,0.119,0.238,0.219,0.359,0.27c0.119,0.049,0.24,0.08,0.369,0.08c0.182,0,0.32-0.051,0.41-0.16
		c0.08-0.111,0.131-0.281,0.131-0.521v-3.92c0-0.26-0.061-0.459-0.16-0.59C19.16,21.115,19,21.045,18.789,21.045L18.789,21.045z"/>
	<polygon fill="#ff9933" points="6.689,1.325 8.979,8.175 8.979,12.665 10.898,12.665 10.898,7.965 13.139,1.325 11.18,1.325 
		9.99,5.866 9.869,5.866 8.619,1.325 6.689,1.325 	"/>
	<path fill="#ff9933" d="M16.5,6.155v4.551c0,0.23-0.07,0.4-0.211,0.529c-0.141,0.131-0.32,0.19-0.549,0.19
		c-0.23,0-0.4-0.06-0.521-0.19c-0.119-0.119-0.18-0.299-0.18-0.529V6.155c0-0.189,0.061-0.33,0.189-0.449
		c0.131-0.11,0.301-0.16,0.512-0.16c0.229,0,0.408,0.05,0.549,0.16C16.43,5.825,16.5,5.965,16.5,6.155L16.5,6.155z M13.969,4.665
		c-0.459,0.381-0.689,0.9-0.689,1.551v4.33c0,0.72,0.221,1.279,0.67,1.699S15,12.875,15.74,12.875c0.779,0,1.389-0.2,1.83-0.609
		c0.439-0.41,0.67-0.971,0.67-1.682V6.266c0-0.641-0.23-1.16-0.682-1.57c-0.449-0.4-1.029-0.601-1.738-0.601
		C15.049,4.095,14.43,4.286,13.969,4.665L13.969,4.665z"/>
	<path fill="#ff9933" d="M24.5,12.665V4.305h-1.711v6.35c-0.16,0.18-0.33,0.33-0.529,0.451c-0.189,0.109-0.35,0.17-0.471,0.17
		c-0.16,0-0.279-0.041-0.35-0.131s-0.109-0.23-0.109-0.43v-6.41h-1.711v6.99c0,0.5,0.1,0.869,0.301,1.119
		c0.199,0.25,0.5,0.371,0.9,0.371c0.318,0,0.648-0.09,0.988-0.261c0.34-0.18,0.67-0.44,0.98-0.78v0.92H24.5L24.5,12.665z"/>
</g>
</svg>
