<?xml version="1.0" encoding="utf-8"?>
<!-- Generator: Adobe Illustrator 15.0.0, SVG Export Plug-In . SVG Version: 6.00 Build 0)  -->
<!DOCTYPE svg PUBLIC "-//W3C//DTD SVG 1.1//EN" "http://www.w3.org/Graphics/SVG/1.1/DTD/svg11.dtd">
<svg version="1.1" id="Layer_1" xmlns="http://www.w3.org/2000/svg" xmlns:xlink="http://www.w3.org/1999/xlink" x="0px" y="0px"
	 width="35px" height="35px" viewBox="0 0 35 35" enable-background="new 0 0 35 35" xml:space="preserve">
<path d="M20.121,17.5l5.303-5.304c0.586-0.586,0.586-1.536,0-2.121c-0.586-0.586-1.535-0.586-2.121,0L18,15.379l-5.303-5.303
	c-0.586-0.586-1.535-0.586-2.121,0c-0.586,0.585-0.586,1.535,0,2.121l5.303,5.304l-5.303,5.303c-0.586,0.586-0.586,1.535,0,2.121
	c0.293,0.293,0.677,0.439,1.061,0.439s0.768-0.146,1.061-0.439L18,19.622l5.303,5.303c0.293,0.293,0.677,0.439,1.061,0.439
	s0.768-0.146,1.061-0.439c0.586-0.586,0.586-1.535,0-2.121L20.121,17.5z"/>
</svg>
