<?xml version="1.0" encoding="utf-8"?>
<!-- Generator: Adobe Illustrator 15.0.0, SVG Export Plug-In . SVG Version: 6.00 Build 0)  -->
<!DOCTYPE svg PUBLIC "-//W3C//DTD SVG 1.1//EN" "http://www.w3.org/Graphics/SVG/1.1/DTD/svg11.dtd">
<svg version="1.1" id="Layer_1" xmlns="http://www.w3.org/2000/svg" xmlns:xlink="http://www.w3.org/1999/xlink" x="0px" y="0px"
	 width="32px" height="32px" viewBox="0 0 32 32" enable-background="new 0 0 32 32" xml:space="preserve">
<path fill="#ff9933" d="M28.07,25.201c0,1.59-1.291,2.879-2.871,2.879H6.791c-1.58,0-2.871-1.289-2.871-2.879V12.92H8.4
	C8.01,13.871,7.791,14.91,7.791,16c0,4.52,3.68,8.201,8.209,8.201c4.52,0,8.199-3.682,8.199-8.201c0-1.09-0.219-2.129-0.609-3.08
	h4.48V25.201L28.07,25.201z M11.711,12.92c0.969-1.33,2.52-2.199,4.289-2.199c1.76,0,3.32,0.869,4.279,2.199
	c0.621,0.871,1,1.93,1,3.08c0,2.91-2.369,5.281-5.279,5.281c-2.92,0-5.289-2.371-5.289-5.281
	C10.711,14.85,11.09,13.791,11.711,12.92L11.711,12.92z M26.859,4.461h0.66v0.66v4.42l-5.059,0.02l-0.021-5.09L26.859,4.461
	L26.859,4.461z M25.199,1H6.791C3.6,1,1,3.6,1,6.801v6.119v12.281C1,28.4,3.6,31,6.791,31h18.408C28.391,31,31,28.4,31,25.201V12.92
	V6.801C31,3.6,28.391,1,25.199,1L25.199,1z"/>
</svg>
