<?xml version="1.0" encoding="utf-8"?>
<!-- Generator: Adobe Illustrator 15.0.0, SVG Export Plug-In . SVG Version: 6.00 Build 0)  -->
<!DOCTYPE svg PUBLIC "-//W3C//DTD SVG 1.1//EN" "http://www.w3.org/Graphics/SVG/1.1/DTD/svg11.dtd">
<svg version="1.1" id="Layer_1" xmlns="http://www.w3.org/2000/svg" xmlns:xlink="http://www.w3.org/1999/xlink" x="0px" y="0px"
	 width="35px" height="35px" viewBox="0 0 35 35" enable-background="new 0 0 35 35" xml:space="preserve">
<g>
	<path d="M9,13h17c0.828,0,1.5-0.672,1.5-1.5S26.828,10,26,10H9c-0.828,0-1.5,0.672-1.5,1.5S8.172,13,9,13z"/>
	<path d="M26,16H9c-0.828,0-1.5,0.672-1.5,1.5S8.172,19,9,19h17c0.828,0,1.5-0.672,1.5-1.5S26.828,16,26,16z"/>
	<path d="M26,22H9c-0.828,0-1.5,0.672-1.5,1.5S8.172,25,9,25h17c0.828,0,1.5-0.672,1.5-1.5S26.828,22,26,22z"/>
</g>
</svg>
