<?xml version="1.0" encoding="utf-8"?>
<!-- Generator: Adobe Illustrator 15.0.0, SVG Export Plug-In . SVG Version: 6.00 Build 0)  -->
<!DOCTYPE svg PUBLIC "-//W3C//DTD SVG 1.1//EN" "http://www.w3.org/Graphics/SVG/1.1/DTD/svg11.dtd">
<svg version="1.1" id="Layer_1" xmlns="http://www.w3.org/2000/svg" xmlns:xlink="http://www.w3.org/1999/xlink" x="0px" y="0px"
	 width="32px" height="32px" viewBox="0 0 32 32" enable-background="new 0 0 32 32" xml:space="preserve">
<path fill="#ff9933" d="M30.172,4.26c-1.189,0.71-2.508,1.22-3.91,1.5c-1.121-1.2-2.721-1.95-4.492-1.95
	c-3.398,0-6.154,2.76-6.154,6.16c0,0.48,0.055,0.949,0.158,1.4c-5.115-0.26-9.65-2.711-12.686-6.43
	C2.558,5.85,2.254,6.899,2.254,8.029c0,2.14,1.086,4.021,2.738,5.13c-1.009-0.039-1.957-0.31-2.787-0.77c0,0.02,0,0.051,0,0.07
	c0,2.99,2.121,5.47,4.937,6.039C6.625,18.64,6.082,18.72,5.52,18.72c-0.396,0-0.782-0.04-1.158-0.109
	c0.784,2.439,3.057,4.219,5.75,4.27c-2.107,1.649-4.761,2.63-7.645,2.63c-0.498,0-0.986-0.03-1.467-0.08
	c2.723,1.739,5.959,2.761,9.434,2.761c11.322,0,17.512-9.381,17.512-17.511c0-0.271-0.004-0.53-0.016-0.8
	C29.131,9.02,30.176,7.93,31,6.7c-1.104,0.49-2.289,0.819-3.535,0.969C28.736,6.909,29.711,5.7,30.172,4.26L30.172,4.26z"/>
</svg>
