<?xml version="1.0" encoding="utf-8"?>
<!-- Generator: Adobe Illustrator 15.0.0, SVG Export Plug-In . SVG Version: 6.00 Build 0)  -->
<!DOCTYPE svg PUBLIC "-//W3C//DTD SVG 1.1//EN" "http://www.w3.org/Graphics/SVG/1.1/DTD/svg11.dtd">
<svg version="1.1" id="Layer_1" xmlns="http://www.w3.org/2000/svg" xmlns:xlink="http://www.w3.org/1999/xlink" x="0px" y="0px"
	 width="60px" height="60px" viewBox="0 0 60 60" enable-background="new 0 0 60 60" xml:space="preserve">
<path fill="#1D1D1B" d="M58.709,30c0-7.895-2.811-14.634-8.436-20.219C44.652,4.195,37.895,1.403,30,1.403c-0.074,0-0.168,0-0.279,0
	s-0.205,0-0.279,0h-0.225c-0.295,0-0.594,0-0.893,0c-7.521,0.446-13.908,3.426-19.158,8.937c-5.25,5.51-6.425,9.87-6.425,9.87
	s-1.45,2.193-1.45,9.79c0,0,0,0,0,0.001l0,0c0,7.595,2.625,14.148,7.875,19.66s11.637,8.49,19.157,8.938c0.299,0,0.598,0,0.894,0
	c0.15,0,0.263,0,0.336,0c0.223,0,0.373,0,0.446,0c7.895,0,14.653-2.793,20.274-8.379c1.647-1.635,3.046-3.373,4.211-5.207
	C57.296,40.584,58.709,35.58,58.709,30z M37.372,9.893c1.714,2.458,3.016,5.51,3.909,9.159c-2.904,0.224-6.068,0.335-9.494,0.335
	V5.313C33.798,5.909,35.659,7.436,37.372,9.893z M42.063,22.627c0.373,2.383,0.559,4.84,0.559,7.373
	c0,1.839-0.108,3.679-0.311,5.521c-0.01,0.096-0.014,0.191-0.024,0.287c-3.275-0.225-6.775-0.375-10.5-0.447V22.962
	C35.438,22.962,38.862,22.851,42.063,22.627z M37.707,49.549c-1.787,2.754-3.76,4.467-5.92,5.137V38.938
	c3.501,0.072,6.813,0.223,9.941,0.445c-0.107,0.484-0.222,0.957-0.343,1.424c-0.004,0.018-0.008,0.037-0.014,0.055
	c-0.02,0.078-0.043,0.152-0.064,0.23c-0.362,1.361-0.779,2.646-1.254,3.848C39.383,46.633,38.601,48.17,37.707,49.549z
	 M51.782,17.711c-1.936,0.372-4.283,0.707-7.038,1.006c-1.34-4.989-3.386-9.085-6.141-12.286
	C44.337,8.59,48.729,12.352,51.782,17.711z M45.792,35.76c0.263-1.889,0.405-3.807,0.405-5.76c0-2.607-0.223-5.176-0.67-7.707
	c3.202-0.373,5.808-0.82,7.818-1.341c1.192,2.904,1.787,5.921,1.787,9.049c0,2.605-0.408,5.099-1.229,7.484
	c-1.936-0.523-4.652-0.969-8.154-1.342C45.769,36.018,45.774,35.887,45.792,35.76z M38.602,53.57
	c2.669-3.123,4.681-7.043,6.04-11.756c0.002-0.008,0.005-0.016,0.007-0.021c0.032-0.111,0.058-0.227,0.089-0.338
	c0.158-0.568,0.313-1.143,0.454-1.736c3.055,0.297,5.512,0.67,7.372,1.117c-0.411,0.854-0.862,1.662-1.338,2.441
	C48.26,48.143,44.057,51.58,38.602,53.57z M7.547,41.059c1.64-0.521,4.061-0.969,7.26-1.34c1.044,5.434,2.792,9.865,5.249,13.291
	C14.397,50.553,10.229,46.568,7.547,41.059z M16.634,13.544c-0.021,0.059-0.045,0.113-0.066,0.172
	c-0.03,0.084-0.057,0.174-0.086,0.258c-0.521,1.476-0.969,3.053-1.339,4.743c-2.754-0.299-5.062-0.709-6.925-1.229
	c2.831-4.766,6.777-8.265,11.84-10.499C18.693,8.853,17.554,11.041,16.634,13.544z M17.824,35.809
	C17.6,33.871,17.488,31.936,17.488,30c0-0.094,0.005-0.187,0.005-0.28c0.013-2.245,0.176-4.46,0.48-6.646
	c0.025-0.186,0.045-0.372,0.073-0.558c3.128,0.297,6.554,0.446,10.276,0.446v12.399C24.524,35.434,21.027,35.584,17.824,35.809z
	 M18.828,19.052c0.37-1.506,0.821-2.89,1.323-4.199c0.715-1.863,1.548-3.552,2.532-5.017c0.628-0.936,1.285-1.737,1.972-2.406
	c1.143-1.114,2.365-1.856,3.668-2.229v14.186C24.899,19.387,21.732,19.276,18.828,19.052z M6.867,39.582
	C5.532,36.535,4.865,33.342,4.865,30c0-0.202,0.023-0.397,0.028-0.598c0.055-2.34,0.429-4.599,1.126-6.777
	c0.192-0.6,0.392-1.197,0.632-1.785c1.938,0.521,4.544,0.967,7.819,1.341c-0.371,2.53-0.559,5.138-0.559,7.819
	c0,2.083,0.112,4.169,0.336,6.253c-3.724,0.447-6.403,0.932-8.042,1.453v0.002c0,0,0,0-0.001,0L6.867,39.582z M22.348,49.604
	c-1.748-2.793-3.033-6.199-3.854-10.221c2.979-0.223,6.255-0.373,9.829-0.445v15.861C26.089,54.127,24.098,52.396,22.348,49.604z"/>
</svg>
