<?xml version="1.0" encoding="utf-8"?>
<!-- Generator: Adobe Illustrator 15.0.0, SVG Export Plug-In . SVG Version: 6.00 Build 0)  -->
<!DOCTYPE svg PUBLIC "-//W3C//DTD SVG 1.1//EN" "http://www.w3.org/Graphics/SVG/1.1/DTD/svg11.dtd">
<svg version="1.1" id="Layer_1" xmlns="http://www.w3.org/2000/svg" xmlns:xlink="http://www.w3.org/1999/xlink" x="0px" y="0px"
	 width="60px" height="60px" viewBox="0 0 60 60" enable-background="new 0 0 60 60" xml:space="preserve">
<path fill="#1D1D1B" d="M58.598,43.404c0,0.969-0.355,1.807-1.062,2.513c-0.709,0.709-1.562,1.062-2.568,1.062
	s-1.844-0.353-2.514-1.062c-0.67-0.706-1.006-1.544-1.006-2.513c0-1.341,0.559-2.383,1.676-3.128V27.765l-7.148,3.799
	c0.072,0.223,0.111,0.446,0.111,0.67v15.527c0,0.597-0.223,1.08-0.67,1.452c-0.373,0.298-0.914,0.634-1.621,1.005
	c-0.707,0.374-2.363,0.82-4.971,1.341c-2.607,0.521-5.584,0.782-8.936,0.782c-3.351,0-6.312-0.279-8.881-0.838
	s-4.208-1.042-4.915-1.452c-0.708-0.408-1.248-0.763-1.619-1.062c-0.447-0.372-0.671-0.818-0.671-1.341v-15.08
	c0-0.297,0.112-0.595,0.336-0.894L2.296,25.419C1.7,25.048,1.403,24.508,1.403,23.8c0-0.707,0.297-1.21,0.894-1.509l26.81-14.41
	c0.521-0.296,1.079-0.296,1.676,0l26.921,14.41c0.596,0.299,0.895,0.802,0.895,1.509c0,0.708-0.336,1.248-1.006,1.619l-0.895,0.447
	v14.41C57.963,40.946,58.598,41.99,58.598,43.404z M53.012,23.744L29.888,11.456L6.876,23.855l23.012,12.176L53.012,23.744z
	 M42.512,33.351L30.67,39.606c-0.224,0.149-0.485,0.223-0.782,0.223c-0.298,0-0.597-0.073-0.894-0.223l-11.617-6.145v13.182
	c2.754,1.415,6.943,2.122,12.566,2.122c5.623,0,9.812-0.67,12.568-2.011V33.351z"/>
</svg>
