<?xml version="1.0" encoding="utf-8"?>
<!-- Generator: Adobe Illustrator 15.0.0, SVG Export Plug-In . SVG Version: 6.00 Build 0)  -->
<!DOCTYPE svg PUBLIC "-//W3C//DTD SVG 1.1//EN" "http://www.w3.org/Graphics/SVG/1.1/DTD/svg11.dtd">
<svg version="1.1" id="Layer_1" xmlns="http://www.w3.org/2000/svg" xmlns:xlink="http://www.w3.org/1999/xlink" x="0px" y="0px"
	 width="65px" height="85px" viewBox="0 0 65 85" enable-background="new 0 0 65 85" xml:space="preserve">
<g>
	<path fill="#FFFFFF" d="M6.266,81.333c0.504,0.56,1.177,0.91,1.863,0.91c0.588,0,0.938-0.183,0.938-0.562s-0.252-0.561-1.877-1.063
		c-1.807-0.562-2.717-1.527-2.717-3.124c0-1.835,1.429-3.012,3.67-3.012c1.541,0,2.928,0.531,3.81,1.64L9.95,77.521
		c-0.336-0.405-0.869-0.657-1.359-0.657c-0.546,0-0.869,0.168-0.869,0.518c0,0.435,0.336,0.617,1.835,1.093
		c1.919,0.616,2.76,1.473,2.76,3.041c0,1.891-1.597,3.108-4.048,3.108c-1.793,0-3.166-0.658-4.132-1.819L6.266,81.333z"/>
	<path fill="#FFFFFF" d="M17.621,81.458h-0.672v2.998h-3.222V74.65h3.894c2.507,0,4.202,1.064,4.202,3.404
		C21.823,80.393,20.128,81.458,17.621,81.458z M17.522,77.088h-0.574v1.934h0.574c0.645,0,1.051-0.252,1.051-0.967
		C18.573,77.327,18.167,77.088,17.522,77.088z"/>
	<path fill="#FFFFFF" d="M28.233,82.943h-2.759l-0.378,1.514h-3.39l3.054-9.805h4.202l3.054,9.805h-3.39L28.233,82.943z
		 M26.104,80.506h1.513l-0.756-2.941L26.104,80.506z"/>
	<path fill="#FFFFFF" d="M36.422,81.066v3.391h-3.221v-9.805h3.879c2.605,0,4.329,0.994,4.329,3.207c0,1.303-0.603,2.186-1.61,2.688
		l2.24,3.908h-3.403l-1.61-3.39H36.422L36.422,81.066z M37.193,78.713c0.658,0,1.035-0.238,1.035-0.854
		c0-0.603-0.377-0.854-1.035-0.854h-0.771v1.709L37.193,78.713L37.193,78.713z"/>
	<path fill="#FFFFFF" d="M45.115,77.229H42.51v-2.576h8.434v2.576h-2.605v7.229h-3.222L45.115,77.229L45.115,77.229z"/>
	<path fill="#FFFFFF" d="M57.241,82.943h-2.759l-0.379,1.514h-3.391l3.055-9.805h4.201l3.055,9.805h-3.392L57.241,82.943z
		 M55.111,80.506h1.514l-0.756-2.941L55.111,80.506z"/>
</g>
<g>
	<g>
		<path fill="#FFFFFF" d="M24.895,13.663c0.855-0.099,1.729-0.148,2.619-0.148c0.855,0,1.713,0.018,2.568,0.049
			c0.033-0.032,0.064-0.032,0.1,0c0.033,0.033,0.064,0.033,0.1,0c0.922,0.067,1.869,0.142,2.84,0.224
			c0.974,0.083,1.903,0.29,2.792,0.62c0.363,0.067,0.691,0.241,0.988,0.523c0.297,0.28,0.643,0.454,1.037,0.521
			c0.562,0.031,1.121,0.1,1.681,0.197c0.562,0.101,1.039,0.301,1.435,0.597c0.064,0.035,0.131,0.067,0.197,0.102
			c0.064,0.032,0.114,0.082,0.146,0.147v-0.05c0.066,0.034,0.183,0.134,0.346,0.298c0.068-0.032,0.107-0.008,0.123,0.075
			c0.02,0.082,0.059,0.109,0.126,0.074c0.327,0.399,0.698,0.714,1.11,0.945c0.412,0.232,0.85,0.398,1.311,0.497
			c0.1,0.033,0.197,0.05,0.295,0.05c0.066,0.033,0.135,0.064,0.199,0.099c0.066,0.033,0.133,0.065,0.197,0.1
			c0.463,0.098,0.939,0.281,1.435,0.545c0.099,0,0.165,0.018,0.196,0.049c0.164,0.067,0.328,0.141,0.494,0.223
			c0.166,0.084,0.33,0.159,0.494,0.227c0.264,0.129,0.528,0.246,0.791,0.344c0.264,0.101,0.461,0.299,0.592,0.598
			c0.1,0.464,0.018,0.828-0.246,1.092c-0.329,0.232-0.486,0.482-0.469,0.747c0.017,0.264-0.009,0.562-0.076,0.892
			c-0.129,0.234-0.295,0.299-0.492,0.199c-0.1-0.031-0.198-0.131-0.297-0.298c-0.098-0.264-0.108-0.512-0.025-0.743
			c0.084-0.233,0.189-0.449,0.32-0.647c0.068-0.165,0.158-0.305,0.273-0.421c0.114-0.117,0.139-0.257,0.072-0.423
			c0-0.298-0.132-0.454-0.395-0.472c-0.266-0.016-0.479-0.075-0.643-0.174c-0.195-0.199-0.363-0.314-0.496-0.35
			c-0.229,0-0.443,0.135-0.641,0.398c-0.067,0.299-0.033,0.514,0.098,0.646c0.198,0.199,0.395,0.266,0.594,0.199
			c0.101-0.067,0.215-0.083,0.347-0.051c0.032-0.032,0.065-0.032,0.1,0c0.031,0.035,0.05,0.035,0.05,0
			c0.131,0.065,0.196,0.135,0.196,0.199c0.164,0.231,0.155,0.446-0.022,0.645c-0.183,0.199-0.273,0.432-0.273,0.696
			c-0.197,0.296-0.494,0.449-0.889,0.449c-1.582-0.498-3.188-0.672-4.818-0.524c-1.631,0.15-3.17,0.557-4.62,1.219
			c-1.219,0.562-2.315,1.391-3.285,2.484c-0.973,1.091-1.674,2.268-2.102,3.524c-0.396,0.827-0.666,1.715-0.814,2.659
			c-0.148,0.943-0.182,1.903-0.1,2.881c0.082,0.977,0.279,1.91,0.594,2.807c0.311,0.893,0.766,1.703,1.357,2.434
			c0.627,0.826,1.366,1.522,2.225,2.086c0.854,0.562,1.763,0.943,2.72,1.143c0.195,0.098,0.409,0.146,0.642,0.146
			c0.196,0,0.36,0.085,0.493,0.25l0.248,0.349c0.063,0.1,0.099,0.23,0.099,0.397c0,0.166,0.033,0.3,0.099,0.396v-0.098
			c0,0.131,0.032,0.23,0.102,0.297c-0.035,0.031-0.035,0.066,0,0.101c0.031,0.032,0.015,0.065-0.053,0.098
			c0,0,0.032,0.036,0.102,0.099c0.031,0.104,0.062,0.201,0.098,0.301c0.033,0.1,0.066,0.18,0.1,0.246
			c0.1,0.268,0.257,0.488,0.47,0.672c0.213,0.183,0.354,0.406,0.418,0.672c0.002,0.199-0.047,0.314-0.146,0.348
			c-0.265,0.133-0.494,0.182-0.691,0.15c-0.561-0.068-1.129-0.141-1.705-0.227c-0.577-0.082-1.145-0.175-1.705-0.271
			c-0.297-0.068-0.561-0.184-0.791-0.348c-0.13-0.168-0.204-0.351-0.221-0.549c-0.018-0.197-0.025-0.381-0.025-0.545
			c0.032-0.065,0.025-0.121-0.025-0.175c-0.049-0.051-0.041-0.09,0.025-0.123c-0.033-0.166-0.049-0.331-0.048-0.498
			c-0.001-0.166-0.034-0.331-0.103-0.495c-0.063-0.166-0.195-0.248-0.394-0.248c-0.065,0.031-0.125,0.057-0.174,0.072
			s-0.106,0.061-0.174,0.126c-0.065,0.166-0.083,0.347-0.048,0.545c0.031,0.199,0.049,0.382,0.049,0.548
			c0,0.198,0.043,0.391,0.124,0.57c0.081,0.184,0.04,0.354-0.124,0.521c-0.1,0.066-0.198,0.102-0.297,0.102
			s-0.197,0.016-0.295,0.049c-0.068-0.033-0.142-0.042-0.224-0.023c-0.084,0.018-0.157-0.01-0.225-0.075
			c-0.262-0.066-0.412-0.115-0.443-0.151c-0.33-0.197-0.543-0.461-0.643-0.792c-0.033-0.462-0.016-0.918,0.049-1.366
			c0.066-0.447,0.148-0.885,0.248-1.316h0.049c0-0.1,0.025-0.189,0.074-0.271c0.049-0.084,0.041-0.175-0.025-0.272
			c-0.064-0.099-0.146-0.181-0.246-0.248c-0.1-0.067-0.189-0.067-0.271,0c-0.082,0.067-0.156,0.131-0.223,0.196
			c-0.133,0.267-0.215,0.557-0.246,0.869c-0.033,0.313-0.082,0.621-0.148,0.92c-0.033,0.199-0.043,0.431-0.025,0.695
			c0.018,0.266-0.025,0.516-0.125,0.745c-0.064,0.197-0.262,0.296-0.592,0.296c-0.197-0.064-0.395-0.121-0.594-0.172
			c-0.197-0.05-0.379-0.139-0.543-0.271c-0.066-0.1-0.148-0.19-0.246-0.274c-0.1-0.083-0.133-0.207-0.1-0.373
			c0.033-0.728,0.141-1.405,0.322-2.035c0.18-0.631,0.402-1.274,0.666-1.938c0-0.133,0.051-0.242,0.148-0.322
			c0.1-0.083,0.113-0.207,0.049-0.371c-0.064-0.201-0.182-0.301-0.346-0.301c-0.131,0-0.213,0.034-0.246,0.1
			c-0.33,0.663-0.609,1.349-0.842,2.062c-0.23,0.71-0.361,1.449-0.393,2.208c-0.066,0.066-0.092,0.134-0.074,0.201
			c0.014,0.064-0.01,0.115-0.076,0.146c0,0.102-0.066,0.182-0.197,0.248c-0.23,0.1-0.43,0.084-0.594-0.051
			c-0.164-0.131-0.361-0.229-0.592-0.297c-0.1-0.099-0.197-0.215-0.297-0.349c-0.1-0.133-0.133-0.278-0.1-0.446
			c0.033-0.463,0.107-0.927,0.223-1.391c0.115-0.462,0.24-0.927,0.371-1.392c0.197-0.596,0.453-1.167,0.768-1.713
			c0.311-0.546,0.6-1.103,0.863-1.663c0.164-0.167,0.23-0.349,0.197-0.548c-0.066-0.165-0.182-0.248-0.346-0.248
			c-0.066,0-0.164,0.034-0.297,0.1c-1.119,1.59-1.877,3.41-2.271,5.464c-0.066,0.165-0.1,0.364-0.1,0.596
			c0,0.199-0.082,0.381-0.246,0.547c-0.1-0.101-0.15-0.066-0.15,0.1c-0.262,0.066-0.512,0.018-0.742-0.15
			c-0.229-0.164-0.459-0.312-0.689-0.445c-0.199-0.198-0.297-0.461-0.297-0.793c0.064-0.298,0.148-0.589,0.246-0.87
			c0.098-0.281,0.182-0.57,0.248-0.869c0.066-0.133,0.098-0.231,0.098-0.299c0.23-0.629,0.486-1.223,0.766-1.787
			c0.281-0.562,0.604-1.126,0.965-1.688c0.264-0.464,0.576-0.887,0.939-1.268c0.361-0.382,0.691-0.787,0.988-1.217
			c0.098-0.168,0.082-0.316-0.051-0.448c-0.131-0.067-0.264-0.1-0.395-0.1c-0.164,0.135-0.312,0.274-0.445,0.423
			c-0.131,0.149-0.279,0.305-0.443,0.472c-0.857,1.027-1.557,2.096-2.102,3.204c-0.543,1.108-0.98,2.275-1.309,3.502
			c-0.066,0.066-0.115,0.141-0.148,0.225c-0.033,0.081-0.098,0.156-0.197,0.223c-0.199,0.067-0.346,0.067-0.445,0
			c-0.197-0.1-0.387-0.209-0.568-0.323c-0.182-0.116-0.354-0.259-0.518-0.423c-0.133-0.23-0.199-0.496-0.199-0.795
			c0.461-1.787,1.219-3.475,2.273-5.064c1.055-1.591,2.322-2.963,3.805-4.123c0.133-0.101,0.289-0.191,0.469-0.273
			c0.184-0.082,0.24-0.24,0.174-0.473c-0.033-0.067-0.115-0.166-0.246-0.299c-0.133-0.033-0.23-0.015-0.297,0.05
			c-0.066,0.067-0.133,0.132-0.197,0.199c-1.385,0.927-2.588,2.087-3.607,3.477c-0.955,1.226-1.713,2.568-2.273,4.024
			c-0.166,0.264-0.281,0.547-0.346,0.844c-0.066,0.299-0.213,0.58-0.445,0.846v-0.049c-0.098,0-0.148,0.031-0.148,0.1
			c-0.395,0.031-0.684-0.117-0.865-0.447c-0.182-0.334-0.402-0.631-0.666-0.895c-0.23-0.398-0.23-0.829,0-1.293
			c0.855-1.424,1.77-2.799,2.742-4.123c0.973-1.323,2.117-2.501,3.434-3.527c0.527-0.462,1.08-0.852,1.656-1.166
			c0.576-0.314,1.145-0.655,1.705-1.02c0.098-0.164,0.131-0.28,0.098-0.348c-0.131-0.33-0.305-0.412-0.518-0.248
			c-0.215,0.166-0.404,0.248-0.568,0.248c-0.957,0.465-1.861,1.045-2.717,1.74c-0.859,0.694-1.656,1.456-2.398,2.283
			c-0.742,0.828-1.434,1.699-2.076,2.607c-0.641,0.911-1.242,1.814-1.803,2.709c-0.23,0.164-0.461,0.232-0.691,0.199
			c-0.133-0.035-0.215-0.117-0.246-0.252c-0.035-0.131-0.084-0.23-0.15-0.295c-0.131-0.298-0.271-0.597-0.418-0.895
			c-0.148-0.299-0.141-0.631,0.023-0.994c0.264-0.465,0.527-0.91,0.791-1.342c0.264-0.43,0.559-0.875,0.889-1.34
			c1.154-1.723,2.553-3.171,4.201-4.348c1.646-1.175,3.426-2.027,5.336-2.557c0.133-0.067,0.248-0.092,0.346-0.075
			c0.1,0.018,0.215-0.009,0.346-0.073c0.066,0.031,0.133,0.024,0.199-0.025c0.064-0.05,0.131-0.107,0.197-0.174
			c0.1-0.1,0.115-0.232,0.049-0.397c-0.033-0.066-0.082-0.116-0.146-0.147c-0.066-0.034-0.133-0.052-0.199-0.052
			c-0.594,0.102-1.162,0.241-1.705,0.424c-0.543,0.182-1.094,0.373-1.654,0.571c-1.779,0.728-3.377,1.779-4.795,3.153
			c-1.416,1.375-2.65,2.873-3.705,4.497c-0.033,0.066-0.082,0.089-0.148,0.074c-0.066-0.017-0.115,0.007-0.148,0.073
			c-0.231-0.066-0.362-0.133-0.395-0.197c-0.131-0.463-0.215-0.953-0.248-1.466c-0.032-0.515-0.064-1.003-0.098-1.465
			c0.098-0.067,0.115-0.134,0.049-0.202c0-0.064,0.025-0.121,0.073-0.173c0.05-0.048,0.093-0.105,0.124-0.172
			c0.956-0.994,1.936-1.913,2.94-2.759c1.004-0.842,2.084-1.613,3.238-2.309c0.264-0.166,0.543-0.322,0.84-0.473
			c0.297-0.146,0.609-0.288,0.939-0.422c0.229-0.133,0.469-0.24,0.715-0.323c0.248-0.083,0.502-0.156,0.766-0.224
			c0.068-0.033,0.109-0.064,0.125-0.098c0.016-0.034,0.057-0.034,0.123,0c0.166-0.066,0.314-0.109,0.445-0.126
			c0.131-0.016,0.279-0.058,0.445-0.124c0.658-0.13,1.283-0.256,1.877-0.371c0.594-0.117,1.219-0.142,1.877-0.074
			c0.068-0.067,0.125-0.117,0.172-0.149c0.051-0.032,0.076-0.084,0.076-0.148c0.033-0.133,0.018-0.232-0.049-0.299
			c-0.067-0.067-0.131-0.132-0.199-0.198c-0.361-0.067-0.684-0.182-0.965-0.349c-0.279-0.166-0.566-0.331-0.863-0.497
			c-0.461-0.295-0.873-0.619-1.234-0.967c-0.363-0.348-0.66-0.754-0.891-1.217c-0.066-0.231-0.016-0.397,0.148-0.497
			c0.561-0.099,1.111-0.165,1.654-0.199c0.545-0.033,1.098-0.067,1.658-0.099c0.459,0,0.93,0.017,1.408,0.05
			c0.477,0.033,0.945,0.049,1.406,0.049c0.133,0.066,0.281,0.1,0.445,0.1c0.131-0.133,0.199-0.25,0.199-0.349
			c0-0.198-0.082-0.331-0.248-0.397c-0.363-0.064-0.732-0.107-1.111-0.121c-0.379-0.02-0.75-0.045-1.111-0.078
			c-0.76,0-1.525,0.018-2.301,0.05c-0.771,0.035-1.539,0.102-2.297,0.199c-1.15,0.167-2.271,0.355-3.359,0.571
			c-1.088,0.216-2.191,0.455-3.311,0.721c-0.232,0-0.379-0.132-0.445-0.397c0.066-0.198,0.148-0.332,0.246-0.397
			c0.363-0.497,0.727-0.952,1.088-1.365c0.363-0.415,0.758-0.853,1.188-1.317c0.164-0.1,0.312-0.199,0.443-0.298
			c0.133-0.1,0.281-0.149,0.445-0.149c0.066,0,0.139-0.008,0.223-0.024c0.082-0.018,0.172-0.025,0.271-0.025
			c0.066-0.065,0.123-0.075,0.172-0.025c0.051,0.051,0.107,0.043,0.174-0.024c0.264,0.032,0.51,0.032,0.74,0
			C24.432,13.679,24.664,13.663,24.895,13.663L24.895,13.663z M38.482,17.24c-0.066,0.065-0.092,0.167-0.073,0.298
			c0.015,0.132,0.057,0.249,0.123,0.348c0.198,0.331,0.477,0.547,0.84,0.646c0.364,0.099,0.726,0.183,1.088,0.247
			c0.131,0.068,0.265,0.134,0.394,0.201c0.135,0.065,0.283,0.047,0.446-0.05c-0.03-0.032-0.03-0.059,0-0.075
			c0.033-0.016,0.048-0.042,0.048-0.076c0.067-0.064,0.067-0.182,0-0.346c-0.031,0-0.048,0-0.048,0c0-0.032-0.016-0.05-0.049-0.05
			c-0.067-0.596-0.379-0.977-0.938-1.142c-0.199-0.133-0.43-0.2-0.692-0.2s-0.526,0.018-0.79,0.049L38.482,17.24L38.482,17.24z
			 M20.545,18.333c-0.395,0.132-0.791,0.239-1.186,0.323c-0.396,0.083-0.775,0.19-1.137,0.323c-0.064,0.099-0.148,0.181-0.248,0.249
			c-0.098,0.064-0.146,0.164-0.146,0.297c-0.197,0.332-0.363,0.663-0.494,0.994c-0.133,0.33-0.281,0.68-0.445,1.043
			c0.066,0.164,0.082,0.281,0.049,0.348c0.166,0.232,0.363,0.348,0.594,0.348c0.197-0.066,0.387-0.166,0.568-0.299
			c0.18-0.133,0.369-0.232,0.568-0.299c1.119-0.562,2.264-1.066,3.434-1.514s2.363-0.769,3.582-0.97
			c0.1-0.032,0.215-0.15,0.348-0.346c0.066-0.266,0.008-0.473-0.174-0.622s-0.305-0.34-0.369-0.572
			c-0.133-0.131-0.266-0.191-0.396-0.173c-0.133,0.017-0.281,0.024-0.445,0.024C23.295,17.688,21.93,17.968,20.545,18.333
			L20.545,18.333z M41.251,18.084v0.048V18.084L41.251,18.084z M23.115,20.418c-1.152,0.366-2.289,0.82-3.412,1.368
			c-1.117,0.546-2.205,1.149-3.259,1.811c-0.198,0.231-0.313,0.497-0.347,0.796c-0.031,0.298-0.082,0.596-0.148,0.895
			c-0.032,0.264-0.058,0.546-0.074,0.845c-0.017,0.297-0.023,0.594-0.023,0.893c0.197,0.199,0.379,0.299,0.542,0.299l0.248-0.1
			c1.648-1.457,3.377-2.757,5.189-3.9c1.811-1.141,3.773-1.911,5.881-2.309c0.098-0.066,0.18-0.199,0.246-0.397
			c0-0.199-0.082-0.323-0.246-0.372c-0.166-0.049-0.281-0.141-0.346-0.275c-0.166-0.163-0.346-0.271-0.545-0.32
			c-0.197-0.051-0.377-0.059-0.543-0.023c-0.561,0.098-1.102,0.205-1.631,0.32C24.119,20.063,23.609,20.222,23.115,20.418
			L23.115,20.418z M47.479,21.562h-0.052l0.003,0.098h0.049V21.562L47.479,21.562z M33.395,27.72c1.084-1.258,2.33-2.235,3.729-2.93
			c1.399-0.696,2.908-1.127,4.522-1.293c0.196,0,0.377,0.075,0.541,0.225c0.164,0.148,0.299,0.306,0.396,0.472
			c0.2,0.101,0.338,0.058,0.422-0.124c0.082-0.182,0.206-0.307,0.371-0.373c0.065-0.066,0.147-0.082,0.246-0.05
			c0.099,0.034,0.196,0.067,0.297,0.099c0.229,0.168,0.32,0.373,0.271,0.623c-0.047,0.247-0.073,0.471-0.073,0.67
			c-0.065,0.065-0.091,0.141-0.074,0.225c0.019,0.082-0.008,0.156-0.074,0.222c0,0.165,0.017,0.282,0.052,0.349
			c-0.066,0.064-0.066,0.1,0,0.1c0.064,0,0.112,0.032,0.147,0.1c0.032,0,0.074,0.008,0.121,0.024
			c0.051,0.016,0.108,0.009,0.176-0.024c0.328-0.266,0.601-0.572,0.813-0.92c0.215-0.348,0.42-0.703,0.617-1.068
			c0.066-0.066,0.123-0.123,0.172-0.174c0.053-0.05,0.106-0.107,0.174-0.174c0.066-0.033,0.141-0.04,0.224-0.025
			c0.082,0.018,0.157,0.025,0.224,0.025c0.264,0.066,0.395,0.217,0.395,0.447c0,0.299-0.059,0.589-0.173,0.87
			c-0.115,0.281-0.204,0.554-0.271,0.819c0.131,1.425,0.221,2.871,0.271,4.344c0.05,1.475,0.073,2.957,0.073,4.447
			c0.035,0.165,0.008,0.324-0.073,0.473s-0.188,0.256-0.321,0.323c-0.164,0.132-0.377,0.165-0.643,0.099
			c-0.23,0-0.461-0.018-0.69-0.049c-0.231-0.033-0.429,0.049-0.594,0.246c-0.132,0.166-0.147,0.308-0.05,0.424
			c0.099,0.115,0.115,0.256,0.05,0.424c0,0.197-0.132,0.362-0.396,0.494c-0.099,0.035-0.215,0.042-0.347,0.025
			c-0.132-0.016-0.229-0.074-0.297-0.172c-0.361-0.068-0.708-0.102-1.039-0.102c-0.36,0-0.706,0.067-1.037,0.199
			c-0.396,0.133-0.772,0.33-1.135,0.596c-0.363,0.266-0.611,0.629-0.744,1.094c-0.062,0.164-0.09,0.355-0.072,0.571
			c0.017,0.214,0.107,0.388,0.273,0.521c0.164,0.2,0.427,0.331,0.79,0.396c0.525,0,0.888-0.231,1.085-0.694
			c0-0.067,0.024-0.142,0.075-0.224c0.049-0.081,0.024-0.157-0.075-0.224c-0.163-0.333-0.132-0.629,0.101-0.894
			c0.163-0.167,0.346-0.265,0.545-0.3c0.194-0.032,0.396-0.032,0.592,0c0.23-0.1,0.428-0.116,0.594-0.049
			c0.197,0.066,0.328,0.199,0.395,0.398c0.066,0.297-0.008,0.504-0.223,0.62c-0.213,0.116-0.402,0.257-0.566,0.423
			c-0.133,0.164-0.166,0.381-0.099,0.646c0.296,0.197,0.524,0.479,0.69,0.842c0.264,0.432,0.379,0.902,0.346,1.417
			c-0.032,0.515-0.215,0.969-0.543,1.365c-0.064,0-0.09,0.01-0.076,0.024c0.018,0.019,0.012,0.043-0.023,0.073
			c-0.263,0.199-0.541,0.357-0.839,0.472c-0.299,0.116-0.61,0.144-0.94,0.076c-0.592-0.199-1.185-0.349-1.777-0.446
			c-0.593-0.102-1.186-0.216-1.777-0.349c-0.594-0.134-1.162-0.306-1.705-0.521c-0.545-0.215-1.064-0.522-1.558-0.919
			c-1.252-0.959-2.206-2.119-2.866-3.478c-0.658-1.356-0.938-2.831-0.84-4.42c-0.066-1.192,0.131-2.31,0.594-3.354
			C32.225,29.632,32.768,28.647,33.395,27.72L33.395,27.72z M45.943,23.847c0,0.031,0.019,0.049,0.052,0.049l0,0
			c0-0.067,0-0.1,0-0.1C45.962,23.797,45.943,23.814,45.943,23.847L45.943,23.847L45.943,23.847z M44.312,26.826
			c-0.031,0.035-0.08,0.053-0.146,0.053c-0.101,0-0.185,0.033-0.248,0.097c-0.362,0.067-0.7,0.116-1.012,0.149
			c-0.315,0.034-0.651,0.049-1.015,0.049c-0.065,0-0.117,0.019-0.149,0.051c-0.032,0.034-0.081,0.034-0.149,0
			c0.001,0.034-0.014,0.049-0.048,0.049c-0.032,0-0.047-0.015-0.047-0.049c-0.463,0.1-0.81,0.364-1.039,0.795
			c-0.229,0.43-0.494,0.827-0.791,1.189c-0.922,1.293-2.076,2.27-3.459,2.933c-0.594,0.432-0.842,1.01-0.743,1.737
			c0,0.234,0.068,0.434,0.198,0.598c0.134,0.164,0.272,0.323,0.42,0.473c0.149,0.148,0.297,0.307,0.446,0.472
			c0.148,0.165,0.236,0.348,0.271,0.546c0.131,0.264,0.139,0.494,0.023,0.697c-0.114,0.195-0.157,0.43-0.124,0.693
			c-0.032,0.231,0.026,0.439,0.173,0.621c0.148,0.181,0.307,0.338,0.473,0.472c0.131,0.033,0.312,0.017,0.541-0.05
			c0.198-0.066,0.346-0.174,0.446-0.322c0.099-0.149,0.172-0.299,0.222-0.445c0.049-0.149,0.101-0.308,0.148-0.475
			c0.049-0.165,0.137-0.315,0.27-0.445c0.463-0.763,1.064-1.342,1.805-1.74c0.742-0.396,1.541-0.596,2.398-0.596
			c0.822,0.199,1.613,0.23,2.37,0.1l0.001-0.049v-0.051c0.066,0.067,0.1,0.082,0.1,0.051c0.197-0.2,0.295-0.414,0.295-0.645
			c0-0.365-0.017-0.713-0.049-1.047c-0.03-0.33-0.03-0.644,0-0.941c-0.065-0.035-0.082-0.059-0.049-0.074
			c0.033-0.016,0.049-0.06,0.049-0.125c-0.03-0.032-0.041-0.074-0.024-0.123c0.019-0.051,0.024-0.091,0.024-0.125
			c-0.065-0.363-0.1-0.695-0.1-0.994c0-0.332-0.016-0.677-0.049-1.043c0,0,0-0.049,0-0.148c-0.1-0.231-0.278-0.348-0.543-0.348
			c-0.23,0.032-0.379,0.131-0.445,0.299c-0.066,0.164-0.148,0.312-0.247,0.447c-0.163,0.229-0.237,0.504-0.224,0.817
			c0.018,0.315-0.139,0.522-0.469,0.621c-0.361,0.034-0.633-0.106-0.814-0.423c-0.182-0.312-0.422-0.504-0.717-0.57
			c-0.064,0-0.141-0.016-0.223-0.051c-0.082-0.031-0.156-0.064-0.223-0.099c-0.031,0-0.066,0.017-0.101,0.051
			c-0.032,0.032-0.063,0.017-0.097-0.051h-0.053c-0.064-0.067-0.146-0.116-0.247-0.148c-0.097-0.031-0.181-0.1-0.245-0.198
			c-0.033-0.166-0.05-0.313-0.05-0.447c0-0.132,0.065-0.248,0.198-0.348c0.525-0.332,1.094-0.529,1.705-0.596
			c0.609-0.067,1.211-0.133,1.803-0.199c0.1-0.034,0.182-0.066,0.248-0.1c0.064-0.032,0.13-0.066,0.197-0.1
			c0.066,0.033,0.107,0.025,0.121-0.023c0.018-0.051,0.061-0.092,0.127-0.125c-0.032-0.067-0.018-0.107,0.048-0.123
			c0.067-0.017,0.082-0.059,0.049-0.125c0.067-0.033,0.101-0.1,0.101-0.199s-0.016-0.183-0.052-0.246
			c-0.098-0.167-0.229-0.234-0.394-0.2c-0.164,0.033-0.329,0.05-0.496,0.048c-0.062,0.067-0.129,0.093-0.196,0.074
			C44.445,26.786,44.38,26.793,44.312,26.826L44.312,26.826z M24.104,39.693h-0.049H24.104L24.104,39.693z M21.039,41.38h0.049v-0.1
			C21.057,41.281,21.039,41.314,21.039,41.38L21.039,41.38z M39.471,46.445c0.102,0,0.116-0.029,0.051-0.098
			c0,0.031,0,0.051,0,0.051C39.488,46.398,39.471,46.416,39.471,46.445L39.471,46.445z"/>
	</g>
</g>
</svg>
