<?xml version="1.0" encoding="utf-8"?>
<!-- Generator: Adobe Illustrator 15.0.0, SVG Export Plug-In . SVG Version: 6.00 Build 0)  -->
<!DOCTYPE svg PUBLIC "-//W3C//DTD SVG 1.1//EN" "http://www.w3.org/Graphics/SVG/1.1/DTD/svg11.dtd">
<svg version="1.1" id="Layer_1" xmlns="http://www.w3.org/2000/svg" xmlns:xlink="http://www.w3.org/1999/xlink" x="0px" y="0px"
	 width="65px" height="65px" viewBox="0 10 65 65" enable-background="new 0 10 65 65" xml:space="preserve">
<g>
	<path fill="#FFFFFF" d="M32.692,12.252c0.185-0.197,0.484-0.129,0.724-0.133c0.64,0.049,1.27,0.197,1.906,0.237
		c0.58,0.037,1.156,0.085,1.736,0.132c0.526,0.071,1.038,0.246,1.57,0.304c0.318,0.043,0.712,0.115,0.855,0.45
		c0.008,0.423-0.201,0.815-0.254,1.231c-0.121,0.56-0.177,1.195-0.578,1.636c-0.688,0.191-1.393-0.159-2.088-0.038
		c-0.317,0.157-0.332,0.66-0.065,0.874c0.288,0.25,0.685,0.292,1.045,0.354c0.465,0.061,0.921,0.166,1.367,0.31
		c0.198,0.053,0.462,0.146,0.622-0.041c0.207-0.252,0.312-0.569,0.406-0.877c0.205-0.772,0.453-1.533,0.657-2.304
		c0.12-0.322,0.171-0.727,0.476-0.934c0.447,0.033,0.871,0.201,1.289,0.354c1.156,0.411,2.287,0.899,3.41,1.396
		c0.268,0.124,0.575,0.269,0.686,0.566c0.051,0.282-0.118,0.538-0.235,0.779c-0.37,0.654-0.665,1.355-1.12,1.958
		c-0.49,0.094-0.892-0.223-1.316-0.393c-0.242-0.057-0.566-0.101-0.738,0.125c-0.211,0.193-0.223,0.573,0.031,0.736
		c0.46,0.352,1.021,0.534,1.516,0.833c0.282,0.177,0.727,0.301,0.951-0.029c0.764-1.052,1.241-2.294,2.045-3.321
		c0.258-0.016,0.536-0.013,0.753,0.153c1.234,0.808,2.437,1.666,3.585,2.597c0.178,0.161,0.406,0.369,0.358,0.635
		c-0.083,0.317-0.324,0.553-0.532,0.793c-0.311,0.342-0.607,0.695-0.91,1.045c-0.181,0.185-0.355,0.4-0.604,0.492
		c-0.633-0.206-1.01-0.849-1.637-1.059c-0.404,0.048-0.688,0.614-0.412,0.955c0.281,0.344,0.66,0.588,0.986,0.884
		c0.311,0.254,0.588,0.561,0.944,0.751c0.288,0.126,0.532-0.127,0.729-0.306c0.578-0.587,1.142-1.189,1.715-1.783
		c0.258-0.252,0.486-0.547,0.801-0.733c0.291-0.123,0.529,0.131,0.714,0.318c1.128,1.213,2.178,2.5,3.171,3.829
		c0.218,0.314,0.516,0.619,0.566,1.013c-0.095,0.248-0.358,0.384-0.566,0.531c-0.534,0.331-1.042,0.698-1.577,1.021
		c-0.222,0.141-0.543,0.214-0.756,0.023c-0.472-0.405-0.688-1.036-1.181-1.418c-0.349-0.186-0.879,0.161-0.789,0.569
		c0.013,0.184,0.134,0.331,0.227,0.482c0.314,0.47,0.646,0.93,0.95,1.406c0.181,0.273,0.354,0.563,0.623,0.76
		c0.182,0.073,0.379-0.006,0.543-0.09c0.903-0.493,1.785-1.032,2.681-1.546c0.215-0.109,0.446-0.268,0.701-0.208
		c0.2,0.058,0.325,0.237,0.425,0.41c0.777,1.56,1.49,3.148,2.073,4.792c0.102,0.302,0.28,0.599,0.24,0.929
		c0.014,0.203-0.204,0.281-0.354,0.353c-0.751,0.297-1.546,0.463-2.31,0.715c-0.28,0.13-0.503-0.121-0.629-0.338
		c-0.286-0.517-0.3-1.198-0.782-1.594c-0.244-0.181-0.535,0.003-0.74,0.157c-0.1,0.645,0.227,1.224,0.396,1.826
		c0.123,0.397,0.199,0.832,0.466,1.166c0.151,0.19,0.422,0.211,0.649,0.181c0.701-0.097,1.367-0.363,2.065-0.484
		c0.519-0.095,1.011-0.397,1.549-0.303c0.244,0.16,0.291,0.491,0.376,0.751c0.268,0.902,0.243,1.855,0.467,2.768
		c0.135,0.542,0.139,1.104,0.185,1.657c0.009,0.317,0,0.774-0.396,0.838c-0.738,0.072-1.483,0.087-2.224,0.095
		c-0.28,0.007-0.625-0.056-0.751-0.345c-0.245-0.445-0.091-0.995-0.348-1.435c-0.116-0.282-0.512-0.231-0.704-0.063
		c-0.493,0.354-0.24,1.019-0.158,1.508c0.095,0.39-0.021,0.828,0.194,1.185c0.06,0.126,0.187,0.21,0.322,0.219
		c0.424,0.049,0.854,0.009,1.283,0.03c0.729,0.056,1.463,0.007,2.193,0.035c0.166,0.005,0.343,0.035,0.488,0.129
		c0.16,0.304,0.106,0.656,0.11,0.987c0.001,0.464-0.034,0.927-0.061,1.389c-0.005,0.628-0.222,1.229-0.271,1.854
		c-0.056,0.369-0.043,0.754-0.161,1.109c-0.072,0.249-0.361,0.327-0.592,0.327c-0.738-0.024-1.443-0.272-2.162-0.414
		c-0.236-0.044-0.496-0.169-0.539-0.438c-0.076-0.601,0.264-1.25-0.029-1.822c-0.237-0.273-0.752-0.213-0.922,0.118
		c-0.153,0.308-0.145,0.665-0.196,1c-0.052,0.593-0.341,1.147-0.269,1.755c0.778,0.502,1.741,0.506,2.601,0.799
		c0.555,0.205,1.231,0.146,1.655,0.627c0.008,0.47-0.213,0.896-0.334,1.336c-0.453,1.291-0.901,2.586-1.449,3.84
		c-0.172,0.381-0.318,0.83-0.713,1.039c-0.51,0.029-0.926-0.344-1.377-0.535c-0.444-0.281-1.035-0.42-1.312-0.898
		c-0.13-0.589,0.327-1.089,0.524-1.613c0.07-0.199,0.192-0.454,0.029-0.642c-0.183-0.252-0.516-0.335-0.8-0.225
		c-0.396,0.495-0.596,1.11-0.889,1.668c-0.177,0.377-0.418,0.733-0.501,1.146c-0.047,0.318,0.206,0.558,0.462,0.699
		c0.789,0.459,1.578,0.914,2.366,1.373c0.291,0.166,0.611,0.361,0.716,0.705c-0.043,0.33-0.275,0.604-0.447,0.877
		c-0.948,1.42-1.967,2.795-3.08,4.086c-0.172,0.174-0.373,0.404-0.641,0.367c-0.386-0.132-0.642-0.469-0.929-0.736
		c-0.366-0.369-0.772-0.694-1.109-1.09c-0.18-0.18-0.169-0.494-0.021-0.688c0.301-0.426,0.717-0.763,0.979-1.22
		c0.284-0.438-0.379-0.965-0.775-0.691c-0.309,0.201-0.522,0.508-0.769,0.775c-0.336,0.396-0.723,0.748-1.049,1.152
		c-0.162,0.191-0.166,0.504-0.016,0.705c0.163,0.237,0.373,0.438,0.574,0.643c0.465,0.459,0.891,0.953,1.354,1.412
		c0.213,0.223,0.443,0.434,0.612,0.69c0.058,0.109,0.151,0.246,0.069,0.367c-0.225,0.367-0.594,0.612-0.902,0.896
		c-0.56,0.508-1.176,0.938-1.759,1.414c-0.438,0.354-0.903,0.67-1.362,0.992c-0.201,0.135-0.473,0.282-0.705,0.129
		c-0.427-0.261-0.604-0.767-0.879-1.164c-0.244-0.445-0.606-0.836-0.726-1.338c0.174-0.604,0.962-0.697,1.218-1.254
		c0.193-0.371-0.214-0.88-0.621-0.732c-0.468,0.184-0.853,0.521-1.271,0.789c-0.25,0.186-0.562,0.334-0.7,0.633
		c-0.048,0.293,0.142,0.557,0.269,0.81c0.436,0.735,0.834,1.492,1.278,2.226c0.146,0.269,0.347,0.55,0.295,0.871
		c-0.082,0.192-0.258,0.319-0.435,0.414c-1.081,0.574-2.192,1.093-3.331,1.549c-0.457,0.175-0.916,0.482-1.429,0.367
		c-0.136-0.119-0.201-0.293-0.272-0.453c-0.218-0.536-0.366-1.096-0.571-1.639c-0.105-0.287-0.205-0.613-0.098-0.912
		c0.349-0.388,0.896-0.459,1.34-0.691c0.479-0.192,0.343-1.084-0.188-1.102c-0.429,0.07-0.814,0.281-1.228,0.414
		c-0.426,0.176-0.887,0.278-1.285,0.512c-0.192,0.109-0.129,0.359-0.12,0.543c0.084,0.412,0.213,0.817,0.322,1.224
		c0.207,0.615,0.333,1.254,0.553,1.864c0.101,0.277,0.18,0.654-0.099,0.857c-0.444,0.32-1.033,0.246-1.534,0.418
		c-0.773,0.264-1.602,0.234-2.393,0.43c-0.604,0.15-1.228,0.195-1.844,0.236c-0.283-0.006-0.648,0-0.812-0.271
		c-0.127-0.312-0.098-0.658-0.105-0.986c0.004-0.543-0.035-1.088-0.006-1.633c0-0.222,0.156-0.405,0.352-0.488
		c0.576-0.263,1.252-0.104,1.828-0.366c0.229-0.084,0.229-0.371,0.158-0.562c-0.097-0.15-0.226-0.273-0.354-0.396
		c-0.438-0.147-0.894,0.021-1.326,0.102c-0.521,0.104-1.062-0.01-1.579,0.118c-0.121,0.021-0.223,0.098-0.297,0.194
		c-0.123,0.197-0.185,0.432-0.183,0.664c-0.006,0.955,0.019,1.91,0,2.863c0.009,0.322-0.166,0.697-0.522,0.73
		c-0.592,0.068-1.193-0.01-1.787,0.014c-0.709-0.025-1.412-0.111-2.104-0.275c-0.855-0.201-1.861-0.022-2.566-0.66
		c-0.004-0.291,0.07-0.569,0.162-0.845c0.209-0.722,0.223-1.548,0.686-2.165c0.498-0.158,0.998,0.096,1.484,0.189
		c0.219,0.033,0.484,0.094,0.676-0.059c0.285-0.302,0.232-0.966-0.236-1.046c-0.747-0.132-1.471-0.375-2.225-0.473
		c-0.244-0.032-0.561-0.032-0.699,0.213c-0.326,0.537-0.377,1.188-0.59,1.771c-0.233,0.645-0.297,1.354-0.662,1.946
		c-0.158,0.257-0.514,0.177-0.752,0.101c-1.002-0.357-1.992-0.75-2.977-1.158c-0.629-0.27-1.281-0.516-1.836-0.93
		c-0.023-0.265,0.02-0.527,0.166-0.752c0.399-0.691,0.703-1.441,1.18-2.086c0.188,0,0.375-0.004,0.564,0.004
		c0.312,0.119,0.6,0.301,0.916,0.412c0.42,0.205,0.911-0.379,0.676-0.771c-0.16-0.287-0.498-0.39-0.769-0.538
		c-0.438-0.191-0.826-0.508-1.303-0.604c-0.326-0.061-0.559,0.223-0.709,0.47c-0.459,0.768-0.898,1.547-1.342,2.323
		c-0.183,0.299-0.344,0.689-0.709,0.791c-0.334-0.039-0.604-0.278-0.879-0.45c-1.12-0.738-2.199-1.533-3.246-2.368
		c-0.219-0.182-0.48-0.479-0.32-0.778c0.197-0.403,0.562-0.692,0.839-1.041c0.328-0.354,0.601-0.78,1.024-1.022
		c0.354-0.139,0.653,0.179,0.916,0.371c0.299,0.219,0.608,0.559,1.016,0.478c0.328-0.116,0.488-0.588,0.254-0.862
		c-0.285-0.363-0.682-0.617-1.025-0.926c-0.308-0.238-0.566-0.559-0.936-0.709c-0.312-0.076-0.566,0.18-0.773,0.375
		c-0.609,0.641-1.222,1.276-1.829,1.916c-0.195,0.197-0.395,0.4-0.644,0.529c-0.278,0.099-0.488-0.159-0.672-0.327
		C9.84,62.752,8.83,61.512,7.87,60.23c-0.242-0.344-0.546-0.662-0.661-1.075c0.156-0.427,0.601-0.622,0.947-0.87
		c0.412-0.264,0.812-0.546,1.238-0.791c0.209-0.123,0.508-0.168,0.703,0.008c0.471,0.405,0.693,1.027,1.179,1.42
		c0.376,0.221,0.851-0.165,0.782-0.581c-0.076-0.39-0.381-0.673-0.588-0.997c-0.348-0.47-0.604-1.006-1.004-1.438
		c-0.187-0.215-0.5-0.258-0.741-0.11c-0.962,0.515-1.89,1.088-2.839,1.624c-0.167,0.081-0.349,0.184-0.541,0.143
		c-0.396-0.201-0.546-0.645-0.73-1.019c-0.717-1.519-1.393-3.058-1.942-4.647c-0.056-0.17-0.083-0.355-0.051-0.533
		c0.306-0.432,0.881-0.457,1.338-0.619c0.507-0.141,1.014-0.404,1.551-0.324c0.336,0.047,0.451,0.403,0.552,0.677
		c0.144,0.448,0.292,0.91,0.602,1.277c0.297,0.042,0.609-0.052,0.733-0.349c0.123-0.58-0.215-1.105-0.353-1.646
		c-0.176-0.5-0.216-1.128-0.68-1.462c-0.463-0.088-0.89,0.17-1.338,0.238c-0.825,0.133-1.608,0.468-2.444,0.556
		c-0.186-0.01-0.437-0.02-0.501-0.23c-0.521-1.18-0.391-2.503-0.688-3.734c-0.087-0.498-0.161-1.005-0.137-1.511
		c0.003-0.331,0.306-0.572,0.614-0.604c0.75-0.05,1.504-0.115,2.256-0.082c0.233,0.008,0.434,0.175,0.539,0.37
		c0.209,0.438,0.05,0.955,0.252,1.388c0.129,0.307,0.514,0.221,0.772,0.18c0.185-0.109,0.31-0.297,0.281-0.52
		c-0.025-0.638-0.105-1.273-0.214-1.9c-0.043-0.246-0.249-0.441-0.501-0.427c-1.081-0.036-2.162-0.005-3.243-0.013
		c-0.204-0.019-0.435-0.019-0.604-0.146c-0.192-0.206-0.174-0.513-0.178-0.773c0.018-0.958,0.021-1.924,0.24-2.854
		c0.12-0.554,0.113-1.123,0.195-1.681c0.042-0.309,0.336-0.626,0.666-0.541c0.438,0.09,0.86,0.238,1.304,0.295
		c0.452,0.081,0.971,0.095,1.312,0.441c0.193,0.158,0.109,0.434,0.103,0.648c-0.044,0.414-0.269,0.864-0.051,1.262
		c0.252,0.23,0.69,0.256,0.938,0.008c0.213-0.345,0.146-0.776,0.242-1.16c0.067-0.514,0.365-1.022,0.217-1.545
		c-0.301-0.506-0.964-0.416-1.451-0.586c-0.777-0.269-1.605-0.352-2.375-0.654c-0.149-0.061-0.289-0.169-0.36-0.314
		c-0.004-0.36,0.155-0.69,0.243-1.03c0.41-1.291,0.865-2.567,1.403-3.81c0.183-0.405,0.32-0.84,0.596-1.193
		c0.152-0.243,0.489-0.167,0.703-0.062c0.621,0.322,1.249,0.634,1.86,0.981c0.228,0.119,0.435,0.347,0.389,0.624
		c-0.078,0.507-0.393,0.938-0.547,1.426c-0.069,0.277-0.051,0.646,0.236,0.794c0.178,0.055,0.426,0.103,0.561-0.06
		c0.301-0.326,0.455-0.75,0.644-1.146c0.19-0.442,0.434-0.863,0.631-1.304c0.07-0.246,0.097-0.567-0.113-0.756
		c-0.193-0.195-0.436-0.329-0.674-0.464c-0.643-0.354-1.266-0.746-1.904-1.105c-0.294-0.168-0.611-0.341-0.78-0.646
		c0.055-0.485,0.401-0.864,0.654-1.259c0.765-1.122,1.569-2.219,2.438-3.265c0.279-0.32,0.512-0.737,0.931-0.892
		c0.29-0.037,0.516,0.197,0.714,0.373c0.438,0.432,0.899,0.836,1.328,1.276c0.188,0.186,0.354,0.469,0.223,0.732
		c-0.272,0.557-0.839,0.912-1.083,1.487c-0.057,0.414,0.454,0.771,0.82,0.552c0.352-0.212,0.58-0.567,0.856-0.858
		c0.332-0.398,0.731-0.74,1.017-1.179c0.147-0.239,0.053-0.543-0.134-0.728c-0.754-0.847-1.579-1.625-2.336-2.471
		c-0.159-0.145-0.201-0.373-0.137-0.574c0.142-0.203,0.338-0.363,0.52-0.53c1.048-0.911,2.144-1.771,3.273-2.578
		c0.229-0.157,0.471-0.377,0.77-0.335c0.185,0.007,0.288,0.186,0.403,0.31c0.361,0.492,0.651,1.028,0.99,1.536
		c0.157,0.255,0.381,0.545,0.28,0.866c-0.248,0.453-0.789,0.611-1.11,0.997c-0.287,0.329,0.051,0.974,0.489,0.881
		c0.261-0.034,0.464-0.22,0.679-0.354c0.36-0.271,0.758-0.485,1.119-0.758c0.323-0.21,0.254-0.688,0.088-0.98
		c-0.5-0.859-0.994-1.722-1.488-2.586c-0.101-0.211-0.23-0.438-0.159-0.674c0.158-0.311,0.492-0.461,0.781-0.624
		c1.229-0.619,2.496-1.169,3.775-1.679c0.225-0.011,0.448-0.011,0.676-0.019c0.367,0.696,0.561,1.461,0.832,2.197
		c0.121,0.319,0.151,0.751-0.158,0.975c-0.402,0.27-0.918,0.336-1.291,0.656c-0.293,0.238-0.143,0.765,0.188,0.881
		c0.449,0.073,0.859-0.165,1.271-0.304c0.561-0.23,1.211-0.333,1.629-0.812c-0.342-1.19-0.67-2.386-1.039-3.569
		c-0.061-0.225-0.102-0.553,0.168-0.658c0.604-0.275,1.269-0.404,1.922-0.495c0.543-0.075,1.062-0.269,1.607-0.328
		c0.496-0.047,0.994-0.089,1.492-0.135c0.467-0.056,0.934-0.122,1.403-0.126c0.082,0.168,0.191,0.333,0.195,0.527
		c0.049,0.732,0.072,1.469,0.068,2.205c-0.015,0.232-0.052,0.517-0.263,0.655c-0.604,0.223-1.321-0.042-1.881,0.325
		c-0.244,0.14-0.256,0.443-0.19,0.688c0.303,0.411,0.866,0.309,1.311,0.299c0.596-0.024,1.195-0.01,1.785-0.115
		c0.4-0.071,0.635-0.489,0.633-0.876c0.014-0.897-0.004-1.794,0-2.693C32.52,12.903,32.586,12.569,32.692,12.252L32.692,12.252z
		 M34.209,13.372c-0.21,0.087-0.275,0.351-0.307,0.556c-0.034,0.497-0.021,0.998-0.043,1.499c-0.155,0.671-0.024,1.392-0.256,2.052
		c-0.09,0.236-0.322,0.388-0.566,0.413c-0.979,0.097-1.966,0.107-2.937,0.24c-0.51,0.034-1.02,0.038-1.524,0.109
		c-0.275,0.029-0.673,0-0.742-0.337c-0.238-0.929-0.521-1.879-0.443-2.851c0.17-0.092,0.348-0.17,0.539-0.196
		c0.486-0.074,0.971-0.174,1.441-0.323c0.182-0.061,0.424-0.169,0.401-0.401c0.043-0.22-0.063-0.434-0.276-0.505
		c-0.021-0.021-0.062-0.063-0.084-0.086c-0.357-0.094-0.738-0.003-1.091,0.086c-0.719,0.043-1.432,0.176-2.112,0.415
		c-0.125,0.052-0.261,0.104-0.349,0.212c-0.123,0.644,0.248,1.229,0.324,1.851c0.094,0.755,0.51,1.468,0.4,2.247
		c-0.097,0.318-0.443,0.459-0.734,0.548c-1.104,0.306-2.176,0.726-3.238,1.158c-0.229,0.103-0.489,0.133-0.731,0.065
		c-0.211-0.18-0.326-0.438-0.451-0.679c-0.26-0.529-0.518-1.059-0.766-1.596c-0.097-0.217-0.177-0.529,0.028-0.706
		c0.41-0.369,0.996-0.436,1.429-0.769c0.219-0.317,0.096-0.826-0.275-0.978c-0.361,0.012-0.676,0.218-1,0.354
		c-0.59,0.292-1.248,0.481-1.742,0.938c-0.055,0.526,0.305,0.946,0.519,1.393c0.364,0.74,0.782,1.451,1.143,2.191
		c0.088,0.161,0.072,0.348,0.078,0.523c-0.148,0.122-0.299,0.249-0.459,0.354c-0.879,0.551-1.752,1.107-2.58,1.73
		c-0.217,0.141-0.445,0.348-0.717,0.333c-0.312-0.153-0.506-0.457-0.726-0.713c-0.323-0.407-0.668-0.797-0.984-1.21
		c-0.173-0.225-0.307-0.552-0.11-0.806c0.312-0.417,0.84-0.612,1.14-1.042c0.137-0.26,0.038-0.606-0.2-0.771
		c-0.233-0.071-0.493-0.031-0.684,0.122c-0.502,0.362-0.996,0.735-1.473,1.129c-0.189,0.17-0.408,0.333-0.511,0.575
		c-0.083,0.348,0.176,0.629,0.378,0.875c0.604,0.697,1.227,1.377,1.828,2.077c0.163,0.199,0.354,0.44,0.285,0.715
		c-0.115,0.349-0.421,0.575-0.658,0.835c-0.66,0.697-1.312,1.403-1.927,2.144c-0.2,0.23-0.387,0.481-0.612,0.688
		c-0.211,0.229-0.586,0.193-0.828,0.032c-0.48-0.299-0.927-0.648-1.387-0.978c-0.231-0.176-0.489-0.344-0.628-0.611
		c-0.082-0.164-0.02-0.355,0.069-0.5c0.294-0.478,0.727-0.858,1.003-1.348c0.181-0.339-0.132-0.688-0.438-0.798
		c-0.278-0.067-0.463,0.196-0.634,0.37c-0.44,0.538-0.851,1.105-1.266,1.666c-0.174,0.249-0.376,0.491-0.457,0.79
		c-0.036,0.312,0.199,0.564,0.438,0.726c0.8,0.528,1.619,1.031,2.416,1.564c0.243,0.173,0.521,0.398,0.524,0.723
		c-0.071,0.397-0.319,0.729-0.494,1.087c-0.53,1.029-1.053,2.066-1.489,3.144c-0.091,0.224-0.212,0.433-0.34,0.635
		c-0.226,0.006-0.456,0.017-0.671-0.069c-0.604-0.216-1.21-0.418-1.812-0.636c-0.242-0.104-0.576-0.252-0.556-0.565
		c-0.063-0.681,0.505-1.215,0.512-1.883c0.028-0.224-0.164-0.369-0.276-0.533c-0.109-0.038-0.222-0.082-0.337-0.099
		c-0.178-0.029-0.244,0.17-0.345,0.277c-0.415,0.828-0.664,1.727-1.005,2.584c-0.097,0.236-0.136,0.504-0.061,0.75
		c0.117,0.174,0.327,0.238,0.515,0.308c1.012,0.32,2.044,0.573,3.05,0.917c0.344,0.107,0.534,0.508,0.464,0.854
		c-0.084,0.536-0.168,1.075-0.32,1.595c-0.202,0.696-0.166,1.435-0.311,2.14c-0.076,0.272-0.23,0.613-0.551,0.639
		c-0.342,0.035-0.686,0.004-1.025-0.001c-0.505-0.022-1.017,0-1.513-0.11c-0.2-0.044-0.347-0.223-0.379-0.422
		c-0.088-0.551,0.061-1.114-0.041-1.664c-0.1-0.283-0.443-0.323-0.688-0.229c-0.21,0.15-0.323,0.405-0.384,0.651
		c-0.135,0.648-0.144,1.314-0.144,1.978c0.009,0.138-0.002,0.285,0.056,0.416c0.146,0.209,0.425,0.245,0.66,0.261
		c0.838,0.015,1.676-0.004,2.508,0.081c0.424,0.014,1.005-0.009,1.225,0.434c0.092,0.484,0.01,0.982,0.092,1.468
		c-0.032,0.645,0.039,1.304,0.24,1.918c0.002,0.309,0.135,0.759-0.216,0.927c-0.741,0.368-1.587,0.381-2.394,0.474
		c-0.285,0.031-0.646-0.01-0.796-0.293c-0.235-0.432-0.065-0.949-0.229-1.401c-0.122-0.5-1.021-0.488-1.092,0.036
		c-0.074,0.507,0.106,1.006,0.189,1.5c0.124,0.521,0.063,1.093,0.357,1.559c0.248,0.144,0.536,0.09,0.771-0.055
		c0.327-0.047,0.648-0.133,0.977-0.178c0.731-0.09,1.43-0.389,2.172-0.397c0.302-0.004,0.576,0.205,0.656,0.494
		c0.364,1.331,0.771,2.657,1.27,3.944c0.091,0.233,0.105,0.501,0.038,0.743c-0.251,0.341-0.687,0.46-1.05,0.641
		c-0.527,0.202-1.008,0.528-1.562,0.653C6.962,54.02,6.785,53.66,6.664,53.37c-0.19-0.408-0.28-0.87-0.562-1.229
		c-0.245-0.219-0.702-0.202-0.917,0.058c-0.121,0.228-0.006,0.488,0.072,0.711c0.271,0.67,0.541,1.346,0.846,2.005
		c0.141,0.274,0.252,0.599,0.521,0.771c0.258,0.072,0.526-0.002,0.754-0.131c0.837-0.449,1.69-0.86,2.529-1.303
		c0.204-0.1,0.422-0.215,0.655-0.178c0.338,0.1,0.521,0.43,0.701,0.709c0.447,0.762,0.953,1.484,1.443,2.218
		c0.306,0.455,0.67,0.864,0.967,1.327c-0.004,0.197-0.006,0.398-0.007,0.597c-0.581,0.535-1.182,1.052-1.775,1.567
		c-0.199,0.193-0.521,0.263-0.768,0.131c-0.53-0.42-0.81-1.078-1.335-1.5c-0.283-0.105-0.557,0.104-0.715,0.324
		c-0.078,0.248-0.007,0.521,0.164,0.715c0.479,0.604,0.944,1.221,1.46,1.795c0.167,0.184,0.339,0.372,0.56,0.493
		c0.199,0.077,0.397-0.04,0.544-0.171c0.568-0.488,1.069-1.049,1.637-1.537c0.368-0.313,0.669-0.723,1.109-0.941
		c0.314-0.131,0.593,0.127,0.808,0.328c0.795,0.725,1.603,1.441,2.456,2.098c0.224,0.187,0.463,0.366,0.605,0.625
		c0.125,0.217-0.031,0.451-0.136,0.643c-0.368,0.572-0.743,1.146-1.159,1.688c-0.158,0.184-0.361,0.43-0.634,0.364
		c-0.494-0.175-0.825-0.64-1.318-0.815c-0.354-0.111-0.749,0.166-0.745,0.541c0.061,0.267,0.287,0.441,0.48,0.607
		c0.495,0.38,1.011,0.734,1.528,1.079c0.168,0.115,0.374,0.206,0.583,0.151c0.246-0.158,0.396-0.424,0.557-0.661
		c0.543-0.841,1.031-1.716,1.611-2.53c0.127-0.139,0.246-0.373,0.465-0.316c0.17,0.037,0.326,0.129,0.482,0.213
		c0.822,0.476,1.678,0.888,2.543,1.273c0.299,0.141,0.621,0.275,0.828,0.547c0.096,0.467-0.183,0.883-0.328,1.305
		c-0.252,0.588-0.416,1.224-0.803,1.742c-0.634-0.031-1.14-0.498-1.75-0.6c-0.478,0.018-0.738,0.736-0.31,1.011
		c0.603,0.36,1.279,0.571,1.92,0.849c0.312,0.115,0.744,0.289,1.006,0c0.369-0.59,0.48-1.293,0.73-1.934
		c0.264-0.658,0.361-1.406,0.82-1.971c0.227-0.003,0.459-0.006,0.676,0.076c0.635,0.223,1.311,0.283,1.951,0.479
		c0.752,0.229,1.571,0.154,2.297,0.478c0.283,0.109,0.481,0.414,0.412,0.725c-0.109,0.594-0.211,1.188-0.226,1.793
		c-0.024,0.264-0.033,0.58-0.244,0.768c-0.707,0.254-1.457-0.114-2.182,0.031c-0.229,0.084-0.453,0.324-0.385,0.59
		c0.062,0.183,0.248,0.271,0.414,0.344c0.627,0.266,1.313,0.283,1.981,0.343c0.42,0.019,0.843,0.054,1.263,0.011
		c0.254-0.017,0.313-0.318,0.344-0.521c0.055-0.564,0.027-1.135,0.062-1.701c0.121-0.348,0.101-0.721,0.144-1.084
		c0.026-0.336,0.098-0.664,0.168-0.992c0.188-0.223,0.496-0.195,0.756-0.203c0.65,0.008,1.3-0.057,1.952-0.059
		c0.796,0.007,1.561-0.25,2.352-0.305c0.233-0.021,0.508,0.071,0.6,0.309c0.306,0.707,0.402,1.477,0.497,2.234
		c0.009,0.276,0.065,0.637-0.205,0.812c-0.575,0.395-1.337,0.123-1.946,0.421c-0.395,0.207-0.32,0.886,0.11,1
		c0.851,0.158,1.651-0.271,2.489-0.317c0.367-0.055,0.849-0.06,1.061-0.423c0.165-0.608-0.197-1.192-0.286-1.784
		c-0.09-0.598-0.31-1.162-0.424-1.752c-0.006-0.293-0.119-0.736,0.226-0.88c0.561-0.266,1.176-0.389,1.76-0.6
		c0.592-0.218,1.185-0.425,1.762-0.677c0.273-0.123,0.564-0.186,0.857-0.243c0.182,0.153,0.352,0.33,0.451,0.553
		c0.301,0.601,0.59,1.209,0.877,1.815c0.094,0.176,0.09,0.377,0.094,0.574c-0.451,0.459-1.154,0.531-1.597,1
		c-0.129,0.254-0.081,0.643,0.202,0.775c0.462,0.116,0.875-0.17,1.284-0.333c0.467-0.235,0.985-0.388,1.403-0.712
		c0.248-0.169,0.192-0.52,0.074-0.751c-0.5-0.938-0.985-1.884-1.483-2.827c-0.111-0.199-0.214-0.438-0.126-0.666
		c0.164-0.215,0.4-0.359,0.627-0.504c0.765-0.467,1.519-0.959,2.238-1.496c0.25-0.172,0.498-0.396,0.81-0.438
		c0.233,0.072,0.399,0.271,0.562,0.442c0.387,0.458,0.758,0.929,1.125,1.399c0.146,0.208,0.344,0.436,0.301,0.713
		c-0.303,0.52-0.906,0.74-1.262,1.212c-0.185,0.319,0.041,0.758,0.409,0.791c0.399,0.021,0.692-0.306,0.998-0.513
		c0.505-0.413,1.062-0.778,1.484-1.284c0.182-0.192-0.027-0.431-0.142-0.599c-0.722-0.852-1.472-1.678-2.188-2.53
		c-0.227-0.23-0.307-0.642-0.038-0.871c0.776-0.826,1.577-1.63,2.291-2.517c0.319-0.354,0.581-0.771,0.966-1.062
		c0.312-0.099,0.583,0.142,0.827,0.303c0.483,0.357,0.991,0.683,1.466,1.052c0.205,0.168,0.467,0.412,0.352,0.707
		c-0.219,0.514-0.637,0.898-0.955,1.348c-0.127,0.162-0.225,0.375-0.149,0.584c0.113,0.219,0.353,0.412,0.606,0.379
		c0.253-0.036,0.406-0.253,0.558-0.432c0.381-0.49,0.772-0.969,1.127-1.481c0.19-0.278,0.416-0.552,0.529-0.878
		c0.096-0.35-0.248-0.578-0.489-0.752c-0.818-0.537-1.643-1.062-2.459-1.604c-0.174-0.127-0.386-0.267-0.432-0.494
		c-0.043-0.323,0.156-0.603,0.291-0.875c0.611-1.129,1.175-2.285,1.666-3.472c0.109-0.225,0.193-0.512,0.451-0.604
		c0.316-0.141,0.653,0.009,0.959,0.113c0.59,0.227,1.207,0.391,1.775,0.676c0.188,0.076,0.293,0.289,0.262,0.489
		c-0.078,0.517-0.363,0.971-0.51,1.466c-0.062,0.243-0.066,0.528,0.09,0.738c0.152,0.184,0.412,0.126,0.622,0.14
		c0.146-0.188,0.286-0.379,0.38-0.6c0.297-0.694,0.545-1.409,0.812-2.117c0.097-0.247,0.164-0.535,0.069-0.795
		c-0.518-0.469-1.258-0.499-1.893-0.726c-0.638-0.232-1.32-0.343-1.927-0.657c-0.177-0.073-0.203-0.295-0.214-0.463
		c-0.014-0.842,0.35-1.631,0.436-2.463c0.068-0.58,0.112-1.172,0.305-1.729c0.097-0.245,0.304-0.515,0.588-0.5
		c0.441,0.007,0.871,0.125,1.312,0.155c0.367,0.022,0.733,0.037,1.097,0.104c0.153,0.026,0.326,0.109,0.354,0.281
		c0.114,0.548-0.054,1.115,0.05,1.669c0.083,0.254,0.36,0.471,0.639,0.39c0.256-0.172,0.432-0.452,0.457-0.761
		c0.063-0.681,0.141-1.361,0.112-2.045c-0.007-0.231-0.108-0.484-0.323-0.59c-0.166-0.062-0.349-0.089-0.525-0.095
		c-0.771-0.022-1.545-0.007-2.315-0.061c-0.334-0.021-0.675,0.02-1.003-0.064c-0.17-0.032-0.271-0.194-0.288-0.358
		c-0.095-0.684-0.051-1.373-0.097-2.056c-0.043-0.461-0.1-0.916-0.189-1.366c-0.049-0.257-0.102-0.564,0.114-0.759
		c0.215-0.301,0.608-0.292,0.937-0.332c0.551-0.048,1.078-0.226,1.625-0.301c0.225-0.031,0.496,0,0.646,0.192
		c0.35,0.554-0.016,1.328,0.473,1.818c0.215,0.146,0.469,0.13,0.691,0.011c0.076-0.111,0.195-0.215,0.193-0.361
		c0.037-0.549-0.036-1.1-0.162-1.632c-0.084-0.352-0.111-0.716-0.229-1.059c-0.051-0.172-0.22-0.284-0.396-0.282
		c-0.837-0.064-1.607,0.346-2.435,0.413c-0.506,0.033-0.988,0.306-1.504,0.222c-0.414-0.26-0.457-0.784-0.57-1.218
		c-0.307-1.048-0.629-2.094-1.037-3.106c-0.12-0.274-0.155-0.591-0.082-0.883c0.131-0.226,0.397-0.315,0.619-0.428
		c0.539-0.234,1.067-0.496,1.603-0.738c0.25-0.088,0.599-0.146,0.778,0.1c0.25,0.299,0.361,0.686,0.506,1.04
		c0.125,0.307,0.234,0.659,0.537,0.839c0.318,0.115,0.664-0.126,0.73-0.442c0.034-0.201-0.047-0.394-0.115-0.578
		c-0.315-0.762-0.625-1.531-0.977-2.28c-0.104-0.222-0.249-0.445-0.492-0.524c-0.213-0.014-0.402,0.104-0.588,0.188
		c-0.796,0.428-1.604,0.834-2.409,1.244c-0.235,0.113-0.462,0.287-0.733,0.297c-0.319,0.027-0.493-0.312-0.66-0.532
		c-0.733-1.248-1.559-2.442-2.43-3.599c-0.209-0.268-0.184-0.686,0.08-0.909c0.524-0.506,1.08-0.983,1.648-1.442
		c0.174-0.11,0.393-0.312,0.604-0.169c0.56,0.363,0.84,1.014,1.336,1.441c0.319,0.289,0.854-0.004,0.916-0.392
		c-0.033-0.254-0.205-0.462-0.354-0.66c-0.517-0.622-1-1.271-1.558-1.857c-0.166-0.157-0.379-0.373-0.629-0.273
		c-0.26,0.108-0.459,0.314-0.664,0.501c-0.697,0.628-1.354,1.304-2.051,1.936c-0.164,0.142-0.367,0.305-0.6,0.239
		c-0.275-0.1-0.473-0.333-0.691-0.517c-0.791-0.731-1.605-1.438-2.457-2.097c-0.224-0.197-0.539-0.438-0.469-0.776
		c0.157-0.438,0.479-0.789,0.727-1.178c0.287-0.388,0.516-0.828,0.865-1.162c0.105-0.118,0.281-0.106,0.424-0.062
		c0.498,0.224,0.85,0.696,1.361,0.895c0.449,0.086,0.777-0.503,0.549-0.872c-0.246-0.3-0.588-0.496-0.896-0.726
		c-0.385-0.267-0.743-0.572-1.156-0.792c-0.156-0.089-0.344-0.061-0.516-0.071c-0.779,1.011-1.335,2.174-2.098,3.197
		c-0.184,0.307-0.599,0.317-0.877,0.139c-0.961-0.559-1.976-1.021-2.98-1.49c-0.287-0.116-0.52-0.411-0.436-0.732
		c0.129-0.57,0.391-1.097,0.584-1.646c0.143-0.321,0.239-0.705,0.533-0.924c0.663-0.17,1.172,0.499,1.826,0.42
		c0.337,0.011,0.527-0.408,0.419-0.695c-0.147-0.248-0.417-0.376-0.667-0.494c-0.541-0.243-1.096-0.47-1.65-0.695
		c-0.205-0.083-0.432-0.141-0.649-0.092c-0.177,0.098-0.245,0.31-0.318,0.485c-0.317,0.915-0.62,1.832-0.923,2.749
		c-0.107,0.268-0.199,0.586-0.449,0.757c-0.854,0.156-1.645-0.313-2.475-0.423c-0.503-0.062-0.987-0.212-1.48-0.314
		c-0.414-0.092-0.889-0.038-1.228-0.336c-0.044-0.34-0.075-0.68-0.071-1.024c0.168-0.669,0.066-1.372,0.239-2.037
		c0.306-0.201,0.671-0.175,1.021-0.159c0.401,0.129,0.834,0.196,1.256,0.146c0.42-0.073,0.602-0.682,0.283-0.971
		c-0.341-0.235-0.776-0.195-1.166-0.246C35.797,13.586,35.018,13.248,34.209,13.372L34.209,13.372z M31.823,19.148
		c1.033-0.086,2.063,0.059,3.096,0.146c0.828,0.056,1.666,0.091,2.466,0.345c2.809,0.601,5.505,1.721,7.901,3.309
		c4.748,3.108,8.312,8.008,9.758,13.519c0.128,0.613,0.354,1.206,0.413,1.831c0.057,0.655,0.257,1.286,0.314,1.939
		c0.092,1.378,0.103,2.76,0.031,4.141c0,0.827-0.263,1.625-0.35,2.443c-0.077,0.687-0.312,1.338-0.458,2.012
		c-1.353,4.939-4.39,9.392-8.474,12.459c-2.283,1.728-4.889,3.039-7.645,3.812c-0.65,0.141-1.279,0.393-1.943,0.455
		c-0.525,0.053-1.029,0.205-1.548,0.289c-1.049,0.121-2.106,0.107-3.159,0.108c-1.002-0.011-2.014,0.009-3-0.179
		c-0.826-0.228-1.692-0.244-2.508-0.521c-6.184-1.546-11.629-5.807-14.67-11.433c-0.912-1.596-1.551-3.331-2.066-5.093
		c-0.12-0.694-0.395-1.357-0.45-2.063c-0.056-0.591-0.167-1.173-0.277-1.757c-0.066-0.686-0.109-1.379-0.103-2.068
		c-0.004-1.042-0.009-2.099,0.217-3.12c0.135-0.718,0.125-1.458,0.325-2.162c0.206-0.673,0.29-1.376,0.553-2.031
		c1.183-3.854,3.416-7.366,6.352-10.106c3.059-2.891,6.92-4.906,11.025-5.785c0.805-0.24,1.645-0.294,2.479-0.342
		C30.678,19.259,31.246,19.164,31.823,19.148L31.823,19.148z M29.86,20.568c-0.299,0.008-0.604,0.022-0.895,0.105
		c-0.269,0-0.539,0.04-0.787,0.146c-0.391,0.045-0.785,0.102-1.15,0.257l-0.063,0.02c-0.349,0.025-0.691,0.125-0.99,0.31
		c-0.916,0.227-1.789,0.603-2.65,0.979c-0.674,0.278-1.286,0.675-1.932,1.007c-1.824,1.092-3.529,2.402-4.963,3.979
		c-1.768,1.873-3.199,4.072-4.214,6.446c-0.451,1.137-0.915,2.279-1.147,3.488c-0.176,0.602-0.343,1.212-0.328,1.846
		c-0.306,1.119-0.394,2.289-0.368,3.445c-0.022,1.128,0.068,2.266,0.365,3.354c0.003,0.033,0.01,0.096,0.013,0.129
		c-0.03,0.658,0.143,1.312,0.385,1.918c0.041,0.486,0.219,0.939,0.37,1.398c0.633,1.938,1.521,3.795,2.657,5.488
		c0.722,1.045,1.478,2.079,2.392,2.967c0.262,0.385,0.596,0.734,0.99,0.985c2.696,2.535,6.061,4.356,9.646,5.236
		c0.314,0.09,0.631,0.192,0.959,0.209c0.377,0.129,0.775,0.146,1.156,0.25c0.512,0.131,1.043,0.183,1.572,0.145
		c1.088,0.064,2.182,0.066,3.268,0c0.596,0.05,1.19-0.041,1.768-0.188c0.447-0.121,0.925-0.106,1.359-0.275
		c3.791-0.849,7.364-2.708,10.211-5.374c0.418-0.283,0.779-0.658,1.067-1.07c0.556-0.504,0.965-1.137,1.462-1.69
		c0.729-0.978,1.398-2,1.975-3.074c0.541-1.065,1.064-2.153,1.408-3.303c0.174-0.311,0.276-0.656,0.319-1.008
		c0.056-0.119,0.07-0.244,0.09-0.371c0.113-0.208,0.155-0.445,0.164-0.681c0.029-0.073,0.058-0.149,0.079-0.227
		c0.221-0.426,0.191-0.919,0.273-1.377c0.056-0.502,0.261-0.988,0.203-1.496l0.01-0.065c0.117-0.343,0.06-0.709,0.085-1.062
		c0.038-0.791,0-1.581-0.015-2.373c-0.002-0.138-0.031-0.272-0.07-0.402l-0.01-0.064c0.06-0.511-0.146-0.998-0.203-1.499
		c-0.082-0.459-0.059-0.951-0.271-1.379c-0.024-0.074-0.053-0.149-0.081-0.225c-0.012-0.234-0.049-0.474-0.169-0.677
		c-0.024-0.213-0.086-0.418-0.151-0.618c-1.59-5.455-5.41-10.185-10.336-12.958c-1.351-0.755-2.771-1.406-4.266-1.812
		c-0.305-0.19-0.654-0.279-1.011-0.318c-0.142-0.059-0.296-0.068-0.446-0.084c-0.229-0.138-0.493-0.166-0.752-0.179
		c-0.245-0.115-0.514-0.153-0.779-0.156c-0.296-0.076-0.6-0.094-0.898-0.104c-0.598-0.083-1.194-0.14-1.79-0.209
		C32.194,20.211,31.024,20.441,29.86,20.568L29.86,20.568z M17.752,69.482h-0.261c0.095-0.031,0.181-0.066,0.259-0.111
		C17.75,69.408,17.75,69.445,17.752,69.482L17.752,69.482z M33.295,69.332c0.039-0.066,0.086-0.13,0.139-0.189
		c-0.047,0.002-0.09,0.008-0.133,0.012c-0.006,0.037-0.008,0.072-0.008,0.104C33.295,69.281,33.295,69.307,33.295,69.332
		L33.295,69.332z"/>
</g>
</svg>
