<?xml version="1.0" encoding="utf-8"?>
<!-- Generator: Adobe Illustrator 15.0.0, SVG Export Plug-In . SVG Version: 6.00 Build 0)  -->
<!DOCTYPE svg PUBLIC "-//W3C//DTD SVG 1.1//EN" "http://www.w3.org/Graphics/SVG/1.1/DTD/svg11.dtd">
<svg version="1.1" id="Layer_1" xmlns="http://www.w3.org/2000/svg" xmlns:xlink="http://www.w3.org/1999/xlink" x="0px" y="0px"
	 width="425.197px" height="595.28px" viewBox="0 0 425.197 595.28" enable-background="new 0 0 425.197 595.28"
	 xml:space="preserve">
<g>
	<path fill="#FFFFFF" d="M51.423,551.848c-10.52-3.362-12.88-4.652-12.88-7.716c0-2.473,2.261-3.656,6.095-3.656
		c3.441,0,7.176,1.778,9.537,4.641l14.06-9.889c-6.193-7.813-15.928-11.571-26.743-11.571c-15.731,0-25.757,8.311-25.757,21.271
		c0,11.271,6.39,18.102,19.074,22.056c11.404,3.56,13.173,4.85,13.173,7.522c0,2.665-2.459,3.956-6.588,3.956
		c-4.815,0-9.537-2.473-13.074-6.43l-14.944,10.387c6.786,8.211,16.417,12.859,29.001,12.859c17.207,0,28.414-8.605,28.414-21.964
		C70.789,562.232,64.892,556.198,51.423,551.848z"/>
	<path fill="#FFFFFF" d="M108.068,522.695h-28.11v71h24v-23h4.11c17.598,0,29.491-7.479,29.491-23.996
		C137.56,530.172,125.667,522.695,108.068,522.695z M107.377,554.695h-3.418v-12h3.418c4.524,0,7.375,0.855,7.375,6.004
		C114.751,553.74,111.901,554.695,107.377,554.695z"/>
	<path fill="#FFFFFF" d="M158.22,522.695l-21.434,71h23.794l2.652-13h19.37l2.751,13h23.791l-21.431-71H158.22z M167.658,565.695
		l5.31-20.772l5.31,20.772H167.658z"/>
	<path fill="#FFFFFF" d="M275.142,546.418c0-15.625-12.095-23.723-30.379-23.723h-27.805v71h24v-23h3.41l11.305,23h23.891
		l-15.73-27.942C270.915,562.195,275.142,555.621,275.142,546.418z M245.548,549.695h-4.59v-12h4.59c4.619,0,7.275,1.744,7.275,6
		C252.824,548.048,250.167,549.695,245.548,549.695z"/>
	<polygon fill="#FFFFFF" points="341.958,522.695 282.958,522.695 282.958,542.695 302.958,542.695 302.958,593.695 
		322.958,593.695 322.958,542.695 341.958,542.695 	"/>
	<path fill="#FFFFFF" d="M361.986,522.695l-21.436,71h23.795l2.654-13h19.369l2.752,13h23.791l-21.432-71H361.986z M371.424,565.695
		l5.309-20.772l5.31,20.772H371.424z"/>
	<path fill="#FFFFFF" d="M108.968,404.705c-0.546,0.314-1.157,0.567-1.811,0.788h1.825
		C108.968,405.233,108.968,404.964,108.968,404.705z"/>
	<path fill="#FFFFFF" d="M424.379,216.581c-1.02-0.66-2.262-0.879-3.434-0.914c-5.126-0.205-10.285,0.138-15.404-0.248
		c-3.01-0.156-6.034,0.126-9.021-0.221c-0.949-0.057-1.849-0.649-2.258-1.54c-1.523-2.519-0.699-5.617-1.371-8.369
		c-0.58-3.459-2.353-8.162,1.111-10.662c1.352-1.184,4.133-1.542,4.953,0.458c1.795,3.101,0.713,6.984,2.44,10.135
		c0.88,2.043,3.294,2.483,5.268,2.433c5.198-0.052,10.425-0.15,15.62-0.668c2.777-0.442,2.83-3.674,2.777-5.918
		c-0.326-3.911-0.356-7.882-1.301-11.715c-1.567-6.44-1.4-13.179-3.271-19.552c-0.6-1.84-0.93-4.177-2.642-5.307
		c-3.782-0.682-7.245,1.465-10.879,2.129c-4.905,0.856-9.587,2.75-14.514,3.433c-1.605,0.21-3.487,0.065-4.565-1.279
		c-1.871-2.361-2.402-5.43-3.271-8.241c-1.199-4.265-3.486-8.359-2.785-12.911c1.441-1.087,3.487-2.386,5.207-1.111
		c3.381,2.793,3.48,7.614,5.491,11.261c0.881,1.531,2.444,3.302,4.413,2.386c5.367-1.776,10.945-2.956,16.228-5.051
		c1.04-0.501,2.57-1.051,2.475-2.487c0.278-2.332-0.975-4.429-1.685-6.56c-4.104-11.617-9.109-22.843-14.569-33.872
		c-0.694-1.214-1.579-2.482-2.981-2.903c-1.789-0.412-3.424,0.706-4.924,1.483c-6.292,3.635-12.479,7.438-18.834,10.935
		c-1.146,0.589-2.535,1.144-3.811,0.631c-1.875-1.394-3.108-3.452-4.376-5.377c-2.142-3.367-4.46-6.618-6.673-9.931
		c-0.658-1.085-1.502-2.121-1.586-3.422c-0.629-2.886,3.094-5.339,5.541-4.018c3.454,2.697,4.982,7.157,8.289,10.021
		c1.491,1.34,3.749,0.822,5.309-0.167c3.758-2.277,7.325-4.873,11.074-7.219c1.465-1.034,3.32-1.993,3.978-3.75
		c-0.36-2.779-2.444-4.932-3.978-7.156c-6.975-9.395-14.346-18.481-22.272-27.06c-1.294-1.328-2.961-3.12-5.019-2.244
		c-2.195,1.305-3.799,3.391-5.612,5.178c-4.034,4.193-7.988,8.446-12.05,12.6c-1.377,1.261-3.101,3.047-5.119,2.158
		c-2.504-1.355-4.451-3.512-6.633-5.305c-2.292-2.099-4.957-3.826-6.931-6.254c-1.935-2.414,0.058-6.409,2.9-6.752
		c4.397,1.489,7.048,6.035,11.483,7.485c1.753-0.645,2.983-2.172,4.251-3.482c2.121-2.466,4.215-4.969,6.386-7.379
		c1.47-1.703,3.154-3.36,3.738-5.606c0.342-1.886-1.271-3.344-2.512-4.494c-8.075-6.569-16.513-12.637-25.184-18.341
		c-1.522-1.185-3.474-1.203-5.287-1.092c-5.644,7.263-9.001,16.038-14.364,23.48c-1.579,2.333-4.703,1.446-6.684,0.207
		c-3.476-2.113-7.415-3.411-10.646-5.892c-1.779-1.147-1.703-3.835-0.219-5.203c1.206-1.592,3.483-1.275,5.187-0.875
		c2.991,1.204,5.815,3.433,9.257,2.777c3.195-4.269,5.256-9.227,7.863-13.851c0.826-1.704,2.008-3.505,1.658-5.505
		c-0.777-2.112-2.941-3.121-4.816-4.007c-7.893-3.505-15.829-6.953-23.957-9.867c-2.928-1.083-5.908-2.271-9.048-2.496
		c-2.144,1.454-2.493,4.308-3.343,6.599c-1.439,5.438-3.178,10.805-4.619,16.273c-0.652,2.169-1.393,4.419-2.847,6.199
		c-1.13,1.325-2.979,0.653-4.38,0.282c-3.131-1.015-6.333-1.76-9.602-2.188c-2.538-0.436-5.32-0.729-7.34-2.497
		c-1.867-1.513-1.775-5.068,0.469-6.179c4.883-0.847,9.828,1.624,14.662,0.268c2.812-3.104,3.211-7.603,4.064-11.559
		c0.377-2.948,1.838-5.717,1.781-8.703c-1.014-2.36-3.773-2.872-6.008-3.177c-3.746-0.412-7.328-1.642-11.031-2.154
		c-4.078-0.332-8.119-0.665-12.199-0.924c-4.481-0.284-8.898-1.322-13.393-1.677c-1.674,0.027-3.791-0.455-5.081,0.936
		c-0.751,2.246-1.214,4.605-1.214,6.996c-0.03,6.347,0.094,12.687,0,19.039c0.015,2.73-1.637,5.683-4.444,6.179
		c-4.148,0.748-8.356,0.642-12.542,0.825c-3.117,0.062-7.079,0.794-9.204-2.12c-0.454-1.726-0.372-3.868,1.34-4.862
		c3.924-2.595,8.96-0.724,13.214-2.297c1.48-0.989,1.742-2.986,1.834-4.628c0.03-5.209-0.134-10.406-0.476-15.584
		c-0.034-1.371-0.797-2.547-1.37-3.731c-3.317,0.035-6.588,0.512-9.871,0.898c-3.495,0.331-6.999,0.618-10.479,0.95
		c-3.825,0.427-7.479,1.795-11.29,2.322c-4.6,0.649-9.264,1.55-13.5,3.498c-1.894,0.755-1.613,3.069-1.18,4.658
		c2.588,8.366,4.892,16.806,7.298,25.227c-2.937,3.391-7.511,4.116-11.442,5.736c-2.885,0.988-5.761,2.665-8.915,2.161
		c-2.338-0.833-3.393-4.549-1.331-6.24c2.617-2.253,6.242-2.726,9.065-4.628c2.182-1.589,1.958-4.636,1.116-6.889
		c-1.913-5.205-3.271-10.616-5.848-15.531c-1.59,0.046-3.172,0.046-4.748,0.123c-8.989,3.598-17.875,7.481-26.516,11.861
		c-2.034,1.15-4.384,2.218-5.491,4.41c-0.494,1.673,0.413,3.27,1.149,4.696c3.472,6.11,6.949,12.206,10.459,18.277
		c1.166,2.074,1.655,5.457-0.622,6.936c-2.532,1.917-5.324,3.447-7.864,5.354c-1.499,0.954-2.926,2.272-4.75,2.512
		c-3.09,0.649-5.469-3.903-3.446-6.231c2.261-2.726,6.063-3.842,7.803-7.049c0.698-2.262-0.862-4.319-1.974-6.111
		c-2.375-3.592-4.418-7.388-6.957-10.859c-0.808-0.878-1.53-2.131-2.827-2.192c-2.095-0.29-3.784,1.259-5.405,2.368
		c-7.943,5.697-15.632,11.788-22.994,18.213c-1.275,1.185-2.653,2.32-3.651,3.751c-0.447,1.429-0.155,3.047,0.961,4.063
		c5.317,5.973,11.115,11.483,16.41,17.466c1.309,1.307,1.974,3.453,0.938,5.143c-1.997,3.097-4.809,5.512-7.139,8.329
		c-1.939,2.059-3.552,4.572-6.016,6.081c-2.576,1.55-6.163-0.985-5.768-3.911c1.72-4.072,5.692-6.568,7.606-10.51
		c0.922-1.87-0.24-3.867-1.557-5.177c-3.013-3.116-6.254-5.972-9.335-9.023c-1.393-1.246-2.975-2.891-5.011-2.639
		c-2.944,1.089-4.573,4.047-6.534,6.307c-6.095,7.395-11.749,15.138-17.115,23.07c-1.776,2.787-4.221,5.469-4.604,8.905
		c1.188,2.149,3.423,3.379,5.488,4.567c4.485,2.539,8.865,5.315,13.374,7.809c1.677,0.958,3.37,1.901,4.736,3.28
		c1.473,1.321,1.286,3.602,0.797,5.343c-1.39,3.115-3.085,6.086-4.434,9.217c-1.32,2.803-2.41,5.796-4.512,8.103
		c-0.944,1.138-2.687,0.802-3.942,0.42c-2.012-1.053-2.152-3.65-1.655-5.613c1.085-3.444,3.283-6.493,3.84-10.074
		c0.315-1.963-1.138-3.575-2.729-4.418c-4.292-2.455-8.706-4.654-13.069-6.939c-1.5-0.736-3.868-1.267-4.949,0.451
		c-1.924,2.49-2.899,5.568-4.175,8.429c-3.779,8.771-6.979,17.802-9.863,26.923c-0.612,2.403-1.739,4.736-1.711,7.283
		c0.507,1.034,1.484,1.804,2.542,2.23c5.396,2.139,11.214,2.724,16.684,4.625c3.423,1.198,8.076,0.565,10.189,4.139
		c1.047,3.689-1.047,7.293-1.522,10.922c-0.67,2.711-0.2,5.762-1.703,8.202c-1.738,1.75-4.828,1.577-6.591-0.061
		c-1.527-2.799,0.041-5.987,0.352-8.913c0.057-1.52,0.642-3.467-0.717-4.583c-2.402-2.458-6.05-2.55-9.227-3.124
		c-3.1-0.396-6.08-1.458-9.149-2.084c-2.323-0.603-4.387,1.642-4.68,3.826c-0.582,3.934-0.531,7.965-1.374,11.872
		C0.141,195.554,0.117,202.378,0,209.152c0.034,1.848-0.106,4.01,1.252,5.466c1.196,0.896,2.816,0.896,4.247,1.027
		c7.594,0.056,15.184-0.168,22.782,0.084c1.765-0.1,3.214,1.279,3.514,3.019c0.763,4.431,1.329,8.929,1.503,13.439
		c0.198,1.565-0.683,2.886-1.97,3.666c-1.825,0.289-4.535,0.894-5.438-1.276c-1.42-3.047-0.299-6.712-1.765-9.8
		c-0.741-1.389-2.141-2.565-3.792-2.614c-5.279-0.241-10.573,0.226-15.84,0.581c-2.171,0.21-4.3,1.921-4.315,4.257
		c-0.179,3.575,0.348,7.157,0.956,10.677c2.091,8.707,1.181,18.062,4.831,26.395c0.459,1.497,2.224,1.564,3.518,1.634
		c5.875-0.615,11.37-2.987,17.18-3.927c3.143-0.48,6.144-2.306,9.397-1.683c3.252,2.363,3.533,6.797,4.766,10.333
		c0.964,3.822,3.336,7.533,2.474,11.635c-0.873,2.098-3.07,2.763-5.157,2.466c-2.163-2.596-3.218-5.861-4.221-9.035
		c-0.705-1.93-1.514-4.445-3.877-4.773c-3.765-0.572-7.326,1.292-10.888,2.284c-3.207,1.145-7.252,1.33-9.396,4.375
		c-0.231,1.262-0.027,2.566,0.352,3.77c3.872,11.247,8.62,22.133,13.655,32.861c1.29,2.643,2.353,5.766,5.127,7.186
		c1.35,0.298,2.629-0.428,3.806-1c6.665-3.78,13.18-7.849,19.939-11.479c1.692-1.029,3.901-0.725,5.203,0.782
		c2.811,3.055,4.61,6.847,7.051,10.168c1.453,2.293,3.597,4.295,4.129,7.043c0.474,2.94-2.854,5.674-5.492,4.11
		c-3.408-2.773-4.976-7.163-8.277-10.036c-1.378-1.236-3.477-0.925-4.941-0.053c-2.995,1.732-5.807,3.734-8.702,5.59
		c-2.437,1.757-5.552,3.139-6.665,6.146c0.825,2.919,2.946,5.18,4.649,7.6c6.744,9.058,13.841,17.827,21.564,26.053
		c1.279,1.177,2.756,3.001,4.717,2.305c1.746-0.915,3.142-2.344,4.512-3.742c4.27-4.521,8.569-9.025,12.847-13.541
		c1.453-1.383,3.241-3.192,5.442-2.649c2.584,1.061,4.406,3.322,6.57,5.009c2.41,2.178,5.199,3.973,7.199,6.537
		c1.643,1.941,0.519,5.279-1.784,6.104c-2.854,0.564-5.033-1.834-7.135-3.375c-1.848-1.367-3.955-3.605-6.437-2.628
		c-2.982,1.711-4.891,4.734-7.195,7.24c-1.936,2.449-4.5,4.498-5.891,7.354c-1.127,2.123,0.71,4.218,2.251,5.499
		c7.355,5.905,14.929,11.517,22.8,16.741c1.94,1.207,3.833,2.903,6.175,3.185c2.561-0.718,3.708-3.49,4.982-5.59
		c3.112-5.493,6.201-10.999,9.423-16.429c1.055-1.749,2.691-3.741,4.979-3.314c3.352,0.682,6.08,2.91,9.151,4.262
		c1.897,1.053,4.265,1.779,5.388,3.805c1.663,2.756-1.79,6.887-4.744,5.437c-2.22-0.787-4.239-2.07-6.433-2.909
		c-1.333-0.054-2.645-0.031-3.965-0.031c-3.349,4.56-5.474,9.86-8.29,14.747c-1.033,1.59-1.328,3.446-1.165,5.31
		c3.898,2.932,8.482,4.665,12.896,6.575c6.918,2.896,13.871,5.658,20.907,8.188c1.673,0.533,4.171,1.099,5.287-0.711
		c2.561-4.194,3.001-9.204,4.645-13.764c1.5-4.108,1.855-8.705,4.144-12.501c0.976-1.733,3.195-1.733,4.918-1.505
		c5.291,0.688,10.364,2.404,15.621,3.337c3.298,0.567,3.669,5.264,1.662,7.395c-1.351,1.067-3.21,0.64-4.748,0.404
		c-3.419-0.658-6.926-2.453-10.425-1.336c-3.259,4.366-3.352,10.195-4.815,15.304c-0.649,1.941-1.169,3.91-1.139,5.965
		c4.948,4.508,12.016,3.238,18.03,4.659c4.851,1.168,9.792,1.779,14.771,1.955c4.167-0.16,8.398,0.397,12.554-0.093
		c2.513-0.235,3.727-2.886,3.678-5.169c0.121-6.728-0.042-13.48,0-20.24c-0.012-1.641,0.413-3.291,1.275-4.688
		c0.52-0.694,1.236-1.223,2.091-1.383c3.624-0.893,7.431-0.106,11.083-0.832c3.047-0.558,6.234-1.757,9.32-0.711
		c0.902,0.869,1.811,1.741,2.48,2.803c0.494,1.353,0.494,3.384-1.111,3.985c-4.045,1.843-8.793,0.727-12.834,2.582
		c-1.371,0.588-2.467,1.895-2.467,3.454c-0.213,3.848,0.064,7.704,0.029,11.547c0.068,2.312-0.145,4.772,0.748,6.966
		c1.158,1.925,3.723,1.879,5.711,1.925c4.338-0.293,8.71-0.612,12.953-1.682c5.553-1.375,11.366-1.161,16.801-3.031
		c3.525-1.215,7.646-0.695,10.777-2.955c1.947-1.437,1.396-4.11,0.695-6.066c-1.549-4.314-2.43-8.828-3.879-13.174
		c-0.777-2.87-1.689-5.735-2.272-8.638c-0.058-1.305-0.509-3.069,0.85-3.841c2.797-1.658,6.034-2.376,9.024-3.619
		c2.891-0.941,5.617-2.43,8.615-2.927c3.733,0.117,4.694,6.416,1.324,7.776c-3.107,1.647-6.959,2.161-9.404,4.895
		c-0.756,2.116-0.064,4.414,0.68,6.446c1.441,3.833,2.484,7.782,4.008,11.586c0.512,1.123,0.972,2.359,1.928,3.198
		c3.594,0.818,6.814-1.366,10.026-2.603c7.996-3.223,15.802-6.881,23.403-10.937c1.234-0.665,2.476-1.566,3.049-2.925
		c0.359-2.277-1.057-4.268-2.077-6.156c-3.114-5.187-5.923-10.533-8.982-15.733c-0.88-1.787-2.212-3.651-1.882-5.727
		c0.979-2.108,3.164-3.156,4.926-4.463c2.945-1.893,5.65-4.283,8.933-5.582c2.862-1.037,5.728,2.56,4.366,5.187
		c-1.805,3.924-7.337,4.582-8.556,8.852c0.831,3.561,3.378,6.309,5.085,9.456c1.947,2.817,3.193,6.39,6.188,8.23
		c1.631,1.088,3.537,0.042,4.943-0.915c3.234-2.275,6.502-4.498,9.572-7.01c4.094-3.361,8.428-6.41,12.356-9.99
		c2.167-2.003,4.763-3.736,6.345-6.324c0.574-0.862-0.091-1.826-0.489-2.598c-1.19-1.824-2.804-3.314-4.304-4.888
		c-3.252-3.237-6.246-6.735-9.51-9.979c-1.408-1.451-2.885-2.857-4.031-4.546c-1.058-1.42-1.034-3.62,0.107-4.979
		c2.291-2.856,5.006-5.347,7.362-8.15c1.719-1.885,3.229-4.056,5.4-5.477c2.786-1.932,7.441,1.797,5.446,4.881
		c-1.854,3.231-4.775,5.622-6.877,8.632c-1.036,1.366-1.116,3.596,0.151,4.863c2.361,2.789,5.212,5.088,7.802,7.698
		c2.012,1.894,3.809,4.284,6.514,5.21c1.875,0.259,3.295-1.368,4.492-2.598c7.826-9.127,14.969-18.841,21.645-28.877
		c1.198-1.939,2.838-3.864,3.142-6.201c-0.732-2.421-2.986-3.805-5.032-4.987c-5.533-3.238-11.085-6.455-16.622-9.7
		c-1.792-1-3.568-2.694-3.241-4.943c0.58-2.91,2.273-5.434,3.516-8.1c2.062-3.933,3.467-8.286,6.242-11.792
		c2-0.779,4.333-0.194,5.619,1.588c1.146,1.321,0.277,3.12-0.211,4.537c-1.389,3.705-4.601,7.24-3.689,11.399
		c1.951,3.39,6.087,4.362,9.218,6.357c3.161,1.352,6.081,3.992,9.667,3.783c2.762-1.476,3.802-4.655,5-7.342
		c3.854-8.864,7.003-18.017,10.195-27.143c0.838-3.117,2.401-6.127,2.338-9.441c-2.975-3.401-7.734-2.981-11.629-4.43
		c-6.031-2.074-12.793-2.096-18.262-5.646c-0.508-4.29,1.525-8.215,1.883-12.403c0.367-2.372,0.304-4.893,1.373-7.068
		c1.199-2.338,4.81-2.772,6.486-0.833c2.057,4.041-0.338,8.638,0.197,12.876c0.307,1.915,2.125,2.796,3.791,3.11
		c5.055,0.992,10.004,2.745,15.188,2.924c1.624,0,3.639-0.553,4.158-2.31c0.829-2.526,0.745-5.243,1.132-7.848
		c0.35-4.422,1.87-8.661,1.9-13.098c0.187-3.264,0.43-6.534,0.426-9.813C425.13,221.22,425.503,218.718,424.379,216.581z
		 M415.844,241.454c-0.173,2.182-1.407,4.164-3.206,5.375c-1.954,0.575-3.898-0.956-4.486-2.751
		c-0.721-3.905,0.463-7.923-0.345-11.796c-0.202-1.217-1.415-1.806-2.489-1.986c-2.551-0.46-5.128-0.568-7.705-0.728
		c-3.088-0.219-6.102-1.056-9.207-1.105c-2.002-0.095-3.453,1.807-4.128,3.532c-1.355,3.938-1.663,8.119-2.14,12.221
		c-0.608,5.879-3.154,11.457-3.063,17.408c0.075,1.188,0.261,2.747,1.502,3.27c4.267,2.227,9.056,2.997,13.542,4.648
		c4.447,1.596,9.657,1.813,13.293,5.122c0.653,1.834,0.186,3.868-0.5,5.616c-1.871,5.003-3.605,10.055-5.693,14.974
		c-0.653,1.55-1.65,2.897-2.667,4.231c-1.473-0.095-3.298,0.311-4.372-0.99c-1.098-1.473-1.062-3.498-0.625-5.221
		c1.019-3.495,3.022-6.702,3.576-10.36c0.222-1.413-0.512-2.917-1.836-3.452c-3.997-2.016-8.334-3.178-12.479-4.78
		c-2.141-0.738-4.512-1.796-6.729-0.803c-1.805,0.65-2.402,2.681-3.165,4.271c-3.466,8.373-7.415,16.548-11.716,24.531
		c-0.936,1.932-2.338,3.896-2.041,6.182c0.318,1.616,1.811,2.6,3.028,3.489c5.743,3.824,11.521,7.543,17.279,11.332
		c1.691,1.235,4.104,2.848,3.427,5.321c-0.797,2.299-2.367,4.224-3.711,6.202c-2.486,3.628-5.242,7.002-7.922,10.479
		c-1.051,1.252-2.137,2.787-3.904,3.041c-1.799,0.235-3.473-1.132-4.273-2.675c-0.516-1.474,0.164-2.985,1.06-4.124
		c2.231-3.177,5.175-5.896,6.698-9.529c0.812-2.088-1.018-3.806-2.456-4.996c-3.34-2.614-6.899-4.903-10.292-7.423
		c-1.723-1.146-3.617-2.843-5.814-2.148c-2.701,2.063-4.535,5.012-6.785,7.516c-5.01,6.255-10.638,11.938-16.091,17.773
		c-1.89,1.628-1.325,4.527,0.265,6.163c5.029,6.031,10.293,11.868,15.366,17.878c0.794,1.2,2.263,2.872,0.991,4.232
		c-2.98,3.581-6.884,6.163-10.43,9.088c-2.151,1.459-4.201,3.749-7.006,3.614c-2.599-0.239-4.182-3.324-2.891-5.593
		c2.496-3.329,6.74-4.903,8.865-8.561c0.307-1.964-1.078-3.575-2.115-5.041c-2.564-3.339-5.179-6.661-7.888-9.892
		c-1.14-1.221-2.312-2.627-3.948-3.131c-2.174,0.292-3.92,1.873-5.686,3.088c-5.062,3.801-10.348,7.275-15.723,10.577
		c-1.586,1.023-3.252,2.036-4.402,3.557c-0.607,1.62,0.1,3.308,0.885,4.705c3.494,6.676,6.908,13.349,10.426,19.986
		c0.826,1.642,1.213,4.117-0.523,5.309c-2.931,2.291-6.582,3.361-9.867,5.033c-2.869,1.154-5.77,3.171-9.018,2.352
		c-1.996-0.946-2.318-3.688-1.42-5.476c3.101-3.313,8.042-3.827,11.211-7.08c-0.027-1.39,0-2.811-0.656-4.054
		c-2.016-4.293-4.043-8.584-6.16-12.832c-0.705-1.581-1.898-2.817-3.169-3.911c-2.063,0.422-4.106,0.857-6.022,1.729
		c-4.057,1.776-8.22,3.243-12.373,4.771c-4.094,1.496-8.432,2.359-12.363,4.247c-2.41,1.006-1.625,4.13-1.582,6.208
		c0.801,4.17,2.354,8.164,2.982,12.381c0.619,4.186,3.161,8.309,2,12.616c-1.484,2.573-4.858,2.604-7.435,2.993
		c-5.886,0.327-11.519,3.36-17.491,2.237c-3.037-0.81-3.541-5.604-0.774-7.071c4.276-2.102,9.628-0.191,13.673-2.972
		c1.902-1.235,1.492-3.788,1.436-5.751c-0.66-5.353-1.344-10.8-3.488-15.785c-0.641-1.674-2.564-2.338-4.216-2.184
		c-5.545,0.389-10.922,2.197-16.505,2.153c-4.592,0.016-9.15,0.473-13.723,0.412c-1.818,0.061-3.973-0.131-5.302,1.435
		c-0.497,2.321-0.994,4.637-1.184,7.02c-0.299,2.565-0.147,5.2-0.998,7.661c-0.254,4-0.057,8.025-0.445,12.028
		c-0.2,1.427-0.629,3.566-2.41,3.681c-2.952,0.307-5.916,0.053-8.865-0.077c-4.694-0.411-9.522-0.543-13.92-2.412
		c-1.169-0.52-2.479-1.146-2.912-2.437c-0.478-1.871,1.097-3.573,2.702-4.163c5.09-1.029,10.361,1.574,15.321-0.213
		c1.484-1.329,1.537-3.565,1.72-5.43c0.098-4.286,0.808-8.485,1.579-12.677c0.494-2.192-0.908-4.341-2.9-5.119
		c-5.085-2.274-10.85-1.755-16.129-3.369c-4.497-1.389-9.248-1.815-13.704-3.397c-1.533-0.572-3.162-0.557-4.747-0.544
		c-3.227,3.994-3.914,9.272-5.766,13.941c-1.758,4.52-2.54,9.492-5.127,13.655c-1.844,2.054-4.887,0.81-7.066,0
		c-4.505-1.948-9.259-3.445-13.488-5.989c-3.025-1.939-1.18-7.018,2.167-7.148c4.296,0.718,7.845,4.025,12.293,4.239
		c2.709-3.674,3.867-8.165,5.643-12.312c1.021-2.978,2.968-5.928,2.299-9.226c-1.453-1.908-3.719-2.865-5.813-3.864
		c-6.087-2.736-12.09-5.645-17.867-8.997c-1.098-0.603-2.198-1.246-3.385-1.503c-1.542-0.407-2.375,1.25-3.272,2.229
		c-4.068,5.758-7.503,11.944-11.317,17.886c-1.124,1.681-2.174,3.561-3.906,4.676c-1.467,0.387-2.91-0.261-4.094-1.07
		c-3.644-2.437-7.256-4.941-10.732-7.621c-1.367-1.178-2.957-2.422-3.382-4.301c-0.026-2.657,2.756-4.613,5.233-3.818
		c3.466,1.236,5.784,4.528,9.271,5.758c1.905,0.466,3.333-1.281,4.438-2.572c2.93-3.828,5.563-7.882,8.151-11.938
		c0.729-1.345,1.826-3.002,0.949-4.536c-0.998-1.826-2.687-3.102-4.25-4.415c-5.997-4.636-11.659-9.7-17.252-14.825
		c-1.507-1.421-3.454-3.237-5.666-2.314c-3.096,1.543-5.21,4.438-7.795,6.653c-3.989,3.443-7.503,7.408-11.496,10.867
		c-1.029,0.917-2.428,1.749-3.825,1.198c-1.548-0.854-2.748-2.182-3.921-3.481c-3.62-4.056-6.899-8.416-10.258-12.685
		c-1.195-1.375-1.707-3.301-1.153-5.058c1.116-1.558,3.029-3.038,5.018-2.282c3.692,2.978,5.654,7.63,9.376,10.592
		c1.739,0.941,3.988,0.445,5.39-0.916c4.178-3.657,8.39-7.293,12.474-11.081c0.008-1.406,0.015-2.826,0.046-4.216
		c-2.083-3.27-4.646-6.171-6.786-9.379c-3.445-5.178-7.002-10.297-10.144-15.679c-1.268-1.974-2.55-4.304-4.922-5.01
		c-1.647-0.259-3.172,0.554-4.603,1.252c-5.89,3.123-11.894,6.037-17.78,9.214c-1.583,0.909-3.479,1.437-5.287,0.919
		c-1.893-1.214-2.681-3.497-3.662-5.444c-2.148-4.659-4.041-9.43-5.942-14.168c-0.55-1.572-1.362-3.421-0.505-5.023
		c1.507-1.842,4.714-1.946,6.437-0.411c1.981,2.533,2.611,5.798,3.955,8.686c0.85,2.05,2.091,4.585,4.607,4.716
		c3.894-0.887,7.264-3.188,10.967-4.621c2.547-1.276,5.605-2.115,7.374-4.53c0.474-1.711,0.368-3.6-0.262-5.251
		c-3.502-9.1-6.357-18.47-8.923-27.887c-0.561-2.038-2.493-3.517-4.61-3.49c-5.21,0.068-10.11,2.18-15.252,2.818
		c-2.297,0.317-4.554,0.924-6.854,1.256c-1.654,1.011-3.677,1.395-5.423,0.378c-2.064-3.291-1.639-7.332-2.505-11.009
		c-0.588-3.501-1.863-7.03-1.34-10.604c0.501-3.711,6.809-3.794,7.669-0.259c1.135,3.2-0.056,6.861,1.602,9.914
		c1.052,2,3.579,2.291,5.583,2.069c5.667-0.658,11.609-0.745,16.816-3.351c2.458-1.186,1.528-4.367,1.518-6.548
		c-1.416-4.344-1.92-9-1.689-13.556c-0.581-3.422,0-6.941-0.65-10.371c-1.543-3.124-5.616-2.963-8.595-3.064
		c-5.844-0.597-11.734-0.465-17.621-0.572c-1.651-0.111-3.613-0.363-4.634-1.84c-0.402-0.924-0.323-1.966-0.388-2.941
		c0-4.683,0.065-9.386,1.003-13.969c0.425-1.742,1.226-3.543,2.694-4.613c1.723-0.656,4.145-0.375,4.835,1.628
		c0.713,3.887-0.319,7.869,0.292,11.764c0.232,1.405,1.257,2.669,2.66,2.982c3.488,0.78,7.079,0.619,10.63,0.78
		c2.392,0.029,4.805,0.251,7.2,0.007c2.25-0.176,3.335-2.581,3.866-4.514c1.018-4.986,0.767-10.196,2.183-15.118
		c1.07-3.67,1.659-7.481,2.251-11.269c0.494-2.442-0.842-5.27-3.256-6.028c-7.066-2.427-14.322-4.221-21.423-6.481
		c-1.309-0.489-2.79-0.948-3.609-2.172c-0.531-1.742-0.254-3.632,0.414-5.304c2.398-6.057,4.144-12.412,7.063-18.262
		c0.706-0.751,1.177-2.169,2.421-1.962c0.807,0.122,1.59,0.428,2.356,0.691c0.792,1.161,2.147,2.194,1.943,3.768
		c-0.049,4.721-4.038,8.505-3.589,13.309c-0.145,2.223,2.197,3.272,3.896,4.005c4.24,1.528,8.494,2.962,12.737,4.484
		c1.499,0.611,3.122,0.539,4.712,0.496c0.889-1.429,1.746-2.905,2.38-4.483c3.07-7.606,6.732-14.938,10.467-22.221
		c1.218-2.532,2.968-4.865,3.472-7.683c-0.026-2.292-1.976-3.884-3.688-5.106c-5.598-3.774-11.358-7.316-16.979-11.059
		c-1.67-1.137-3.321-2.916-3.067-5.121c0.566-2.111,1.988-3.823,3.208-5.583c2.914-3.967,5.787-7.97,8.892-11.777
		c1.191-1.234,2.494-3.097,4.444-2.616c2.147,0.772,4.337,3.245,3.074,5.637c-1.947,3.463-4.979,6.152-7.044,9.523
		c-0.625,1.024-1.066,2.382-0.489,3.537c0.967,1.901,2.777,3.089,4.406,4.33c3.229,2.322,6.364,4.788,9.737,6.904
		c1.704,1.132,4.334,1.378,5.822-0.229c1.587-1.459,2.888-3.231,4.304-4.865c4.311-5.236,8.892-10.219,13.526-15.146
		c1.677-1.841,3.821-3.444,4.625-5.903c0.486-1.948-0.847-3.65-2-5.056c-4.224-4.946-8.607-9.748-12.846-14.675
		c-1.416-1.738-3.234-3.735-2.657-6.186c0.725-1.714,2.262-2.861,3.594-4.067c3.349-2.779,6.817-5.416,10.35-7.978
		c1.329-1.083,3.154-1.364,4.782-0.859c1.688,1.17,2.376,3.613,1.416,5.45c-2.103,3.035-5.807,4.418-8.004,7.367
		c-1.37,1.793-0.437,4.104,0.779,5.688c2.23,2.93,4.645,5.674,6.922,8.561c1.541,1.81,2.911,3.949,5.089,5.041
		c1.909,0.097,3.511-1.367,5.04-2.363c5.814-4.392,11.943-8.337,18.118-12.231c1.131-0.746,2.182-1.644,3.222-2.498
		c-0.042-1.245,0.071-2.567-0.547-3.697c-2.523-5.232-5.457-10.258-8.022-15.488c-1.5-3.154-4.022-6.117-3.644-9.845
		c3.48-3.238,8.103-4.566,12.243-6.639c2.278-0.952,4.482-2.418,7.021-2.502c2.606,1.073,3.473,4.659,1.941,6.912
		c-3.035,2.352-7.152,2.822-10.033,5.423c-1.438,1.252-0.876,3.459-0.197,4.995c1.734,3.796,3.545,7.538,5.37,11.277
		c0.88,1.706,1.688,3.519,3.172,4.799c1.696,0.473,3.534,0.253,5.147-0.466c7.457-3.051,14.974-6.018,22.739-8.187
		c2.042-0.631,4.49-1.62,5.165-3.879c0.763-5.491-2.155-10.533-2.819-15.871c-0.535-4.407-3.139-8.532-2.277-13.075
		c0.623-0.772,1.567-1.13,2.448-1.504c4.786-1.689,9.791-2.625,14.847-2.926c2.467-0.641,5.134-1.279,7.651-0.619
		c0.151,0.162,0.432,0.451,0.588,0.619c1.495,0.497,2.253,2.005,1.95,3.56c0.147,1.641-1.556,2.409-2.827,2.84
		c-3.31,1.055-6.709,1.755-10.125,2.281c-1.347,0.193-2.597,0.748-3.791,1.396c-0.543,6.859,1.449,13.576,3.118,20.137
		c0.494,2.382,3.28,2.585,5.215,2.382c3.552-0.503,7.131-0.526,10.714-0.764c6.815-0.938,13.746-1.023,20.618-1.713
		c1.716-0.172,3.363-1.241,3.985-2.911c1.624-4.674,0.698-9.767,1.799-14.5c0.151-3.544,0.054-7.079,0.3-10.601
		c0.213-1.451,0.679-3.307,2.148-3.917c5.673-0.886,11.154,1.504,16.805,1.727c2.735,0.359,5.805,0.083,8.193,1.74
		c2.234,2.04,0.963,6.346-1.981,6.859c-2.968,0.366-6.008-0.106-8.831-1.02c-2.447-0.11-5.021-0.297-7.162,1.119
		c-1.213,4.705-0.496,9.677-1.681,14.413c-0.026,2.428,0.19,4.83,0.501,7.231c2.387,2.113,5.715,1.726,8.615,2.373
		c3.477,0.732,6.876,1.797,10.406,2.225c5.836,0.778,11.377,4.094,17.385,2.993c1.754-1.199,2.391-3.459,3.154-5.353
		c2.124-6.476,4.242-12.969,6.484-19.43c0.51-1.237,0.987-2.734,2.236-3.429c1.529-0.352,3.115,0.064,4.562,0.652
		c3.905,1.578,7.799,3.189,11.651,4.9c1.76,0.824,3.65,1.733,4.683,3.482c0.774,2.033-0.573,4.996-2.945,4.923
		c-4.596,0.553-8.163-4.174-12.819-2.975c-2.068,1.547-2.755,4.262-3.754,6.531c-1.357,3.879-3.195,7.605-4.105,11.631
		c-0.589,2.268,1.043,4.354,3.058,5.179c7.071,3.318,14.197,6.59,20.95,10.539c1.953,1.257,4.865,1.184,6.152-0.985
		c5.357-7.232,9.255-15.458,14.732-22.594c1.213,0.067,2.527-0.139,3.619,0.5c2.907,1.558,5.43,3.712,8.125,5.605
		c2.167,1.613,4.559,2.998,6.292,5.119c1.606,2.611-0.698,6.773-3.854,6.163c-3.599-1.399-6.064-4.743-9.561-6.323
		c-1.002-0.306-2.23-0.39-2.979,0.45c-2.463,2.36-4.057,5.465-6.072,8.217c-1.746,2.742-4,5.225-5.105,8.311
		c-0.492,2.396,1.72,4.096,3.291,5.489c5.97,4.652,11.689,9.65,17.264,14.82c1.533,1.303,2.919,2.948,4.854,3.656
		c1.628,0.464,3.062-0.695,4.209-1.689c4.9-4.474,9.506-9.248,14.406-13.685c1.435-1.321,2.843-2.769,4.664-3.545
		c1.762-0.703,3.249,0.829,4.418,1.934c3.912,4.146,7.309,8.736,10.938,13.128c1.053,1.398,2.25,2.864,2.479,4.666
		c-0.426,2.733-4.18,4.803-6.434,2.76c-3.482-3.019-5.445-7.618-9.374-10.18c-1.487-1.011-3.025,0.409-4.251,1.188
		c-3.991,3.238-7.89,6.618-11.578,10.195c-1.852,1.574-2.03,4.534-0.561,6.424c6.117,8.172,11.904,16.614,17.062,25.436
		c1.172,1.562,2.397,3.947,4.645,3.762c1.905-0.069,3.484-1.303,5.146-2.093c5.665-2.903,11.336-5.774,16.926-8.799
		c1.302-0.592,2.633-1.413,4.133-1.324c1.704,0.562,2.732,2.146,3.453,3.712c2.471,5.296,4.641,10.733,6.857,16.119
		c0.486,1.313,1.057,2.665,0.812,4.086c-0.463,2.244-2.898,3.947-5.131,3.133c-2.125-1.271-2.898-3.768-3.776-5.93
		c-1.017-2.513-1.803-5.243-3.556-7.354c-1.268-1.729-3.708-1.322-5.469-0.703c-3.75,1.711-7.469,3.567-11.256,5.219
		c-1.553,0.799-3.428,1.429-4.346,3.028c-0.512,2.063-0.27,4.285,0.576,6.237c2.869,7.164,5.135,14.553,7.283,21.954
		c0.801,3.063,1.105,6.771,4.016,8.607c3.613,0.596,7.006-1.321,10.562-1.565c5.799-0.475,11.222-3.377,17.09-2.922
		c1.241-0.011,2.425,0.791,2.776,2.004c0.816,2.415,1.014,4.997,1.606,7.477c0.884,3.759,1.4,7.649,1.136,11.533
		c0.014,1.035-0.824,1.764-1.361,2.555c-1.559,0.836-3.354,0.967-4.865-0.072c-3.414-3.471-0.854-8.944-3.312-12.859
		c-1.06-1.357-2.968-1.581-4.546-1.357c-3.834,0.53-7.546,1.781-11.405,2.126c-2.308,0.282-5.069,0.218-6.58,2.345
		c-1.519,1.366-1.146,3.552-0.806,5.353c0.639,3.193,1.033,6.408,1.333,9.665c0.327,4.821,0.015,9.697,0.68,14.526
		c0.113,1.152,0.831,2.303,2.022,2.539c2.305,0.589,4.698,0.307,7.045,0.459c5.426,0.374,10.85,0.255,16.272,0.42
		c1.245,0.045,2.515,0.238,3.688,0.664c1.51,0.749,2.223,2.536,2.27,4.17C416.832,231.832,416.292,236.654,415.844,241.454z"/>
	<path fill="#FFFFFF" d="M307.04,165.712c0,0.222,0.126,0.344,0.353,0.344c0-0.479,0-0.703,0-0.703
		C307.166,165.361,307.04,165.475,307.04,165.712z"/>
	<path fill="#FFFFFF" d="M315.021,167.809c0-1.631-0.918-2.693-2.771-3.162c-0.455,0-0.989-0.058-1.56-0.181
		c-0.592-0.102-1.104-0.052-1.574,0.181c-0.468,0.469-0.852,0.874-1.219,1.226c-0.338,0.359-0.732,0.764-1.207,1.229
		c-1.389,2.581-2.831,5.095-4.339,7.554c-1.495,2.456-3.407,4.625-5.716,6.499c-0.465,0.236-0.875,0.287-1.231,0.175
		c-0.331-0.118-0.63-0.175-0.854-0.175c-0.246-0.473-0.576-0.702-1.043-0.702c-0.463,0-0.463-0.246,0-0.704
		c-0.243-0.469-0.354-1.298-0.354-2.462c0.467-0.466,0.642-0.991,0.523-1.571c-0.117-0.59,0.059-1.122,0.523-1.587
		c0-1.405,0.184-2.987,0.514-4.735c0.344-1.764-0.281-3.215-1.902-4.403c-0.701-0.217-1.396-0.455-2.087-0.694
		c-0.683-0.229-1.272-0.118-1.73,0.352c-1.153,0.469-2.034,1.352-2.608,2.638c-0.588,1.284-1.559,1.589-2.959,0.874
		c-0.676-1.172-1.621-2.286-2.773-3.333c-1.146-1.058-2.423-1.59-3.808-1.59c-11.335,1.178-21.923,4.221-31.765,9.143
		c-9.828,4.908-18.584,11.815-26.201,20.706c-4.401,6.548-8.212,13.514-11.453,20.891c-3.249,7.381-4.638,15.279-4.175,23.702
		c-0.694,11.234,1.283,21.651,5.902,31.241c4.641,9.598,11.343,17.797,20.136,24.577c3.462,2.807,7.111,4.976,10.93,6.494
		c3.818,1.529,7.811,2.743,11.98,3.683c4.176,0.939,8.323,1.753,12.494,2.459c4.167,0.702,8.334,1.75,12.481,3.163
		c2.319,0.465,4.513,0.277,6.615-0.544c2.095-0.803,4.05-1.917,5.894-3.325c0.246-0.218,0.284-0.394,0.168-0.528
		c-0.1-0.109,0.078-0.179,0.534-0.179c2.3-2.788,3.587-6.003,3.813-9.637c0.232-3.64-0.58-6.966-2.432-10.018
		c-1.158-2.57-2.774-4.556-4.854-5.953c-0.469-1.871-0.24-3.407,0.697-4.567c1.15-1.172,2.482-2.169,3.978-2.986
		c1.515-0.821,2.03-2.283,1.563-4.383c-0.467-1.409-1.385-2.345-2.767-2.818c-1.173-0.474-2.546-0.358-4.171,0.348
		c-1.389-0.23-2.789-0.23-4.163,0c-1.399,0.247-2.675,0.935-3.822,2.116c-1.62,1.871-1.851,3.962-0.71,6.32
		c0.71,0.466,0.878,1.004,0.544,1.581c-0.36,0.58-0.544,1.099-0.544,1.576c-1.381,3.274-3.92,4.907-7.616,4.907
		c-2.554-0.458-4.394-1.386-5.548-2.803c-1.169-0.947-1.811-2.174-1.916-3.681c-0.125-1.532,0.064-2.881,0.504-4.042
		c0.93-3.283,2.676-5.849,5.223-7.728c2.539-1.879,5.203-3.276,7.973-4.212c2.326-0.932,4.756-1.409,7.287-1.409
		c2.326,0,4.763,0.236,7.298,0.718c0.471,0.691,1.165,1.107,2.087,1.214c0.924,0.119,1.738,0.069,2.429-0.179
		c1.845-0.933,2.774-2.097,2.774-3.495c0.467-1.184,0.342-2.176-0.35-2.993c-0.689-0.817-0.58-1.822,0.35-2.999
		c1.162-1.39,2.539-1.967,4.171-1.738c1.612,0.222,3.229,0.348,4.854,0.348c1.863,0.47,3.358,0.233,4.513-0.699
		c0.934-0.473,1.689-1.233,2.25-2.283c0.574-1.045,0.768-2.176,0.531-3.337c0-10.539-0.178-21.015-0.531-31.435
		c-0.338-10.41-0.979-20.633-1.89-30.703c0.46-1.877,1.087-3.802,1.89-5.792C314.623,171.971,315.021,169.92,315.021,167.809z
		 M304.315,240.489c0,0.221,2.644,0.117-1.356-0.359v0.359v0.347c-4,0.921-10.221,0.699-15.996-0.706
		c-6.033,0-11.317,1.405-16.525,4.212c-5.202,2.814-9.264,6.907-12.512,12.299c-0.93,0.917-1.473,1.978-1.811,3.147
		c-0.345,1.176-0.658,2.299-1.015,3.353c-0.342,1.03-0.833,2.092-1.524,3.146c-0.709,1.045-1.741,1.81-3.122,2.275
		c-1.624,0.473-2.877,0.588-3.811,0.356c-1.161-0.944-2.257-2.055-3.306-3.335c-1.035-1.281-1.439-2.756-1.22-4.391
		c-0.228-1.864,0.068-3.521,0.876-4.896c0.812-1.439,0.76-3.068-0.166-4.934c-0.243-1.397-0.857-2.688-1.912-3.857
		c-1.049-1.164-2.077-2.283-3.135-3.328c-1.025-1.063-2.005-2.186-2.949-3.343c-0.911-1.16-1.393-2.57-1.393-4.227
		c-0.687-5.141,1.051-9.226,5.218-12.281c9.72-4.687,17.829-11.585,24.3-20.728c2.086-2.558,3.939-5.369,5.556-8.409
		c1.613-3.039,4.05-4.91,7.298-5.612c0,0.24,0.1,0.344,0.33,0.344c0.24,0,0.346-0.104,0.338-0.344c0.479,0.24,0.824,0.24,1.043,0
		c0.24-0.229,0.602-0.359,1.057-0.359c2.545,0,4.915-0.107,7.127-0.344c2.193-0.236,4.561-0.584,7.107-1.057
		c0.452-0.447,1.041-0.685,1.738-0.685c0.468,0,0.805-0.121,1.029-0.374c0.465-0.225,0.926-0.282,1.396-0.178
		c0.466,0.133,0.93-0.046,1.377-0.524c1.172,0.011,2.334-0.107,3.483-0.335c1.157-0.245,2.076,0.228,2.764,1.411
		c0.255,0.449,0.364,1.033,0.364,1.742c0,0.703-0.227,1.169-0.706,1.406c0.235,0.47,0.137,0.764-0.346,0.886
		c-0.454,0.106-0.562,0.394-0.333,0.87c-0.463,0.233-0.768,0.523-0.893,0.883c-0.094,0.338-0.387,0.4-0.851,0.165
		c-0.474,0.236-0.929,0.478-1.38,0.703c-0.475,0.236-1.052,0.465-1.746,0.705c-4.16,0.471-8.384,0.931-12.66,1.406
		c-4.293,0.474-8.289,1.868-11.979,4.213c-0.94,0.702-1.396,1.525-1.396,2.459c0,0.939,0.118,1.985,0.354,3.157
		c0.455,0.698,1.043,0.942,1.719,1.165c0.709,0.229,1.287,0.803,1.738,0.803h0.36c0.228,0,0.456,0.829,0.675,0.601
		c0.24-0.235,0.487-0.242,0.71-0.242c0.464,0.245,0.988,0.542,1.561,0.758c0.584,0.25,1.104,0.397,1.567,0.397
		c2.068,0.465,3.757,1.83,5.027,4.041c1.279,2.233,3.186,3.235,5.725,3c2.322-0.7,3.415-2.16,3.294-4.391
		c-0.095-2.214,0.417-4.163,1.571-5.773c0.689-0.955,1.264-2.001,1.734-3.158c0.467-1.192,2.158-1.884,3.778-2.114
		c1.855,0,4.47,0.823,4.47,2.455c0,0.708,0,1.051,0,1.051c0,2.587-0.315,5.028-0.315,7.373c0,2.112-0.09,4.46,0.375,7.027
		c0,0.24-0.214,0.523-0.339,0.882c-0.109,0.343-0.12,0.646,0.092,0.871c0,0.463-0.15,0.777-0.382,0.886
		c-0.239,0.107-0.142,0.275,0.321,0.52c-0.213,2.108-0.22,4.322-0.007,6.658c0.227,2.357,0.016,4.817,0.016,7.399
		C306.719,237.563,305.697,239.075,304.315,240.489z"/>
	<path fill="#FFFFFF" d="M132.099,289.635h0.342v-0.707C132.221,288.928,132.099,289.16,132.099,289.635z"/>
	<path fill="#FFFFFF" d="M261.568,325.431c0.701,0,0.815-0.207,0.346-0.695c0,0.229,0,0.359,0,0.359
		C261.689,325.095,261.568,325.224,261.568,325.431z"/>
	<path fill="#FFFFFF" d="M218.197,403.171c-0.041,0.261-0.057,0.51-0.057,0.726c0.016,0.176,0.016,0.351,0.016,0.533
		c0.277-0.465,0.607-0.916,0.968-1.345C218.805,403.101,218.501,403.138,218.197,403.171z"/>
	<path fill="#FFFFFF" d="M325.089,138.31c-1.832-0.695-3.7-1.521-5.549-2.429c-1.157-0.485-2.311-1.007-3.477-1.604
		c-1.168-0.581-2.311-1.103-3.471-1.582c-0.221-0.228-0.681-0.351-1.379-0.351c-3.468-1.863-6.819-3.162-10.076-3.849
		c-0.451-0.243-0.922-0.474-1.388-0.705c-0.451-0.249-0.927-0.471-1.397-0.707c-0.688,0-1.377-0.107-2.068-0.345
		c-3.24-0.703-6.315-1.878-9.211-3.52c-2.891-1.627-5.494-3.85-7.795-6.676c-0.479,0.261-0.75,0.061-0.892-0.51
		c-0.106-0.589-0.452-0.765-0.938-0.536c-1.139-1.16-2.491-1.871-2.491-2.108v0.356c0-0.462-0.508-0.812-0.956-1.043
		c-0.471-0.252-0.906-0.474-1.361-0.722c-2.771-2.081-6.103-3.505-10.05-4.215c-3.932-0.684-7.846-1.172-11.802-1.387
		c-2.77-0.479-5.187-1.703-7.274-3.684c-2.094-1.991-4.395-3.224-6.938-3.701c-6.255-2.334-12.778-3.789-19.616-4.376
		c-6.817-0.589-13.472-1.115-19.938-1.589c-0.25,0.236-0.473,0.236-0.708,0c-0.244-0.221-0.467-0.221-0.695,0
		c-6.015-0.221-12.034-0.345-18.048-0.345c-6.259,0-12.387,0.345-18.392,1.047c-1.619,0-3.252,0.115-4.873,0.352
		c-1.62,0.229-3.347,0.229-5.195,0c-0.466,0.476-0.869,0.535-1.221,0.176c-0.342-0.353-0.745-0.283-1.208,0.179
		c-0.702,0-1.332,0.057-1.912,0.18c-0.584,0.11-1.094,0.168-1.563,0.168c-1.158,0-2.193,0.351-3.131,1.061
		c-0.919,0.695-1.955,1.398-3.113,2.106c-3.012,3.278-5.787,6.368-8.342,9.312c-2.538,2.909-5.084,6.125-7.643,9.638
		c-0.683,0.466-1.255,1.412-1.718,2.811c0.463,1.878,1.488,2.811,3.119,2.811c7.868-1.878,15.613-3.566,23.256-5.095
		c7.644-1.526,15.518-2.863,23.598-4.04c5.325-0.687,10.713-1.161,16.133-1.409c5.45-0.226,10.828-0.347,16.164-0.347
		c2.539,0.225,5.146,0.404,7.81,0.542c2.656,0.103,5.248,0.405,7.803,0.859c1.17,0.477,1.738,1.405,1.738,2.813
		c0,0.696-0.479,1.521-1.396,2.467c-1.15,0-2.193-0.243-3.123-0.718c-3.241,0-6.535-0.105-9.878-0.343
		c-3.367-0.233-6.668-0.352-9.894-0.352c-3.939,0.229-7.818,0.466-11.651,0.694c-3.813,0.252-7.677,0.718-11.625,1.413
		c-1.138,0.703-1.502,1.879-1.036,3.514c1.617,3.268,3.709,6.148,6.255,8.608c2.539,2.455,5.435,4.75,8.676,6.831
		c2.079,1.176,4.094,2.341,6.06,3.513c1.974,1.18,4.24,1.989,6.778,2.466c0.482,0.467,0.93,0.928,1.401,1.401
		c0.467,0.466,0.573,1.169,0.345,2.108c0,0.458-0.182,0.825-0.539,1.049c-0.33,0.226-0.725,0.577-1.207,1.06
		c-4.622-0.483-9.014-0.306-13.188,0.522c-4.163,0.813-8.558,1.703-13.18,2.624c-1.173,0.465-2.209,0.767-3.131,0.879
		c-0.918,0.118-1.962,0.42-3.127,0.885c-0.467-0.236-0.759-0.236-0.865,0c-0.107,0.237-0.395,0.458-0.874,0.696
		c-1.852,0.471-3.636,0.993-5.385,1.577c-1.723,0.583-3.416,1.347-5.017,2.282c-2.319,0.948-4.513,1.952-6.597,2.983
		c-2.091,1.068-4.053,2.169-5.904,3.345c-8.106,4.91-15.688,10.363-22.744,16.312c-7.051,5.98-13.943,12.473-20.646,19.497
		c-0.224,0.474-0.524,0.88-0.881,1.215C96.179,202.745,96,203.15,96,203.6c0.471,0.486,0.346,0.955-0.341,1.431
		c0.235,3.267,0.452,6.714,0.687,10.354c0.231,3.624,0.819,7.087,1.745,10.364c0.229,0.45,1.15,0.917,2.763,1.389
		c0.24-0.472,0.577-0.635,1.048-0.515c0.467,0.103,0.808-0.057,1.04-0.523c7.411-11.482,16.079-22.073,26.026-31.787
		c9.962-9.71,21.181-17.146,33.678-22.29c3.94-1.401,7.807-2.753,11.625-4.04c3.817-1.288,7.806-2.272,11.973-2.994
		c0.467,0,0.938,0.126,1.401,0.371c0.451,0.217,0.792,0.573,1.028,1.038c0.475,1.172,0.36,2.117-0.337,2.819
		c-0.471,0.465-0.934,0.874-1.39,1.229c-0.471,0.352-0.929,0.397-1.399,0.176c-0.911,0.459-1.731,0.642-2.425,0.519
		c-0.688-0.122-1.499,0.054-2.426,0.532c-13.423,3.737-25.924,9.768-37.487,18.066c-11.58,8.32-21.401,18.559-29.506,30.731
		c-2.319,3.283-4.395,6.435-6.243,9.471c-1.856,3.056-3.708,6.201-5.556,9.481c-1.15,2.57-1.204,4.919-0.167,7.026
		c1.028,2.107,2.016,4.219,2.938,6.324c0.466,0.457,0.808,1.165,1.055,2.085c0.224,0.949,0.793,1.531,1.73,1.782
		c1.62,0.231,3.241-0.251,4.854-1.413c3.939-6.315,8.163-12.704,12.667-19.138c4.512-6.428,9.37-12.586,14.581-18.437
		c5.21-5.843,10.808-11.227,16.85-16.137c6.004-4.911,12.357-9.012,19.077-12.296c1.158,0,2.49-0.58,3.997-1.757
		c1.491-1.156,2.721-0.58,3.636,1.757c0.232,0.477,0,1.297-0.688,2.459c-3.939,2.574-7.935,4.98-11.981,7.206
		c-4.042,2.223-7.928,4.973-11.632,8.241c-9.244,7.251-17.283,15.575-24.122,24.927c-6.828,9.36-13.244,19.075-19.252,29.141
		c-1.628,3.279-1.628,6.324,0,9.137c1.849,1.867,3.396,3.964,4.671,6.323c1.279,2.335,3.665,3.384,6.443,3.163
		c0-0.485,1.398-0.707,1.398-0.707v0.352c0-1.88,2.305-3.872,2.769-5.979c0.455-2.097,1.081-4.103,2.249-5.965
		c3.939-10.288,9.162-19.781,15.878-28.442c7.166-9.821,15.568-18.024,25.292-24.569c0.455-0.48,0.9-0.935,1.363-1.413
		c0.47-0.454,1.146-0.587,2.073-0.35c0.922,0.935,1.494,1.633,1.726,2.112c0.471,1.638,0.071,2.76-1.22,3.34
		c-1.267,0.581-2.36,1.219-3.297,1.933c-10.41,8.198-19.314,17.893-26.73,29.14c-7.404,11.238-12.725,23.168-15.961,35.796
		c0,2.109,0.462,3.992,1.4,5.618c1.146,1.16,2.353,2.164,3.636,2.985c1.267,0.811,2.599,1.586,3.988,2.286
		c0.695,0.479,1.731,0.479,3.131,0c0.695-0.467,1.147-0.993,1.382-1.566c0.231-0.596,0.573-1.12,1.047-1.588
		c2.304-8.673,5.375-16.918,9.196-24.754c3.818-7.836,8.733-15.39,14.755-22.649c1.153-1.179,2.193-2.28,3.111-3.333
		c0.933-1.045,1.981-2.037,3.127-2.986c0.92,0,1.856,0.229,2.771,0.703c0.938,0.931,1.051,1.978,0.364,3.166
		c-2.091,3.039-4.409,5.899-6.948,8.604c-2.554,2.688-4.744,5.682-6.596,8.958c-2.539,3.967-4.808,7.95-6.777,11.93
		c-1.962,3.987-3.758,8.18-5.378,12.628c0,0.475-0.219,1.173-0.683,2.109c-0.471,2.112-1.063,4.159-1.746,6.152
		c-0.683,1.986-1.274,4.041-1.73,6.145c0,2.346,0.684,4.203,2.084,5.604c1.62,0.944,3.245,1.994,4.85,3.152
		c1.621,1.184,3.374,1.534,5.211,1.069c0-1.177,0.353-1.413,1.06-0.705c1.146-1.179,1.726-2.458,1.726-3.871
		c0-1.622,0.227-3.035,0.702-4.199c2.767-14.521,8.09-27.38,15.951-38.62c0.937-0.461,1.621-0.706,2.083-0.706
		c1.158,0,1.966,0.587,2.429,1.756c0.231,1.405-0.227,2.688-1.385,3.869c-1.852,3.962-3.882,7.901-6.061,11.757
		c-2.208,3.858-4.007,7.897-5.392,12.105c-0.918,3.283-1.795,6.569-2.611,9.837c-0.805,3.276-1.325,6.548-1.56,9.819
		c-0.239,1.189,0,2.219,0.703,3.163c0.698,0.933,1.376,1.773,2.087,2.466c1.613,0.475,3.001,1.162,4.148,2.096
		c1.157,0.945,2.558,1.053,4.179,0.349c0.918-0.466,1.381-1.03,1.381-1.749c0.474-0.221,0.633-0.58,0.539-1.045
		c-0.125-0.482,0.053-0.946,0.52-1.413c0.217-5.382,1.14-10.585,2.756-15.612c1.636-5.048,3.601-9.894,5.912-14.579
		c0.236-0.461,0.812-0.701,1.731-0.701c1.154,0,1.981,0.701,2.433,2.122c0.451,1.164,0.357,2.039-0.346,2.628
		c-0.686,0.565-1.042,1.336-1.042,2.271c-1.855,4.69-3.416,9.237-4.68,13.697c-1.275,4.454-2.034,9.249-2.266,14.381
		c-0.231,1.178,0,2.048,0.703,2.635c0.682,0.598,1.259,1.245,1.73,1.941c1.146,0.945,2.425,1.58,3.81,1.931
		c1.401,0.352,2.786,0.749,4.172,1.214c2.318,0,3.704-0.701,4.151-2.092c0.706-1.626,1.002-3.391,0.884-5.262
		c-0.128-1.886-0.056-3.504,0.175-4.919c0.474-2.114,0.811-4.288,1.047-6.498c0.22-2.223,0.797-4.266,1.731-6.149
		c0.466-0.468,0.986-0.916,1.563-1.392c0.573-0.479,1.206-0.479,1.901,0c0.706,0.476,1.282,1.058,1.73,1.752
		c0.463,0.695,0.521,0.977,0.186,1.574c-0.346,0.574-0.531,1.549-0.531,1.549h-0.339c-0.701,3-1.278,6.508-1.742,9.666
		c-0.459,3.176-0.577,6.581-0.341,9.849c0.697,2.34,2.193,4.29,4.511,5.688c0.221,0.253,1.277,0.651,3.114,1.118
		c0.474,0.465,0.989,0.677,1.577,0.554c0.574-0.129,1.082-0.057,1.561,0.178c0.69-0.234,1.393-0.337,2.084-0.337
		c0.688,0,1.381-0.239,2.08-0.715c1.148-1.176,1.441-2.388,0.864-3.681c-0.565-1.272-0.864-2.625-0.864-4.029
		c0-1.179-0.122-2.459-0.342-3.871c-0.254-1.399-0.13-2.674,0.33-3.841c0.471-0.476,0.876-0.781,1.223-0.895
		c0.345-0.122,0.754-0.29,1.222-0.521c1.385,0,2.311,0.574,2.763,1.758c0.474,1.161,0.705,2.328,0.717,3.498
		c-0.012,1.183,0.103,2.35,0.334,3.528c-0.475,0.228-0.531,0.503-0.187,0.86c0.361,0.376,0.418,0.773,0.187,1.231
		c0,1.17,0.053,2.468,0.175,3.856c0.121,1.407,0.642,2.697,1.552,3.879c1.621,1.155,3.473,1.972,5.56,2.453
		c3.932,0.689,7.917,1.337,11.978,1.924c4.045,0.604,8.031,1.116,11.97,1.597c1.39,0.22,3.014-0.13,4.862-1.069
		c0.697-0.229,1.043-1.045,1.027-2.451c-0.451-1.872-1.435-3.46-2.938-4.75c-1.491-1.292-2.596-2.849-3.286-4.743
		c-0.239-0.474-0.471-1.038-0.702-1.748c-0.239-0.695-0.462-1.392-0.688-2.117c-0.481-0.441-0.713-0.694-0.713-0.694
		c0.475-0.222,0.592-0.467,0.372-0.695c-0.254-0.229-1.148-0.472-0.894-0.694c-0.482-0.474-1.607-1.177-1.607-2.101v0.688
		c0-0.688,0.203-1.628,0.203-2.795c0-1.185,0.203-2.117-0.232-2.828l-1.523-2.45c-0.934-1.174-1.972-1.771-3.361-1.771
		c-1.623,0-3.068-0.344-4.451-1.031c-6.716-1.413-13.053-4.098-19.067-8.074c-6.022-3.985-11.207-8.907-15.61-14.747
		c-4.159-5.163-7.35-10.891-9.528-17.199c-2.209-6.338-3.59-12.938-4.167-19.834c-0.576-6.915-0.339-13.697,0.701-20.364
		c1.047-6.672,2.931-12.95,5.72-18.8c3.006-8.879,7.94-17.195,14.764-24.905c6.8-7.729,14.516-13.587,23.073-17.558
		c10.19-4.682,20.998-7.552,32.456-8.616c11.452-1.045,22.731,0.184,33.851,3.703c2.533,0,10.814,3.599,13.287,2.628
		c0.109-0.042,0.348-0.118,0.454-0.179c0.084-0.06,0.433-0.075,0.433-0.168c0-0.006,0-0.025,0-0.033
		c0-0.285,0.564-0.662,0.868-1.219c0.484-2.326,0.582-4.433,0.468-6.296c-0.12-1.871,0.949-3.64,3.258-5.281
		c1.852-1.869,2.409-4.442,1.71-7.719C328.343,140.417,326.945,139.02,325.089,138.31z M274.748,128.51
		c0,0.237-0.103,1.11-0.337,1.215c-0.221,0.123-0.221,0.651,0,0.876c-1.147,0.695-2.198,0.989-3.136,0.531
		c-0.906-0.475-1.84-0.854-2.763-1.332c-2.55-0.455-5.085-1.007-7.636-1.703c-2.558-0.695-4.5-2.211-5.9-4.542
		c-0.475-0.704-0.764-1.52-0.866-2.449c-0.125-0.931,0.046-1.648,0.521-2.104l2.426-1.049c1.855-0.229,3.707-0.357,5.556-0.357
		c1.844,0,3.465,0.475,4.864,1.421c3.932,1.168,6.125,2.481,6.596,6.689c0.229,0,0.339-1.011,0.339-1.011s0.108,0,0.337,0
		C275.23,128.695,275.23,128.055,274.748,128.51z"/>
	<path fill="#FFFFFF" d="M373.83,185.086c-0.402-4.409-2-8.602-2.907-12.937c-10.151-38.951-35.188-73.583-68.535-95.55
		c-16.839-11.219-35.78-19.146-55.503-23.385c-5.617-1.787-11.503-2.04-17.32-2.428c-7.241-0.634-14.479-1.658-21.738-1.047
		c-4.062,0.107-8.057,0.788-12.083,1.047c-5.86,0.332-11.757,0.706-17.412,2.42c-28.839,6.193-55.958,20.446-77.446,40.875
		c-20.623,19.369-36.312,44.193-44.619,71.435c-1.837,4.632-2.429,9.608-3.872,14.354c-1.416,4.979-1.344,10.218-2.289,15.281
		c-1.583,7.225-1.552,14.699-1.518,22.062c-0.061,4.873,0.242,9.776,0.705,14.617c0.786,4.128,1.572,8.245,1.959,12.422
		c0.391,4.986,2.319,9.677,3.161,14.58c3.621,12.456,8.106,24.718,14.516,35.994c21.359,39.767,59.613,69.881,103.048,80.802
		c5.724,1.963,11.811,2.084,17.617,3.688c6.934,1.329,14.035,1.185,21.074,1.261c7.393-0.009,14.827,0.1,22.19-0.771
		c3.635-0.581,7.168-1.666,10.86-2.038c4.669-0.444,9.093-2.231,13.659-3.217c19.361-5.462,37.662-14.74,53.703-26.944
		c28.676-21.689,50.012-53.14,59.506-88.059c1.021-4.761,2.682-9.362,3.219-14.22c0.619-5.781,2.457-11.422,2.457-17.268
		c0.491-9.761,0.42-19.525-0.226-29.262C375.632,194.18,374.232,189.724,373.83,185.086z M367.937,221.256
		c-0.176,2.498,0.227,5.096-0.597,7.509l-0.061,0.474c0.401,3.584-1.04,7.026-1.431,10.574c-0.573,3.234-0.385,6.726-1.921,9.733
		c-0.159,0.539-0.353,1.073-0.558,1.592c-0.064,1.662-0.361,3.341-1.158,4.812c-0.129,0.897-0.238,1.781-0.627,2.624
		c-0.303,2.482-1.027,4.926-2.246,7.123c-2.412,8.114-6.098,15.805-9.898,23.343c-4.041,7.591-8.738,14.823-13.857,21.724
		c-3.492,3.923-6.377,8.398-10.273,11.949c-2.02,2.925-4.573,5.574-7.5,7.576c-19.992,18.84-45.093,31.984-71.73,37.979
		c-3.055,1.192-6.405,1.094-9.544,1.947c-4.05,1.047-8.224,1.673-12.422,1.329c-7.62,0.468-15.298,0.461-22.937,0
		c-3.723,0.269-7.45-0.098-11.047-1.023c-2.676-0.732-5.474-0.854-8.122-1.764c-2.303-0.106-4.527-0.839-6.736-1.474
		c-25.192-6.217-48.816-19.095-67.757-37.012c-2.774-1.772-5.12-4.253-6.961-6.974c-6.417-6.26-11.729-13.573-16.796-20.954
		c-7.974-11.981-14.228-25.093-18.672-38.806c-1.055-3.237-2.308-6.441-2.604-9.878c-1.693-4.281-2.907-8.905-2.695-13.557
		c-0.021-0.236-0.064-0.68-0.086-0.913c-2.083-7.689-2.729-15.725-2.569-23.701c-0.167-8.168,0.448-16.44,2.592-24.349
		c-0.103-4.483,1.07-8.794,2.304-13.048c1.635-8.545,4.893-16.619,8.061-24.653c7.135-16.783,17.185-32.32,29.605-45.557
		c10.072-11.158,22.046-20.415,34.857-28.132c4.532-2.356,8.835-5.152,13.568-7.122c6.048-2.665,12.182-5.324,18.615-6.927
		c2.106-1.307,4.512-2.009,6.959-2.185l0.448-0.138c2.574-1.099,5.344-1.493,8.083-1.817c1.746-0.757,3.646-1.04,5.534-1.04
		c2.038-0.583,4.186-0.695,6.281-0.747c8.182-0.896,16.397-2.528,24.641-1.489c4.182,0.496,8.383,0.885,12.573,1.474
		c2.105,0.067,4.234,0.191,6.315,0.729c1.87,0.022,3.754,0.294,5.472,1.104c1.822,0.092,3.682,0.293,5.287,1.268
		c1.062,0.106,2.144,0.176,3.135,0.6c2.493,0.271,4.96,0.898,7.101,2.242c10.49,2.872,20.47,7.477,29.961,12.816
		c34.594,19.605,61.424,53.025,72.594,91.594c0.469,1.413,0.895,2.86,1.073,4.361c0.843,1.435,1.104,3.122,1.185,4.781
		c0.201,0.53,0.395,1.061,0.568,1.584c1.503,3.028,1.333,6.503,1.906,9.749c0.406,3.535,1.845,6.98,1.431,10.592l0.061,0.458
		c0.276,0.917,0.479,1.879,0.501,2.849C367.937,210.084,368.209,215.667,367.937,221.256z"/>
	<path fill="#FFFFFF" d="M101.204,189.579c11.578-10.299,23.715-19.487,36.451-27.571c12.713-8.058,26.505-13.507,41.31-16.314
		c0.679-0.472,1.259-1.412,1.73-2.81c0-1.409-0.584-2.284-1.73-2.632c-1.172-0.342-1.981-0.988-2.433-1.942
		c-1.166-1.154-2.433-1.925-3.826-2.268c-1.393-0.36-2.648-0.413-3.814-0.161c-3.939,0.687-7.738,1.452-11.457,2.261
		c-3.704,0.817-7.287,1.947-10.752,3.334c-8.099,2.588-16.08,5.8-23.973,9.672c-7.845,3.857-15.484,8.123-22.896,12.792
		c-1.385,1.639-2.201,3.519-2.425,5.63c-0.224,2.104-0.577,4.208-1.043,6.315c-0.235,1.872-0.411,3.865-0.523,5.977
		c-0.122,2.099-0.164,4.196-0.164,6.305c1.389,1.413,2.661,2.115,3.799,2.115L101.204,189.579z"/>
	<path fill="#FFFFFF" d="M103.282,152.014c1.17,1.647,2.555,2.456,4.175,2.456c1.385-0.465,2.717-1.168,3.989-2.112
		c1.267-0.935,2.599-1.642,4-2.107c7.852-3.976,15.897-7.542,24.114-10.704c8.22-3.162,16.599-5.434,25.165-6.852
		c0.694-0.228,1.502-1.052,2.433-2.442c0.471-1.887,0.061-3.343-1.218-4.396c-1.279-1.051-2.137-2.404-2.587-4.041
		c-0.938-0.928-1.872-1.344-2.795-1.219c-0.924,0.106-1.969,0.161-3.123,0.161c-9.491,1.413-19.085,3.398-28.813,5.979
		c-2.77,0.925-5.555,1.69-8.326,2.277c-2.781,0.587-5.446,1.347-7.984,2.291c-0.452,0.699-1.04,1.279-1.742,1.756
		c-0.683,0.454-1.028,1.161-1.028,2.1c-1.382,2.345-2.551,4.686-3.469,7.027c-0.934,2.33-1.981,4.804-3.131,7.371
		C103.407,150.716,103.522,151.545,103.282,152.014z"/>
</g>
</svg>
