<?xml version="1.0" encoding="utf-8"?>
<!-- Generator: Adobe Illustrator 15.0.0, SVG Export Plug-In . SVG Version: 6.00 Build 0)  -->
<!DOCTYPE svg PUBLIC "-//W3C//DTD SVG 1.1//EN" "http://www.w3.org/Graphics/SVG/1.1/DTD/svg11.dtd">
<svg version="1.1" id="Layer_1" xmlns="http://www.w3.org/2000/svg" xmlns:xlink="http://www.w3.org/1999/xlink" x="0px" y="0px"
	 width="65px" height="85px" viewBox="0 0 65 85" enable-background="new 0 0 65 85" xml:space="preserve">
<g>
	<path fill="#FFFFFF" d="M6.266,81.333c0.504,0.56,1.177,0.91,1.863,0.91c0.588,0,0.938-0.183,0.938-0.562
		c0-0.38-0.252-0.562-1.877-1.063c-1.807-0.562-2.717-1.527-2.717-3.124c0-1.835,1.429-3.012,3.67-3.012
		c1.541,0,2.928,0.531,3.81,1.64L9.95,77.521c-0.336-0.405-0.869-0.657-1.359-0.657c-0.546,0-0.869,0.168-0.869,0.518
		c0,0.435,0.336,0.617,1.835,1.093c1.919,0.616,2.76,1.474,2.76,3.041c0,1.892-1.597,3.108-4.048,3.108
		c-1.793,0-3.166-0.658-4.132-1.819L6.266,81.333z"/>
	<path fill="#FFFFFF" d="M17.621,81.458h-0.672v2.998h-3.222V74.65h3.894c2.507,0,4.202,1.063,4.202,3.404
		C21.823,80.393,20.128,81.458,17.621,81.458z M17.522,77.088h-0.574v1.934h0.574c0.645,0,1.051-0.252,1.051-0.967
		C18.573,77.327,18.167,77.088,17.522,77.088z"/>
	<path fill="#FFFFFF" d="M28.233,82.943h-2.759l-0.378,1.514h-3.39l3.054-9.805h4.202l3.054,9.805h-3.39L28.233,82.943z
		 M26.104,80.506h1.513l-0.756-2.941L26.104,80.506z"/>
	<path fill="#FFFFFF" d="M36.422,81.066v3.391h-3.221v-9.805h3.879c2.605,0,4.329,0.994,4.329,3.207c0,1.303-0.603,2.186-1.61,2.688
		l2.24,3.908h-3.403l-1.61-3.391h-0.604V81.066z M37.193,78.713c0.658,0,1.035-0.238,1.035-0.854c0-0.604-0.377-0.854-1.035-0.854
		h-0.771v1.709L37.193,78.713L37.193,78.713z"/>
	<path fill="#FFFFFF" d="M45.115,77.229H42.51v-2.576h8.434v2.576h-2.604v7.229h-3.222L45.115,77.229L45.115,77.229z"/>
	<path fill="#FFFFFF" d="M57.241,82.943h-2.759l-0.379,1.514h-3.392l3.056-9.805h4.2l3.056,9.805h-3.393L57.241,82.943z
		 M55.111,80.506h1.514l-0.756-2.941L55.111,80.506z"/>
</g>
<g>
	<path fill="#FFFFFF" d="M16.642,27.225c1.648-1.457,3.377-2.757,5.189-3.9c1.811-1.141,3.773-1.911,5.881-2.309
		c0.098-0.066,0.18-0.199,0.246-0.397c0-0.199-0.082-0.323-0.246-0.372c-0.166-0.049-0.281-0.141-0.346-0.275
		c-0.166-0.163-0.346-0.271-0.545-0.32c-0.197-0.051-0.377-0.059-0.543-0.023c-0.561,0.098-1.102,0.205-1.631,0.32
		c-0.528,0.114-1.038,0.273-1.532,0.469c-1.152,0.366-2.289,0.82-3.412,1.368c-1.117,0.546-2.205,1.149-3.259,1.811
		c-0.198,0.231-0.313,0.497-0.347,0.796c-0.031,0.298-0.082,0.596-0.148,0.895c-0.032,0.264-0.058,0.546-0.074,0.845
		c-0.017,0.297-0.023,0.594-0.023,0.893c0.197,0.199,0.379,0.299,0.542,0.299L16.642,27.225z"/>
	<path fill="#FFFFFF" d="M16.938,21.91c0.166,0.232,0.363,0.348,0.594,0.348c0.197-0.066,0.387-0.166,0.568-0.299
		c0.18-0.133,0.369-0.232,0.568-0.299c1.119-0.562,2.264-1.066,3.434-1.514s2.363-0.769,3.582-0.97
		c0.1-0.032,0.215-0.15,0.348-0.346c0.066-0.266,0.008-0.473-0.174-0.622s-0.305-0.34-0.369-0.572
		c-0.133-0.131-0.266-0.191-0.396-0.173c-0.133,0.017-0.281,0.024-0.445,0.024c-1.353,0.201-2.718,0.481-4.103,0.846
		c-0.395,0.132-0.791,0.239-1.186,0.323c-0.396,0.083-0.775,0.19-1.137,0.323c-0.064,0.099-0.148,0.181-0.248,0.249
		c-0.098,0.064-0.146,0.164-0.146,0.297c-0.197,0.332-0.363,0.663-0.494,0.994c-0.133,0.33-0.281,0.68-0.445,1.043
		C16.955,21.726,16.971,21.843,16.938,21.91z"/>
	<path fill="#FFFFFF" d="M21.088,41.38v-0.1c-0.031,0.001-0.049,0.034-0.049,0.1H21.088z"/>
	<path fill="#FFFFFF" d="M46.195,23.152C46.268,23.175,46.26,23.171,46.195,23.152L46.195,23.152z"/>
	<path fill="#FFFFFF" d="M49.107,20.569c-0.131-0.299-0.328-0.497-0.592-0.598c-0.264-0.098-0.527-0.215-0.791-0.344
		c-0.164-0.068-0.328-0.143-0.494-0.227c-0.166-0.082-0.33-0.156-0.494-0.223c-0.031-0.031-0.098-0.049-0.196-0.049
		c-0.496-0.264-0.972-0.447-1.435-0.545c-0.064-0.035-0.131-0.067-0.197-0.1c-0.064-0.035-0.133-0.066-0.199-0.099
		c-0.098,0-0.195-0.017-0.295-0.05c-0.461-0.099-0.898-0.265-1.311-0.497c-0.412-0.231-0.783-0.546-1.11-0.945
		c-0.067,0.035-0.106,0.008-0.126-0.074c-0.016-0.083-0.055-0.107-0.123-0.075c-0.163-0.164-0.28-0.264-0.346-0.298v0.05
		c-0.032-0.065-0.082-0.115-0.146-0.147c-0.066-0.035-0.133-0.067-0.197-0.102c-0.396-0.296-0.873-0.496-1.435-0.597
		c-0.56-0.097-1.119-0.166-1.681-0.197c-0.395-0.067-0.74-0.241-1.037-0.521c-0.297-0.282-0.625-0.456-0.988-0.523
		c-0.889-0.33-1.818-0.537-2.792-0.62c-0.971-0.082-1.918-0.157-2.84-0.224c-0.036,0.033-0.067,0.033-0.1,0
		c-0.036-0.032-0.067-0.032-0.1,0c-0.855-0.031-1.713-0.049-2.568-0.049c-0.89,0-1.764,0.049-2.619,0.148
		c-0.231,0-0.463,0.016-0.687,0.059c-0.23,0.032-0.476,0.032-0.74,0c-0.067,0.067-0.123,0.075-0.174,0.024
		c-0.049-0.05-0.106-0.04-0.172,0.025c-0.099,0-0.189,0.007-0.271,0.025c-0.084,0.016-0.157,0.024-0.223,0.024
		c-0.164,0-0.312,0.049-0.445,0.149c-0.131,0.099-0.279,0.198-0.443,0.298c-0.43,0.464-0.825,0.902-1.188,1.317
		c-0.361,0.413-0.725,0.868-1.088,1.365c-0.098,0.065-0.18,0.199-0.246,0.397c0.066,0.265,0.213,0.397,0.445,0.397
		c1.12-0.266,2.223-0.505,3.311-0.721c1.088-0.216,2.209-0.404,3.359-0.571c0.758-0.097,1.526-0.164,2.297-0.199
		c0.776-0.032,1.541-0.05,2.301-0.05c0.361,0.033,0.732,0.058,1.111,0.078c0.379,0.014,0.748,0.057,1.11,0.121
		c0.166,0.066,0.248,0.199,0.248,0.397c0,0.099-0.067,0.216-0.198,0.349c-0.164,0-0.312-0.034-0.445-0.1
		c-0.461,0-0.929-0.016-1.406-0.049c-0.478-0.033-0.949-0.05-1.408-0.05c-0.56,0.032-1.113,0.066-1.658,0.099
		c-0.543,0.034-1.093,0.1-1.654,0.199c-0.164,0.1-0.214,0.266-0.148,0.497c0.231,0.463,0.528,0.869,0.891,1.217
		c0.361,0.348,0.773,0.672,1.234,0.967c0.297,0.166,0.584,0.331,0.863,0.497c0.281,0.167,0.604,0.282,0.965,0.349
		c0.068,0.066,0.132,0.131,0.199,0.198c0.067,0.067,0.082,0.166,0.049,0.299c0,0.064-0.025,0.116-0.076,0.148
		c-0.047,0.032-0.104,0.082-0.172,0.149c-0.658-0.068-1.283-0.043-1.877,0.074c-0.594,0.115-1.219,0.241-1.877,0.371
		c-0.166,0.066-0.314,0.108-0.445,0.124c-0.131,0.017-0.279,0.06-0.445,0.126c-0.066-0.034-0.107-0.034-0.123,0
		c-0.016,0.034-0.057,0.065-0.125,0.098c-0.264,0.068-0.518,0.141-0.766,0.224c-0.246,0.083-0.486,0.19-0.715,0.323
		c-0.33,0.134-0.642,0.276-0.939,0.422c-0.297,0.151-0.576,0.307-0.84,0.473c-1.154,0.696-2.234,1.467-3.238,2.309
		c-1.004,0.846-1.984,1.765-2.94,2.759c-0.031,0.067-0.074,0.124-0.124,0.172c-0.048,0.052-0.073,0.109-0.073,0.173
		c0.066,0.068,0.049,0.135-0.049,0.202c0.034,0.462,0.066,0.95,0.098,1.465c0.033,0.513,0.117,1.003,0.248,1.466
		c0.033,0.064,0.164,0.131,0.395,0.197c0.033-0.066,0.082-0.09,0.148-0.073c0.066,0.015,0.115-0.008,0.148-0.074
		c1.055-1.624,2.289-3.122,3.705-4.497c1.418-1.374,3.016-2.425,4.795-3.153c0.56-0.198,1.111-0.389,1.654-0.571
		c0.543-0.183,1.111-0.322,1.705-0.424c0.066,0,0.133,0.018,0.199,0.052c0.064,0.031,0.113,0.081,0.146,0.147
		c0.066,0.165,0.051,0.297-0.049,0.397c-0.066,0.067-0.133,0.124-0.197,0.174c-0.066,0.049-0.133,0.056-0.199,0.025
		c-0.131,0.064-0.246,0.091-0.346,0.073c-0.098-0.017-0.213,0.008-0.346,0.075c-1.91,0.53-3.69,1.382-5.336,2.557
		c-1.648,1.177-3.047,2.625-4.201,4.348c-0.33,0.465-0.625,0.91-0.889,1.34c-0.264,0.432-0.527,0.877-0.791,1.342
		c-0.164,0.363-0.171,0.695-0.023,0.994c0.147,0.298,0.287,0.597,0.418,0.895c0.066,0.065,0.115,0.164,0.15,0.295
		c0.031,0.135,0.113,0.217,0.246,0.252c0.23,0.033,0.461-0.035,0.691-0.199c0.561-0.895,1.162-1.798,1.803-2.709
		c0.642-0.908,1.334-1.779,2.076-2.607c0.742-0.827,1.539-1.589,2.398-2.283c0.856-0.695,1.76-1.275,2.717-1.74
		c0.164,0,0.353-0.082,0.568-0.248c0.213-0.164,0.387-0.082,0.518,0.248c0.033,0.068,0,0.184-0.098,0.348
		c-0.56,0.365-1.129,0.706-1.705,1.02c-0.576,0.314-1.129,0.704-1.656,1.166c-1.317,1.026-2.461,2.204-3.434,3.527
		c-0.972,1.324-1.887,2.699-2.742,4.123c-0.23,0.464-0.23,0.895,0,1.293c0.264,0.264,0.484,0.561,0.666,0.895
		c0.181,0.33,0.47,0.479,0.865,0.447c0-0.069,0.05-0.1,0.148-0.1v0.049c0.232-0.266,0.379-0.547,0.445-0.846
		c0.065-0.297,0.18-0.58,0.346-0.844c0.56-1.456,1.318-2.798,2.273-4.024c1.019-1.39,2.222-2.55,3.607-3.477
		c0.064-0.067,0.131-0.132,0.197-0.199c0.067-0.065,0.164-0.083,0.297-0.05c0.131,0.133,0.213,0.232,0.246,0.299
		c0.066,0.233,0.01,0.391-0.174,0.473c-0.18,0.082-0.336,0.172-0.469,0.273c-1.483,1.16-2.75,2.532-3.805,4.123
		c-1.054,1.589-1.812,3.277-2.273,5.064c0,0.299,0.066,0.565,0.199,0.795c0.164,0.164,0.336,0.307,0.518,0.423
		c0.181,0.114,0.371,0.223,0.568,0.323c0.099,0.067,0.246,0.067,0.445,0c0.099-0.067,0.164-0.142,0.197-0.223
		c0.033-0.084,0.082-0.159,0.148-0.225c0.329-1.227,0.766-2.394,1.309-3.502c0.545-1.108,1.245-2.177,2.102-3.204
		c0.164-0.167,0.312-0.323,0.443-0.472c0.133-0.149,0.281-0.288,0.445-0.423c0.131,0,0.264,0.033,0.395,0.1
		c0.133,0.132,0.149,0.28,0.051,0.448c-0.297,0.43-0.627,0.835-0.988,1.217c-0.363,0.381-0.675,0.804-0.939,1.268
		c-0.361,0.562-0.684,1.126-0.965,1.688c-0.28,0.564-0.536,1.158-0.766,1.787c0,0.068-0.032,0.166-0.098,0.299
		c-0.066,0.299-0.15,0.588-0.248,0.869c-0.098,0.281-0.182,0.572-0.246,0.87c0,0.333,0.098,0.595,0.297,0.793
		c0.23,0.133,0.46,0.281,0.689,0.445c0.23,0.168,0.48,0.215,0.742,0.149c0-0.166,0.05-0.201,0.15-0.101
		c0.164-0.166,0.246-0.348,0.246-0.547c0-0.231,0.034-0.431,0.1-0.596c0.394-2.054,1.152-3.874,2.271-5.464
		c0.133-0.066,0.231-0.1,0.297-0.1c0.164,0,0.28,0.083,0.346,0.248c0.033,0.199-0.033,0.381-0.197,0.548
		c-0.263,0.56-0.552,1.117-0.863,1.663c-0.315,0.546-0.571,1.117-0.768,1.713c-0.131,0.465-0.256,0.93-0.371,1.392
		c-0.116,0.465-0.19,0.928-0.223,1.391c-0.033,0.168,0,0.313,0.1,0.446c0.1,0.134,0.197,0.25,0.297,0.349
		c0.231,0.068,0.428,0.166,0.592,0.298c0.164,0.135,0.364,0.151,0.594,0.051c0.131-0.065,0.197-0.146,0.197-0.248
		c0.066-0.03,0.09-0.082,0.076-0.146c-0.018-0.067,0.008-0.135,0.074-0.201c0.032-0.76,0.163-1.498,0.393-2.208
		c0.233-0.713,0.512-1.399,0.842-2.062c0.033-0.066,0.115-0.1,0.246-0.1c0.164,0,0.282,0.1,0.346,0.301
		c0.064,0.164,0.051,0.288-0.049,0.371c-0.097,0.08-0.148,0.189-0.148,0.322c-0.264,0.664-0.486,1.307-0.666,1.938
		c-0.181,0.63-0.289,1.308-0.322,2.035c-0.033,0.166,0,0.29,0.1,0.373c0.098,0.084,0.18,0.174,0.246,0.274
		c0.164,0.132,0.346,0.221,0.543,0.271c0.199,0.051,0.397,0.108,0.594,0.172c0.33,0,0.528-0.099,0.592-0.296
		c0.1-0.229,0.143-0.479,0.125-0.745c-0.018-0.264-0.008-0.495,0.025-0.694c0.066-0.299,0.115-0.607,0.148-0.92
		c0.031-0.312,0.113-0.603,0.246-0.869c0.067-0.065,0.141-0.129,0.223-0.196c0.082-0.067,0.171-0.067,0.271,0
		c0.1,0.067,0.182,0.149,0.246,0.248c0.066,0.097,0.074,0.188,0.025,0.272c-0.049,0.082-0.074,0.17-0.074,0.271h-0.049
		c-0.1,0.431-0.182,0.869-0.248,1.315c-0.065,0.448-0.082,0.904-0.049,1.366c0.1,0.331,0.312,0.595,0.643,0.792
		c0.031,0.036,0.181,0.086,0.443,0.151c0.068,0.065,0.141,0.093,0.225,0.075c0.082-0.02,0.156-0.01,0.225,0.022
		c0.098-0.032,0.195-0.049,0.295-0.049c0.099,0,0.197-0.036,0.297-0.103c0.164-0.166,0.205-0.336,0.124-0.521
		c-0.081-0.179-0.124-0.372-0.124-0.569c0-0.166-0.018-0.35-0.049-0.549c-0.035-0.197-0.018-0.379,0.048-0.545
		c0.067-0.064,0.125-0.111,0.174-0.126s0.108-0.041,0.174-0.071c0.199,0,0.331,0.082,0.394,0.248
		c0.069,0.164,0.103,0.328,0.104,0.494c-0.001,0.167,0.016,0.332,0.048,0.498c-0.065,0.033-0.073,0.072-0.024,0.123
		c0.05,0.055,0.057,0.11,0.024,0.176c0,0.164,0.007,0.348,0.025,0.545c0.017,0.197,0.091,0.381,0.221,0.549
		c0.229,0.164,0.494,0.279,0.791,0.348c0.56,0.096,1.128,0.189,1.705,0.271c0.576,0.086,1.144,0.158,1.705,0.227
		c0.196,0.031,0.426-0.018,0.69-0.15c0.1-0.033,0.148-0.148,0.146-0.348c-0.064-0.266-0.205-0.489-0.418-0.672
		c-0.213-0.184-0.37-0.404-0.471-0.672c-0.033-0.066-0.066-0.146-0.1-0.246c-0.035-0.1-0.066-0.197-0.098-0.301
		c-0.07-0.063-0.102-0.1-0.102-0.1c0.067-0.033,0.084-0.066,0.053-0.098c-0.035-0.035-0.035-0.07,0-0.102
		c-0.07-0.066-0.102-0.166-0.102-0.297v0.098c-0.066-0.096-0.1-0.229-0.1-0.396c0-0.167-0.036-0.297-0.1-0.397l-0.248-0.349
		c-0.133-0.165-0.297-0.25-0.492-0.25c-0.233,0-0.447-0.048-0.643-0.146c-0.957-0.2-1.865-0.581-2.72-1.143
		c-0.858-0.564-1.598-1.26-2.225-2.086c-0.591-0.731-1.046-1.541-1.357-2.434c-0.315-0.897-0.512-1.83-0.594-2.807
		c-0.082-0.978-0.048-1.938,0.1-2.881c0.148-0.944,0.418-1.832,0.814-2.659c0.428-1.256,1.129-2.433,2.102-3.524
		c0.97-1.093,2.066-1.922,3.285-2.484c1.45-0.662,2.989-1.069,4.62-1.219c1.397-0.127,2.812,0.075,3.756,0.268
		c0.061,0.013,0.134,0.028,0.219,0.046c0.434,0.094,0.732,0.178,0.846,0.211c-0.001,0-0.001,0-0.002,0
		c0.021,0,0.038-0.005,0.059-0.006c0.26,0.063,0.515,0.13,0.721,0.195c0.418,0.132,0.746,0.207,0.953,0.19
		c0.152,0.033,0.285-0.039,0.391-0.231c0.066-0.33,0.093-0.628,0.076-0.892c-0.018-0.265,0.14-0.515,0.469-0.747
		C49.125,21.397,49.207,21.033,49.107,20.569z M41.348,18.779c0,0.034-0.015,0.06-0.048,0.076c-0.03,0.016-0.03,0.043,0,0.075
		c-0.163,0.097-0.311,0.115-0.446,0.05c-0.129-0.067-0.263-0.133-0.394-0.201c-0.362-0.064-0.724-0.148-1.088-0.247
		c-0.363-0.099-0.642-0.315-0.84-0.646c-0.066-0.099-0.108-0.216-0.123-0.348c-0.019-0.131,0.007-0.233,0.073-0.298l0.349-0.15
		c0.264-0.031,0.528-0.049,0.79-0.049s0.493,0.067,0.691,0.2c0.56,0.165,0.871,0.546,0.938,1.142c0.033,0,0.049,0.018,0.049,0.05
		c0,0,0.017,0,0.048,0C41.415,18.597,41.415,18.715,41.348,18.779z"/>
	<path fill="#FFFFFF" d="M39.471,46.445c0.103,0,0.116-0.029,0.051-0.098c0,0.03,0,0.051,0,0.051
		C39.488,46.398,39.471,46.416,39.471,46.445z"/>
	<path fill="#FFFFFF" d="M47.084,24.146c0-0.23-0.131-0.381-0.395-0.447c-0.067,0-0.143-0.007-0.225-0.025
		c-0.083-0.015-0.158-0.008-0.224,0.025c-0.068,0.067-0.121,0.124-0.175,0.174c-0.049,0.051-0.105,0.108-0.172,0.174
		c-0.196,0.365-0.401,0.72-0.617,1.068c-0.211,0.348-0.484,0.654-0.812,0.92c-0.068,0.033-0.125,0.04-0.176,0.024
		c-0.047-0.016-0.089-0.024-0.121-0.024c-0.035-0.068-0.083-0.1-0.146-0.1c-0.066,0-0.066-0.036,0-0.1
		c-0.035-0.067-0.053-0.184-0.053-0.349c0.066-0.066,0.094-0.14,0.074-0.222c-0.018-0.084,0.009-0.16,0.074-0.225
		c0-0.199,0.025-0.423,0.072-0.67c0.05-0.25-0.041-0.455-0.271-0.623c-0.101-0.032-0.198-0.065-0.297-0.099
		c-0.099-0.032-0.181-0.016-0.246,0.05c-0.165,0.066-0.289,0.191-0.371,0.373c-0.084,0.182-0.222,0.225-0.422,0.124
		c-0.097-0.166-0.231-0.324-0.396-0.472c-0.164-0.15-0.346-0.225-0.541-0.225c-1.614,0.166-3.123,0.597-4.522,1.293
		c-1.399,0.695-2.646,1.672-3.729,2.93c-0.626,0.927-1.169,1.912-1.625,2.952c-0.463,1.044-0.66,2.162-0.594,3.354
		c-0.098,1.589,0.182,3.064,0.84,4.42c0.66,1.359,1.614,2.519,2.866,3.478c0.494,0.397,1.014,0.704,1.559,0.919
		c0.543,0.216,1.11,0.388,1.705,0.521c0.59,0.133,1.184,0.247,1.776,0.349c0.593,0.098,1.185,0.247,1.777,0.446
		c0.329,0.067,0.641,0.04,0.94-0.076c0.297-0.115,0.575-0.272,0.838-0.472c0.035-0.03,0.041-0.055,0.023-0.073
		c-0.014-0.015,0.012-0.024,0.076-0.024c0.328-0.396,0.511-0.85,0.543-1.365c0.033-0.515-0.082-0.985-0.346-1.417
		c-0.166-0.363-0.395-0.645-0.69-0.842c-0.067-0.265-0.034-0.482,0.099-0.646c0.164-0.166,0.354-0.307,0.566-0.423
		c0.215-0.116,0.289-0.323,0.223-0.62c-0.066-0.199-0.197-0.332-0.395-0.398c-0.166-0.067-0.364-0.051-0.594,0.049
		c-0.196-0.032-0.398-0.032-0.592,0c-0.199,0.035-0.383,0.133-0.546,0.3c-0.233,0.265-0.264,0.561-0.101,0.894
		c0.099,0.067,0.124,0.143,0.074,0.224c-0.051,0.082-0.074,0.157-0.074,0.224c-0.197,0.463-0.561,0.694-1.085,0.694
		c-0.363-0.065-0.626-0.196-0.79-0.396c-0.166-0.133-0.256-0.307-0.273-0.521c-0.018-0.216,0.01-0.407,0.072-0.571
		c0.133-0.465,0.381-0.828,0.744-1.094s0.738-0.463,1.135-0.596c0.331-0.132,0.678-0.199,1.037-0.199
		c0.331,0,0.678,0.034,1.039,0.102c0.068,0.098,0.165,0.156,0.297,0.172c0.132,0.017,0.248,0.01,0.348-0.025
		c0.264-0.132,0.396-0.297,0.396-0.494c0.065-0.168,0.049-0.309-0.05-0.424c-0.098-0.116-0.082-0.258,0.05-0.424
		c0.165-0.197,0.362-0.279,0.594-0.246c0.229,0.031,0.46,0.049,0.69,0.049c0.266,0.066,0.479,0.033,0.643-0.099
		c0.133-0.067,0.24-0.174,0.321-0.323s0.108-0.308,0.073-0.473c0-1.49-0.023-2.972-0.073-4.447c-0.05-1.473-0.14-2.919-0.271-4.344
		c0.066-0.265,0.155-0.538,0.271-0.819C47.025,24.735,47.084,24.445,47.084,24.146z M45.646,34.429c0,0.031-0.033,0.016-0.1-0.051
		v0.051l-0.001,0.049c-0.757,0.13-1.548,0.099-2.37-0.1c-0.857,0-1.656,0.2-2.398,0.596c-0.74,0.398-1.342,0.977-1.805,1.74
		c-0.133,0.13-0.221,0.28-0.27,0.445c-0.047,0.167-0.1,0.326-0.148,0.475c-0.05,0.146-0.123,0.296-0.222,0.445
		c-0.101,0.148-0.248,0.256-0.446,0.322c-0.229,0.067-0.41,0.083-0.541,0.05c-0.166-0.134-0.324-0.291-0.473-0.472
		c-0.146-0.182-0.205-0.39-0.173-0.621c-0.033-0.263,0.01-0.498,0.124-0.693c0.115-0.203,0.107-0.433-0.023-0.697
		c-0.035-0.198-0.123-0.381-0.271-0.546c-0.149-0.165-0.298-0.324-0.446-0.472c-0.148-0.15-0.286-0.309-0.42-0.473
		c-0.13-0.164-0.198-0.364-0.198-0.598c-0.099-0.727,0.149-1.305,0.743-1.737c1.383-0.663,2.537-1.64,3.459-2.933
		c0.297-0.362,0.562-0.759,0.791-1.189c0.229-0.431,0.576-0.695,1.039-0.795c0,0.034,0.016,0.049,0.047,0.049
		c0.034,0,0.049-0.015,0.048-0.049c0.068,0.034,0.117,0.034,0.149,0c0.031-0.032,0.084-0.051,0.148-0.051
		c0.364,0,0.7-0.015,1.016-0.049c0.312-0.033,0.65-0.082,1.012-0.149c0.062-0.064,0.146-0.097,0.248-0.097
		c0.066,0,0.115-0.018,0.146-0.053c0.067-0.033,0.133-0.04,0.192-0.024c0.067,0.019,0.134-0.007,0.196-0.074
		c0.167,0.002,0.332-0.015,0.496-0.048c0.164-0.034,0.296,0.033,0.394,0.2c0.036,0.063,0.052,0.147,0.052,0.246
		s-0.033,0.166-0.101,0.199c0.033,0.066,0.019,0.108-0.049,0.125c-0.066,0.016-0.08,0.056-0.048,0.123
		c-0.066,0.033-0.109,0.074-0.127,0.125c-0.014,0.048-0.055,0.056-0.121,0.023c-0.067,0.034-0.133,0.068-0.197,0.1
		c-0.066,0.034-0.148,0.066-0.248,0.1c-0.592,0.066-1.193,0.132-1.803,0.199c-0.611,0.067-1.18,0.264-1.705,0.596
		c-0.133,0.1-0.198,0.216-0.198,0.348c0,0.134,0.017,0.281,0.05,0.447c0.064,0.098,0.148,0.167,0.245,0.198
		c0.101,0.032,0.183,0.081,0.247,0.148h0.053c0.034,0.068,0.065,0.083,0.098,0.051c0.035-0.034,0.07-0.051,0.101-0.051
		c0.067,0.035,0.142,0.068,0.224,0.099c0.082,0.035,0.158,0.051,0.223,0.051c0.295,0.066,0.535,0.258,0.717,0.57
		c0.182,0.317,0.453,0.457,0.814,0.423c0.33-0.099,0.486-0.306,0.469-0.621c-0.014-0.313,0.061-0.588,0.224-0.817
		c0.099-0.135,0.181-0.283,0.247-0.447c0.066-0.168,0.215-0.267,0.445-0.299c0.265,0,0.443,0.117,0.543,0.348
		c0,0.099,0,0.148,0,0.148c0.033,0.366,0.049,0.711,0.049,1.043c0,0.299,0.035,0.631,0.1,0.994c0,0.034-0.004,0.074-0.023,0.125
		c-0.018,0.049-0.006,0.091,0.023,0.123c0,0.065-0.016,0.109-0.049,0.125c-0.033,0.015-0.016,0.039,0.049,0.074
		c-0.029,0.297-0.029,0.611,0,0.941c0.032,0.334,0.049,0.682,0.049,1.047C45.941,34.015,45.844,34.229,45.646,34.429z"/>
</g>
</svg>
