<?xml version="1.0" standalone="no"?>
<!DOCTYPE svg PUBLIC "-//W3C//DTD SVG 1.1//EN" "http://www.w3.org/Graphics/SVG/1.1/DTD/svg11.dtd" >
<svg xmlns="http://www.w3.org/2000/svg" xmlns:xlink="http://www.w3.org/1999/xlink" version="1.1">
<metadata>
Created by FontForge 20160407 at Mon Jul 25 16:40:38 2016
 By Jimmy Warting
Copyright (c) 2014 by S-Core Co., Ltd.. All rights reserved.
</metadata>
<defs>
<font id="CoreSansA25ExtraLight" horiz-adv-x="397" >
  <font-face 
    font-family="Core Sans A 25 ExtraLight"
    font-weight="400"
    font-stretch="normal"
    units-per-em="1000"
    panose-1="2 11 2 3 3 3 2 2 2 4"
    ascent="800"
    descent="-200"
    x-height="518"
    cap-height="700"
    bbox="-410 -252 1000 992"
    underline-thickness="24"
    underline-position="-207"
    stemh="38"
    stemv="42"
    unicode-range="U+0008-FB04"
  />
<missing-glyph horiz-adv-x="500" 
d="M430 0h-360v750h360v-750zM145 65h210v620h-210v-620z" />
    <glyph glyph-name="f_i" unicode="fi" horiz-adv-x="545" 
d="M423 0v482h-254v-482h-40v482h-111v36h111v66c0 110 56 146 147 146c19 0 39 -1 56 -3v-36c-19 2 -38 3 -57 3c-64 0 -106 -23 -106 -113v-63h295v-518h-41zM407 682c0 20 16 36 36 36s36 -16 36 -36s-16 -36 -36 -36s-36 16 -36 36z" />
    <glyph glyph-name="f_l" unicode="fl" horiz-adv-x="530" 
d="M408 0v679c-44 9 -88 15 -133 15c-63 0 -106 -26 -106 -116v-60h153v-36h-153v-482h-40v482h-111v36h111v63c0 110 57 149 148 149c42 0 91 -8 131 -17v17h40v-730h-40z" />
    <glyph glyph-name="f_f" unicode="ff" horiz-adv-x="617" 
d="M276 730c19 0 39 -1 56 -3v-36c-19 2 -38 3 -57 3c-64 0 -106 -23 -106 -113v-63h227v66c0 110 56 146 147 146c19 0 39 -1 56 -3v-36c-19 2 -38 3 -57 3c-64 0 -106 -23 -106 -113v-63h153v-36h-153v-482h-40v482h-227v-482h-40v482h-111v36h111v66
c0 110 56 146 147 146z" />
    <glyph glyph-name="f_f_i" unicode="ffi" horiz-adv-x="812" 
d="M690 0v482h-254v-482h-40v482h-227v-482h-40v482h-111v36h111v66c0 110 56 146 147 146c19 0 39 -1 56 -3v-36c-19 2 -38 3 -57 3c-64 0 -106 -23 -106 -113v-63h227v66c0 110 56 146 147 146c19 0 39 -1 56 -3v-36c-19 2 -38 3 -57 3c-64 0 -106 -23 -106 -113v-63h295
v-518h-41zM674 682c0 20 16 36 36 36s36 -16 36 -36s-16 -36 -36 -36s-36 16 -36 36z" />
    <glyph glyph-name="f_f_l" unicode="ffl" horiz-adv-x="798" 
d="M276 730c19 0 39 -1 56 -3v-36c-19 2 -38 3 -57 3c-64 0 -106 -23 -106 -113v-63h228v63c0 110 57 149 148 149c42 0 91 -8 131 -17v17h40v-730h-40v679c-44 9 -88 15 -133 15c-63 0 -106 -26 -106 -116v-60h153v-36h-153v-482h-40v482h-228v-482h-40v482h-111v36h111v66
c0 110 56 146 147 146z" />
    <glyph glyph-name=".notdef" horiz-adv-x="500" 
d="M430 0h-360v750h360v-750zM145 65h210v620h-210v-620z" />
    <glyph glyph-name="quotesingle" unicode="'" horiz-adv-x="250" 
d="M105 428l-4 272h47v-56l-9 -216h-34z" />
    <glyph glyph-name="parenleft" unicode="(" horiz-adv-x="332" 
d="M125 310c0 167 48 315 141 440l31 -16c-85 -123 -130 -265 -130 -424s45 -301 130 -424l-31 -16c-93 125 -141 273 -141 440z" />
    <glyph glyph-name="parenright" unicode=")" horiz-adv-x="332" 
d="M207 310c0 -167 -48 -315 -141 -440l-31 16c86 123 130 265 130 424s-44 301 -130 424l31 16c93 -125 141 -273 141 -440z" />
    <glyph glyph-name="asterisk" unicode="*" horiz-adv-x="521" 
d="M281 542l-3 -180l153 93l21 -36l-159 -87l159 -87l-21 -36l-153 93l3 -180h-42l3 180l-153 -93l-21 36l159 87l-159 87l21 36l153 -93l-3 180h42z" />
    <glyph glyph-name="plus" unicode="+" horiz-adv-x="618" 
d="M287 92v221h-220v38h220v221h44v-221h220v-38h-220v-221h-44z" />
    <glyph glyph-name="comma" unicode="," horiz-adv-x="286" 
d="M133 67l45 -15l-76 -205l-36 12z" />
    <glyph glyph-name="hyphen" unicode="-" horiz-adv-x="406" 
d="M339 312h-272v40h272v-40z" />
    <glyph glyph-name="period" unicode="." horiz-adv-x="286" 
d="M105 26c0 21 17 38 38 38s38 -17 38 -38s-17 -38 -38 -38s-38 17 -38 38z" />
    <glyph glyph-name="slash" unicode="/" horiz-adv-x="469" 
d="M0 -103l435 863l34 -21l-435 -863z" />
    <glyph glyph-name="zero" unicode="0" horiz-adv-x="572" 
d="M88 350c0 -196 73 -324 198 -324s198 128 198 324s-73 324 -198 324s-198 -128 -198 -324zM46 350c0 215 88 362 240 362s240 -147 240 -362s-88 -362 -240 -362s-240 147 -240 362z" />
    <glyph glyph-name="one" unicode="1" horiz-adv-x="572" 
d="M309 650l-171 -116l-27 29l202 137h38v-700h-42v650z" />
    <glyph glyph-name="two" unicode="2" horiz-adv-x="572" 
d="M283 712c122 0 205 -73 205 -183c0 -83 -44 -167 -125 -262c-76 -89 -158 -165 -231 -229h364v-38h-426v35c86 76 178 163 254 251c80 93 122 172 122 244c0 81 -64 144 -163 144c-72 0 -143 -34 -199 -95l-31 25c65 71 145 108 230 108z" />
    <glyph glyph-name="three" unicode="3" horiz-adv-x="572" 
d="M292 674c-70 0 -136 -32 -189 -91l-32 27c66 70 138 102 222 102c131 0 203 -71 203 -168s-67 -162 -149 -177c103 -19 164 -85 164 -188c0 -109 -77 -192 -222 -192c-97 0 -180 39 -240 109l32 26c57 -65 129 -97 206 -97c119 0 182 69 182 155c0 104 -77 168 -208 168
h-70v38h71c109 0 192 57 192 155c0 69 -50 133 -162 133z" />
    <glyph glyph-name="four" unicode="4" horiz-adv-x="572" 
d="M398 168h-362v37l364 495h40v-494h95v-38h-95v-168h-42v168zM398 629l-312 -423h312v423z" />
    <glyph glyph-name="five" unicode="5" horiz-adv-x="572" 
d="M290 26c121 0 185 82 185 172c0 111 -79 180 -195 180c-50 0 -111 -11 -158 -27l-7 4v345h367v-38h-325v-266c38 12 91 20 128 20c135 0 232 -82 232 -218c0 -113 -78 -210 -226 -210c-92 0 -169 38 -221 102l31 26c51 -62 119 -90 189 -90z" />
    <glyph glyph-name="six" unicode="6" horiz-adv-x="572" 
d="M309 674c-110 0 -198 -83 -204 -318c50 52 123 85 203 85c134 0 217 -93 217 -228c0 -137 -98 -225 -223 -225c-136 0 -239 102 -239 337c0 273 98 387 246 387c79 0 137 -31 186 -89l-33 -24c-43 53 -91 75 -153 75zM302 26c106 0 181 78 181 188
c0 112 -65 189 -181 189c-70 0 -146 -36 -197 -97c7 -214 103 -280 197 -280z" />
    <glyph glyph-name="seven" unicode="7" horiz-adv-x="572" 
d="M509 662l-291 -662h-48l292 662h-397v38h444v-38z" />
    <glyph glyph-name="eight" unicode="8" horiz-adv-x="572" 
d="M52 180c0 95 56 169 138 209c-75 42 -107 91 -107 154c0 92 82 169 203 169c129 0 204 -76 204 -171c0 -84 -47 -141 -121 -184c109 -49 151 -101 151 -186c0 -113 -101 -183 -234 -183s-234 72 -234 192zM278 351c-18 6 -35 12 -50 19c-89 -42 -134 -112 -134 -190
c0 -91 82 -154 192 -154c111 0 192 60 192 145c0 86 -59 129 -200 180zM125 545c0 -75 55 -116 172 -158c11 -4 23 -9 33 -13c75 42 118 95 118 168c0 72 -58 132 -162 132c-96 0 -161 -60 -161 -129z" />
    <glyph glyph-name="nine" unicode="9" horiz-adv-x="572" 
d="M469 344c-50 -52 -123 -85 -203 -85c-134 0 -217 93 -217 228c0 137 98 225 223 225c136 0 239 -102 239 -337c0 -273 -95 -387 -252 -387c-68 0 -132 25 -181 71l29 29c42 -41 101 -62 154 -62c113 0 202 82 208 318zM272 674c-106 0 -181 -78 -181 -188
c0 -112 65 -189 181 -189c70 0 146 36 197 97c-7 214 -103 280 -197 280z" />
    <glyph glyph-name="colon" unicode=":" horiz-adv-x="286" 
d="M105 26c0 21 17 38 38 38s38 -17 38 -38s-17 -38 -38 -38s-38 17 -38 38zM105 492c0 21 17 38 38 38s38 -17 38 -38s-17 -38 -38 -38s-38 17 -38 38z" />
    <glyph glyph-name="semicolon" unicode=";" horiz-adv-x="286" 
d="M105 492c0 21 17 38 38 38s38 -17 38 -38s-17 -38 -38 -38s-38 17 -38 38zM124 67l45 -15l-76 -205l-36 12z" />
    <glyph glyph-name="less" unicode="&#x3c;" horiz-adv-x="618" 
d="M110 317v30l377 234l21 -36l-348 -213l348 -213l-21 -36z" />
    <glyph glyph-name="equal" unicode="=" horiz-adv-x="618" 
d="M551 425h-484v38h484v-38zM551 201h-484v38h484v-38z" />
    <glyph glyph-name="greater" unicode="&#x3e;" horiz-adv-x="618" 
d="M508 347v-30l-377 -234l-21 36l348 213l-348 213l21 36z" />
    <glyph glyph-name="question" unicode="?" horiz-adv-x="506" 
d="M246 674c-68 0 -125 -36 -167 -87l-31 25c53 63 123 100 204 100c118 0 184 -68 184 -162c0 -72 -33 -131 -120 -191c-66 -46 -80 -87 -80 -159v-31h-43v34c0 86 23 137 93 185c82 56 106 103 106 163c0 74 -54 123 -146 123zM177 26c0 21 17 38 38 38s38 -17 38 -38
s-17 -38 -38 -38s-38 17 -38 38z" />
    <glyph glyph-name="at" unicode="@" horiz-adv-x="957" 
d="M737 57c-53 0 -89 26 -105 70c-35 -43 -94 -79 -164 -79c-124 0 -188 81 -188 223c0 141 64 223 188 223c68 0 121 -32 156 -70v58h40v-304c0 -58 26 -87 76 -87c78 0 104 88 104 209c0 208 -138 380 -367 380c-221 0 -362 -178 -362 -404c0 -216 140 -408 371 -408
c90 0 169 33 235 80l16 -29c-75 -54 -157 -83 -251 -83c-257 0 -406 206 -406 440c0 237 146 436 397 436c254 0 402 -195 402 -412c0 -126 -30 -243 -142 -243zM624 165v212c-34 42 -88 81 -149 81c-109 0 -155 -64 -155 -187c0 -124 46 -187 155 -187c61 0 115 39 149 81z
" />
    <glyph glyph-name="A" unicode="A" horiz-adv-x="656" 
d="M305 700h46l280 -700h-46l-79 200h-356l-79 -200h-46zM328 653l-163 -415h326z" />
    <glyph glyph-name="B" unicode="B" horiz-adv-x="612" 
d="M86 0v700h224c137 0 219 -73 219 -178c0 -80 -42 -133 -106 -155c86 -20 142 -78 142 -175c0 -120 -87 -192 -249 -192h-230zM128 383h208c92 0 150 56 150 139c0 88 -67 140 -184 140h-174v-279zM522 192c0 94 -64 153 -182 153h-212v-307h182c139 0 212 55 212 154z
" />
    <glyph glyph-name="C" unicode="C" horiz-adv-x="675" 
d="M51 350c0 210 123 362 310 362c118 0 211 -51 270 -141l-35 -22c-59 85 -134 125 -234 125c-159 0 -269 -130 -269 -324s110 -324 269 -324c100 0 175 40 234 125l35 -22c-59 -90 -152 -141 -270 -141c-187 0 -310 152 -310 362z" />
    <glyph glyph-name="D" unicode="D" horiz-adv-x="664" 
d="M129 37h162c171 0 278 120 278 313c0 191 -107 312 -278 312h-162v-625zM296 0h-209v700h209c195 0 317 -137 317 -350c0 -214 -122 -350 -317 -350z" />
    <glyph glyph-name="E" unicode="E" horiz-adv-x="554" 
d="M87 0v700h414v-38h-372v-281h337v-38h-337v-305h381v-38h-423z" />
    <glyph glyph-name="F" unicode="F" horiz-adv-x="529" 
d="M87 0v700h414v-38h-372v-279h334v-38h-334v-345h-42z" />
    <glyph glyph-name="G" unicode="G" horiz-adv-x="689" 
d="M52 350c0 210 125 362 312 362c118 0 210 -50 268 -141l-35 -22c-58 86 -132 125 -232 125c-159 0 -271 -130 -271 -324c0 -186 105 -324 284 -324c78 0 165 33 210 89v202h-204v38h246v-256c-59 -74 -160 -111 -253 -111c-207 0 -325 160 -325 362z" />
    <glyph glyph-name="H" unicode="H" horiz-adv-x="682" 
d="M87 0v700h42v-308h424v308h42v-700h-42v354h-424v-354h-42z" />
    <glyph glyph-name="I" unicode="I" horiz-adv-x="226" 
d="M92 700h42v-700h-42v700z" />
    <glyph glyph-name="J" unicode="J" horiz-adv-x="540" 
d="M249 26c95 0 162 71 162 197v477h42v-477c0 -159 -88 -235 -202 -235c-90 0 -166 39 -218 131l35 21c42 -75 103 -114 181 -114z" />
    <glyph glyph-name="K" unicode="K" horiz-adv-x="595" 
d="M546 700l-224 -285l256 -415h-51l-232 381l-166 -211v-170h-42v700h42v-466l365 466h52z" />
    <glyph glyph-name="L" unicode="L" horiz-adv-x="520" 
d="M87 0v700h42v-662h371v-38h-413z" />
    <glyph glyph-name="M" unicode="M" horiz-adv-x="832" 
d="M745 700v-700h-41v624l-273 -476h-30l-273 476v-624h-41v700h42l287 -502l287 502h42z" />
    <glyph glyph-name="N" unicode="N" horiz-adv-x="688" 
d="M87 0v700h42l430 -631v631h42v-700h-42l-430 631v-631h-42z" />
    <glyph glyph-name="O" unicode="O" horiz-adv-x="702" 
d="M351 26c160 0 258 136 258 324s-98 324 -258 324s-258 -136 -258 -324s98 -324 258 -324zM351 -12c-188 0 -300 157 -300 362s112 362 300 362s300 -157 300 -362s-112 -362 -300 -362z" />
    <glyph glyph-name="P" unicode="P" horiz-adv-x="574" 
d="M531 490c0 -136 -96 -210 -257 -210h-146v-280h-42v700h188c161 0 257 -74 257 -210zM489 490c0 115 -83 172 -221 172h-140v-344h140c138 0 221 57 221 172z" />
    <glyph glyph-name="Q" unicode="Q" horiz-adv-x="702" 
d="M351 -12c-188 0 -300 157 -300 362s112 362 300 362s300 -157 300 -362c0 -104 -29 -195 -82 -260l123 -134l-29 -27l-121 131c-49 -46 -114 -72 -191 -72zM351 26c66 0 121 23 164 63l-137 149l30 28l134 -146c43 57 67 137 67 230c0 188 -98 324 -258 324
s-258 -136 -258 -324s98 -324 258 -324z" />
    <glyph glyph-name="R" unicode="R" horiz-adv-x="597" 
d="M535 504c0 -98 -59 -161 -160 -186l202 -318h-49l-197 312c-22 -2 -45 -3 -70 -3h-133v-309h-42v700h200c157 0 249 -73 249 -196zM493 504c0 99 -73 158 -211 158h-154v-315h154c138 0 211 60 211 157z" />
    <glyph glyph-name="S" unicode="S" horiz-adv-x="578" 
d="M299 26c119 0 186 66 186 149c0 93 -64 136 -208 180c-142 43 -206 100 -206 192c0 99 77 165 200 165c93 0 171 -35 233 -102l-32 -26c-53 58 -123 90 -200 90c-103 0 -159 -51 -159 -127c0 -74 62 -119 180 -155c158 -48 234 -101 234 -216c0 -108 -83 -188 -226 -188
c-100 0 -192 38 -259 104l32 26c64 -62 147 -92 225 -92z" />
    <glyph glyph-name="T" unicode="T" horiz-adv-x="536" 
d="M247 0v662h-230v38h502v-38h-230v-662h-42z" />
    <glyph glyph-name="U" unicode="U" horiz-adv-x="702" 
d="M351 26c139 0 222 86 222 246v428h42v-432c0 -188 -111 -280 -264 -280s-264 92 -264 280v432h42v-428c0 -160 83 -246 222 -246z" />
    <glyph glyph-name="W" unicode="W" horiz-adv-x="980" 
d="M309 0h-48l-235 700h45l214 -646l179 646h52l179 -646l214 646h45l-235 -700h-48l-181 645z" />
    <glyph glyph-name="X" unicode="X" horiz-adv-x="579" 
d="M265 364l-223 336h49l198 -299l199 299h49l-223 -336l243 -364h-50l-218 327l-217 -327h-50z" />
    <glyph glyph-name="Y" unicode="Y" horiz-adv-x="576" 
d="M554 700l-245 -422v-278h-42v278l-245 422h48l218 -377l218 377h48z" />
    <glyph glyph-name="Z" unicode="Z" horiz-adv-x="559" 
d="M37 36l425 626h-409v38h460v-36l-425 -626h435v-38h-486v36z" />
    <glyph glyph-name="bracketleft" unicode="[" horiz-adv-x="391" 
d="M127 -130v880h237v-35h-196v-810h196v-35h-237z" />
    <glyph glyph-name="backslash" unicode="\" horiz-adv-x="469" 
d="M34 760l435 -863l-34 -21l-435 863z" />
    <glyph glyph-name="bracketright" unicode="]" horiz-adv-x="391" 
d="M264 750v-880h-237v35h196v810h-196v35h237z" />
    <glyph glyph-name="asciicircum" unicode="^" horiz-adv-x="618" 
d="M289 700h40l205 -305l-33 -23l-192 282l-192 -282l-33 23z" />
    <glyph glyph-name="underscore" unicode="_" horiz-adv-x="487" 
d="M0 -154v35h487v-35h-487z" />
    <glyph glyph-name="grave" unicode="`" horiz-adv-x="391" 
d="M109 705l32 26l141 -144l-26 -22z" />
    <glyph glyph-name="a" unicode="a" horiz-adv-x="532" 
d="M43 153c0 97 79 164 191 164c78 0 140 -26 186 -65v89c0 106 -51 153 -161 153c-58 0 -110 -20 -158 -60l-27 27c58 48 125 69 192 69c121 0 194 -56 194 -180v-350h-40v59c-43 -41 -107 -71 -186 -71c-112 0 -191 67 -191 165zM240 281c-92 0 -155 -48 -155 -128
s63 -129 155 -129c68 0 129 26 180 73v115c-52 46 -112 69 -180 69z" />
    <glyph glyph-name="b" unicode="b" horiz-adv-x="566" 
d="M117 69v-69h-40v730h40v-281c47 48 114 81 186 81c137 0 217 -97 217 -271s-80 -271 -217 -271c-72 0 -139 33 -186 81zM297 24c117 0 183 79 183 235s-66 235 -183 235c-66 0 -139 -40 -180 -90v-290c41 -50 114 -90 180 -90z" />
    <glyph glyph-name="c" unicode="c" horiz-adv-x="535" 
d="M46 259c0 162 102 271 241 271c88 0 162 -37 207 -109l-33 -20c-42 64 -101 93 -172 93c-116 0 -203 -90 -203 -235s87 -235 203 -235c71 0 130 29 172 93l33 -20c-45 -72 -119 -109 -207 -109c-139 0 -241 109 -241 271z" />
    <glyph glyph-name="d" unicode="d" horiz-adv-x="566" 
d="M449 0v69c-47 -48 -114 -81 -186 -81c-137 0 -217 97 -217 271s80 271 217 271c72 0 139 -33 186 -81v281h40v-730h-40zM269 24c66 0 139 40 180 90v290c-41 50 -114 90 -180 90c-117 0 -183 -79 -183 -235s66 -235 183 -235z" />
    <glyph glyph-name="e" unicode="e" horiz-adv-x="553" 
d="M296 -12c-159 0 -249 130 -249 272c0 157 99 270 234 270c134 0 235 -109 235 -265c0 -3 0 -16 -1 -22h-428c6 -119 82 -219 207 -219c68 0 125 28 165 81l32 -22c-46 -61 -113 -95 -195 -95zM88 279h387c-4 128 -86 215 -194 215c-107 0 -187 -88 -193 -215z" />
    <glyph glyph-name="f" unicode="f" horiz-adv-x="350" 
d="M276 730c19 0 39 -1 56 -3v-36c-19 2 -38 3 -57 3c-64 0 -106 -23 -106 -113v-63h153v-36h-153v-482h-40v482h-111v36h111v66c0 110 56 146 147 146z" />
    <glyph glyph-name="g" unicode="g" horiz-adv-x="566" 
d="M449 0v69c-47 -48 -114 -81 -186 -81c-137 0 -217 97 -217 271s80 271 217 271c72 0 139 -33 186 -81v69h40v-512c0 -144 -72 -230 -208 -230c-87 0 -158 35 -210 102l32 23c46 -59 106 -88 176 -88c111 0 170 72 170 187zM269 24c66 0 139 40 180 90v290
c-41 50 -114 90 -180 90c-117 0 -183 -79 -183 -235s66 -235 183 -235z" />
    <glyph glyph-name="h" unicode="h" horiz-adv-x="567" 
d="M315 530c114 0 179 -64 179 -190v-340h-40v329c0 111 -46 165 -146 165c-72 0 -144 -46 -191 -100v-394h-40v730h40v-292c50 50 117 92 198 92z" />
    <glyph glyph-name="i" unicode="i" horiz-adv-x="204" 
d="M82 0v518h40v-518h-40zM66 682c0 20 16 36 36 36s36 -16 36 -36s-16 -36 -36 -36s-36 16 -36 36z" />
    <glyph glyph-name="j" unicode="j" horiz-adv-x="204" 
d="M66 682c0 20 16 36 36 36s36 -16 36 -36s-16 -36 -36 -36s-36 16 -36 36zM-18 -224c-10 0 -25 1 -34 2v36c10 -1 26 -2 37 -2c60 0 97 21 97 110v596h40v-599c0 -111 -52 -143 -140 -143z" />
    <glyph glyph-name="k" unicode="k" horiz-adv-x="493" 
d="M117 730v-538l283 326h52l-181 -207l212 -311h-47l-192 282l-127 -145v-137h-40v730h40z" />
    <glyph glyph-name="l" unicode="l" horiz-adv-x="204" 
d="M82 0v730h40v-730h-40z" />
    <glyph glyph-name="m" unicode="m" horiz-adv-x="872" 
d="M298 530c73 0 121 -34 144 -88c50 51 118 88 194 88c115 0 163 -63 163 -186v-344h-40v332c0 102 -28 161 -130 161c-60 0 -129 -35 -177 -87c4 -16 6 -34 6 -53v-353h-40v342c0 101 -39 152 -127 152c-59 0 -130 -37 -174 -93v-401h-40v518h40v-72c50 52 117 84 181 84z
" />
    <glyph glyph-name="n" unicode="n" horiz-adv-x="567" 
d="M315 530c114 0 179 -64 179 -190v-340h-40v329c0 111 -46 165 -146 165c-72 0 -144 -46 -191 -100v-394h-40v518h40v-80c50 50 117 92 198 92z" />
    <glyph glyph-name="o" unicode="o" horiz-adv-x="570" 
d="M285 -12c-139 0 -239 113 -239 271c0 157 100 271 239 271s239 -114 239 -271c0 -158 -100 -271 -239 -271zM285 24c113 0 199 95 199 235s-86 235 -199 235s-199 -95 -199 -235s86 -235 199 -235z" />
    <glyph glyph-name="p" unicode="p" horiz-adv-x="566" 
d="M117 518v-69c47 48 114 81 186 81c137 0 217 -97 217 -271s-80 -271 -217 -271c-72 0 -139 33 -186 81v-281h-40v730h40zM297 494c-66 0 -139 -40 -180 -90v-290c41 -50 114 -90 180 -90c117 0 183 79 183 235s-66 235 -183 235z" />
    <glyph glyph-name="q" unicode="q" horiz-adv-x="566" 
d="M449 449v69h40v-730h-40v281c-47 -48 -114 -81 -186 -81c-137 0 -217 97 -217 271s80 271 217 271c72 0 139 -33 186 -81zM269 494c-117 0 -183 -79 -183 -235s66 -235 183 -235c66 0 139 40 180 90v290c-41 50 -114 90 -180 90z" />
    <glyph glyph-name="r" unicode="r" horiz-adv-x="348" 
d="M285 494c-69 0 -130 -45 -168 -99v-395h-40v518h40v-78c44 54 101 90 175 90c10 0 27 -1 36 -2v-37c-14 2 -28 3 -43 3z" />
    <glyph glyph-name="s" unicode="s" horiz-adv-x="482" 
d="M245 24c92 0 148 43 148 107c0 65 -50 100 -159 128c-119 31 -176 69 -176 144c0 77 65 127 172 127c67 0 130 -23 177 -66l-28 -26c-43 39 -98 56 -151 56c-77 0 -128 -32 -128 -90c0 -56 46 -82 154 -110c120 -31 181 -80 181 -162c0 -90 -76 -144 -191 -144
c-77 0 -155 29 -211 84l29 27c51 -50 120 -75 183 -75z" />
    <glyph glyph-name="t" unicode="t" horiz-adv-x="350" 
d="M277 -12c-89 0 -148 37 -148 146v348h-111v36h111v155h42v-155h151v-36h-151v-345c0 -84 38 -113 105 -113c14 0 31 1 43 2v-36c-11 -1 -29 -2 -42 -2z" />
    <glyph glyph-name="u" unicode="u" horiz-adv-x="566" 
d="M283 24c104 0 169 66 169 192v302h41v-305c0 -150 -83 -225 -210 -225s-210 75 -210 225v305h41v-302c0 -126 65 -192 169 -192z" />
    <glyph glyph-name="v" unicode="v" horiz-adv-x="506" 
d="M245 47l196 471h44l-217 -518h-46l-201 518h44z" />
    <glyph glyph-name="w" unicode="w" horiz-adv-x="770" 
d="M363 518h44l144 -466l153 466h45l-176 -518h-43l-145 456l-145 -456h-43l-176 518h45l153 -466z" />
    <glyph glyph-name="x" unicode="x" horiz-adv-x="471" 
d="M434 518l-175 -245l196 -273h-48l-172 240l-171 -240h-48l196 273l-175 245h47l151 -212l152 212h47z" />
    <glyph glyph-name="y" unicode="y" horiz-adv-x="483" 
d="M184 -212h-42l83 219l-203 511h43l180 -459l173 459h43z" />
    <glyph glyph-name="z" unicode="z" horiz-adv-x="464" 
d="M32 0v34l339 448h-323v36h374v-34l-339 -448h349v-36h-400z" />
    <glyph glyph-name="braceleft" unicode="{" horiz-adv-x="365" 
d="M179 -31v222c0 59 -39 101 -92 101v36c53 0 92 42 92 101v222c0 69 31 99 96 99h70v-36h-70c-40 0 -54 -18 -54 -60v-231c0 -55 -27 -99 -81 -113c54 -14 81 -58 81 -113v-231c0 -42 14 -60 54 -60h70v-36h-70c-65 0 -96 30 -96 99z" />
    <glyph glyph-name="bar" unicode="|" horiz-adv-x="270" 
d="M115 -200v969h40v-969h-40z" />
    <glyph glyph-name="braceright" unicode="}" horiz-adv-x="365" 
d="M186 191v-222c0 -69 -31 -99 -96 -99h-70v36h70c40 0 54 18 54 60v231c0 55 27 99 81 113c-54 14 -81 58 -81 113v231c0 42 -14 60 -54 60h-70v36h70c65 0 96 -30 96 -99v-222c0 -59 39 -101 92 -101v-36c-53 0 -92 -42 -92 -101z" />
    <glyph glyph-name="asciitilde" unicode="~" horiz-adv-x="618" 
d="M297 314c-40 30 -74 50 -118 50c-49 0 -78 -36 -90 -96l-38 7c14 78 61 127 128 127c49 0 95 -24 142 -60c40 -30 74 -50 118 -50c49 0 78 36 90 96l38 -7c-14 -78 -61 -127 -128 -127c-49 0 -95 24 -142 60z" />
    <glyph glyph-name="periodcentered" unicode="&#xb7;" horiz-adv-x="286" 
d="M105 311c0 21 17 38 38 38s38 -17 38 -38s-17 -38 -38 -38s-38 17 -38 38z" />
    <glyph glyph-name="twodotenleader" unicode="&#x2025;" horiz-adv-x="572" 
d="M105 26c0 21 17 38 38 38s38 -17 38 -38s-17 -38 -38 -38s-38 17 -38 38zM391 26c0 21 17 38 38 38s38 -17 38 -38s-17 -38 -38 -38s-38 17 -38 38z" />
    <glyph glyph-name="ellipsis" unicode="&#x2026;" horiz-adv-x="858" 
d="M105 26c0 21 17 38 38 38s38 -17 38 -38s-17 -38 -38 -38s-38 17 -38 38zM677 26c0 21 17 38 38 38s38 -17 38 -38s-17 -38 -38 -38s-38 17 -38 38zM391 26c0 21 17 38 38 38s38 -17 38 -38s-17 -38 -38 -38s-38 17 -38 38z" />
    <glyph glyph-name="dieresis" unicode="&#xa8;" horiz-adv-x="400" 
d="M74 649c0 19 15 34 34 34s34 -15 34 -34s-15 -34 -34 -34s-34 15 -34 34zM258 649c0 19 15 34 34 34s34 -15 34 -34s-15 -34 -34 -34s-34 15 -34 34z" />
    <glyph glyph-name="uni00AD" unicode="&#xad;" horiz-adv-x="406" 
d="M339 312h-272v40h272v-40z" />
    <glyph glyph-name="afii00208" unicode="&#x2015;" horiz-adv-x="1000" 
d="M900 313h-800v38h800v-38z" />
    <glyph glyph-name="quoteleft" unicode="&#x2018;" horiz-adv-x="283" 
d="M150 534l-45 15l76 205l36 -12z" />
    <glyph glyph-name="quoteright" unicode="&#x2019;" horiz-adv-x="283" 
d="M133 754l45 -15l-76 -205l-36 12z" />
    <glyph glyph-name="quotedblleft" unicode="&#x201c;" horiz-adv-x="424" 
d="M291 534l-45 15l76 205l36 -12zM150 534l-45 15l76 205l36 -12z" />
    <glyph glyph-name="quotedblright" unicode="&#x201d;" horiz-adv-x="424" 
d="M274 754l45 -15l-76 -205l-36 12zM133 754l45 -15l-76 -205l-36 12z" />
    <glyph glyph-name="plusminus" unicode="&#xb1;" horiz-adv-x="618" 
d="M551 0h-484v38h484v-38zM287 109v221h-220v38h220v222h44v-222h220v-38h-220v-221h-44z" />
    <glyph glyph-name="multiply" unicode="&#xd7;" horiz-adv-x="618" 
d="M339 333l169 -168l-29 -30l-170 168l-170 -168l-29 30l169 168l-169 168l29 30l170 -169l170 169l29 -30z" />
    <glyph glyph-name="divide" unicode="&#xf7;" horiz-adv-x="618" 
d="M67 350h484v-37h-484v37zM271 532c0 21 17 38 38 38s38 -17 38 -38s-17 -38 -38 -38s-38 17 -38 38zM271 131c0 -21 17 -38 38 -38s38 17 38 38s-17 38 -38 38s-38 -17 -38 -38z" />
    <glyph glyph-name="notequal" unicode="&#x2260;" horiz-adv-x="618" 
d="M97 30l103 171h-133v38h156l113 186h-269v38h292l106 174l30 -19l-94 -155h150v-38h-173l-112 -186h285v-38h-308l-114 -189z" />
    <glyph glyph-name="lessequal" unicode="&#x2264;" horiz-adv-x="618" 
d="M551 0h-484v37h484v-37zM529 115l-462 222v28l462 222l15 -37l-418 -199l418 -199z" />
    <glyph glyph-name="greaterequal" unicode="&#x2265;" horiz-adv-x="618" 
d="M551 0h-484v37h484v-37zM551 337l-462 -222l-15 37l418 199l-418 199l15 37l462 -222v-28z" />
    <glyph glyph-name="infinity" unicode="&#x221e;" horiz-adv-x="766" 
d="M383 304c-70 -88 -119 -114 -182 -114c-76 0 -135 55 -135 141s59 141 135 141c63 0 112 -27 182 -114c70 87 119 114 182 114c76 0 135 -55 135 -141s-59 -141 -135 -141c-63 0 -112 26 -182 114zM203 438c-55 0 -98 -43 -98 -107s43 -106 98 -106c50 0 91 19 158 106
c-67 86 -108 107 -158 107zM563 438c-50 0 -91 -21 -158 -107c67 -87 108 -106 158 -106c55 0 98 42 98 106s-43 107 -98 107z" />
    <glyph glyph-name="degree" unicode="&#xb0;" horiz-adv-x="390" 
d="M105 586c0 -53 40 -93 90 -93s90 40 90 93s-40 93 -90 93s-90 -40 -90 -93zM70 586c0 70 56 126 125 126s125 -56 125 -126s-56 -126 -125 -126s-125 56 -125 126z" />
    <glyph glyph-name="minute" unicode="&#x2032;" horiz-adv-x="318" 
d="M213 660l-76 -206l-33 10l67 210z" />
    <glyph glyph-name="second" unicode="&#x2033;" horiz-adv-x="466" 
d="M213 660l-76 -206l-33 10l67 210zM362 660l-76 -206l-33 10l67 210z" />
    <glyph glyph-name="partialdiff" unicode="&#x2202;" horiz-adv-x="580" 
d="M269 674c-64 0 -109 -23 -153 -75l-33 24c49 58 104 89 184 89c152 0 248 -114 248 -387c0 -235 -103 -337 -239 -337c-125 0 -223 88 -223 225c0 135 83 228 217 228c80 0 152 -33 201 -84c-6 235 -93 317 -202 317zM276 26c93 0 187 65 194 279c-51 61 -124 98 -194 98
c-116 0 -180 -77 -180 -189c0 -110 74 -188 180 -188z" />
    <glyph glyph-name="equivalence" unicode="&#x2261;" horiz-adv-x="618" 
d="M551 142h-484v38h484v-38zM551 313h-484v38h484v-38zM551 484h-484v38h484v-38z" />
    <glyph glyph-name="section" unicode="&#xa7;" horiz-adv-x="492" 
d="M66 318c0 64 46 113 114 132c-82 29 -114 75 -114 133c0 77 71 129 173 129c65 0 125 -22 171 -64l-28 -26c-39 37 -93 54 -146 54c-77 0 -128 -37 -128 -93c0 -55 49 -90 151 -118c123 -34 174 -75 174 -151c0 -73 -50 -116 -123 -132c82 -27 124 -71 124 -135
c0 -92 -77 -147 -190 -147c-72 0 -144 30 -196 81l28 25c47 -45 111 -70 171 -70c91 0 144 47 144 109c0 59 -45 95 -152 122c-111 28 -173 74 -173 151zM391 312c0 61 -51 92 -150 120c-70 -7 -133 -46 -133 -111c0 -59 47 -95 141 -118c85 3 142 44 142 109z" />
    <glyph glyph-name="arrowright" unicode="&#x2192;" horiz-adv-x="860" 
d="M601 508l223 -179l-223 -179l48 159h-613v40h613z" />
    <glyph glyph-name="arrowleft" unicode="&#x2190;" horiz-adv-x="860" 
d="M36 329l223 179l-48 -159h613v-40h-613l48 -159z" />
    <glyph glyph-name="arrowup" unicode="&#x2191;" horiz-adv-x="860" 
d="M430 750l179 -223l-159 48v-613h-40v613l-159 -48z" />
    <glyph glyph-name="arrowdown" unicode="&#x2193;" horiz-adv-x="860" 
d="M609 185l-179 -223l-179 223l159 -48v613h40v-613z" />
    <glyph glyph-name="arrowboth" unicode="&#x2194;" horiz-adv-x="860" 
d="M36 329l223 179l-48 -159h438l-48 159l223 -179l-223 -179l48 159h-438l48 -159z" />
    <glyph glyph-name="radical" unicode="&#x221a;" horiz-adv-x="603" 
d="M106 374h104l145 -312l170 708h38l-189 -770h-25l-163 341h-80v33z" />
    <glyph glyph-name="integral" unicode="&#x222b;" horiz-adv-x="402" 
d="M74 -220c-19 0 -39 1 -56 3v36c19 -2 38 -3 57 -3c64 0 106 23 106 113v675c0 110 56 146 147 146c19 0 39 -1 56 -3v-36c-19 2 -38 3 -57 3c-64 0 -106 -23 -106 -113v-675c0 -110 -56 -146 -147 -146z" />
    <glyph glyph-name="intersection" unicode="&#x2229;" horiz-adv-x="754" 
d="M377 617c172 0 271 -116 271 -350v-267h-42v266c0 217 -81 314 -229 314s-229 -97 -229 -314v-266h-42v267c0 234 99 350 271 350z" />
    <glyph glyph-name="acute" unicode="&#xb4;" horiz-adv-x="400" 
d="M254 731l32 -26l-147 -140l-26 22z" />
    <glyph glyph-name="caron" unicode="&#x2c7;" horiz-adv-x="400" 
d="M215 568h-30l-140 153l24 21l131 -139l131 139l24 -21z" />
    <glyph glyph-name="breve" unicode="&#x2d8;" horiz-adv-x="400" 
d="M200 619c57 0 98 40 114 96l32 -8c-21 -76 -76 -122 -146 -122s-125 46 -146 122l32 8c16 -56 57 -96 114 -96z" />
    <glyph glyph-name="hungarumlaut" unicode="&#x2dd;" horiz-adv-x="400" 
d="M41 583l131 145l32 -26l-135 -140zM184 583l142 145l32 -26l-146 -140z" />
    <glyph glyph-name="ring" unicode="&#x2da;" horiz-adv-x="400" 
d="M292 649c0 -51 -41 -90 -92 -90s-92 39 -92 90s41 90 92 90s92 -39 92 -90zM142 649c0 -33 26 -58 58 -58s58 25 58 58s-26 58 -58 58s-58 -25 -58 -58z" />
    <glyph glyph-name="dotaccent" unicode="&#x2d9;" horiz-adv-x="400" 
d="M166 649c0 18 16 34 34 34s34 -16 34 -34s-16 -34 -34 -34s-34 16 -34 34z" />
    <glyph glyph-name="cedilla" unicode="&#xb8;" horiz-adv-x="400" 
d="M177 -205c47 0 70 23 70 53c0 40 -33 65 -100 69l-4 5l39 78h37l-30 -60c64 -10 96 -46 96 -93c0 -44 -34 -85 -106 -85c-32 0 -62 12 -86 31l21 25c18 -15 41 -23 63 -23z" />
    <glyph glyph-name="ogonek" unicode="&#x2db;" horiz-adv-x="400" 
d="M200 0h40c-50 -36 -74 -74 -74 -116c0 -41 27 -69 66 -69c26 0 49 12 66 29l21 -25c-23 -23 -51 -38 -91 -38c-62 0 -100 46 -100 98c0 44 24 88 72 121z" />
    <glyph glyph-name="exclamdown" unicode="&#xa1;" horiz-adv-x="242" 
d="M106 349h30l7 -316v-215h-44v215zM159 492c0 -21 -17 -38 -38 -38s-38 17 -38 38s17 38 38 38s38 -17 38 -38z" />
    <glyph glyph-name="questiondown" unicode="&#xbf;" horiz-adv-x="506" 
d="M261 -156c68 0 124 36 167 87l30 -25c-53 -63 -121 -100 -200 -100c-120 0 -188 68 -188 162c0 72 34 131 121 191c66 46 80 87 80 159v31h42v-34c0 -86 -23 -138 -92 -185c-83 -57 -107 -103 -107 -163c0 -74 54 -123 147 -123zM330 492c0 -21 -17 -38 -38 -38
s-39 17 -39 38s18 38 39 38s38 -17 38 -38z" />
    <glyph glyph-name="summation" unicode="&#x2211;" horiz-adv-x="606" 
d="M47 -75l251 406l-251 371v38h529v-38h-481l245 -362v-20l-245 -393h481v-38h-529v36z" />
    <glyph glyph-name="product" unicode="&#x220f;" horiz-adv-x="674" 
d="M86 -111v851h501v-851h-43v813h-415v-813h-43z" />
    <glyph glyph-name="currency" unicode="&#xa4;" horiz-adv-x="706" 
d="M177 332c0 -100 77 -179 176 -179s176 79 176 179s-77 179 -176 179s-176 -79 -176 -179zM136 332c0 52 18 99 48 136l-88 88l31 31l87 -88c37 31 85 51 139 51s102 -20 139 -51l87 88l31 -31l-88 -88c30 -37 48 -84 48 -136s-18 -99 -48 -136l88 -88l-31 -31l-87 88
c-37 -31 -85 -51 -139 -51s-102 20 -139 51l-87 -88l-31 31l88 88c-30 37 -48 84 -48 136z" />
    <glyph glyph-name="uni2109" unicode="&#x2109;" horiz-adv-x="769" 
d="M327 0v700h414v-38h-372v-279h334v-38h-334v-345h-42zM46 586c0 -53 40 -93 90 -93s90 40 90 93s-40 93 -90 93s-90 -40 -90 -93zM11 586c0 70 56 126 125 126s125 -56 125 -126s-56 -126 -125 -126s-125 56 -125 126z" />
    <glyph glyph-name="perthousand" unicode="&#x2030;" horiz-adv-x="1032" 
d="M128 528c0 -87 37 -141 96 -141s96 54 96 141s-37 141 -96 141s-96 -54 -96 -141zM86 528c0 104 54 179 138 179s138 -75 138 -179s-54 -179 -138 -179s-138 75 -138 179zM129 9l442 703l32 -21l-442 -703zM604 172c0 87 -37 141 -96 141s-96 -54 -96 -141
s37 -141 96 -141s96 54 96 141zM646 172c0 -104 -54 -179 -138 -179s-138 75 -138 179s54 179 138 179s138 -75 138 -179zM904 172c0 87 -37 141 -96 141s-96 -54 -96 -141s37 -141 96 -141s96 54 96 141zM946 172c0 -104 -54 -179 -138 -179s-138 75 -138 179
s54 179 138 179s138 -75 138 -179z" />
    <glyph glyph-name="paragraph" unicode="&#xb6;" horiz-adv-x="551" 
d="M47 511c0 130 104 189 230 189h176v-831h-38v794h-59v-794h-38v450h-37c-125 0 -234 60 -234 192z" />
    <glyph glyph-name="dagger" unicode="&#x2020;" horiz-adv-x="576" 
d="M309 526v-657h-42v657h-187v36h187v186h42v-186h187v-36h-187z" />
    <glyph glyph-name="daggerdbl" unicode="&#x2021;" horiz-adv-x="576" 
d="M496 91v-36h-187v-186h-42v186h-187v36h187v435h-187v36h187v186h42v-186h187v-36h-187v-435h187z" />
    <glyph glyph-name="arrowupdn" unicode="&#x2195;" horiz-adv-x="860" 
d="M609 185l-179 -223l-179 223l159 -48v438l-159 -48l179 223l179 -223l-159 48v-438z" />
    <glyph glyph-name="afii61352" unicode="&#x2116;" horiz-adv-x="910" 
d="M87 0v700h37l286 -607v607h41v-700h-37l-286 607v-607h-41zM513 323c0 120 63 204 171 204c111 0 173 -84 173 -204s-62 -204 -173 -204c-108 0 -171 84 -171 204zM555 323c0 -108 50 -168 130 -168s130 60 130 168s-50 168 -130 168s-130 -60 -130 -168zM866 35v-35
h-362v35h362z" />
    <glyph glyph-name="trademark" unicode="&#x2122;" horiz-adv-x="658" 
d="M121 379v292h-105v29h242v-29h-104v-292h-33zM431 439l-112 193v-254h-33v322h30l127 -221l127 221h30v-322h-33v254l-112 -193h-24z" />
    <glyph glyph-name="uni2121" unicode="&#x2121;" horiz-adv-x="881" 
d="M195 0v664h-178v36h395v-36h-177v-664h-40zM368 279h275c-1 126 -57 215 -138 215c-80 0 -135 -87 -137 -215zM759 0v730h40v-730h-40zM637 98l32 -22c-37 -57 -86 -88 -151 -88c-132 0 -192 125 -192 273c0 165 74 269 179 269c107 0 180 -108 180 -264v-23h-317
c2 -117 47 -219 149 -219c50 0 91 28 120 74z" />
    <glyph glyph-name="Euro" unicode="&#x20ac;" horiz-adv-x="699" 
d="M75 350c0 15 0 30 2 45h-57v31h60c26 170 141 286 305 286c118 0 211 -51 270 -141l-35 -22c-59 85 -134 125 -234 125c-137 0 -238 -97 -263 -248h339l-10 -31h-333c-2 -15 -2 -30 -2 -45c0 -17 1 -33 2 -48h306l-10 -31h-292c26 -150 126 -245 263 -245
c100 0 175 40 234 125l35 -22c-59 -90 -152 -141 -270 -141c-163 0 -277 115 -304 283h-61v31h57c-2 15 -2 31 -2 48z" />
    <glyph glyph-name="registered" unicode="&#xae;" horiz-adv-x="832" 
d="M575 435c0 -57 -31 -95 -86 -112l107 -182h-41l-102 174c-14 -2 -29 -3 -45 -3h-100v-171h-37v417h144c99 0 160 -45 160 -123zM538 435c0 59 -42 90 -125 90h-105v-180h105c83 0 125 33 125 90zM416 712c197 0 359 -162 359 -362s-162 -362 -359 -362s-359 162 -359 362
s162 362 359 362zM416 15c182 0 331 151 331 335s-149 335 -331 335s-331 -151 -331 -335s149 -335 331 -335z" />
    <glyph glyph-name="afii61289" unicode="&#x2113;" horiz-adv-x="445" 
d="M282 -12c-66 0 -111 31 -142 77c-24 -12 -50 -23 -78 -31l-15 39c26 7 50 17 73 28c-42 90 -47 211 -47 283c0 199 80 328 182 328c89 0 128 -88 128 -222c0 -152 -66 -314 -208 -405c24 -36 58 -59 105 -59c33 0 65 11 92 33l22 -33c-31 -25 -70 -38 -112 -38zM115 386
c0 -59 3 -179 40 -264c127 83 186 230 186 369c0 127 -33 183 -88 183c-69 0 -138 -105 -138 -288z" />
    <glyph glyph-name="Omega" unicode="&#x2126;" horiz-adv-x="703" 
d="M351 674c-164 0 -257 -135 -257 -304c0 -149 79 -259 195 -334v-36h-225v38h166c-99 67 -178 181 -178 332c0 191 107 342 299 342s299 -151 299 -342c0 -151 -79 -265 -178 -332h166v-38h-225v36c116 75 195 185 195 334c0 169 -93 304 -257 304z" />
    <glyph glyph-name="AE" unicode="&#xc6;" horiz-adv-x="853" 
d="M438 200h-253l-110 -200h-50l389 700h386v-38h-318v-281h283v-38h-283v-305h327v-38h-371v200zM438 658l-232 -420h232v420z" />
    <glyph glyph-name="Eth" unicode="&#xd0;" horiz-adv-x="677" 
d="M15 367h85v333h209c195 0 317 -137 317 -350c0 -214 -122 -350 -317 -350h-209v332h-85v35zM142 37h162c171 0 278 120 278 313c0 191 -107 312 -278 312h-162v-295h185v-35h-185v-295z" />
    <glyph glyph-name="ordfeminine" unicode="&#xaa;" horiz-adv-x="420" 
d="M48 444c0 71 61 119 138 119c56 0 101 -18 132 -38v52c0 62 -30 98 -111 98c-35 0 -80 -13 -116 -42l-22 25c43 34 93 50 141 50c92 0 146 -44 146 -125v-250h-38v34c-31 -24 -79 -42 -132 -42c-76 0 -138 47 -138 119zM190 530c-58 0 -104 -32 -104 -86s47 -86 104 -86
c47 0 92 16 128 42v90c-37 25 -80 40 -128 40z" />
    <glyph glyph-name="Hbar" unicode="&#x126;" horiz-adv-x="682" 
d="M20 586h67v114h42v-114h424v114h42v-114h67v-36h-67v-550h-42v354h-424v-354h-42v550h-67v36zM129 392h424v158h-424v-158z" />
    <glyph glyph-name="Ldot" unicode="&#x13f;" horiz-adv-x="520" 
d="M87 0v700h42v-662h371v-38h-413zM313 379c0 18 16 34 34 34s34 -16 34 -34s-16 -34 -34 -34s-34 16 -34 34z" />
    <glyph glyph-name="Lslash" unicode="&#x141;" horiz-adv-x="530" 
d="M97 0v291l-86 -58l-21 31l107 72v364h42v-336l288 195l21 -31l-309 -209v-281h371v-38h-413z" />
    <glyph glyph-name="Oslash" unicode="&#xd8;" horiz-adv-x="702" 
d="M351 -12c-75 0 -138 25 -186 68l-65 -92l-30 20l69 98c-57 65 -88 160 -88 268c0 205 112 362 300 362c74 0 137 -25 186 -68l65 93l30 -20l-70 -99c57 -65 89 -160 89 -268c0 -205 -112 -362 -300 -362zM351 26c160 0 258 136 258 324c0 95 -25 177 -71 234l-350 -496
c42 -40 97 -62 163 -62zM351 674c-160 0 -258 -136 -258 -324c0 -95 25 -177 70 -234l350 495c-42 40 -97 63 -162 63z" />
    <glyph glyph-name="OE" unicode="&#x152;" horiz-adv-x="820" 
d="M52 350c0 217 136 350 337 350h378v-38h-318v-281h283v-38h-283v-305h327v-38h-387c-201 0 -337 132 -337 350zM405 38v624h-16c-173 0 -293 -113 -293 -312c0 -200 120 -312 293 -312h16z" />
    <glyph glyph-name="ordmasculine" unicode="&#xba;" horiz-adv-x="420" 
d="M38 517c0 109 71 191 172 191s172 -82 172 -191s-71 -191 -172 -191s-172 82 -172 191zM76 517c0 -98 58 -158 134 -158s134 60 134 158s-58 158 -134 158s-134 -60 -134 -158z" />
    <glyph glyph-name="Thorn" unicode="&#xde;" horiz-adv-x="574" 
d="M128 0h-42v700h42v-134h146c161 0 257 -74 257 -210s-96 -210 -257 -210h-146v-146zM489 356c0 115 -83 172 -221 172h-140v-344h140c138 0 221 57 221 172z" />
    <glyph glyph-name="Tbar" unicode="&#x166;" horiz-adv-x="536" 
d="M457 369v-36h-168v-333h-42v333h-168v36h168v293h-230v38h502v-38h-230v-293h168z" />
    <glyph glyph-name="Eng" unicode="&#x14a;" horiz-adv-x="688" 
d="M87 0v700h42l430 -632v632h42v-781c0 -111 -53 -143 -141 -143c-10 0 -25 1 -34 2v37c12 -2 26 -3 37 -3c60 0 96 21 96 110v78l-430 631v-631h-42z" />
    <glyph glyph-name="onehalf" unicode="&#xbd;" horiz-adv-x="960" 
d="M199 654l-88 -67l-24 29l115 85h35v-464h-38v417zM692 696l-393 -708l-31 19l393 708zM755 436c-36 0 -73 -16 -104 -46l-27 23c40 39 85 58 132 58c86 0 135 -49 135 -129c0 -44 -15 -89 -63 -149c-52 -66 -108 -120 -153 -158h220v-35h-274v34c61 51 123 114 176 178
c42 53 56 91 56 131c0 61 -36 93 -98 93z" />
    <glyph glyph-name="onethird" unicode="&#x2153;" horiz-adv-x="960" 
d="M199 654l-88 -67l-24 29l115 85h35v-464h-38v417zM692 696l-393 -708l-31 19l393 708zM761 436c-38 0 -74 -13 -105 -47l-26 22c37 40 82 60 130 60c81 0 130 -49 130 -118c0 -57 -45 -105 -105 -111c67 -9 114 -55 114 -122c0 -71 -50 -128 -144 -128
c-55 0 -106 22 -143 68l28 23c29 -36 74 -57 115 -57c72 0 106 47 106 94c0 68 -49 104 -145 104h-30v34h30c89 0 135 39 135 93c0 50 -28 85 -90 85z" />
    <glyph glyph-name="twothirds" unicode="&#x2154;" horiz-adv-x="960" 
d="M187 673c-36 0 -73 -16 -104 -46l-27 23c40 39 85 58 132 58c86 0 135 -49 135 -129c0 -44 -15 -89 -63 -149c-52 -66 -108 -120 -153 -158h220v-35h-274v34c61 51 123 114 176 178c42 53 56 91 56 131c0 61 -36 93 -98 93zM692 696l-393 -708l-31 19l393 708zM761 436
c-38 0 -74 -13 -105 -47l-26 22c37 40 82 60 130 60c81 0 130 -49 130 -118c0 -57 -45 -105 -105 -111c67 -9 114 -55 114 -122c0 -71 -50 -128 -144 -128c-55 0 -106 22 -143 68l28 23c29 -36 74 -57 115 -57c72 0 106 47 106 94c0 68 -49 104 -145 104h-30v34h30
c89 0 135 39 135 93c0 50 -28 85 -90 85z" />
    <glyph glyph-name="onequarter" unicode="&#xbc;" horiz-adv-x="960" 
d="M199 654l-88 -67l-24 29l115 85h35v-464h-38v417zM692 696l-393 -708l-31 19l393 708zM829 106h-232v30l235 327h35v-323h56v-34h-56v-106h-38v106zM829 400l-186 -260h186v260z" />
    <glyph glyph-name="threequarters" unicode="&#xbe;" horiz-adv-x="960" 
d="M692 696l-393 -708l-31 19l393 708zM829 106h-232v30l235 327h35v-323h56v-34h-56v-106h-38v106zM829 400l-186 -260h186v260zM198 673c-38 0 -74 -13 -105 -47l-26 22c37 40 82 60 130 60c81 0 130 -49 130 -118c0 -57 -45 -105 -105 -111c67 -9 114 -55 114 -122
c0 -71 -50 -128 -144 -128c-55 0 -106 22 -143 68l28 23c29 -36 74 -57 115 -57c72 0 106 47 106 94c0 68 -49 104 -145 104h-30v34h30c89 0 135 39 135 93c0 50 -28 85 -90 85z" />
    <glyph glyph-name="oneeighth" unicode="&#x215b;" horiz-adv-x="960" 
d="M199 654l-88 -67l-24 29l115 85h35v-464h-38v417zM692 696l-393 -708l-31 19l393 708zM606 125c0 57 34 101 82 131c-45 25 -65 58 -65 100c0 67 57 115 138 115c82 0 136 -50 136 -118c0 -46 -21 -87 -64 -119c49 -25 83 -58 83 -115c0 -81 -64 -127 -154 -127
c-91 0 -156 52 -156 133zM878 119c0 70 -79 92 -156 122c-50 -29 -78 -71 -78 -117c0 -61 52 -98 118 -98s116 32 116 93zM661 357c0 -65 84 -86 137 -107c41 29 61 59 61 104c0 47 -38 82 -99 82c-64 0 -99 -37 -99 -79z" />
    <glyph glyph-name="threeeighths" unicode="&#x215c;" horiz-adv-x="960" 
d="M198 673c-38 0 -74 -13 -105 -47l-26 22c37 40 82 60 130 60c81 0 130 -49 130 -118c0 -57 -45 -105 -105 -111c67 -9 114 -55 114 -122c0 -71 -50 -128 -144 -128c-55 0 -106 22 -143 68l28 23c29 -36 74 -57 115 -57c72 0 106 47 106 94c0 68 -49 104 -145 104h-30v34
h30c89 0 135 39 135 93c0 50 -28 85 -90 85zM692 696l-393 -708l-31 19l393 708zM606 125c0 57 34 101 82 131c-45 25 -65 58 -65 100c0 67 57 115 138 115c82 0 136 -50 136 -118c0 -46 -21 -87 -64 -119c49 -25 83 -58 83 -115c0 -81 -64 -127 -154 -127
c-91 0 -156 52 -156 133zM878 119c0 70 -79 92 -156 122c-50 -29 -78 -71 -78 -117c0 -61 52 -98 118 -98s116 32 116 93zM661 357c0 -65 84 -86 137 -107c41 29 61 59 61 104c0 47 -38 82 -99 82c-64 0 -99 -37 -99 -79z" />
    <glyph glyph-name="fiveeighths" unicode="&#x215d;" horiz-adv-x="960" 
d="M184 263c68 0 118 43 118 113c0 71 -49 111 -122 111c-38 0 -71 -7 -102 -21l-5 3v231h241v-34h-203v-154c20 9 46 12 68 12c92 0 161 -56 161 -150c0 -90 -64 -145 -157 -145c-52 0 -105 18 -142 57l26 24c33 -34 79 -47 117 -47zM692 696l-393 -708l-31 19l393 708z
M606 125c0 57 34 101 82 131c-45 25 -65 58 -65 100c0 67 57 115 138 115c82 0 136 -50 136 -118c0 -46 -21 -87 -64 -119c49 -25 83 -58 83 -115c0 -81 -64 -127 -154 -127c-91 0 -156 52 -156 133zM878 119c0 70 -79 92 -156 122c-50 -29 -78 -71 -78 -117
c0 -61 52 -98 118 -98s116 32 116 93zM661 357c0 -65 84 -86 137 -107c41 29 61 59 61 104c0 47 -38 82 -99 82c-64 0 -99 -37 -99 -79z" />
    <glyph glyph-name="seveneighths" unicode="&#x215e;" horiz-adv-x="960" 
d="M338 666l-183 -429h-42l184 429h-249v34h290v-34zM692 696l-393 -708l-31 19l393 708zM606 125c0 57 34 101 82 131c-45 25 -65 58 -65 100c0 67 57 115 138 115c82 0 136 -50 136 -118c0 -46 -21 -87 -64 -119c49 -25 83 -58 83 -115c0 -81 -64 -127 -154 -127
c-91 0 -156 52 -156 133zM878 119c0 70 -79 92 -156 122c-50 -29 -78 -71 -78 -117c0 -61 52 -98 118 -98s116 32 116 93zM661 357c0 -65 84 -86 137 -107c41 29 61 59 61 104c0 47 -38 82 -99 82c-64 0 -99 -37 -99 -79z" />
    <glyph glyph-name="ae" unicode="&#xe6;" horiz-adv-x="926" 
d="M669 -12c-92 0 -160 44 -201 104c-57 -66 -135 -104 -228 -104c-118 0 -197 67 -197 164c0 98 80 165 192 165c63 0 133 -22 185 -62v86c0 107 -51 153 -161 153c-58 0 -110 -20 -158 -60l-27 27c58 48 125 69 192 69c101 0 170 -40 187 -127c39 79 113 127 201 127
c134 0 235 -109 235 -265c0 -3 0 -16 -1 -22h-428c6 -119 82 -219 207 -219c68 0 125 28 165 81l32 -22c-46 -61 -113 -95 -195 -95zM450 125c-13 26 -23 58 -27 88c-62 49 -125 68 -182 68c-92 0 -158 -49 -158 -129s66 -128 158 -128c75 0 153 28 209 101zM461 279h387
c-4 128 -86 215 -194 215c-107 0 -187 -88 -193 -215z" />
    <glyph glyph-name="dcroat" unicode="&#x111;" horiz-adv-x="569" 
d="M449 0v69c-47 -48 -114 -81 -186 -81c-137 0 -217 97 -217 271s80 271 217 271c72 0 139 -33 186 -81v160h-205v35h205v86h40v-86h68v-35h-68v-609h-40zM269 24c66 0 139 40 180 90v290c-41 50 -114 90 -180 90c-117 0 -183 -79 -183 -235s66 -235 183 -235z" />
    <glyph glyph-name="eth" unicode="&#xf0;" horiz-adv-x="539" 
d="M345 600l-170 -51l-11 33l150 45c-40 31 -87 52 -140 67l3 36c70 -17 132 -46 181 -90l160 49l11 -33l-144 -43c61 -69 97 -164 97 -289c0 -206 -77 -336 -229 -336c-119 0 -207 92 -207 254s83 254 214 254c65 0 132 -33 174 -77c-13 78 -45 137 -89 181zM260 460
c-104 0 -174 -76 -174 -218c0 -130 64 -218 167 -218c122 0 189 106 189 301c0 14 -1 28 -2 41c-48 56 -111 94 -180 94z" />
    <glyph glyph-name="hbar" unicode="&#x127;" horiz-adv-x="567" 
d="M315 530c114 0 179 -64 179 -190v-340h-40v329c0 111 -46 165 -146 165c-72 0 -144 -46 -191 -100v-394h-40v610h-65v34h65v86h40v-86h208v-34h-208v-172c50 50 117 92 198 92z" />
    <glyph glyph-name="dotlessi" unicode="&#x131;" horiz-adv-x="204" 
d="M82 0v518h40v-518h-40z" />
    <glyph glyph-name="kgreenlandic" unicode="&#x138;" horiz-adv-x="493" 
d="M117 518v-326l283 326h52l-181 -207l212 -311h-47l-192 282l-127 -145v-137h-40v518h40z" />
    <glyph glyph-name="ldot" unicode="&#x140;" horiz-adv-x="382" 
d="M92 0v730h40v-730h-40zM274 379c0 18 16 34 34 34s34 -16 34 -34s-16 -34 -34 -34s-34 16 -34 34z" />
    <glyph glyph-name="lslash" unicode="&#x142;" horiz-adv-x="342" 
d="M-10 279l161 116v335h40v-306l139 100l22 -30l-161 -116v-378h-40v349l-139 -100z" />
    <glyph glyph-name="oslash" unicode="&#xf8;" horiz-adv-x="570" 
d="M66 -22l55 78c-47 48 -75 119 -75 203c0 157 100 271 239 271c53 0 100 -17 138 -46l54 76l28 -20l-56 -79c47 -49 75 -120 75 -202c0 -158 -100 -271 -239 -271c-53 0 -100 16 -138 45l-53 -75zM86 259c0 -71 21 -130 57 -171l258 365c-32 26 -72 41 -116 41
c-113 0 -199 -95 -199 -235zM285 24c113 0 199 95 199 235c0 70 -22 128 -57 170l-258 -365c32 -26 72 -40 116 -40z" />
    <glyph glyph-name="oe" unicode="&#x153;" horiz-adv-x="990" 
d="M733 -12c-115 0 -195 67 -229 163c-34 -101 -116 -163 -219 -163c-139 0 -239 113 -239 271c0 157 100 271 239 271c102 0 183 -61 218 -161c35 100 116 161 215 161c134 0 235 -109 235 -265c0 -3 0 -16 -1 -22h-428c6 -119 82 -219 207 -219c68 0 125 28 165 81l32 -22
c-46 -61 -113 -95 -195 -95zM285 24c110 0 195 90 199 225v11c-1 139 -87 234 -199 234c-113 0 -199 -95 -199 -235s86 -235 199 -235zM525 279h387c-4 128 -86 215 -194 215c-107 0 -187 -88 -193 -215z" />
    <glyph glyph-name="germandbls" unicode="&#xdf;" horiz-adv-x="558" 
d="M196 20l18 35c30 -19 73 -29 103 -29c107 0 162 66 162 156c0 113 -95 176 -227 177v38c113 0 167 59 167 141c0 80 -59 136 -146 136c-106 0 -154 -72 -154 -214v-460h-42v478c0 154 68 234 198 234c107 0 186 -71 186 -174c0 -89 -51 -138 -125 -159
c101 -15 185 -79 185 -197c0 -119 -73 -194 -200 -194c-43 0 -94 12 -125 32z" />
    <glyph glyph-name="thorn" unicode="&#xfe;" horiz-adv-x="566" 
d="M117 69v-281h-40v942h40v-281c47 48 114 81 186 81c137 0 217 -97 217 -271s-80 -271 -217 -271c-72 0 -139 33 -186 81zM297 24c117 0 183 79 183 235s-66 235 -183 235c-66 0 -139 -40 -180 -90v-290c41 -50 114 -90 180 -90z" />
    <glyph glyph-name="tbar" unicode="&#x167;" horiz-adv-x="350" 
d="M36 314h93v168h-111v36h111v155h42v-155h151v-36h-151v-168h133v-34h-133v-143c0 -84 38 -113 105 -113c14 0 31 1 43 2v-36c-11 -1 -29 -2 -42 -2c-89 0 -148 37 -148 146v146h-93v34z" />
    <glyph glyph-name="eng" unicode="&#x14b;" horiz-adv-x="567" 
d="M454 -78v407c0 111 -46 165 -146 165c-72 0 -144 -46 -191 -100v-394h-40v518h40v-80c50 50 117 92 198 92c114 0 179 -64 179 -190v-421c0 -110 -54 -143 -141 -143c-10 0 -25 1 -34 2v36c12 -1 26 -2 37 -2c60 0 98 21 98 110z" />
    <glyph glyph-name="napostrophe" unicode="&#x149;" horiz-adv-x="591" 
d="M339 530c114 0 179 -64 179 -190v-340h-40v329c0 111 -46 165 -146 165c-72 0 -144 -46 -191 -100v-394h-40v518h40v-80c50 50 117 92 198 92zM-10 505l78 232l39 -12l-85 -229z" />
    <glyph glyph-name="onesuperior" unicode="&#xb9;" 
d="M199 654l-88 -67l-24 29l115 85h35v-464h-38v417z" />
    <glyph glyph-name="twosuperior" unicode="&#xb2;" 
d="M192 673c-36 0 -73 -16 -104 -46l-27 23c40 39 85 58 132 58c86 0 135 -49 135 -129c0 -44 -15 -89 -63 -149c-52 -66 -108 -120 -153 -158h220v-35h-274v34c61 51 123 114 176 178c42 53 56 91 56 131c0 61 -36 93 -98 93z" />
    <glyph glyph-name="threesuperior" unicode="&#xb3;" 
d="M198 673c-38 0 -74 -13 -105 -47l-26 22c37 40 82 60 130 60c81 0 130 -49 130 -118c0 -57 -45 -105 -105 -111c67 -9 114 -55 114 -122c0 -71 -50 -128 -144 -128c-55 0 -106 22 -143 68l28 23c29 -36 74 -57 115 -57c72 0 106 47 106 94c0 68 -49 104 -145 104h-30v34
h30c89 0 135 39 135 93c0 50 -28 85 -90 85z" />
    <glyph glyph-name="foursuperior" unicode="&#x2074;" 
d="M266 343h-232v30l235 327h35v-323h56v-34h-56v-106h-38v106zM266 637l-186 -260h186v260z" />
    <glyph glyph-name="uni207F" unicode="&#x207f;" 
d="M222 577c79 0 112 -41 112 -126v-214h-38v207c0 70 -23 99 -82 99c-43 0 -90 -27 -117 -54v-252h-38v332h38v-44c35 31 82 52 125 52z" />
    <glyph glyph-name="oneinferior" unicode="&#x2081;" 
d="M199 291l-88 -67l-24 29l115 85h35v-464h-38v417z" />
    <glyph glyph-name="twoinferior" unicode="&#x2082;" 
d="M192 310c-36 0 -73 -16 -104 -46l-27 23c40 39 85 58 132 58c86 0 135 -49 135 -129c0 -44 -15 -89 -63 -149c-52 -66 -108 -120 -153 -158h220v-35h-274v34c61 51 123 114 176 178c42 53 56 91 56 131c0 61 -36 93 -98 93z" />
    <glyph glyph-name="threeinferior" unicode="&#x2083;" 
d="M198 310c-38 0 -74 -13 -105 -47l-26 22c37 40 82 60 130 60c81 0 130 -49 130 -118c0 -57 -45 -105 -105 -111c67 -9 114 -55 114 -122c0 -71 -50 -128 -144 -128c-55 0 -106 22 -143 68l28 23c29 -36 74 -57 115 -57c72 0 106 47 106 94c0 68 -49 104 -145 104h-30v34
h30c89 0 135 39 135 93c0 50 -28 85 -90 85z" />
    <glyph glyph-name="fourinferior" unicode="&#x2084;" 
d="M266 -20h-232v30l235 327h35v-323h56v-34h-56v-106h-38v106zM266 274l-186 -260h186v260z" />
    <glyph glyph-name="afii10017" unicode="&#x410;" horiz-adv-x="656" 
d="M305 700h46l280 -700h-46l-79 200h-356l-79 -200h-46zM328 653l-163 -415h326z" />
    <glyph glyph-name="afii10018" unicode="&#x411;" horiz-adv-x="554" 
d="M87 0v700h369v-38h-327v-270h162c143 0 223 -76 223 -196s-80 -196 -223 -196h-204zM129 354v-316h154c128 0 188 61 188 158s-60 158 -188 158h-154z" />
    <glyph glyph-name="afii10019" unicode="&#x412;" horiz-adv-x="612" 
d="M86 0v700h224c137 0 219 -73 219 -178c0 -80 -42 -133 -106 -155c86 -20 142 -78 142 -175c0 -120 -87 -192 -249 -192h-230zM128 383h208c92 0 150 56 150 139c0 88 -67 140 -184 140h-174v-279zM522 192c0 94 -64 153 -182 153h-212v-307h182c139 0 212 55 212 154z
" />
    <glyph glyph-name="afii10020" unicode="&#x413;" horiz-adv-x="518" 
d="M87 0v700h411v-38h-369v-662h-42z" />
    <glyph glyph-name="afii10021" unicode="&#x414;" horiz-adv-x="604" 
d="M577 38v-158h-42v120h-466v-120h-42v158h53c62 147 75 341 75 497v165h350v-662h72zM126 38h337v624h-266v-133c0 -159 -12 -332 -71 -491z" />
    <glyph glyph-name="afii10022" unicode="&#x415;" horiz-adv-x="554" 
d="M87 0v700h414v-38h-372v-281h337v-38h-337v-305h381v-38h-423z" />
    <glyph glyph-name="afii10023" unicode="&#x401;" horiz-adv-x="554" 
d="M87 0v700h414v-38h-372v-281h337v-38h-337v-305h381v-38h-423zM171 843c0 19 15 34 34 34s34 -15 34 -34s-15 -34 -34 -34s-34 15 -34 34zM355 843c0 19 15 34 34 34s34 -15 34 -34s-15 -34 -34 -34s-34 15 -34 34z" />
    <glyph glyph-name="afii10024" unicode="&#x416;" horiz-adv-x="894" 
d="M468 700v-453l326 453h51l-211 -291l243 -409h-52l-217 373l-140 -192v-181h-42v181l-140 192l-217 -373h-52l243 409l-211 291h51l326 -453v453h42z" />
    <glyph glyph-name="afii10025" unicode="&#x417;" horiz-adv-x="557" 
d="M280 674c-70 0 -136 -32 -189 -91l-32 27c66 70 138 102 222 102c131 0 203 -71 203 -168s-67 -162 -149 -177c103 -19 164 -85 164 -188c0 -109 -77 -192 -222 -192c-97 0 -180 39 -240 109l32 26c57 -65 129 -97 206 -97c119 0 180 69 180 155c0 104 -75 168 -206 168
h-70v38h71c109 0 190 57 190 155c0 69 -48 133 -160 133z" />
    <glyph glyph-name="afii10026" unicode="&#x418;" horiz-adv-x="688" 
d="M87 0v700h42v-631l430 631h42v-700h-42v631l-430 -631h-42z" />
    <glyph glyph-name="afii10027" unicode="&#x419;" horiz-adv-x="688" 
d="M87 700v-700h42l430 631v-631h42v700h-42l-430 -631v631h-42zM344 811c57 0 98 40 114 96l32 -8c-21 -76 -76 -122 -146 -122s-125 46 -146 122l32 8c16 -56 57 -96 114 -96z" />
    <glyph glyph-name="afii10028" unicode="&#x41a;" horiz-adv-x="595" 
d="M546 700l-224 -285l256 -415h-51l-232 381l-166 -211v-170h-42v700h42v-466l365 466h52z" />
    <glyph glyph-name="afii10029" unicode="&#x41b;" horiz-adv-x="706" 
d="M619 0h-42v662h-365v-519c0 -107 -46 -155 -143 -155c-16 0 -36 1 -49 3v38c17 -2 32 -3 52 -3c63 0 98 34 98 120v554h449v-700z" />
    <glyph glyph-name="afii10030" unicode="&#x41c;" horiz-adv-x="832" 
d="M745 700v-700h-41v624l-273 -476h-30l-273 476v-624h-41v700h42l287 -502l287 502h42z" />
    <glyph glyph-name="afii10031" unicode="&#x41d;" horiz-adv-x="682" 
d="M87 0v700h42v-308h424v308h42v-700h-42v354h-424v-354h-42z" />
    <glyph glyph-name="afii10032" unicode="&#x41e;" horiz-adv-x="702" 
d="M351 26c160 0 258 136 258 324s-98 324 -258 324s-258 -136 -258 -324s98 -324 258 -324zM351 -12c-188 0 -300 157 -300 362s112 362 300 362s300 -157 300 -362s-112 -362 -300 -362z" />
    <glyph glyph-name="afii10033" unicode="&#x41f;" horiz-adv-x="686" 
d="M87 0v700h512v-700h-42v662h-428v-662h-42z" />
    <glyph glyph-name="afii10034" unicode="&#x420;" horiz-adv-x="574" 
d="M531 490c0 -136 -96 -210 -257 -210h-146v-280h-42v700h188c161 0 257 -74 257 -210zM489 490c0 115 -83 172 -221 172h-140v-344h140c138 0 221 57 221 172z" />
    <glyph glyph-name="afii10035" unicode="&#x421;" horiz-adv-x="675" 
d="M51 350c0 210 123 362 310 362c118 0 211 -51 270 -141l-35 -22c-59 85 -134 125 -234 125c-159 0 -269 -130 -269 -324s110 -324 269 -324c100 0 175 40 234 125l35 -22c-59 -90 -152 -141 -270 -141c-187 0 -310 152 -310 362z" />
    <glyph glyph-name="afii10036" unicode="&#x422;" horiz-adv-x="536" 
d="M247 0v662h-230v38h502v-38h-230v-662h-42z" />
    <glyph glyph-name="afii10037" unicode="&#x423;" horiz-adv-x="572" 
d="M297 267l207 433h46l-335 -700h-46l106 222l-253 478h46z" />
    <glyph glyph-name="afii10038" unicode="&#x424;" horiz-adv-x="701" 
d="M92 350c0 -127 94 -203 236 -207v413c-142 -4 -236 -80 -236 -206zM606 350c0 126 -94 202 -236 206v-413c142 4 236 80 236 207zM370 700v-105c165 -6 278 -98 278 -245c0 -149 -113 -241 -278 -246v-104h-42v104c-165 5 -278 97 -278 246c0 147 113 239 278 245v105h42
z" />
    <glyph glyph-name="afii10039" unicode="&#x425;" horiz-adv-x="579" 
d="M265 364l-223 336h49l198 -299l199 299h49l-223 -336l243 -364h-50l-218 327l-217 -327h-50z" />
    <glyph glyph-name="afii10040" unicode="&#x426;" horiz-adv-x="698" 
d="M599 38h72v-158h-42v120h-542v700h42v-662h428v662h42v-662z" />
    <glyph glyph-name="afii10041" unicode="&#x427;" horiz-adv-x="599" 
d="M470 700h42v-700h-42v302c-54 -33 -114 -53 -176 -53c-139 0 -217 81 -217 227v224h42v-221c0 -126 59 -192 178 -192c63 0 123 20 173 57v356z" />
    <glyph glyph-name="afii10042" unicode="&#x428;" horiz-adv-x="812" 
d="M87 0v700h42v-662h256v662h42v-662h256v662h42v-700h-638z" />
    <glyph glyph-name="afii10043" unicode="&#x429;" horiz-adv-x="824" 
d="M87 0v700h42v-662h256v662h42v-662h256v662h42v-662h72v-138h-42v100h-668z" />
    <glyph glyph-name="afii10044" unicode="&#x42a;" horiz-adv-x="649" 
d="M182 0v662h-162v38h204v-308h162c143 0 223 -76 223 -196s-80 -196 -223 -196h-204zM224 354v-316h154c128 0 188 61 188 158s-60 158 -188 158h-154z" />
    <glyph glyph-name="afii10045" unicode="&#x42b;" horiz-adv-x="745" 
d="M616 700h42v-700h-42v700zM129 354v-316h154c128 0 188 61 188 158s-60 158 -188 158h-154zM87 0v700h42v-308h162c143 0 223 -76 223 -196s-80 -196 -223 -196h-204z" />
    <glyph glyph-name="afii10046" unicode="&#x42c;" horiz-adv-x="554" 
d="M129 354v-316h154c128 0 188 61 188 158s-60 158 -188 158h-154zM87 0v700h42v-308h162c143 0 223 -76 223 -196s-80 -196 -223 -196h-204z" />
    <glyph glyph-name="afii10047" unicode="&#x42d;" horiz-adv-x="675" 
d="M624 350c0 -210 -125 -362 -312 -362c-119 0 -210 49 -268 141l35 22c59 -86 132 -125 232 -125c153 0 263 121 270 305h-366v38h366c-7 183 -117 305 -270 305c-100 0 -173 -39 -232 -125l-35 22c58 92 149 141 268 141c187 0 312 -152 312 -362z" />
    <glyph glyph-name="afii10048" unicode="&#x42e;" horiz-adv-x="801" 
d="M87 700h42v-331h119c4 203 97 343 250 343c159 0 252 -149 252 -362s-93 -362 -252 -362c-153 0 -246 140 -250 343h-119v-331h-42v700zM291 350c0 -197 76 -324 207 -324c132 0 208 127 208 324s-76 324 -208 324c-131 0 -207 -127 -207 -324z" />
    <glyph glyph-name="afii10049" unicode="&#x42f;" horiz-adv-x="597" 
d="M62 504c0 123 92 196 249 196h200v-700h-42v309h-133c-25 0 -48 1 -70 3l-197 -312h-49l202 318c-101 25 -160 88 -160 186zM104 504c0 -97 73 -157 211 -157h154v315h-154c-138 0 -211 -59 -211 -158z" />
    <glyph glyph-name="afii10065" unicode="&#x430;" horiz-adv-x="532" 
d="M43 153c0 97 79 164 191 164c78 0 140 -26 186 -65v89c0 106 -51 153 -161 153c-58 0 -110 -20 -158 -60l-27 27c58 48 125 69 192 69c121 0 194 -56 194 -180v-350h-40v59c-43 -41 -107 -71 -186 -71c-112 0 -191 67 -191 165zM240 281c-92 0 -155 -48 -155 -128
s63 -129 155 -129c68 0 129 26 180 73v115c-52 46 -112 69 -180 69z" />
    <glyph glyph-name="afii10066" unicode="&#x431;" horiz-adv-x="540" 
d="M478 703c-196 -18 -333 -92 -371 -268c47 37 114 61 172 61c133 0 214 -92 214 -254s-88 -254 -208 -254c-155 0 -229 130 -229 336c0 244 114 393 428 418zM279 460c-54 0 -128 -28 -180 -75c-2 -19 -3 -39 -3 -60c0 -213 79 -301 189 -301c104 0 168 88 168 218
c0 142 -67 218 -174 218z" />
    <glyph glyph-name="afii10067" unicode="&#x432;" horiz-adv-x="504" 
d="M253 0h-176v518h176c122 0 177 -51 177 -131c0 -54 -26 -100 -91 -115c72 -10 118 -56 118 -129c0 -80 -58 -143 -204 -143zM390 385c0 63 -41 97 -141 97h-132v-195h141c101 0 132 48 132 98zM417 142c0 63 -38 109 -154 109h-146v-215h140c109 0 160 44 160 106z" />
    <glyph glyph-name="afii10068" unicode="&#x433;" horiz-adv-x="428" 
d="M415 482h-298v-482h-40v518h338v-36z" />
    <glyph glyph-name="afii10069" unicode="&#x434;" horiz-adv-x="548" 
d="M521 36v-146h-40v110h-414v-110h-40v146h55c48 109 65 237 65 354v128h302v-482h72zM124 36h285v446h-222v-94c0 -109 -16 -240 -63 -352z" />
    <glyph glyph-name="afii10070" unicode="&#x435;" horiz-adv-x="553" 
d="M296 -12c-159 0 -249 130 -249 272c0 157 99 270 234 270c134 0 235 -109 235 -265c0 -3 0 -16 -1 -22h-428c6 -119 82 -219 207 -219c68 0 125 28 165 81l32 -22c-46 -61 -113 -95 -195 -95zM88 279h387c-4 128 -86 215 -194 215c-107 0 -187 -88 -193 -215z" />
    <glyph glyph-name="afii10071" unicode="&#x451;" horiz-adv-x="553" 
d="M296 -12c-159 0 -249 130 -249 272c0 157 99 270 234 270c134 0 235 -109 235 -265c0 -3 0 -16 -1 -22h-428c6 -119 82 -219 207 -219c68 0 125 28 165 81l32 -22c-46 -61 -113 -95 -195 -95zM88 279h387c-4 128 -86 215 -194 215c-107 0 -187 -88 -193 -215zM158 669
c0 19 15 34 34 34s34 -15 34 -34s-15 -34 -34 -34s-34 15 -34 34zM342 669c0 19 15 34 34 34s34 -15 34 -34s-15 -34 -34 -34s-34 15 -34 34z" />
    <glyph glyph-name="afii10072" unicode="&#x436;" horiz-adv-x="744" 
d="M352 0v140l-113 137l-183 -277h-46l204 308l-173 210h46l265 -321v321h40v-321l265 321h46l-173 -210l204 -308h-46l-183 277l-113 -137v-140h-40z" />
    <glyph glyph-name="afii10073" unicode="&#x437;" horiz-adv-x="474" 
d="M230 24c93 0 154 52 154 113c0 77 -90 118 -188 118h-56v37h54c100 0 171 40 171 108c0 59 -58 94 -137 94c-52 0 -107 -20 -150 -56l-29 26c50 43 112 66 177 66c102 0 179 -48 179 -128c0 -63 -43 -113 -127 -129c88 -16 146 -63 146 -136c0 -88 -79 -149 -197 -149
c-76 0 -152 28 -205 76l28 29c52 -45 116 -69 180 -69z" />
    <glyph glyph-name="afii10074" unicode="&#x438;" horiz-adv-x="582" 
d="M505 0h-40v455l-348 -455h-40v518h40v-455l348 455h40v-518z" />
    <glyph glyph-name="afii10075" unicode="&#x439;" horiz-adv-x="582" 
d="M505 0h-40v455l-348 -455h-40v518h40v-455l348 455h40v-518zM290 639c57 0 98 40 114 96l32 -8c-21 -76 -76 -122 -146 -122s-125 46 -146 122l32 8c16 -56 57 -96 114 -96z" />
    <glyph glyph-name="afii10076" unicode="&#x43a;" horiz-adv-x="493" 
d="M117 518v-326l283 326h52l-181 -207l212 -311h-47l-192 282l-127 -145v-137h-40v518h40z" />
    <glyph glyph-name="afii10077" unicode="&#x43b;" horiz-adv-x="579" 
d="M13 -10v37c16 -2 28 -3 45 -3c62 0 91 34 91 119v375h353v-518h-40v482h-273v-344c0 -107 -42 -150 -136 -150c-14 0 -29 1 -40 2z" />
    <glyph glyph-name="afii10078" unicode="&#x43c;" horiz-adv-x="678" 
d="M324 125l-207 319v-444h-40v518h38l224 -346l224 346h38v-518h-40v444l-207 -319h-30z" />
    <glyph glyph-name="afii10079" unicode="&#x43d;" horiz-adv-x="564" 
d="M117 300h330v218h40v-518h-40v264h-330v-264h-40v518h40v-218z" />
    <glyph glyph-name="afii10080" unicode="&#x43e;" horiz-adv-x="570" 
d="M285 -12c-139 0 -239 113 -239 271c0 157 100 271 239 271s239 -114 239 -271c0 -158 -100 -271 -239 -271zM285 24c113 0 199 95 199 235s-86 235 -199 235s-199 -95 -199 -235s86 -235 199 -235z" />
    <glyph glyph-name="afii10081" unicode="&#x43f;" horiz-adv-x="546" 
d="M77 0v518h392v-518h-40v482h-312v-482h-40z" />
    <glyph glyph-name="afii10082" unicode="&#x440;" horiz-adv-x="566" 
d="M117 518v-69c47 48 114 81 186 81c137 0 217 -97 217 -271s-80 -271 -217 -271c-72 0 -139 33 -186 81v-281h-40v730h40zM297 494c-66 0 -139 -40 -180 -90v-290c41 -50 114 -90 180 -90c117 0 183 79 183 235s-66 235 -183 235z" />
    <glyph glyph-name="afii10083" unicode="&#x441;" horiz-adv-x="535" 
d="M46 259c0 162 102 271 241 271c88 0 162 -37 207 -109l-33 -20c-42 64 -101 93 -172 93c-116 0 -203 -90 -203 -235s87 -235 203 -235c71 0 130 29 172 93l33 -20c-45 -72 -119 -109 -207 -109c-139 0 -241 109 -241 271z" />
    <glyph glyph-name="afii10084" unicode="&#x442;" horiz-adv-x="474" 
d="M217 0v482h-201v36h442v-36h-201v-482h-40z" />
    <glyph glyph-name="afii10085" unicode="&#x443;" horiz-adv-x="483" 
d="M184 -212h-42l83 219l-203 511h43l180 -459l173 459h43z" />
    <glyph glyph-name="afii10086" unicode="&#x444;" horiz-adv-x="875" 
d="M417 -212v276c-43 -44 -99 -76 -165 -76c-135 0 -206 99 -206 271s71 271 206 271c66 0 122 -32 165 -76v276h41v-276c43 44 99 76 165 76c135 0 206 -99 206 -271s-71 -271 -206 -271c-66 0 -122 32 -165 76v-276h-41zM417 104v310c-42 45 -93 80 -156 80
c-124 0 -173 -85 -173 -235s49 -235 173 -235c63 0 114 35 156 80zM458 414v-310c42 -45 93 -80 156 -80c124 0 173 85 173 235s-49 235 -173 235c-63 0 -114 -35 -156 -80z" />
    <glyph glyph-name="afii10087" unicode="&#x445;" horiz-adv-x="471" 
d="M434 518l-175 -245l196 -273h-48l-172 240l-171 -240h-48l196 273l-175 245h47l151 -212l152 212h47z" />
    <glyph glyph-name="afii10088" unicode="&#x446;" horiz-adv-x="570" 
d="M469 36h73v-146h-40v110h-425v518h40v-482h312v482h40v-482z" />
    <glyph glyph-name="afii10089" unicode="&#x447;" horiz-adv-x="555" 
d="M258 229c63 0 138 36 180 81v208h40v-518h-40v267c-48 -43 -122 -74 -187 -74c-118 0 -186 59 -186 191v134h40v-127c0 -114 49 -162 153 -162z" />
    <glyph glyph-name="afii10090" unicode="&#x448;" horiz-adv-x="686" 
d="M363 36h206v482h40v-518h-532v518h40v-482h206v482h40v-482z" />
    <glyph glyph-name="afii10091" unicode="&#x449;" horiz-adv-x="710" 
d="M363 36h206v482h40v-482h73v-146h-40v110h-565v518h40v-482h206v482h40v-482z" />
    <glyph glyph-name="afii10092" unicode="&#x44a;" horiz-adv-x="553" 
d="M319 0h-156v482h-150v36h190v-206h116c136 0 198 -65 198 -156s-62 -156 -198 -156zM204 276v-240h109c121 0 162 50 162 120s-41 120 -162 120h-109z" />
    <glyph glyph-name="afii10093" unicode="&#x44b;" horiz-adv-x="644" 
d="M567 0h-41v518h41v-518zM77 0h156c136 0 198 65 198 156s-62 156 -198 156h-116v206h-40v-518zM118 36v240h109c121 0 162 -50 162 -120s-41 -120 -162 -120h-109z" />
    <glyph glyph-name="afii10094" unicode="&#x44c;" horiz-adv-x="467" 
d="M233 0h-156v518h40v-206h116c136 0 198 -65 198 -156s-62 -156 -198 -156zM118 276v-240h109c121 0 162 50 162 120s-41 120 -162 120h-109z" />
    <glyph glyph-name="afii10095" unicode="&#x44d;" horiz-adv-x="535" 
d="M489 259c0 -162 -102 -271 -241 -271c-88 0 -162 37 -207 109l33 20c42 -64 101 -93 172 -93c111 0 196 82 203 217h-267v36h267c-7 134 -92 217 -203 217c-71 0 -130 -29 -172 -93l-33 20c45 72 119 109 207 109c139 0 241 -109 241 -271z" />
    <glyph glyph-name="afii10096" unicode="&#x44e;" horiz-adv-x="701" 
d="M439 -12c-127 0 -210 103 -216 253h-106v-241h-40v518h40v-242h106c6 150 88 254 216 254c132 0 216 -112 216 -271c0 -160 -84 -271 -216 -271zM439 24c104 0 176 92 176 235c0 142 -72 235 -176 235s-176 -93 -176 -235c0 -143 72 -235 176 -235z" />
    <glyph glyph-name="afii10097" unicode="&#x44f;" horiz-adv-x="519" 
d="M56 372c0 87 64 146 196 146h190v-518h-40v227h-130c-22 0 -45 1 -63 3l-143 -230h-50l150 238c-74 21 -110 70 -110 134zM96 372c0 -61 47 -109 157 -109h149v219h-149c-110 0 -157 -49 -157 -110z" />
    <glyph glyph-name="AEacute" unicode="&#x1fc;" horiz-adv-x="853" 
d="M438 200h-253l-110 -200h-50l389 700h386v-38h-318v-281h283v-38h-283v-305h327v-38h-371v200zM438 658l-232 -420h232v420zM611 925l32 -26l-147 -140l-26 22z" />
    <glyph glyph-name="Aacute" unicode="&#xc1;" horiz-adv-x="656" 
d="M305 700h46l280 -700h-46l-79 200h-356l-79 -200h-46zM328 653l-163 -415h326zM424 925l32 -26l-147 -140l-26 22z" />
    <glyph glyph-name="Abreve" unicode="&#x102;" horiz-adv-x="656" 
d="M305 700h46l280 -700h-46l-79 200h-356l-79 -200h-46zM328 653l-163 -415h326zM328 811c57 0 98 40 114 96l32 -8c-21 -76 -76 -122 -146 -122s-125 46 -146 122l32 8c16 -56 57 -96 114 -96z" />
    <glyph glyph-name="Acircumflex" unicode="&#xc2;" horiz-adv-x="656" 
d="M305 700h46l280 -700h-46l-79 200h-356l-79 -200h-46zM328 653l-163 -415h326zM313 924h30l140 -153l-24 -21l-131 139l-131 -139l-24 21z" />
    <glyph glyph-name="Adieresis" unicode="&#xc4;" horiz-adv-x="656" 
d="M305 700h46l280 -700h-46l-79 200h-356l-79 -200h-46zM328 653l-163 -415h326zM202 843c0 19 15 34 34 34s34 -15 34 -34s-15 -34 -34 -34s-34 15 -34 34zM386 843c0 19 15 34 34 34s34 -15 34 -34s-15 -34 -34 -34s-34 15 -34 34z" />
    <glyph glyph-name="Agrave" unicode="&#xc0;" horiz-adv-x="656" 
d="M305 700h46l280 -700h-46l-79 200h-356l-79 -200h-46zM328 653l-163 -415h326zM200 899l32 26l141 -144l-26 -22z" />
    <glyph glyph-name="Amacron" unicode="&#x100;" horiz-adv-x="656" 
d="M305 700h46l280 -700h-46l-79 200h-356l-79 -200h-46zM328 653l-163 -415h326zM189 822v36h278v-36h-278z" />
    <glyph glyph-name="Aogonek" unicode="&#x104;" horiz-adv-x="656" 
d="M591 0h-6l-79 200h-356l-79 -200h-46l280 700h46l280 -700c-50 -36 -74 -74 -74 -116c0 -41 27 -69 66 -69c26 0 49 12 66 29l21 -25c-23 -23 -51 -38 -91 -38c-62 0 -100 46 -100 98c0 44 24 88 72 121zM328 653l-163 -415h326z" />
    <glyph glyph-name="Aring" unicode="&#xc5;" horiz-adv-x="656" 
d="M305 700h46l280 -700h-46l-79 200h-356l-79 -200h-46zM328 653l-163 -415h326zM420 843c0 -51 -41 -90 -92 -90s-92 39 -92 90s41 90 92 90s92 -39 92 -90zM270 843c0 -33 26 -58 58 -58s58 25 58 58s-26 58 -58 58s-58 -25 -58 -58z" />
    <glyph glyph-name="Aringacute" unicode="&#x1fa;" horiz-adv-x="656" 
d="M420 746c0 -38 -23 -69 -55 -83l266 -663h-46l-79 200h-356l-79 -200h-46l265 664c-32 13 -54 44 -54 82c0 51 41 90 92 90s92 -39 92 -90zM328 653l-163 -415h326zM270 746c0 -33 26 -58 58 -58s58 25 58 58s-26 58 -58 58s-58 -25 -58 -58zM410 992l24 -29l-137 -91
l-20 23z" />
    <glyph glyph-name="Atilde" unicode="&#xc3;" horiz-adv-x="656" 
d="M305 700h46l280 -700h-46l-79 200h-356l-79 -200h-46zM328 653l-163 -415h326zM319 828c-19 18 -35 30 -60 30c-28 0 -45 -25 -54 -56l-34 7c15 55 49 83 88 83c31 0 54 -13 78 -34c19 -18 35 -30 60 -30c28 0 45 25 54 56l34 -7c-15 -55 -49 -83 -88 -83
c-31 0 -54 13 -78 34z" />
    <glyph glyph-name="Cacute" unicode="&#x106;" horiz-adv-x="675" 
d="M51 350c0 210 123 362 310 362c118 0 211 -51 270 -141l-35 -22c-59 85 -134 125 -234 125c-159 0 -269 -130 -269 -324s110 -324 269 -324c100 0 175 40 234 125l35 -22c-59 -90 -152 -141 -270 -141c-187 0 -310 152 -310 362zM451 925l32 -26l-147 -140l-26 22z" />
    <glyph glyph-name="Ccaron" unicode="&#x10c;" horiz-adv-x="675" 
d="M51 350c0 210 123 362 310 362c118 0 211 -51 270 -141l-35 -22c-59 85 -134 125 -234 125c-159 0 -269 -130 -269 -324s110 -324 269 -324c100 0 175 40 234 125l35 -22c-59 -90 -152 -141 -270 -141c-187 0 -310 152 -310 362zM383 762h-30l-140 153l24 21l131 -139
l131 139l24 -21z" />
    <glyph glyph-name="Ccedilla" unicode="&#xc7;" horiz-adv-x="675" 
d="M51 350c0 210 123 362 310 362c118 0 211 -51 270 -141l-35 -22c-59 85 -134 125 -234 125c-159 0 -269 -130 -269 -324s110 -324 269 -324c100 0 175 40 234 125l35 -22c-54 -82 -135 -130 -237 -139l-24 -50c64 -10 96 -46 96 -93c0 -44 -34 -85 -106 -85
c-32 0 -62 12 -86 31l21 25c18 -15 41 -23 63 -23c47 0 70 23 70 53c0 40 -33 65 -100 69l-4 5l33 66c-185 2 -306 153 -306 362z" />
    <glyph glyph-name="Ccircumflex" unicode="&#x108;" horiz-adv-x="675" 
d="M51 350c0 210 123 362 310 362c118 0 211 -51 270 -141l-35 -22c-59 85 -134 125 -234 125c-159 0 -269 -130 -269 -324s110 -324 269 -324c100 0 175 40 234 125l35 -22c-59 -90 -152 -141 -270 -141c-187 0 -310 152 -310 362zM358 924h30l140 -153l-24 -21l-131 139
l-131 -139l-24 21z" />
    <glyph glyph-name="Cdotaccent" unicode="&#x10a;" horiz-adv-x="675" 
d="M51 350c0 210 123 362 310 362c118 0 211 -51 270 -141l-35 -22c-59 85 -134 125 -234 125c-159 0 -269 -130 -269 -324s110 -324 269 -324c100 0 175 40 234 125l35 -22c-59 -90 -152 -141 -270 -141c-187 0 -310 152 -310 362zM328 843c0 18 16 34 34 34s34 -16 34 -34
s-16 -34 -34 -34s-34 16 -34 34z" />
    <glyph glyph-name="Dcaron" unicode="&#x10e;" horiz-adv-x="664" 
d="M129 37h162c171 0 278 120 278 313c0 191 -107 312 -278 312h-162v-625zM296 0h-209v700h209c195 0 317 -137 317 -350c0 -214 -122 -350 -317 -350zM305 762h-30l-140 153l24 21l131 -139l131 139l24 -21z" />
    <glyph glyph-name="Dcroat" unicode="&#x110;" horiz-adv-x="677" 
d="M15 367h85v333h209c195 0 317 -137 317 -350c0 -214 -122 -350 -317 -350h-209v332h-85v35zM142 37h162c171 0 278 120 278 313c0 191 -107 312 -278 312h-162v-295h185v-35h-185v-295z" />
    <glyph glyph-name="Eacute" unicode="&#xc9;" horiz-adv-x="554" 
d="M87 0v700h414v-38h-372v-281h337v-38h-337v-305h381v-38h-423zM376 925l32 -26l-147 -140l-26 22z" />
    <glyph glyph-name="Ebreve" unicode="&#x114;" horiz-adv-x="554" 
d="M87 0v700h414v-38h-372v-281h337v-38h-337v-305h381v-38h-423zM294 811c57 0 98 40 114 96l32 -8c-21 -76 -76 -122 -146 -122s-125 46 -146 122l32 8c16 -56 57 -96 114 -96z" />
    <glyph glyph-name="Ecaron" unicode="&#x11a;" horiz-adv-x="554" 
d="M87 0v700h414v-38h-372v-281h337v-38h-337v-305h381v-38h-423zM313 762h-30l-140 153l24 21l131 -139l131 139l24 -21z" />
    <glyph glyph-name="Ecircumflex" unicode="&#xca;" horiz-adv-x="554" 
d="M87 0v700h414v-38h-372v-281h337v-38h-337v-305h381v-38h-423zM283 924h30l140 -153l-24 -21l-131 139l-131 -139l-24 21z" />
    <glyph glyph-name="Edieresis" unicode="&#xcb;" horiz-adv-x="554" 
d="M87 0v700h414v-38h-372v-281h337v-38h-337v-305h381v-38h-423zM171 843c0 19 15 34 34 34s34 -15 34 -34s-15 -34 -34 -34s-34 15 -34 34zM355 843c0 19 15 34 34 34s34 -15 34 -34s-15 -34 -34 -34s-34 15 -34 34z" />
    <glyph glyph-name="Edotaccent" unicode="&#x116;" horiz-adv-x="554" 
d="M87 0v700h414v-38h-372v-281h337v-38h-337v-305h381v-38h-423zM265 843c0 18 16 34 34 34s34 -16 34 -34s-16 -34 -34 -34s-34 16 -34 34z" />
    <glyph glyph-name="Egrave" unicode="&#xc8;" horiz-adv-x="554" 
d="M87 0v700h414v-38h-372v-281h337v-38h-337v-305h381v-38h-423zM190 899l32 26l141 -144l-26 -22z" />
    <glyph glyph-name="Emacron" unicode="&#x112;" horiz-adv-x="554" 
d="M87 0v700h414v-38h-372v-281h337v-38h-337v-305h381v-38h-423zM157 825v36h278v-36h-278z" />
    <glyph glyph-name="Eogonek" unicode="&#x118;" horiz-adv-x="554" 
d="M87 0v700h414v-38h-372v-281h337v-38h-337v-305h381v-38h-68c-50 -36 -74 -74 -74 -116c0 -41 27 -69 66 -69c26 0 49 12 66 29l21 -25c-23 -23 -51 -38 -91 -38c-62 0 -100 46 -100 98c0 44 24 88 72 121h-315z" />
    <glyph glyph-name="Gbreve" unicode="&#x11e;" horiz-adv-x="689" 
d="M52 350c0 210 125 362 312 362c118 0 210 -50 268 -141l-35 -22c-58 86 -132 125 -232 125c-159 0 -271 -130 -271 -324c0 -186 105 -324 284 -324c78 0 165 33 210 89v202h-204v38h246v-256c-59 -74 -160 -111 -253 -111c-207 0 -325 160 -325 362zM361 811
c57 0 98 40 114 96l32 -8c-21 -76 -76 -122 -146 -122s-125 46 -146 122l32 8c16 -56 57 -96 114 -96z" />
    <glyph glyph-name="Gcircumflex" unicode="&#x11c;" horiz-adv-x="689" 
d="M52 350c0 -202 118 -362 325 -362c93 0 194 37 253 111v256h-246v-38h204v-202c-45 -56 -132 -89 -210 -89c-179 0 -284 138 -284 324c0 194 112 324 271 324c100 0 174 -39 232 -125l35 22c-58 91 -150 141 -268 141c-187 0 -312 -152 -312 -362zM342 924h30l140 -153
l-24 -21l-131 139l-131 -139l-24 21z" />
    <glyph glyph-name="Gcommaaccent" unicode="&#x122;" horiz-adv-x="689" 
d="M52 350c0 210 125 362 312 362c118 0 210 -50 268 -141l-35 -22c-58 86 -132 125 -232 125c-159 0 -271 -130 -271 -324c0 -186 105 -324 284 -324c78 0 165 33 210 89v202h-204v38h246v-256c-59 -74 -160 -111 -253 -111c-207 0 -325 160 -325 362zM313 -242l61 188
l37 -12l-67 -186z" />
    <glyph glyph-name="Gdotaccent" unicode="&#x120;" horiz-adv-x="689" 
d="M52 350c0 -202 118 -362 325 -362c93 0 194 37 253 111v256h-246v-38h204v-202c-45 -56 -132 -89 -210 -89c-179 0 -284 138 -284 324c0 194 112 324 271 324c100 0 174 -39 232 -125l35 22c-58 91 -150 141 -268 141c-187 0 -312 -152 -312 -362zM327 843
c0 18 16 34 34 34s34 -16 34 -34s-16 -34 -34 -34s-34 16 -34 34z" />
    <glyph glyph-name="Hcircumflex" unicode="&#x124;" horiz-adv-x="682" 
d="M87 0v700h42v-308h424v308h42v-700h-42v354h-424v-354h-42zM326 924h30l140 -153l-24 -21l-131 139l-131 -139l-24 21z" />
    <glyph glyph-name="Iacute" unicode="&#xcd;" horiz-adv-x="226" 
d="M92 700h42v-700h-42v700zM236 925l32 -26l-147 -140l-26 22z" />
    <glyph glyph-name="Ibreve" unicode="&#x12c;" horiz-adv-x="226" 
d="M92 700h42v-700h-42v700zM113 811c57 0 98 40 114 96l32 -8c-21 -76 -76 -122 -146 -122s-125 46 -146 122l32 8c16 -56 57 -96 114 -96z" />
    <glyph glyph-name="Icircumflex" unicode="&#xce;" horiz-adv-x="226" 
d="M92 700h42v-700h-42v700zM98 924h30l140 -153l-24 -21l-131 139l-131 -139l-24 21z" />
    <glyph glyph-name="Idieresis" unicode="&#xcf;" horiz-adv-x="226" 
d="M92 700h42v-700h-42v700zM-13 843c0 19 15 34 34 34s34 -15 34 -34s-15 -34 -34 -34s-34 15 -34 34zM171 843c0 19 15 34 34 34s34 -15 34 -34s-15 -34 -34 -34s-34 15 -34 34z" />
    <glyph glyph-name="Idotaccent" unicode="&#x130;" horiz-adv-x="226" 
d="M92 700h42v-700h-42v700zM79 843c0 18 16 34 34 34s34 -16 34 -34s-16 -34 -34 -34s-34 16 -34 34z" />
    <glyph glyph-name="Igrave" unicode="&#xcc;" horiz-adv-x="226" 
d="M92 700h42v-700h-42v700zM-42 899l32 26l141 -144l-26 -22z" />
    <glyph glyph-name="Imacron" unicode="&#x12a;" horiz-adv-x="226" 
d="M92 700h42v-700h-42v700zM-26 825v36h278v-36h-278z" />
    <glyph glyph-name="Iogonek" unicode="&#x12e;" horiz-adv-x="226" 
d="M94 0h-2v700h42v-700c-50 -36 -74 -74 -74 -116c0 -41 27 -69 66 -69c26 0 49 12 66 29l21 -25c-23 -23 -51 -38 -91 -38c-62 0 -100 46 -100 98c0 44 24 88 72 121z" />
    <glyph glyph-name="Itilde" unicode="&#x128;" horiz-adv-x="226" 
d="M92 700h42v-700h-42v700zM104 828c-19 18 -35 30 -60 30c-28 0 -45 -25 -54 -56l-34 7c15 55 49 83 88 83c31 0 54 -13 78 -34c19 -18 35 -30 60 -30c28 0 45 25 54 56l34 -7c-15 -55 -49 -83 -88 -83c-31 0 -54 13 -78 34z" />
    <glyph glyph-name="Jcircumflex" unicode="&#x134;" horiz-adv-x="540" 
d="M249 26c95 0 162 71 162 197v477h42v-477c0 -159 -88 -235 -202 -235c-90 0 -166 39 -218 131l35 21c42 -75 103 -114 181 -114zM417 924h30l140 -153l-24 -21l-131 139l-131 -139l-24 21z" />
    <glyph glyph-name="Kcommaaccent" unicode="&#x136;" horiz-adv-x="595" 
d="M546 700l-224 -285l256 -415h-51l-232 381l-166 -211v-170h-42v700h42v-466l365 466h52zM254 -242l61 188l37 -12l-67 -186z" />
    <glyph glyph-name="Lacute" unicode="&#x139;" horiz-adv-x="520" 
d="M87 0v700h42v-662h371v-38h-413zM227 925l32 -26l-147 -140l-26 22z" />
    <glyph glyph-name="Lcaron" unicode="&#x13d;" horiz-adv-x="520" 
d="M87 0v700h42v-662h371v-38h-413zM328 505l78 232l39 -12l-85 -229z" />
    <glyph glyph-name="Lcommaaccent" unicode="&#x13b;" horiz-adv-x="520" 
d="M87 0v700h42v-662h371v-38h-413zM225 -242l61 188l37 -12l-67 -186z" />
    <glyph glyph-name="Nacute" unicode="&#x143;" horiz-adv-x="688" 
d="M87 0v700h42l430 -631v631h42v-700h-42l-430 631v-631h-42zM458 925l32 -26l-147 -140l-26 22z" />
    <glyph glyph-name="Ncaron" unicode="&#x147;" horiz-adv-x="688" 
d="M87 0v700h42l430 -631v631h42v-700h-42l-430 631v-631h-42zM359 762h-30l-140 153l24 21l131 -139l131 139l24 -21z" />
    <glyph glyph-name="Ncommaaccent" unicode="&#x145;" horiz-adv-x="688" 
d="M87 0v700h42l430 -631v631h42v-700h-42l-430 631v-631h-42zM289 -242l61 188l37 -12l-67 -186z" />
    <glyph glyph-name="Ntilde" unicode="&#xd1;" horiz-adv-x="688" 
d="M87 0v700h42l430 -631v631h42v-700h-42l-430 631v-631h-42zM335 828c-19 18 -35 30 -60 30c-28 0 -45 -25 -54 -56l-34 7c15 55 49 83 88 83c31 0 54 -13 78 -34c19 -18 35 -30 60 -30c28 0 45 25 54 56l34 -7c-15 -55 -49 -83 -88 -83c-31 0 -54 13 -78 34z" />
    <glyph glyph-name="Oacute" unicode="&#xd3;" horiz-adv-x="702" 
d="M351 26c160 0 258 136 258 324s-98 324 -258 324s-258 -136 -258 -324s98 -324 258 -324zM351 -12c-188 0 -300 157 -300 362s112 362 300 362s300 -157 300 -362s-112 -362 -300 -362zM426 925l32 -26l-147 -140l-26 22z" />
    <glyph glyph-name="Obreve" unicode="&#x14e;" horiz-adv-x="702" 
d="M351 26c-160 0 -258 136 -258 324s98 324 258 324s258 -136 258 -324s-98 -324 -258 -324zM351 -12c188 0 300 157 300 362s-112 362 -300 362s-300 -157 -300 -362s112 -362 300 -362zM351 811c57 0 98 40 114 96l32 -8c-21 -76 -76 -122 -146 -122s-125 46 -146 122
l32 8c16 -56 57 -96 114 -96z" />
    <glyph glyph-name="Ocircumflex" unicode="&#xd4;" horiz-adv-x="702" 
d="M351 26c160 0 258 136 258 324s-98 324 -258 324s-258 -136 -258 -324s98 -324 258 -324zM351 -12c-188 0 -300 157 -300 362s112 362 300 362s300 -157 300 -362s-112 -362 -300 -362zM336 924h30l140 -153l-24 -21l-131 139l-131 -139l-24 21z" />
    <glyph glyph-name="Odieresis" unicode="&#xd6;" horiz-adv-x="702" 
d="M351 26c-160 0 -258 136 -258 324s98 324 258 324s258 -136 258 -324s-98 -324 -258 -324zM351 -12c188 0 300 157 300 362s-112 362 -300 362s-300 -157 -300 -362s112 -362 300 -362zM225 843c0 19 15 34 34 34s34 -15 34 -34s-15 -34 -34 -34s-34 15 -34 34zM409 843
c0 19 15 34 34 34s34 -15 34 -34s-15 -34 -34 -34s-34 15 -34 34z" />
    <glyph glyph-name="Ograve" unicode="&#xd2;" horiz-adv-x="702" 
d="M351 26c160 0 258 136 258 324s-98 324 -258 324s-258 -136 -258 -324s98 -324 258 -324zM351 -12c-188 0 -300 157 -300 362s112 362 300 362s300 -157 300 -362s-112 -362 -300 -362zM243 899l32 26l141 -144l-26 -22z" />
    <glyph glyph-name="Ohungarumlaut" unicode="&#x150;" horiz-adv-x="702" 
d="M351 26c-160 0 -258 136 -258 324s98 324 258 324s258 -136 258 -324s-98 -324 -258 -324zM351 -12c188 0 300 157 300 362s-112 362 -300 362s-300 -157 -300 -362s112 -362 300 -362zM239 777l131 145l32 -26l-135 -140zM382 777l142 145l32 -26l-146 -140z" />
    <glyph glyph-name="Omacron" unicode="&#x14c;" horiz-adv-x="702" 
d="M351 26c160 0 258 136 258 324s-98 324 -258 324s-258 -136 -258 -324s98 -324 258 -324zM351 -12c-188 0 -300 157 -300 362s112 362 300 362s300 -157 300 -362s-112 -362 -300 -362zM212 825v36h278v-36h-278z" />
    <glyph glyph-name="Oslashacute" unicode="&#x1fe;" horiz-adv-x="702" 
d="M351 -12c-75 0 -138 25 -186 68l-65 -92l-30 20l69 98c-57 65 -88 160 -88 268c0 205 112 362 300 362c74 0 137 -25 186 -68l65 93l30 -20l-70 -99c57 -65 89 -160 89 -268c0 -205 -112 -362 -300 -362zM351 26c160 0 258 136 258 324c0 95 -25 177 -71 234l-350 -496
c42 -40 97 -62 163 -62zM351 674c-160 0 -258 -136 -258 -324c0 -95 25 -177 70 -234l350 495c-42 40 -97 63 -162 63zM426 925l32 -26l-147 -140l-26 22z" />
    <glyph glyph-name="Otilde" unicode="&#xd5;" horiz-adv-x="702" 
d="M351 26c160 0 258 136 258 324s-98 324 -258 324s-258 -136 -258 -324s98 -324 258 -324zM351 -12c-188 0 -300 157 -300 362s112 362 300 362s300 -157 300 -362s-112 -362 -300 -362zM342 828c-19 18 -35 30 -60 30c-28 0 -45 -25 -54 -56l-34 7c15 55 49 83 88 83
c31 0 54 -13 78 -34c19 -18 35 -30 60 -30c28 0 45 25 54 56l34 -7c-15 -55 -49 -83 -88 -83c-31 0 -54 13 -78 34z" />
    <glyph glyph-name="Racute" unicode="&#x154;" horiz-adv-x="597" 
d="M535 504c0 -98 -59 -161 -160 -186l202 -318h-49l-197 312c-22 -2 -45 -3 -70 -3h-133v-309h-42v700h200c157 0 249 -73 249 -196zM493 504c0 99 -73 158 -211 158h-154v-315h154c138 0 211 60 211 157zM340 925l32 -26l-147 -140l-26 22z" />
    <glyph glyph-name="Rcaron" unicode="&#x158;" horiz-adv-x="597" 
d="M535 504c0 -98 -59 -161 -160 -186l202 -318h-49l-197 312c-22 -2 -45 -3 -70 -3h-133v-309h-42v700h200c157 0 249 -73 249 -196zM493 504c0 99 -73 158 -211 158h-154v-315h154c138 0 211 60 211 157zM292 762h-30l-140 153l24 21l131 -139l131 139l24 -21z" />
    <glyph glyph-name="Rcommaaccent" unicode="&#x156;" horiz-adv-x="597" 
d="M535 504c0 -98 -59 -161 -160 -186l202 -318h-49l-197 312c-22 -2 -45 -3 -70 -3h-133v-309h-42v700h200c157 0 249 -73 249 -196zM493 504c0 99 -73 158 -211 158h-154v-315h154c138 0 211 60 211 157zM255 -242l61 188l37 -12l-67 -186z" />
    <glyph glyph-name="Sacute" unicode="&#x15a;" horiz-adv-x="578" 
d="M299 26c119 0 186 66 186 149c0 93 -64 136 -208 180c-142 43 -206 100 -206 192c0 99 77 165 200 165c93 0 171 -35 233 -102l-32 -26c-53 58 -123 90 -200 90c-103 0 -159 -51 -159 -127c0 -74 62 -119 180 -155c158 -48 234 -101 234 -216c0 -108 -83 -188 -226 -188
c-100 0 -192 38 -259 104l32 26c64 -62 147 -92 225 -92zM375 925l32 -26l-147 -140l-26 22z" />
    <glyph glyph-name="Scaron" unicode="&#x160;" horiz-adv-x="578" 
d="M299 26c119 0 186 66 186 149c0 93 -64 136 -208 180c-142 43 -206 100 -206 192c0 99 77 165 200 165c93 0 171 -35 233 -102l-32 -26c-53 58 -123 90 -200 90c-103 0 -159 -51 -159 -127c0 -74 62 -119 180 -155c158 -48 234 -101 234 -216c0 -108 -83 -188 -226 -188
c-100 0 -192 38 -259 104l32 26c64 -62 147 -92 225 -92zM306 762h-30l-140 153l24 21l131 -139l131 139l24 -21z" />
    <glyph glyph-name="Scedilla" unicode="&#x15e;" horiz-adv-x="578" 
d="M284 -205c47 0 70 23 70 53c0 40 -33 65 -100 69l-4 5l33 67c-93 4 -178 41 -241 103l32 26c64 -62 147 -92 225 -92c119 0 186 66 186 149c0 93 -64 136 -208 180c-142 43 -206 100 -206 192c0 99 77 165 200 165c93 0 171 -35 233 -102l-32 -26c-53 58 -123 90 -200 90
c-103 0 -159 -51 -159 -127c0 -74 62 -119 180 -155c158 -48 234 -101 234 -216c0 -103 -76 -180 -207 -187l-24 -49c64 -10 96 -46 96 -93c0 -44 -34 -85 -106 -85c-32 0 -62 12 -86 31l21 25c18 -15 41 -23 63 -23z" />
    <glyph glyph-name="Scircumflex" unicode="&#x15c;" horiz-adv-x="578" 
d="M299 26c119 0 186 66 186 149c0 93 -64 136 -208 180c-142 43 -206 100 -206 192c0 99 77 165 200 165c93 0 171 -35 233 -102l-32 -26c-53 58 -123 90 -200 90c-103 0 -159 -51 -159 -127c0 -74 62 -119 180 -155c158 -48 234 -101 234 -216c0 -108 -83 -188 -226 -188
c-100 0 -192 38 -259 104l32 26c64 -62 147 -92 225 -92zM274 924h30l140 -153l-24 -21l-131 139l-131 -139l-24 21z" />
    <glyph glyph-name="Tcaron" unicode="&#x164;" horiz-adv-x="536" 
d="M247 0v662h-230v38h502v-38h-230v-662h-42zM282 762h-30l-140 153l24 21l131 -139l131 139l24 -21z" />
    <glyph glyph-name="Tcommaaccent" unicode="&#x162;" horiz-adv-x="536" 
d="M247 0v662h-230v38h502v-38h-230v-662h-2l-30 -60c64 -10 96 -46 96 -93c0 -44 -34 -85 -106 -85c-32 0 -62 12 -86 31l21 25c18 -15 41 -23 63 -23c47 0 70 23 70 53c0 40 -33 65 -100 69l-4 5l39 78h-3z" />
    <glyph glyph-name="Uacute" unicode="&#xda;" horiz-adv-x="702" 
d="M351 26c139 0 222 86 222 246v428h42v-432c0 -188 -111 -280 -264 -280s-264 92 -264 280v432h42v-428c0 -160 83 -246 222 -246zM466 925l32 -26l-147 -140l-26 22z" />
    <glyph glyph-name="Ubreve" unicode="&#x16c;" horiz-adv-x="702" 
d="M351 26c-139 0 -222 86 -222 246v428h-42v-432c0 -188 111 -280 264 -280s264 92 264 280v432h-42v-428c0 -160 -83 -246 -222 -246zM351 811c57 0 98 40 114 96l32 -8c-21 -76 -76 -122 -146 -122s-125 46 -146 122l32 8c16 -56 57 -96 114 -96z" />
    <glyph glyph-name="Ucircumflex" unicode="&#xdb;" horiz-adv-x="702" 
d="M351 26c139 0 222 86 222 246v428h42v-432c0 -188 -111 -280 -264 -280s-264 92 -264 280v432h42v-428c0 -160 83 -246 222 -246zM336 924h30l140 -153l-24 -21l-131 139l-131 -139l-24 21z" />
    <glyph glyph-name="Udieresis" unicode="&#xdc;" horiz-adv-x="702" 
d="M351 26c-139 0 -222 86 -222 246v428h-42v-432c0 -188 111 -280 264 -280s264 92 264 280v432h-42v-428c0 -160 -83 -246 -222 -246zM225 843c0 19 15 34 34 34s34 -15 34 -34s-15 -34 -34 -34s-34 15 -34 34zM409 843c0 19 15 34 34 34s34 -15 34 -34s-15 -34 -34 -34
s-34 15 -34 34z" />
    <glyph glyph-name="Ugrave" unicode="&#xd9;" horiz-adv-x="702" 
d="M351 26c139 0 222 86 222 246v428h42v-432c0 -188 -111 -280 -264 -280s-264 92 -264 280v432h42v-428c0 -160 83 -246 222 -246zM203 899l32 26l141 -144l-26 -22z" />
    <glyph glyph-name="Uhungarumlaut" unicode="&#x170;" horiz-adv-x="702" 
d="M351 26c-139 0 -222 86 -222 246v428h-42v-432c0 -188 111 -280 264 -280s264 92 264 280v432h-42v-428c0 -160 -83 -246 -222 -246zM249 777l131 145l32 -26l-135 -140zM392 777l142 145l32 -26l-146 -140z" />
    <glyph glyph-name="Umacron" unicode="&#x16a;" horiz-adv-x="702" 
d="M351 26c139 0 222 86 222 246v428h42v-432c0 -188 -111 -280 -264 -280s-264 92 -264 280v432h42v-428c0 -160 83 -246 222 -246zM212 825v36h278v-36h-278z" />
    <glyph glyph-name="Uogonek" unicode="&#x172;" horiz-adv-x="702" 
d="M351 26c139 0 222 86 222 246v428h42v-432c0 -175 -97 -268 -234 -279c-40 -32 -59 -67 -59 -105c0 -41 27 -69 66 -69c26 0 49 12 66 29l21 -25c-23 -23 -51 -38 -91 -38c-62 0 -100 46 -100 98c0 39 18 78 56 109c-148 5 -253 96 -253 280v432h42v-428
c0 -160 83 -246 222 -246z" />
    <glyph glyph-name="Uring" unicode="&#x16e;" horiz-adv-x="702" 
d="M351 26c-139 0 -222 86 -222 246v428h-42v-432c0 -188 111 -280 264 -280s264 92 264 280v432h-42v-428c0 -160 -83 -246 -222 -246zM443 843c0 -51 -41 -90 -92 -90s-92 39 -92 90s41 90 92 90s92 -39 92 -90zM293 843c0 -33 26 -58 58 -58s58 25 58 58s-26 58 -58 58
s-58 -25 -58 -58z" />
    <glyph glyph-name="Utilde" unicode="&#x168;" horiz-adv-x="702" 
d="M351 26c139 0 222 86 222 246v428h42v-432c0 -188 -111 -280 -264 -280s-264 92 -264 280v432h42v-428c0 -160 83 -246 222 -246zM342 828c-19 18 -35 30 -60 30c-28 0 -45 -25 -54 -56l-34 7c15 55 49 83 88 83c31 0 54 -13 78 -34c19 -18 35 -30 60 -30
c28 0 45 25 54 56l34 -7c-15 -55 -49 -83 -88 -83c-31 0 -54 13 -78 34z" />
    <glyph glyph-name="Wcircumflex" unicode="&#x174;" horiz-adv-x="980" 
d="M309 0h-48l-235 700h45l214 -646l179 646h52l179 -646l214 646h45l-235 -700h-48l-181 645zM475 924h30l140 -153l-24 -21l-131 139l-131 -139l-24 21z" />
    <glyph glyph-name="Yacute" unicode="&#xdd;" horiz-adv-x="576" 
d="M554 700l-245 -422v-278h-42v278l-245 422h48l218 -377l218 377h48zM399 925l32 -26l-147 -140l-26 22z" />
    <glyph glyph-name="Ycircumflex" unicode="&#x176;" horiz-adv-x="576" 
d="M554 700l-245 -422v-278h-42v278l-245 422h48l218 -377l218 377h48zM273 924h30l140 -153l-24 -21l-131 139l-131 -139l-24 21z" />
    <glyph glyph-name="Ydieresis" unicode="&#x178;" horiz-adv-x="576" 
d="M554 700l-245 -422v-278h-42v278l-245 422h48l218 -377l218 377h48zM162 843c0 19 15 34 34 34s34 -15 34 -34s-15 -34 -34 -34s-34 15 -34 34zM346 843c0 19 15 34 34 34s34 -15 34 -34s-15 -34 -34 -34s-34 15 -34 34z" />
    <glyph glyph-name="Zacute" unicode="&#x179;" horiz-adv-x="559" 
d="M37 36l425 626h-409v38h460v-36l-425 -626h435v-38h-486v36zM365 925l32 -26l-147 -140l-26 22z" />
    <glyph glyph-name="Zcaron" unicode="&#x17d;" horiz-adv-x="559" 
d="M37 36l425 626h-409v38h460v-36l-425 -626h435v-38h-486v36zM296 762h-30l-140 153l24 21l131 -139l131 139l24 -21z" />
    <glyph glyph-name="Zdotaccent" unicode="&#x17b;" horiz-adv-x="559" 
d="M37 36l425 626h-409v38h460v-36l-425 -626h435v-38h-486v36zM242 843c0 18 16 34 34 34s34 -16 34 -34s-16 -34 -34 -34s-34 16 -34 34z" />
    <glyph glyph-name="aacute" unicode="&#xe1;" horiz-adv-x="532" 
d="M43 153c0 97 79 164 191 164c78 0 140 -26 186 -65v89c0 106 -51 153 -161 153c-58 0 -110 -20 -158 -60l-27 27c58 48 125 69 192 69c121 0 194 -56 194 -180v-350h-40v59c-43 -41 -107 -71 -186 -71c-112 0 -191 67 -191 165zM240 281c-92 0 -155 -48 -155 -128
s63 -129 155 -129c68 0 129 26 180 73v115c-52 46 -112 69 -180 69zM354 751l32 -26l-147 -140l-26 22z" />
    <glyph glyph-name="abreve" unicode="&#x103;" horiz-adv-x="532" 
d="M43 153c0 97 79 164 191 164c78 0 140 -26 186 -65v89c0 106 -51 153 -161 153c-58 0 -110 -20 -158 -60l-27 27c58 48 125 69 192 69c121 0 194 -56 194 -180v-350h-40v59c-43 -41 -107 -71 -186 -71c-112 0 -191 67 -191 165zM240 281c-92 0 -155 -48 -155 -128
s63 -129 155 -129c68 0 129 26 180 73v115c-52 46 -112 69 -180 69zM272 639c57 0 98 40 114 96l32 -8c-21 -76 -76 -122 -146 -122s-125 46 -146 122l32 8c16 -56 57 -96 114 -96z" />
    <glyph glyph-name="acircumflex" unicode="&#xe2;" horiz-adv-x="532" 
d="M43 153c0 97 79 164 191 164c78 0 140 -26 186 -65v89c0 106 -51 153 -161 153c-58 0 -110 -20 -158 -60l-27 27c58 48 125 69 192 69c121 0 194 -56 194 -180v-350h-40v59c-43 -41 -107 -71 -186 -71c-112 0 -191 67 -191 165zM240 281c-92 0 -155 -48 -155 -128
s63 -129 155 -129c68 0 129 26 180 73v115c-52 46 -112 69 -180 69zM254 750h30l140 -153l-24 -21l-131 139l-131 -139l-24 21z" />
    <glyph glyph-name="acutecomb" unicode="&#x301;" horiz-adv-x="0" 
d="M-175 731l32 -26l-147 -140l-26 22z" />
    <glyph glyph-name="adieresis" unicode="&#xe4;" horiz-adv-x="532" 
d="M43 153c0 97 79 164 191 164c78 0 140 -26 186 -65v89c0 106 -51 153 -161 153c-58 0 -110 -20 -158 -60l-27 27c58 48 125 69 192 69c121 0 194 -56 194 -180v-350h-40v59c-43 -41 -107 -71 -186 -71c-112 0 -191 67 -191 165zM240 281c-92 0 -155 -48 -155 -128
s63 -129 155 -129c68 0 129 26 180 73v115c-52 46 -112 69 -180 69zM151 669c0 19 15 34 34 34s34 -15 34 -34s-15 -34 -34 -34s-34 15 -34 34zM335 669c0 19 15 34 34 34s34 -15 34 -34s-15 -34 -34 -34s-34 15 -34 34z" />
    <glyph glyph-name="aeacute" unicode="&#x1fd;" horiz-adv-x="926" 
d="M669 -12c-92 0 -160 44 -201 104c-57 -66 -135 -104 -228 -104c-118 0 -197 67 -197 164c0 98 80 165 192 165c63 0 133 -22 185 -62v86c0 107 -51 153 -161 153c-58 0 -110 -20 -158 -60l-27 27c58 48 125 69 192 69c101 0 170 -40 187 -127c39 79 113 127 201 127
c134 0 235 -109 235 -265c0 -3 0 -16 -1 -22h-428c6 -119 82 -219 207 -219c68 0 125 28 165 81l32 -22c-46 -61 -113 -95 -195 -95zM450 125c-13 26 -23 58 -27 88c-62 49 -125 68 -182 68c-92 0 -158 -49 -158 -129s66 -128 158 -128c75 0 153 28 209 101zM461 279h387
c-4 128 -86 215 -194 215c-107 0 -187 -88 -193 -215zM565 751l32 -26l-147 -140l-26 22z" />
    <glyph glyph-name="agrave" unicode="&#xe0;" horiz-adv-x="532" 
d="M43 153c0 97 79 164 191 164c78 0 140 -26 186 -65v89c0 106 -51 153 -161 153c-58 0 -110 -20 -158 -60l-27 27c58 48 125 69 192 69c121 0 194 -56 194 -180v-350h-40v59c-43 -41 -107 -71 -186 -71c-112 0 -191 67 -191 165zM240 281c-92 0 -155 -48 -155 -128
s63 -129 155 -129c68 0 129 26 180 73v115c-52 46 -112 69 -180 69zM154 725l32 26l141 -144l-26 -22z" />
    <glyph glyph-name="amacron" unicode="&#x101;" horiz-adv-x="532" 
d="M43 153c0 97 79 164 191 164c78 0 140 -26 186 -65v89c0 106 -51 153 -161 153c-58 0 -110 -20 -158 -60l-27 27c58 48 125 69 192 69c121 0 194 -56 194 -180v-350h-40v59c-43 -41 -107 -71 -186 -71c-112 0 -191 67 -191 165zM240 281c-92 0 -155 -48 -155 -128
s63 -129 155 -129c68 0 129 26 180 73v115c-52 46 -112 69 -180 69zM126 649v36h278v-36h-278z" />
    <glyph glyph-name="aogonek" unicode="&#x105;" horiz-adv-x="532" 
d="M420 0v59c-43 -41 -107 -71 -186 -71c-112 0 -191 67 -191 165c0 97 79 164 191 164c78 0 140 -26 186 -65v89c0 106 -51 153 -161 153c-58 0 -110 -20 -158 -60l-27 27c58 48 125 69 192 69c121 0 194 -56 194 -180v-350c-50 -36 -74 -74 -74 -116c0 -41 27 -69 66 -69
c26 0 49 12 66 29l21 -25c-23 -23 -51 -38 -91 -38c-62 0 -100 46 -100 98c0 44 24 88 72 121zM240 281c-92 0 -155 -48 -155 -128s63 -129 155 -129c68 0 129 26 180 73v115c-52 46 -112 69 -180 69z" />
    <glyph glyph-name="approxequal" unicode="&#x2248;" horiz-adv-x="618" 
d="M297 226c-40 30 -74 50 -118 50c-49 0 -78 -36 -90 -96l-38 7c14 78 61 127 128 127c49 0 95 -24 142 -60c40 -30 74 -50 118 -50c49 0 78 36 90 96l38 -7c-14 -78 -61 -127 -128 -127c-49 0 -95 24 -142 60zM297 413c-40 30 -74 50 -118 50c-49 0 -78 -36 -90 -96l-38 7
c14 78 61 127 128 127c49 0 95 -24 142 -60c40 -30 74 -50 118 -50c49 0 78 36 90 96l38 -7c-14 -78 -61 -127 -128 -127c-49 0 -95 24 -142 60z" />
    <glyph glyph-name="aring" unicode="&#xe5;" horiz-adv-x="532" 
d="M43 153c0 97 79 164 191 164c78 0 140 -26 186 -65v89c0 106 -51 153 -161 153c-58 0 -110 -20 -158 -60l-27 27c58 48 125 69 192 69c121 0 194 -56 194 -180v-350h-40v59c-43 -41 -107 -71 -186 -71c-112 0 -191 67 -191 165zM240 281c-92 0 -155 -48 -155 -128
s63 -129 155 -129c68 0 129 26 180 73v115c-52 46 -112 69 -180 69zM366 669c0 -51 -41 -90 -92 -90s-92 39 -92 90s41 90 92 90s92 -39 92 -90zM216 669c0 -33 26 -58 58 -58s58 25 58 58s-26 58 -58 58s-58 -25 -58 -58z" />
    <glyph glyph-name="aringacute" unicode="&#x1fb;" horiz-adv-x="532" 
d="M366 669c0 -51 -41 -90 -92 -90s-92 39 -92 90s41 90 92 90s92 -39 92 -90zM216 669c0 -33 26 -58 58 -58s58 25 58 58s-26 58 -58 58s-58 -25 -58 -58zM356 915l24 -29l-137 -91l-20 23zM43 153c0 97 79 164 191 164c78 0 140 -26 186 -65v89c0 106 -51 153 -161 153
c-58 0 -110 -20 -158 -60l-27 27c58 48 125 69 192 69c121 0 194 -56 194 -180v-350h-40v59c-43 -41 -107 -71 -186 -71c-112 0 -191 67 -191 165zM240 281c-92 0 -155 -48 -155 -128s63 -129 155 -129c68 0 129 26 180 73v115c-52 46 -112 69 -180 69z" />
    <glyph glyph-name="arrowupdnbse" unicode="&#x21a8;" horiz-adv-x="860" 
d="M618 -76h-376v38h188l-179 223l159 -48v438l-159 -48l179 223l179 -223l-159 48v-438l159 48l-179 -223h188v-38z" />
    <glyph glyph-name="atilde" unicode="&#xe3;" horiz-adv-x="532" 
d="M43 153c0 97 79 164 191 164c78 0 140 -26 186 -65v89c0 106 -51 153 -161 153c-58 0 -110 -20 -158 -60l-27 27c58 48 125 69 192 69c121 0 194 -56 194 -180v-350h-40v59c-43 -41 -107 -71 -186 -71c-112 0 -191 67 -191 165zM240 281c-92 0 -155 -48 -155 -128
s63 -129 155 -129c68 0 129 26 180 73v115c-52 46 -112 69 -180 69zM259 654c-19 18 -35 30 -60 30c-28 0 -45 -25 -54 -56l-34 7c15 55 49 83 88 83c31 0 54 -13 78 -34c19 -18 35 -30 60 -30c28 0 45 25 54 56l34 -7c-15 -55 -49 -83 -88 -83c-31 0 -54 13 -78 34z" />
    <glyph glyph-name="brokenbar" unicode="&#xa6;" horiz-adv-x="270" 
d="M115 220h40v-320h-40v320zM115 688h40v-320h-40v320z" />
    <glyph glyph-name="bullet" unicode="&#x2022;" horiz-adv-x="414" 
d="M98 332c0 61 48 109 109 109s109 -48 109 -109s-48 -109 -109 -109s-109 48 -109 109z" />
    <glyph glyph-name="cacute" unicode="&#x107;" horiz-adv-x="535" 
d="M46 259c0 162 102 271 241 271c88 0 162 -37 207 -109l-33 -20c-42 64 -101 93 -172 93c-116 0 -203 -90 -203 -235s87 -235 203 -235c71 0 130 29 172 93l33 -20c-45 -72 -119 -109 -207 -109c-139 0 -241 109 -241 271zM359 751l32 -26l-147 -140l-26 22z" />
    <glyph glyph-name="ccaron" unicode="&#x10d;" horiz-adv-x="535" 
d="M46 259c0 162 102 271 241 271c88 0 162 -37 207 -109l-33 -20c-42 64 -101 93 -172 93c-116 0 -203 -90 -203 -235s87 -235 203 -235c71 0 130 29 172 93l33 -20c-45 -72 -119 -109 -207 -109c-139 0 -241 109 -241 271zM308 588h-30l-140 153l24 21l131 -139l131 139
l24 -21z" />
    <glyph glyph-name="ccedilla" unicode="&#xe7;" horiz-adv-x="535" 
d="M277 -205c47 0 70 23 70 53c0 40 -33 65 -100 69l-4 5l33 66c-134 6 -230 113 -230 271c0 162 102 271 241 271c88 0 162 -37 207 -109l-33 -20c-42 64 -101 93 -172 93c-116 0 -203 -90 -203 -235s87 -235 203 -235c71 0 130 29 172 93l33 -20
c-41 -65 -104 -101 -181 -108l-24 -49c64 -10 96 -46 96 -93c0 -44 -34 -85 -106 -85c-32 0 -62 12 -86 31l21 25c18 -15 41 -23 63 -23z" />
    <glyph glyph-name="ccircumflex" unicode="&#x109;" horiz-adv-x="535" 
d="M46 259c0 162 102 271 241 271c88 0 162 -37 207 -109l-33 -20c-42 64 -101 93 -172 93c-116 0 -203 -90 -203 -235s87 -235 203 -235c71 0 130 29 172 93l33 -20c-45 -72 -119 -109 -207 -109c-139 0 -241 109 -241 271zM269 750h30l140 -153l-24 -21l-131 139
l-131 -139l-24 21z" />
    <glyph glyph-name="cdotaccent" unicode="&#x10b;" horiz-adv-x="535" 
d="M46 259c0 162 102 271 241 271c88 0 162 -37 207 -109l-33 -20c-42 64 -101 93 -172 93c-116 0 -203 -90 -203 -235s87 -235 203 -235c71 0 130 29 172 93l33 -20c-45 -72 -119 -109 -207 -109c-139 0 -241 109 -241 271zM252 669c0 18 16 34 34 34s34 -16 34 -34
s-16 -34 -34 -34s-34 16 -34 34z" />
    <glyph glyph-name="cent" unicode="&#xa2;" horiz-adv-x="535" 
d="M271 529v87h34v-87c83 -4 146 -42 189 -108l-33 -20c-39 57 -88 89 -156 93v-470c68 3 117 35 156 93l33 -20c-43 -66 -106 -104 -189 -108v-87h-34v87c-133 10 -225 115 -225 270c0 154 92 260 225 270zM86 259c0 -137 76 -224 185 -234v468
c-109 -10 -185 -98 -185 -234z" />
    <glyph glyph-name="circumflex" unicode="&#x2c6;" horiz-adv-x="400" 
d="M185 730h30l140 -153l-24 -21l-131 139l-131 -139l-24 21z" />
    <glyph glyph-name="colonmonetary" unicode="&#x20a1;" horiz-adv-x="675" 
d="M529 778l-26 -96c52 -24 95 -62 128 -111l-35 -22c-30 43 -64 75 -103 95l-166 -616c11 -2 23 -2 35 -2c100 0 175 40 234 125l35 -22c-59 -90 -152 -141 -270 -141c-15 0 -30 1 -44 3l-16 -59l-31 9l15 56c-27 6 -52 17 -75 30l-26 -95l-31 9l28 105
c-82 63 -130 172 -130 304c0 210 123 362 310 362l20 75l31 -9l-18 -68c28 -2 54 -7 79 -15l25 92zM93 350c0 -113 37 -205 100 -261l158 585c-153 -6 -258 -135 -258 -324zM221 67c22 -15 47 -26 74 -33l168 623c-25 9 -51 14 -79 16z" />
    <glyph glyph-name="copyright" unicode="&#xa9;" horiz-adv-x="832" 
d="M57 350c0 200 162 362 359 362s359 -162 359 -362s-162 -362 -359 -362s-359 162 -359 362zM747 350c0 184 -149 335 -331 335s-331 -151 -331 -335s149 -335 331 -335s331 151 331 335zM256 350c0 -108 55 -186 162 -186c56 0 110 23 148 80l28 -16
c-40 -66 -107 -96 -176 -96c-121 0 -197 89 -197 218s76 218 197 218c69 0 136 -30 176 -96l-28 -16c-38 57 -92 80 -148 80c-107 0 -162 -78 -162 -186z" />
    <glyph glyph-name="dcaron" unicode="&#x10f;" horiz-adv-x="643" 
d="M449 0v69c-47 -48 -114 -81 -186 -81c-137 0 -217 97 -217 271s80 271 217 271c72 0 139 -33 186 -81v281h40v-730h-40zM269 24c66 0 139 40 180 90v290c-41 50 -114 90 -180 90c-117 0 -183 -79 -183 -235s66 -235 183 -235zM536 505l78 232l39 -12l-85 -229z" />
    <glyph glyph-name="dong" unicode="&#x20ab;" horiz-adv-x="570" 
d="M449 0v69c-47 -48 -114 -81 -186 -81c-137 0 -217 90 -217 256s80 256 217 256c72 0 139 -33 186 -81v169h-205v35h205v77h40v-77h68v-35h-68v-588h-40zM269 24c66 0 139 40 180 90v260c-41 50 -114 90 -180 90c-117 0 -183 -72 -183 -220s66 -220 183 -220zM477 -101
v-34h-336v34h336z" />
    <glyph glyph-name="eacute" unicode="&#xe9;" horiz-adv-x="553" 
d="M296 -12c-159 0 -249 130 -249 272c0 157 99 270 234 270c134 0 235 -109 235 -265c0 -3 0 -16 -1 -22h-428c6 -119 82 -219 207 -219c68 0 125 28 165 81l32 -22c-46 -61 -113 -95 -195 -95zM88 279h387c-4 128 -86 215 -194 215c-107 0 -187 -88 -193 -215zM370 751
l32 -26l-147 -140l-26 22z" />
    <glyph glyph-name="ebreve" unicode="&#x115;" horiz-adv-x="553" 
d="M296 -12c-159 0 -249 130 -249 272c0 157 99 270 234 270c134 0 235 -109 235 -265c0 -3 0 -16 -1 -22h-428c6 -119 82 -219 207 -219c68 0 125 28 165 81l32 -22c-46 -61 -113 -95 -195 -95zM88 279h387c-4 128 -86 215 -194 215c-107 0 -187 -88 -193 -215zM277 639
c57 0 98 40 114 96l32 -8c-21 -76 -76 -122 -146 -122s-125 46 -146 122l32 8c16 -56 57 -96 114 -96z" />
    <glyph glyph-name="ecaron" unicode="&#x11b;" horiz-adv-x="553" 
d="M296 -12c-159 0 -249 130 -249 272c0 157 99 270 234 270c134 0 235 -109 235 -265c0 -3 0 -16 -1 -22h-428c6 -119 82 -219 207 -219c68 0 125 28 165 81l32 -22c-46 -61 -113 -95 -195 -95zM88 279h387c-4 128 -86 215 -194 215c-107 0 -187 -88 -193 -215zM300 588
h-30l-140 153l24 21l131 -139l131 139l24 -21z" />
    <glyph glyph-name="ecircumflex" unicode="&#xea;" horiz-adv-x="553" 
d="M296 -12c-159 0 -249 130 -249 272c0 157 99 270 234 270c134 0 235 -109 235 -265c0 -3 0 -16 -1 -22h-428c6 -119 82 -219 207 -219c68 0 125 28 165 81l32 -22c-46 -61 -113 -95 -195 -95zM88 279h387c-4 128 -86 215 -194 215c-107 0 -187 -88 -193 -215zM268 750h30
l140 -153l-24 -21l-131 139l-131 -139l-24 21z" />
    <glyph glyph-name="edieresis" unicode="&#xeb;" horiz-adv-x="553" 
d="M296 -12c-159 0 -249 130 -249 272c0 157 99 270 234 270c134 0 235 -109 235 -265c0 -3 0 -16 -1 -22h-428c6 -119 82 -219 207 -219c68 0 125 28 165 81l32 -22c-46 -61 -113 -95 -195 -95zM88 279h387c-4 128 -86 215 -194 215c-107 0 -187 -88 -193 -215zM158 669
c0 19 15 34 34 34s34 -15 34 -34s-15 -34 -34 -34s-34 15 -34 34zM342 669c0 19 15 34 34 34s34 -15 34 -34s-15 -34 -34 -34s-34 15 -34 34z" />
    <glyph glyph-name="edotaccent" unicode="&#x117;" horiz-adv-x="553" 
d="M296 -12c-159 0 -249 130 -249 272c0 157 99 270 234 270c134 0 235 -109 235 -265c0 -3 0 -16 -1 -22h-428c6 -119 82 -219 207 -219c68 0 125 28 165 81l32 -22c-46 -61 -113 -95 -195 -95zM88 279h387c-4 128 -86 215 -194 215c-107 0 -187 -88 -193 -215zM245 669
c0 18 16 34 34 34s34 -16 34 -34s-16 -34 -34 -34s-34 16 -34 34z" />
    <glyph glyph-name="egrave" unicode="&#xe8;" horiz-adv-x="553" 
d="M296 -12c-159 0 -249 130 -249 272c0 157 99 270 234 270c134 0 235 -109 235 -265c0 -3 0 -16 -1 -22h-428c6 -119 82 -219 207 -219c68 0 125 28 165 81l32 -22c-46 -61 -113 -95 -195 -95zM88 279h387c-4 128 -86 215 -194 215c-107 0 -187 -88 -193 -215zM176 725
l32 26l141 -144l-26 -22z" />
    <glyph glyph-name="emacron" unicode="&#x113;" horiz-adv-x="553" 
d="M296 -12c-159 0 -249 130 -249 272c0 157 99 270 234 270c134 0 235 -109 235 -265c0 -3 0 -16 -1 -22h-428c6 -119 82 -219 207 -219c68 0 125 28 165 81l32 -22c-46 -61 -113 -95 -195 -95zM88 279h387c-4 128 -86 215 -194 215c-107 0 -187 -88 -193 -215zM141 651v36
h278v-36h-278z" />
    <glyph glyph-name="emdash" unicode="&#x2014;" horiz-adv-x="1000" 
d="M1000 313h-1000v38h1000v-38z" />
    <glyph glyph-name="endash" unicode="&#x2013;" horiz-adv-x="500" 
d="M500 313h-500v38h500v-38z" />
    <glyph glyph-name="eogonek" unicode="&#x119;" horiz-adv-x="553" 
d="M491 83c-39 -51 -92 -83 -157 -92c-41 -33 -61 -68 -61 -107c0 -41 27 -69 66 -69c26 0 49 12 66 29l21 -25c-23 -23 -51 -38 -91 -38c-62 0 -100 46 -100 98c0 39 18 78 56 109c-156 3 -244 131 -244 272c0 157 99 270 234 270c134 0 235 -109 235 -265
c0 -3 0 -16 -1 -22h-428c6 -119 82 -219 207 -219c68 0 125 28 165 81zM88 279h387c-4 128 -86 215 -194 215c-107 0 -187 -88 -193 -215z" />
    <glyph glyph-name="estimated" unicode="&#x212e;" horiz-adv-x="751" 
d="M610 89l23 -22c-58 -52 -133 -79 -223 -79c-264 0 -359 164 -359 362c0 196 119 362 330 362c204 0 318 -165 318 -368v-11h-499v-258c50 -39 132 -58 211 -58c77 0 147 23 199 72zM378 683c-69 0 -131 -21 -178 -61v-260h355v261c-46 40 -107 60 -177 60z" />
    <glyph glyph-name="exclamdbl" unicode="&#x203c;" horiz-adv-x="431" 
d="M136 169h-30l-7 316v215h44v-215zM83 26c0 21 17 38 38 38s38 -17 38 -38s-17 -38 -38 -38s-38 17 -38 38zM325 169h-30l-7 316v215h44v-215zM272 26c0 21 17 38 38 38s38 -17 38 -38s-17 -38 -38 -38s-38 17 -38 38z" />
    <glyph glyph-name="florin" unicode="&#x192;" horiz-adv-x="350" 
d="M276 730c19 0 39 -1 56 -3v-36c-19 2 -38 3 -57 3c-64 0 -106 -23 -106 -113v-63h153v-36h-153v-539c0 -110 -56 -146 -147 -146c-19 0 -39 1 -56 3v36c19 -2 38 -3 57 -3c64 0 106 23 106 113v536h-111v36h111v66c0 110 56 146 147 146z" />
    <glyph glyph-name="fraction" unicode="&#x2044;" horiz-adv-x="184" 
d="M304 696l-393 -708l-31 19l393 708z" />
    <glyph glyph-name="franc" unicode="&#x20a3;" horiz-adv-x="529" 
d="M449 281h-320v-281h-42v281h-60v31h60v104h-60v31h60v253h414v-38h-372v-215h320v-31h-320v-104h320v-31z" />
    <glyph glyph-name="gbreve" unicode="&#x11f;" horiz-adv-x="566" 
d="M449 0v69c-47 -48 -114 -81 -186 -81c-137 0 -217 97 -217 271s80 271 217 271c72 0 139 -33 186 -81v69h40v-512c0 -144 -72 -230 -208 -230c-87 0 -158 35 -210 102l32 23c46 -59 106 -88 176 -88c111 0 170 72 170 187zM269 24c66 0 139 40 180 90v290
c-41 50 -114 90 -180 90c-117 0 -183 -79 -183 -235s66 -235 183 -235zM282 639c57 0 98 40 114 96l32 -8c-21 -76 -76 -122 -146 -122s-125 46 -146 122l32 8c16 -56 57 -96 114 -96z" />
    <glyph glyph-name="gcircumflex" unicode="&#x11d;" horiz-adv-x="566" 
d="M449 69v-69c0 -115 -59 -187 -170 -187c-70 0 -130 29 -176 88l-32 -23c52 -67 123 -102 210 -102c136 0 208 86 208 230v512h-40v-69c-47 48 -114 81 -186 81c-137 0 -217 -97 -217 -271s80 -271 217 -271c72 0 139 33 186 81zM269 24c-117 0 -183 79 -183 235
s66 235 183 235c66 0 139 -40 180 -90v-290c-41 -50 -114 -90 -180 -90zM266 750h30l140 -153l-24 -21l-131 139l-131 -139l-24 21z" />
    <glyph glyph-name="gcommaaccent" unicode="&#x123;" horiz-adv-x="566" 
d="M449 69v-69c0 -115 -59 -187 -170 -187c-70 0 -130 29 -176 88l-32 -23c52 -67 123 -102 210 -102c136 0 208 86 208 230v512h-40v-69c-47 48 -114 81 -186 81c-137 0 -217 -97 -217 -271s80 -271 217 -271c72 0 139 33 186 81zM269 24c-117 0 -183 79 -183 235
s66 235 183 235c66 0 139 -40 180 -90v-290c-41 -50 -114 -90 -180 -90zM344 778l-61 -188l-37 12l67 186z" />
    <glyph glyph-name="gdotaccent" unicode="&#x121;" horiz-adv-x="566" 
d="M449 0v69c-47 -48 -114 -81 -186 -81c-137 0 -217 97 -217 271s80 271 217 271c72 0 139 -33 186 -81v69h40v-512c0 -144 -72 -230 -208 -230c-87 0 -158 35 -210 102l32 23c46 -59 106 -88 176 -88c111 0 170 72 170 187zM269 24c66 0 139 40 180 90v290
c-41 50 -114 90 -180 90c-117 0 -183 -79 -183 -235s66 -235 183 -235zM246 669c0 18 16 34 34 34s34 -16 34 -34s-16 -34 -34 -34s-34 16 -34 34z" />
    <glyph glyph-name="gravecomb" unicode="&#x300;" horiz-adv-x="0" 
d="M-371 705l32 26l141 -144l-26 -22z" />
    <glyph glyph-name="guillemotleft" unicode="&#xab;" horiz-adv-x="519" 
d="M50 303v18l212 159l21 -28l-187 -140l187 -140l-21 -28zM236 303v18l212 159l21 -28l-186 -140l186 -140l-21 -28z" />
    <glyph glyph-name="guillemotright" unicode="&#xbb;" horiz-adv-x="519" 
d="M469 321v-18l-211 -159l-22 28l187 140l-187 140l22 28zM283 321v-18l-212 -159l-21 28l187 140l-187 140l21 28z" />
    <glyph glyph-name="guilsinglleft" unicode="&#x2039;" horiz-adv-x="333" 
d="M50 303v18l212 159l21 -28l-187 -140l187 -140l-21 -28z" />
    <glyph glyph-name="guilsinglright" unicode="&#x203a;" horiz-adv-x="333" 
d="M283 321v-18l-212 -159l-21 28l187 140l-187 140l21 28z" />
    <glyph glyph-name="hcircumflex" unicode="&#x125;" horiz-adv-x="567" 
d="M315 530c114 0 179 -64 179 -190v-340h-40v329c0 111 -46 165 -146 165c-72 0 -144 -46 -191 -100v-394h-40v730h40v-292c50 50 117 92 198 92zM81 924h30l140 -153l-24 -21l-131 139l-131 -139l-24 21z" />
    <glyph glyph-name="house" unicode="&#x2302;" horiz-adv-x="702" 
d="M596 328v-328h-490v328l245 288zM146 36h410v279l-205 242l-205 -242v-279z" />
    <glyph glyph-name="iacute" unicode="&#xed;" horiz-adv-x="204" 
d="M82 0v518h40v-518h-40zM222 751l32 -26l-147 -140l-26 22z" />
    <glyph glyph-name="ibreve" unicode="&#x12d;" horiz-adv-x="204" 
d="M82 0v518h40v-518h-40zM102 639c57 0 98 40 114 96l32 -8c-21 -76 -76 -122 -146 -122s-125 46 -146 122l32 8c16 -56 57 -96 114 -96z" />
    <glyph glyph-name="icircumflex" unicode="&#xee;" horiz-adv-x="204" 
d="M82 0v518h40v-518h-40zM87 750h30l140 -153l-24 -21l-131 139l-131 -139l-24 21z" />
    <glyph glyph-name="idieresis" unicode="&#xef;" horiz-adv-x="204" 
d="M82 0v518h40v-518h-40zM-24 669c0 19 15 34 34 34s34 -15 34 -34s-15 -34 -34 -34s-34 15 -34 34zM160 669c0 19 15 34 34 34s34 -15 34 -34s-15 -34 -34 -34s-34 15 -34 34z" />
    <glyph glyph-name="igrave" unicode="&#xec;" horiz-adv-x="204" 
d="M82 0v518h40v-518h-40zM-50 725l32 26l141 -144l-26 -22z" />
    <glyph glyph-name="imacron" unicode="&#x12b;" horiz-adv-x="204" 
d="M82 0v518h40v-518h-40zM-37 651v36h278v-36h-278z" />
    <glyph glyph-name="Delta" unicode="&#x2206;" horiz-adv-x="662" 
d="M331 630l-254 -591h508zM27 0l-7 10l305 702h12l305 -702l-7 -10h-608z" />
    <glyph glyph-name="iogonek" unicode="&#x12f;" horiz-adv-x="204" 
d="M82 0v518h40v-518c-50 -36 -74 -74 -74 -116c0 -41 27 -69 66 -69c26 0 49 12 66 29l21 -25c-23 -23 -51 -38 -91 -38c-62 0 -100 46 -100 98c0 44 24 88 72 121zM66 682c0 20 16 36 36 36s36 -16 36 -36s-16 -36 -36 -36s-36 16 -36 36z" />
    <glyph glyph-name="itilde" unicode="&#x129;" horiz-adv-x="204" 
d="M82 0v518h40v-518h-40zM93 654c-19 18 -35 30 -60 30c-28 0 -45 -25 -54 -56l-34 7c15 55 49 83 88 83c31 0 54 -13 78 -34c19 -18 35 -30 60 -30c28 0 45 25 54 56l34 -7c-15 -55 -49 -83 -88 -83c-31 0 -54 13 -78 34z" />
    <glyph glyph-name="jcircumflex" unicode="&#x135;" horiz-adv-x="204" 
d="M-18 -224c-10 0 -25 1 -34 2v36c10 -1 26 -2 37 -2c60 0 97 21 97 110v596h40v-599c0 -111 -52 -143 -140 -143zM88 750h30l140 -153l-24 -21l-131 139l-131 -139l-24 21z" />
    <glyph glyph-name="kcommaaccent" unicode="&#x137;" horiz-adv-x="493" 
d="M117 730v-538l283 326h52l-181 -207l212 -311h-47l-192 282l-127 -145v-137h-40v730h40zM202 -242l61 188l37 -12l-67 -186z" />
    <glyph glyph-name="lacute" unicode="&#x13a;" horiz-adv-x="204" 
d="M82 0v730h40v-730h-40zM224 925l32 -26l-147 -140l-26 22z" />
    <glyph glyph-name="lcaron" unicode="&#x13e;" horiz-adv-x="276" 
d="M82 0v730h40v-730h-40zM169 505l78 232l39 -12l-85 -229z" />
    <glyph glyph-name="lcommaaccent" unicode="&#x13c;" horiz-adv-x="204" 
d="M82 0v730h40v-730h-40zM23 -242l61 188l37 -12l-67 -186z" />
    <glyph glyph-name="lira" unicode="&#x20a4;" horiz-adv-x="572" 
d="M126 416v93c0 137 75 203 201 203c75 0 145 -31 194 -89l-31 -25c-44 50 -100 76 -162 76c-101 0 -159 -51 -159 -166v-92h225v-36h-225v-97h225v-36h-225c0 -89 -25 -161 -72 -209h437v-38h-488v34c53 50 80 119 80 206v7h-80v36h80v97h-80v36h80z" />
    <glyph glyph-name="logicalnot" unicode="&#xac;" horiz-adv-x="618" 
d="M63 393v38h482v-261h-43v223h-439z" />
    <glyph glyph-name="longs" unicode="&#x17f;" horiz-adv-x="350" 
d="M276 730c19 0 39 -1 56 -3v-36c-19 2 -38 3 -57 3c-64 0 -106 -23 -106 -113v-581h-40v482h-111v36h111v66c0 110 56 146 147 146z" />
    <glyph glyph-name="lozenge" unicode="&#x25ca;" horiz-adv-x="581" 
d="M534 302l-244 -459l-244 459l244 459zM290 676l-198 -374l198 -374l198 374z" />
    <glyph glyph-name="minus" unicode="&#x2212;" horiz-adv-x="618" 
d="M551 313h-484v38h484v-38z" />
    <glyph glyph-name="mu" unicode="&#xb5;" horiz-adv-x="572" 
d="M285 -12c-69 0 -127 26 -168 69v-269h-40v730h40v-416c39 -49 104 -78 168 -78c65 0 131 29 170 78v416h40v-518h-40v57c-41 -43 -103 -69 -170 -69z" />
    <glyph glyph-name="nacute" unicode="&#x144;" horiz-adv-x="567" 
d="M315 530c114 0 179 -64 179 -190v-340h-40v329c0 111 -46 165 -146 165c-72 0 -144 -46 -191 -100v-394h-40v518h40v-80c50 50 117 92 198 92zM378 751l32 -26l-147 -140l-26 22z" />
    <glyph glyph-name="uni00A0" unicode="&#xa0;" horiz-adv-x="300" 
 />
    <glyph glyph-name="ncaron" unicode="&#x148;" horiz-adv-x="567" 
d="M315 530c114 0 179 -64 179 -190v-340h-40v329c0 111 -46 165 -146 165c-72 0 -144 -46 -191 -100v-394h-40v518h40v-80c50 50 117 92 198 92zM300 588h-30l-140 153l24 21l131 -139l131 139l24 -21z" />
    <glyph glyph-name="ncommaaccent" unicode="&#x146;" horiz-adv-x="567" 
d="M315 530c114 0 179 -64 179 -190v-340h-40v329c0 111 -46 165 -146 165c-72 0 -144 -46 -191 -100v-394h-40v518h40v-80c50 50 117 92 198 92zM220 -242l61 188l37 -12l-67 -186z" />
    <glyph glyph-name="ntilde" unicode="&#xf1;" horiz-adv-x="567" 
d="M315 530c114 0 179 -64 179 -190v-340h-40v329c0 111 -46 165 -146 165c-72 0 -144 -46 -191 -100v-394h-40v518h40v-80c50 50 117 92 198 92zM274 654c-19 18 -35 30 -60 30c-28 0 -45 -25 -54 -56l-34 7c15 55 49 83 88 83c31 0 54 -13 78 -34c19 -18 35 -30 60 -30
c28 0 45 25 54 56l34 -7c-15 -55 -49 -83 -88 -83c-31 0 -54 13 -78 34z" />
    <glyph glyph-name="oacute" unicode="&#xf3;" horiz-adv-x="570" 
d="M285 -12c-139 0 -239 113 -239 271c0 157 100 271 239 271s239 -114 239 -271c0 -158 -100 -271 -239 -271zM285 24c113 0 199 95 199 235s-86 235 -199 235s-199 -95 -199 -235s86 -235 199 -235zM365 751l32 -26l-147 -140l-26 22z" />
    <glyph glyph-name="obreve" unicode="&#x14f;" horiz-adv-x="570" 
d="M285 -12c-139 0 -239 113 -239 271c0 157 100 271 239 271s239 -114 239 -271c0 -158 -100 -271 -239 -271zM285 24c113 0 199 95 199 235s-86 235 -199 235s-199 -95 -199 -235s86 -235 199 -235zM285 639c57 0 98 40 114 96l32 -8c-21 -76 -76 -122 -146 -122
s-125 46 -146 122l32 8c16 -56 57 -96 114 -96z" />
    <glyph glyph-name="ocircumflex" unicode="&#xf4;" horiz-adv-x="570" 
d="M285 -12c-139 0 -239 113 -239 271c0 157 100 271 239 271s239 -114 239 -271c0 -158 -100 -271 -239 -271zM285 24c113 0 199 95 199 235s-86 235 -199 235s-199 -95 -199 -235s86 -235 199 -235zM270 750h30l140 -153l-24 -21l-131 139l-131 -139l-24 21z" />
    <glyph glyph-name="odieresis" unicode="&#xf6;" horiz-adv-x="570" 
d="M285 -12c-139 0 -239 113 -239 271c0 157 100 271 239 271s239 -114 239 -271c0 -158 -100 -271 -239 -271zM285 24c113 0 199 95 199 235s-86 235 -199 235s-199 -95 -199 -235s86 -235 199 -235zM159 669c0 19 15 34 34 34s34 -15 34 -34s-15 -34 -34 -34
s-34 15 -34 34zM343 669c0 19 15 34 34 34s34 -15 34 -34s-15 -34 -34 -34s-34 15 -34 34z" />
    <glyph glyph-name="ograve" unicode="&#xf2;" horiz-adv-x="570" 
d="M285 -12c-139 0 -239 113 -239 271c0 157 100 271 239 271s239 -114 239 -271c0 -158 -100 -271 -239 -271zM285 24c113 0 199 95 199 235s-86 235 -199 235s-199 -95 -199 -235s86 -235 199 -235zM173 725l32 26l141 -144l-26 -22z" />
    <glyph glyph-name="ohungarumlaut" unicode="&#x151;" horiz-adv-x="570" 
d="M285 -12c-139 0 -239 113 -239 271c0 157 100 271 239 271s239 -114 239 -271c0 -158 -100 -271 -239 -271zM285 24c113 0 199 95 199 235s-86 235 -199 235s-199 -95 -199 -235s86 -235 199 -235zM159 603l131 145l32 -26l-135 -140zM302 603l142 145l32 -26l-146 -140z
" />
    <glyph glyph-name="omacron" unicode="&#x14d;" horiz-adv-x="570" 
d="M285 -12c-139 0 -239 113 -239 271c0 157 100 271 239 271s239 -114 239 -271c0 -158 -100 -271 -239 -271zM285 24c113 0 199 95 199 235s-86 235 -199 235s-199 -95 -199 -235s86 -235 199 -235zM146 651v36h278v-36h-278z" />
    <glyph glyph-name="onedotenleader" unicode="&#x2024;" horiz-adv-x="286" 
d="M105 26c0 21 17 38 38 38s38 -17 38 -38s-17 -38 -38 -38s-38 17 -38 38z" />
    <glyph glyph-name="orthogonal" unicode="&#x221f;" horiz-adv-x="633" 
d="M607 36v-36h-500v575h40v-539h460z" />
    <glyph glyph-name="oslashacute" unicode="&#x1ff;" horiz-adv-x="570" 
d="M66 -22l55 78c-47 48 -75 119 -75 203c0 157 100 271 239 271c53 0 100 -17 138 -46l54 76l28 -20l-56 -79c47 -49 75 -120 75 -202c0 -158 -100 -271 -239 -271c-53 0 -100 16 -138 45l-53 -75zM86 259c0 -71 21 -130 57 -171l258 365c-32 26 -72 41 -116 41
c-113 0 -199 -95 -199 -235zM285 24c113 0 199 95 199 235c0 70 -22 128 -57 170l-258 -365c32 -26 72 -40 116 -40zM365 751l32 -26l-147 -140l-26 22z" />
    <glyph glyph-name="otilde" unicode="&#xf5;" horiz-adv-x="570" 
d="M285 -12c-139 0 -239 113 -239 271c0 157 100 271 239 271s239 -114 239 -271c0 -158 -100 -271 -239 -271zM285 24c113 0 199 95 199 235s-86 235 -199 235s-199 -95 -199 -235s86 -235 199 -235zM276 654c-19 18 -35 30 -60 30c-28 0 -45 -25 -54 -56l-34 7
c15 55 49 83 88 83c31 0 54 -13 78 -34c19 -18 35 -30 60 -30c28 0 45 25 54 56l34 -7c-15 -55 -49 -83 -88 -83c-31 0 -54 13 -78 34z" />
    <glyph glyph-name="macron" unicode="&#xaf;" horiz-adv-x="400" 
d="M61 630v36h278v-36h-278z" />
    <glyph glyph-name="peseta" unicode="&#x20a7;" horiz-adv-x="989" 
d="M537 673v-155h185c20 8 42 12 63 12c58 0 101 -19 144 -60l-27 -25c-33 32 -76 49 -113 49c-62 0 -109 -35 -109 -85c0 -44 22 -78 125 -123c92 -41 137 -87 137 -150c0 -91 -64 -136 -167 -136h-152c-86 0 -126 54 -126 177v305h-72c-13 -143 -98 -218 -258 -218h-39
v-264h-42v700h86c139 0 236 -63 251 -182h74v155h40zM640 405c0 31 11 57 29 77h-132v-309c0 -101 29 -137 86 -137h152c86 0 127 36 127 98c0 52 -45 88 -132 125c-99 42 -130 90 -130 146zM383 482c0 115 -71 180 -215 180h-40v-361h40c136 0 215 65 215 181z" />
    <glyph glyph-name="quotedblbase" unicode="&#x201e;" horiz-adv-x="424" 
d="M274 67l45 -15l-76 -205l-36 12zM133 67l45 -15l-76 -205l-36 12z" />
    <glyph glyph-name="quotereversed" unicode="&#x201b;" horiz-adv-x="283" 
d="M150 754l67 -210l-35 -11l-77 206z" />
    <glyph glyph-name="quotesinglbase" unicode="&#x201a;" horiz-adv-x="283" 
d="M133 67l45 -15l-76 -205l-36 12z" />
    <glyph glyph-name="racute" unicode="&#x155;" horiz-adv-x="348" 
d="M285 494c-69 0 -130 -45 -168 -99v-395h-40v518h40v-78c44 54 101 90 175 90c10 0 27 -1 36 -2v-37c-14 2 -28 3 -43 3zM264 751l32 -26l-147 -140l-26 22z" />
    <glyph glyph-name="rcaron" unicode="&#x159;" horiz-adv-x="348" 
d="M285 494c-69 0 -130 -45 -168 -99v-395h-40v518h40v-78c44 54 101 90 175 90c10 0 27 -1 36 -2v-37c-14 2 -28 3 -43 3zM203 588h-30l-140 153l24 21l131 -139l131 139l24 -21z" />
    <glyph glyph-name="rcommaaccent" unicode="&#x157;" horiz-adv-x="348" 
d="M285 494c-69 0 -130 -45 -168 -99v-395h-40v518h40v-78c44 54 101 90 175 90c10 0 27 -1 36 -2v-37c-14 2 -28 3 -43 3zM20 -242l61 188l37 -12l-67 -186z" />
    <glyph glyph-name="revlogicalnot" unicode="&#x2310;" horiz-adv-x="618" 
d="M555 431v-38h-439v-223h-43v261h482z" />
    <glyph glyph-name="sacute" unicode="&#x15b;" horiz-adv-x="482" 
d="M245 24c92 0 148 43 148 107c0 65 -50 100 -159 128c-119 31 -176 69 -176 144c0 77 65 127 172 127c67 0 130 -23 177 -66l-28 -26c-43 39 -98 56 -151 56c-77 0 -128 -32 -128 -90c0 -56 46 -82 154 -110c120 -31 181 -80 181 -162c0 -90 -76 -144 -191 -144
c-77 0 -155 29 -211 84l29 27c51 -50 120 -75 183 -75zM320 751l32 -26l-147 -140l-26 22z" />
    <glyph glyph-name="scaron" unicode="&#x161;" horiz-adv-x="482" 
d="M245 24c92 0 148 43 148 107c0 65 -50 100 -159 128c-119 31 -176 69 -176 144c0 77 65 127 172 127c67 0 130 -23 177 -66l-28 -26c-43 39 -98 56 -151 56c-77 0 -128 -32 -128 -90c0 -56 46 -82 154 -110c120 -31 181 -80 181 -162c0 -90 -76 -144 -191 -144
c-77 0 -155 29 -211 84l29 27c51 -50 120 -75 183 -75zM251 588h-30l-140 153l24 21l131 -139l131 139l24 -21z" />
    <glyph glyph-name="scedilla" unicode="&#x15f;" horiz-adv-x="482" 
d="M230 -205c47 0 70 23 70 53c0 40 -33 65 -100 69l-4 5l33 67c-72 3 -144 31 -196 83l29 27c51 -50 120 -75 183 -75c92 0 148 43 148 107c0 65 -50 100 -159 128c-119 31 -176 69 -176 144c0 77 65 127 172 127c67 0 130 -23 177 -66l-28 -26c-43 39 -98 56 -151 56
c-77 0 -128 -32 -128 -90c0 -56 46 -82 154 -110c120 -31 181 -80 181 -162c0 -84 -66 -136 -169 -143l-24 -49c64 -10 96 -46 96 -93c0 -44 -34 -85 -106 -85c-32 0 -62 12 -86 31l21 25c18 -15 41 -23 63 -23z" />
    <glyph glyph-name="scircumflex" unicode="&#x15d;" horiz-adv-x="482" 
d="M245 24c92 0 148 43 148 107c0 65 -50 100 -159 128c-119 31 -176 69 -176 144c0 77 65 127 172 127c67 0 130 -23 177 -66l-28 -26c-43 39 -98 56 -151 56c-77 0 -128 -32 -128 -90c0 -56 46 -82 154 -110c120 -31 181 -80 181 -162c0 -90 -76 -144 -191 -144
c-77 0 -155 29 -211 84l29 27c51 -50 120 -75 183 -75zM215 750h30l140 -153l-24 -21l-131 139l-131 -139l-24 21z" />
    <glyph glyph-name="sterling" unicode="&#xa3;" horiz-adv-x="572" 
d="M327 712c75 0 145 -31 194 -89l-31 -25c-44 50 -100 76 -162 76c-101 0 -159 -51 -159 -166v-127h225v-36h-225v-98c0 -89 -25 -161 -72 -209h437v-38h-488v34c53 50 80 119 80 206v105h-80v36h80v128c0 137 75 203 201 203z" />
    <glyph glyph-name="tcaron" unicode="&#x165;" horiz-adv-x="460" 
d="M277 -12c-89 0 -148 37 -148 146v348h-111v36h111v155h42v-155h151v-36h-151v-345c0 -84 38 -113 105 -113c14 0 31 1 43 2v-36c-11 -1 -29 -2 -42 -2zM353 505l78 232l39 -12l-85 -229z" />
    <glyph glyph-name="tcommaaccent" unicode="&#x163;" horiz-adv-x="350" 
d="M185 -205c47 0 70 23 70 53c0 40 -33 65 -100 69l-4 5l41 83c-40 20 -63 60 -63 129v348h-111v36h111v155h42v-155h151v-36h-151v-345c0 -84 38 -113 105 -113c14 0 31 1 43 2v-36c-11 -1 -29 -2 -42 -2c-19 0 -37 2 -53 6l-27 -54c64 -10 96 -46 96 -93
c0 -44 -34 -85 -106 -85c-32 0 -62 12 -86 31l21 25c18 -15 41 -23 63 -23z" />
    <glyph glyph-name="tilde" unicode="&#x2dc;" horiz-adv-x="400" 
d="M191 635c-19 18 -35 30 -60 30c-28 0 -45 -25 -54 -56l-34 7c15 55 49 83 88 83c31 0 54 -13 78 -34c19 -18 35 -30 60 -30c28 0 45 25 54 56l34 -7c-15 -55 -49 -83 -88 -83c-31 0 -54 13 -78 34z" />
    <glyph glyph-name="tildecomb" unicode="&#x303;" horiz-adv-x="0" 
d="M-262 635c-19 18 -35 30 -60 30c-28 0 -45 -25 -54 -56l-34 7c15 55 49 83 88 83c31 0 54 -13 78 -34c19 -18 35 -30 60 -30c28 0 45 25 54 56l34 -7c-15 -55 -49 -83 -88 -83c-31 0 -54 13 -78 34z" />
    <glyph glyph-name="uacute" unicode="&#xfa;" horiz-adv-x="566" 
d="M283 24c104 0 169 66 169 192v302h41v-305c0 -150 -83 -225 -210 -225s-210 75 -210 225v305h41v-302c0 -126 65 -192 169 -192zM383 751l32 -26l-147 -140l-26 22z" />
    <glyph glyph-name="ubreve" unicode="&#x16d;" horiz-adv-x="566" 
d="M283 24c-104 0 -169 66 -169 192v302h-41v-305c0 -150 83 -225 210 -225s210 75 210 225v305h-41v-302c0 -126 -65 -192 -169 -192zM283 639c57 0 98 40 114 96l32 -8c-21 -76 -76 -122 -146 -122s-125 46 -146 122l32 8c16 -56 57 -96 114 -96z" />
    <glyph glyph-name="ucircumflex" unicode="&#xfb;" horiz-adv-x="566" 
d="M283 24c104 0 169 66 169 192v302h41v-305c0 -150 -83 -225 -210 -225s-210 75 -210 225v305h41v-302c0 -126 65 -192 169 -192zM268 750h30l140 -153l-24 -21l-131 139l-131 -139l-24 21z" />
    <glyph glyph-name="udieresis" unicode="&#xfc;" horiz-adv-x="566" 
d="M283 24c-104 0 -169 66 -169 192v302h-41v-305c0 -150 83 -225 210 -225s210 75 210 225v305h-41v-302c0 -126 -65 -192 -169 -192zM157 669c0 19 15 34 34 34s34 -15 34 -34s-15 -34 -34 -34s-34 15 -34 34zM341 669c0 19 15 34 34 34s34 -15 34 -34s-15 -34 -34 -34
s-34 15 -34 34z" />
    <glyph glyph-name="ugrave" unicode="&#xf9;" horiz-adv-x="566" 
d="M283 24c104 0 169 66 169 192v302h41v-305c0 -150 -83 -225 -210 -225s-210 75 -210 225v305h41v-302c0 -126 65 -192 169 -192zM151 725l32 26l141 -144l-26 -22z" />
    <glyph glyph-name="uhungarumlaut" unicode="&#x171;" horiz-adv-x="566" 
d="M283 24c-104 0 -169 66 -169 192v302h-41v-305c0 -150 83 -225 210 -225s210 75 210 225v305h-41v-302c0 -126 -65 -192 -169 -192zM164 603l131 145l32 -26l-135 -140zM307 603l142 145l32 -26l-146 -140z" />
    <glyph glyph-name="umacron" unicode="&#x16b;" horiz-adv-x="566" 
d="M283 24c104 0 169 66 169 192v302h41v-305c0 -150 -83 -225 -210 -225s-210 75 -210 225v305h41v-302c0 -126 65 -192 169 -192zM144 651v36h278v-36h-278z" />
    <glyph glyph-name="underscoredbl" unicode="&#x2017;" horiz-adv-x="613" 
d="M56 -47h501v-34h-501v34zM56 -148h501v-35h-501v35z" />
    <glyph glyph-name="uni0191" unicode="&#x191;" horiz-adv-x="529" 
d="M87 700h414v-38h-372v-279h331v-38h-331v-426c0 -111 -54 -143 -142 -143c-10 0 -25 1 -34 2v39c12 -2 26 -3 37 -3c60 0 97 21 97 108v778z" />
    <glyph glyph-name="uni02C9" unicode="&#x2c9;" horiz-adv-x="400" 
d="M61 630v36h278v-36h-278z" />
    <glyph glyph-name="uni0302" unicode="&#x302;" horiz-adv-x="0" 
d="M-268 730h30l140 -153l-24 -21l-131 139l-131 -139l-24 21z" />
    <glyph glyph-name="uni0304" unicode="&#x304;" horiz-adv-x="0" 
d="M-389 631v36h278v-36h-278z" />
    <glyph glyph-name="uni0306" unicode="&#x306;" horiz-adv-x="0" 
d="M-253 619c57 0 98 40 114 96l32 -8c-21 -76 -76 -122 -146 -122s-125 46 -146 122l32 8c16 -56 57 -96 114 -96z" />
    <glyph glyph-name="uni0307" unicode="&#x307;" horiz-adv-x="0" 
d="M-287 649c0 18 16 34 34 34s34 -16 34 -34s-16 -34 -34 -34s-34 16 -34 34z" />
    <glyph glyph-name="uni0308" unicode="&#x308;" horiz-adv-x="0" 
d="M-379 649c0 19 15 34 34 34s34 -15 34 -34s-15 -34 -34 -34s-34 15 -34 34zM-195 649c0 19 15 34 34 34s34 -15 34 -34s-15 -34 -34 -34s-34 15 -34 34z" />
    <glyph glyph-name="uni030A" unicode="&#x30a;" horiz-adv-x="0" 
d="M-161 649c0 -51 -41 -90 -92 -90s-92 39 -92 90s41 90 92 90s92 -39 92 -90zM-311 649c0 -33 26 -58 58 -58s58 25 58 58s-26 58 -58 58s-58 -25 -58 -58z" />
    <glyph glyph-name="uni030C" unicode="&#x30c;" horiz-adv-x="0" 
d="M-238 568h-30l-140 153l24 21l131 -139l131 139l24 -21z" />
    <glyph glyph-name="uni0327" unicode="&#x327;" horiz-adv-x="0" 
d="M-273 -205c47 0 70 23 70 53c0 40 -33 65 -100 69l-4 5l39 78h37l-30 -60c64 -10 96 -46 96 -93c0 -44 -34 -85 -106 -85c-32 0 -62 12 -86 31l21 25c18 -15 41 -23 63 -23z" />
    <glyph glyph-name="uni0400" unicode="&#x400;" horiz-adv-x="554" 
d="M87 0v700h414v-38h-372v-281h337v-38h-337v-305h381v-38h-423zM186 899l32 26l141 -144l-26 -22z" />
    <glyph glyph-name="afii10051" unicode="&#x402;" horiz-adv-x="737" 
d="M645 231c0 111 -59 191 -176 191c-65 0 -131 -27 -180 -67v-355h-42v662h-230v38h502v-38h-230v-269c46 37 113 67 183 67c137 0 217 -94 217 -226s-71 -234 -202 -234h-22v38h20c108 0 160 91 160 193z" />
    <glyph glyph-name="afii10052" unicode="&#x403;" horiz-adv-x="518" 
d="M379 925l32 -26l-147 -140l-26 22zM87 0v700h411v-38h-369v-662h-42z" />
    <glyph glyph-name="afii10053" unicode="&#x404;" horiz-adv-x="675" 
d="M51 350c0 210 125 362 312 362c119 0 210 -49 268 -141l-35 -22c-59 86 -132 125 -232 125c-154 0 -264 -122 -271 -305h367v-38h-367c7 -184 117 -305 271 -305c100 0 173 39 232 125l35 -22c-58 -92 -149 -141 -268 -141c-187 0 -312 152 -312 362z" />
    <glyph glyph-name="afii10054" unicode="&#x405;" horiz-adv-x="578" 
d="M299 26c119 0 186 66 186 149c0 93 -64 136 -208 180c-142 43 -206 100 -206 192c0 99 77 165 200 165c93 0 171 -35 233 -102l-32 -26c-53 58 -123 90 -200 90c-103 0 -159 -51 -159 -127c0 -74 62 -119 180 -155c158 -48 234 -101 234 -216c0 -108 -83 -188 -226 -188
c-100 0 -192 38 -259 104l32 26c64 -62 147 -92 225 -92z" />
    <glyph glyph-name="afii10055" unicode="&#x406;" horiz-adv-x="226" 
d="M92 700h42v-700h-42v700z" />
    <glyph glyph-name="afii10056" unicode="&#x407;" horiz-adv-x="226" 
d="M92 700h42v-700h-42v700zM-13 843c0 19 15 34 34 34s34 -15 34 -34s-15 -34 -34 -34s-34 15 -34 34zM171 843c0 19 15 34 34 34s34 -15 34 -34s-15 -34 -34 -34s-34 15 -34 34z" />
    <glyph glyph-name="afii10057" unicode="&#x408;" horiz-adv-x="540" 
d="M249 26c95 0 162 71 162 197v477h42v-477c0 -159 -88 -235 -202 -235c-90 0 -166 39 -218 131l35 21c42 -75 103 -114 181 -114z" />
    <glyph glyph-name="afii10058" unicode="&#x409;" horiz-adv-x="1023" 
d="M556 0v662h-344v-520c0 -106 -46 -154 -144 -154c-15 0 -35 1 -48 3v36c17 -2 32 -3 52 -3c67 0 98 36 98 121v555h428v-308h162c143 0 223 -76 223 -196s-80 -196 -223 -196h-204zM598 354v-316h154c128 0 188 61 188 158s-60 158 -188 158h-154z" />
    <glyph glyph-name="afii10059" unicode="&#x40a;" horiz-adv-x="999" 
d="M532 0v354h-403v-354h-42v700h42v-308h403v308h42v-308h162c143 0 223 -76 223 -196s-80 -196 -223 -196h-204zM574 354v-316h154c128 0 188 61 188 158s-60 158 -188 158h-154z" />
    <glyph glyph-name="afii10060" unicode="&#x40b;" horiz-adv-x="762" 
d="M469 422c-65 0 -129 -20 -180 -60v-362h-42v662h-230v38h502v-38h-230v-262c51 36 117 60 183 60c139 0 217 -80 217 -226v-234h-43v230c0 126 -59 192 -177 192z" />
    <glyph glyph-name="afii10061" unicode="&#x40c;" horiz-adv-x="595" 
d="M546 700l-224 -285l256 -415h-51l-232 381l-166 -211v-170h-42v700h42v-466l365 466h52zM401 925l32 -26l-147 -140l-26 22z" />
    <glyph glyph-name="uni040D" unicode="&#x40d;" horiz-adv-x="688" 
d="M87 700v-700h42l430 631v-631h42v700h-42l-430 -631v631h-42zM223 899l32 26l141 -144l-26 -22z" />
    <glyph glyph-name="afii10062" unicode="&#x40e;" horiz-adv-x="572" 
d="M297 267l207 433h46l-335 -700h-46l106 222l-253 478h46zM283 811c57 0 98 40 114 96l32 -8c-21 -76 -76 -122 -146 -122s-125 46 -146 122l32 8c16 -56 57 -96 114 -96z" />
    <glyph glyph-name="afii10145" unicode="&#x40f;" horiz-adv-x="683" 
d="M86 0v700h42v-663h426v663h42v-700h-234v-120h-42v120h-234z" />
    <glyph glyph-name="uni0450" unicode="&#x450;" horiz-adv-x="553" 
d="M296 -12c-159 0 -249 130 -249 272c0 157 99 270 234 270c134 0 235 -109 235 -265c0 -3 0 -16 -1 -22h-428c6 -119 82 -219 207 -219c68 0 125 28 165 81l32 -22c-46 -61 -113 -95 -195 -95zM88 279h387c-4 128 -86 215 -194 215c-107 0 -187 -88 -193 -215zM169 725
l32 26l141 -144l-26 -22z" />
    <glyph glyph-name="afii10099" unicode="&#x452;" horiz-adv-x="567" 
d="M454 -78v407c0 111 -46 165 -146 165c-72 0 -144 -46 -191 -100v-394h-40v610h-65v34h65v86h40v-86h208v-34h-208v-172c50 50 117 92 198 92c114 0 179 -64 179 -190v-421c0 -111 -53 -143 -141 -143c-9 0 -25 1 -34 2v37c12 -2 26 -3 38 -3c59 0 97 21 97 110z" />
    <glyph glyph-name="afii10100" unicode="&#x453;" horiz-adv-x="428" 
d="M415 482h-298v-482h-40v518h338v-36zM321 751l32 -26l-147 -140l-26 22z" />
    <glyph glyph-name="afii10101" unicode="&#x454;" horiz-adv-x="535" 
d="M46 259c0 162 102 271 241 271c88 0 162 -37 207 -109l-33 -20c-42 64 -101 93 -172 93c-111 0 -196 -83 -203 -217h267v-36h-267c7 -135 92 -217 203 -217c71 0 130 29 172 93l33 -20c-45 -72 -119 -109 -207 -109c-139 0 -241 109 -241 271z" />
    <glyph glyph-name="afii10102" unicode="&#x455;" horiz-adv-x="482" 
d="M245 24c92 0 148 43 148 107c0 65 -50 100 -159 128c-119 31 -176 69 -176 144c0 77 65 127 172 127c67 0 130 -23 177 -66l-28 -26c-43 39 -98 56 -151 56c-77 0 -128 -32 -128 -90c0 -56 46 -82 154 -110c120 -31 181 -80 181 -162c0 -90 -76 -144 -191 -144
c-77 0 -155 29 -211 84l29 27c51 -50 120 -75 183 -75z" />
    <glyph glyph-name="afii10103" unicode="&#x456;" horiz-adv-x="204" 
d="M82 0v518h40v-518h-40zM66 682c0 20 16 36 36 36s36 -16 36 -36s-16 -36 -36 -36s-36 16 -36 36z" />
    <glyph glyph-name="afii10104" unicode="&#x457;" horiz-adv-x="204" 
d="M82 0v518h40v-518h-40zM-24 669c0 19 15 34 34 34s34 -15 34 -34s-15 -34 -34 -34s-34 15 -34 34zM160 669c0 19 15 34 34 34s34 -15 34 -34s-15 -34 -34 -34s-34 15 -34 34z" />
    <glyph glyph-name="afii10105" unicode="&#x458;" horiz-adv-x="204" 
d="M66 682c0 20 16 36 36 36s36 -16 36 -36s-16 -36 -36 -36s-36 16 -36 36zM-18 -224c-10 0 -25 1 -34 2v36c10 -1 26 -2 37 -2c60 0 97 21 97 110v596h40v-599c0 -111 -52 -143 -140 -143z" />
    <glyph glyph-name="afii10106" unicode="&#x459;" horiz-adv-x="824" 
d="M590 0h-156v482h-244v-344c0 -107 -43 -150 -137 -150c-14 0 -29 1 -40 2v37c16 -2 28 -3 45 -3c62 0 91 34 91 119v375h325v-206h116c136 0 198 -65 198 -156s-62 -156 -198 -156zM475 276v-240h109c121 0 162 50 162 120s-41 120 -162 120h-109z" />
    <glyph glyph-name="afii10107" unicode="&#x45a;" horiz-adv-x="799" 
d="M565 0h-156v275h-292v-275h-40v518h40v-207h292v207h40v-206h116c136 0 198 -65 198 -156s-62 -156 -198 -156zM450 276v-240h109c121 0 162 50 162 120s-41 120 -162 120h-109z" />
    <glyph glyph-name="afii10108" unicode="&#x45b;" horiz-adv-x="567" 
d="M315 530c114 0 179 -64 179 -190v-340h-40v329c0 111 -46 165 -146 165c-72 0 -144 -46 -191 -100v-394h-40v610h-65v34h65v86h40v-86h208v-34h-208v-172c50 50 117 92 198 92z" />
    <glyph glyph-name="afii10109" unicode="&#x45c;" horiz-adv-x="493" 
d="M117 518v-326l283 326h52l-181 -207l212 -311h-47l-192 282l-127 -145v-137h-40v518h40zM344 751l32 -26l-147 -140l-26 22z" />
    <glyph glyph-name="uni045D" unicode="&#x45d;" horiz-adv-x="582" 
d="M505 0h-40v455l-348 -455h-40v518h40v-455l348 455h40v-518zM168 725l32 26l141 -144l-26 -22z" />
    <glyph glyph-name="afii10110" unicode="&#x45e;" horiz-adv-x="483" 
d="M184 -212h-42l83 219l-203 511h43l180 -459l173 459h43zM247 639c57 0 98 40 114 96l32 -8c-21 -76 -76 -122 -146 -122s-125 46 -146 122l32 8c16 -56 57 -96 114 -96z" />
    <glyph glyph-name="afii10193" unicode="&#x45f;" horiz-adv-x="546" 
d="M77 0v518h40v-482h312v482h40v-518h-176v-110h-40v110h-176z" />
    <glyph glyph-name="afii10050" unicode="&#x490;" horiz-adv-x="518" 
d="M87 0v700h368v123h43v-161h-369v-662h-42z" />
    <glyph glyph-name="afii10098" unicode="&#x491;" horiz-adv-x="428" 
d="M374 650h41v-168h-297v-482h-41v518h297v132z" />
    <glyph glyph-name="uni2016" unicode="&#x2016;" horiz-adv-x="394" 
d="M107 -130v879h37v-879h-37zM250 -130v879h37v-879h-37z" />
    <glyph glyph-name="uni201F" unicode="&#x201f;" horiz-adv-x="424" 
d="M150 754l67 -210l-35 -11l-77 206zM291 754l67 -210l-35 -11l-77 206z" />
    <glyph glyph-name="uni203E" unicode="&#x203e;" horiz-adv-x="400" 
d="M61 630v36h278v-36h-278z" />
    <glyph glyph-name="zerosuperior" unicode="&#x2070;" 
d="M73 469c0 -126 44 -204 125 -204s125 78 125 204s-44 204 -125 204s-125 -78 -125 -204zM35 469c0 144 58 239 163 239s163 -95 163 -239s-58 -239 -163 -239s-163 95 -163 239z" />
    <glyph glyph-name="uni2071" unicode="&#x2071;" 
d="M217 569v-332h-38v332h38zM169 668c0 16 13 29 29 29s29 -13 29 -29s-13 -29 -29 -29s-29 13 -29 29z" />
    <glyph glyph-name="fivesuperior" unicode="&#x2075;" 
d="M184 263c68 0 118 43 118 113c0 71 -49 111 -122 111c-38 0 -71 -7 -102 -21l-5 3v231h241v-34h-203v-154c20 9 46 12 68 12c92 0 161 -56 161 -150c0 -90 -64 -145 -157 -145c-52 0 -105 18 -142 57l26 24c33 -34 79 -47 117 -47z" />
    <glyph glyph-name="sixsuperior" unicode="&#x2076;" 
d="M213 674c-77 0 -127 -60 -130 -192c31 31 78 51 120 51c93 0 151 -63 151 -154c0 -90 -65 -150 -149 -150c-91 0 -162 69 -162 224c0 177 68 255 172 255c41 0 80 -14 111 -52l-26 -21c-26 27 -53 39 -87 39zM201 499c-41 0 -87 -20 -119 -55c4 -132 59 -181 122 -181
c70 0 112 52 112 117c0 68 -39 119 -115 119z" />
    <glyph glyph-name="sevensuperior" unicode="&#x2077;" 
d="M338 666l-183 -429h-42l184 429h-249v34h290v-34z" />
    <glyph glyph-name="eightsuperior" unicode="&#x2078;" 
d="M43 362c0 57 34 101 82 131c-45 25 -65 58 -65 100c0 67 57 115 138 115c82 0 136 -50 136 -118c0 -46 -21 -87 -64 -119c49 -25 83 -58 83 -115c0 -81 -64 -127 -154 -127c-91 0 -156 52 -156 133zM315 356c0 70 -79 92 -156 122c-50 -29 -78 -71 -78 -117
c0 -61 52 -98 118 -98s116 32 116 93zM98 594c0 -65 84 -86 137 -107c41 29 61 59 61 104c0 47 -38 82 -99 82c-64 0 -99 -37 -99 -79z" />
    <glyph glyph-name="ninesuperior" unicode="&#x2079;" 
d="M189 263c79 0 121 58 125 192c-32 -31 -78 -51 -120 -51c-93 0 -151 63 -151 154c0 90 65 150 149 150c91 0 162 -69 162 -224c0 -179 -61 -255 -167 -255c-43 0 -88 17 -119 50l26 25c28 -31 63 -41 95 -41zM196 438c41 0 86 20 118 55c-3 131 -59 181 -121 181
c-70 0 -112 -52 -112 -117c0 -68 39 -119 115 -119z" />
    <glyph glyph-name="uni207A" unicode="&#x207a;" 
d="M180 312v142h-146v34h146v142h37v-142h145v-34h-145v-142h-37z" />
    <glyph glyph-name="uni207B" unicode="&#x207b;" 
d="M362 454h-328v34h328v-34z" />
    <glyph glyph-name="uni207C" unicode="&#x207c;" 
d="M362 392h-328v34h328v-34zM362 516h-328v34h328v-34z" />
    <glyph glyph-name="uni207D" unicode="&#x207d;" 
d="M144 469c0 108 33 206 93 290l27 -13c-55 -83 -84 -171 -84 -277s29 -194 84 -277l-27 -13c-60 84 -93 182 -93 290z" />
    <glyph glyph-name="uni207E" unicode="&#x207e;" 
d="M253 469c0 -108 -33 -206 -93 -290l-27 13c55 83 84 171 84 277s-29 194 -84 277l27 13c60 -84 93 -182 93 -290z" />
    <glyph glyph-name="zeroinferior" unicode="&#x2080;" 
d="M73 106c0 -126 44 -204 125 -204s125 78 125 204s-44 204 -125 204s-125 -78 -125 -204zM35 106c0 144 58 239 163 239s163 -95 163 -239s-58 -239 -163 -239s-163 95 -163 239z" />
    <glyph glyph-name="fiveinferior" unicode="&#x2085;" 
d="M184 -100c68 0 118 43 118 113c0 71 -49 111 -122 111c-38 0 -71 -7 -102 -21l-5 3v231h241v-34h-203v-154c20 9 46 12 68 12c92 0 161 -56 161 -150c0 -90 -64 -145 -157 -145c-52 0 -105 18 -142 57l26 24c33 -34 79 -47 117 -47z" />
    <glyph glyph-name="sixinferior" unicode="&#x2086;" 
d="M213 311c-77 0 -127 -60 -130 -192c31 31 78 51 120 51c93 0 151 -63 151 -154c0 -90 -65 -150 -149 -150c-91 0 -162 69 -162 224c0 177 68 255 172 255c41 0 80 -14 111 -52l-26 -21c-26 27 -53 39 -87 39zM201 136c-41 0 -87 -20 -119 -55c4 -132 59 -181 122 -181
c70 0 112 52 112 117c0 68 -39 119 -115 119z" />
    <glyph glyph-name="seveninferior" unicode="&#x2087;" 
d="M338 303l-183 -429h-42l184 429h-249v34h290v-34z" />
    <glyph glyph-name="eightinferior" unicode="&#x2088;" 
d="M43 -1c0 57 34 101 82 131c-45 25 -65 58 -65 100c0 67 57 115 138 115c82 0 136 -50 136 -118c0 -46 -21 -87 -64 -119c49 -25 83 -58 83 -115c0 -81 -64 -127 -154 -127c-91 0 -156 52 -156 133zM315 -7c0 70 -79 92 -156 122c-50 -29 -78 -71 -78 -117
c0 -61 52 -98 118 -98s116 32 116 93zM98 231c0 -65 84 -86 137 -107c41 29 61 59 61 104c0 47 -38 82 -99 82c-64 0 -99 -37 -99 -79z" />
    <glyph glyph-name="nineinferior" unicode="&#x2089;" 
d="M189 -100c79 0 121 58 125 192c-32 -31 -78 -51 -120 -51c-93 0 -151 63 -151 154c0 90 65 150 149 150c91 0 162 -69 162 -224c0 -179 -61 -255 -167 -255c-43 0 -88 17 -119 50l26 25c28 -31 63 -41 95 -41zM196 75c41 0 86 20 118 55c-3 131 -59 181 -121 181
c-70 0 -112 -52 -112 -117c0 -68 39 -119 115 -119z" />
    <glyph glyph-name="uni208A" unicode="&#x208a;" 
d="M180 -51v142h-146v34h146v142h37v-142h145v-34h-145v-142h-37z" />
    <glyph glyph-name="uni208B" unicode="&#x208b;" 
d="M362 91h-328v34h328v-34z" />
    <glyph glyph-name="uni208C" unicode="&#x208c;" 
d="M362 29h-328v34h328v-34zM362 153h-328v34h328v-34z" />
    <glyph glyph-name="uni208D" unicode="&#x208d;" 
d="M144 106c0 108 33 206 93 290l27 -13c-55 -83 -84 -171 -84 -277s29 -194 84 -277l-27 -13c-60 84 -93 182 -93 290z" />
    <glyph glyph-name="uni208E" unicode="&#x208e;" 
d="M253 106c0 -108 -33 -206 -93 -290l-27 13c55 83 84 171 84 277s-29 194 -84 277l27 13c60 -84 93 -182 93 -290z" />
    <glyph glyph-name="uni2090" unicode="&#x2090;" 
d="M38 -25c0 67 55 108 127 108c52 0 97 -14 126 -40v54c0 63 -33 96 -101 96c-35 0 -73 -11 -108 -38l-22 24c42 32 87 46 131 46c87 0 136 -44 136 -124v-226h-36v33c-28 -21 -73 -41 -126 -41c-72 0 -127 40 -127 108zM169 -101c50 0 97 21 122 44v64
c-26 30 -73 44 -122 44c-56 0 -95 -31 -95 -76s39 -76 95 -76z" />
    <glyph glyph-name="uni2091" unicode="&#x2091;" 
d="M199 192c-67 0 -114 -49 -118 -129h235c-3 76 -53 129 -117 129zM210 -133c-105 0 -168 75 -168 180c0 109 66 178 157 178c90 0 156 -74 156 -177c0 -3 0 -13 -1 -17h-274c5 -82 54 -131 130 -131c39 0 76 18 98 45l26 -20c-28 -34 -70 -58 -124 -58z" />
    <glyph glyph-name="uni2092" unicode="&#x2092;" 
d="M198 192c-71 0 -125 -59 -125 -146s54 -146 125 -146s125 59 125 146s-54 146 -125 146zM198 -133c-103 0 -164 79 -164 179s61 179 164 179s164 -79 164 -179s-61 -179 -164 -179z" />
    <glyph glyph-name="uni2093" unicode="&#x2093;" 
d="M309 -125l-111 144l-111 -144h-47l135 173l-129 169h44l108 -139l108 139h44l-129 -169l135 -173h-47z" />
    <glyph glyph-name="uni2094" unicode="&#x2094;" 
d="M198 -100c67 0 114 49 118 129h-235c3 -76 53 -129 117 -129zM187 225c105 0 168 -75 168 -180c0 -109 -66 -178 -157 -178c-90 0 -156 74 -156 177c0 3 0 13 1 17h274c-5 82 -54 131 -130 131c-39 0 -76 -18 -98 -45l-26 20c28 34 70 58 124 58z" />
    <glyph glyph-name="uni20A0" unicode="&#x20a0;" horiz-adv-x="753" 
d="M394 0v235c-31 -18 -67 -29 -111 -29c-134 0 -233 103 -233 253s95 253 233 253c87 0 149 -44 182 -95l-34 -21c-33 44 -78 78 -147 78c-115 0 -192 -86 -192 -215s80 -215 192 -215c43 0 82 12 110 35v211h309v-38h-267v-182h250v-38h-250v-194h274v-38h-316z" />
    <glyph glyph-name="uni20A2" unicode="&#x20a2;" horiz-adv-x="675" 
d="M51 350c0 210 123 362 310 362c118 0 211 -51 270 -141l-35 -22c-59 85 -134 125 -234 125c-159 0 -269 -130 -269 -324c0 -166 80 -285 203 -316v394h40v-78c44 54 101 90 175 90c10 0 27 -1 36 -2v-37c-14 2 -28 3 -43 3c-69 0 -130 -45 -168 -99v-278
c8 -1 17 -1 26 -1c100 0 175 40 234 125l35 -22c-59 -90 -152 -141 -270 -141c-187 0 -310 152 -310 362z" />
    <glyph glyph-name="uni20A6" unicode="&#x20a6;" horiz-adv-x="688" 
d="M26 433h61v267h42l182 -267h248v267h42v-267h61v-31h-61v-105h61v-31h-61v-266h-42l-182 266h-248v-266h-42v266h-61v31h61v105h-61v31zM129 402v-105h227l-71 105h-156zM332 402l71 -105h156v105h-227zM129 631v-198h135zM424 266l135 -198v198h-135z" />
    <glyph glyph-name="uni20A8" unicode="&#x20a8;" horiz-adv-x="1015" 
d="M525 504c0 -98 -59 -161 -160 -186l197 -318h-49l-192 312c-22 -2 -45 -3 -70 -3h-123v-309h-42v700h190c157 0 249 -73 249 -196zM483 504c0 99 -73 158 -211 158h-144v-315h144c138 0 211 60 211 157zM778 24c92 0 148 43 148 107c0 65 -50 100 -159 128
c-119 31 -176 69 -176 144c0 77 65 127 172 127c67 0 130 -23 177 -66l-28 -26c-43 39 -98 56 -151 56c-77 0 -128 -32 -128 -90c0 -56 46 -82 154 -110c120 -31 181 -80 181 -162c0 -90 -76 -144 -191 -144c-77 0 -155 29 -211 84l29 27c51 -50 120 -75 183 -75z" />
    <glyph glyph-name="uni20A9" unicode="&#x20a9;" horiz-adv-x="980" 
d="M20 419h100l-94 281h45l93 -281h222l78 281h52l78 -281h222l93 281h45l-94 -281h100v-31h-111l-35 -104h146v-31h-156l-85 -253h-48l-72 253h-219l-71 -253h-48l-85 253h-156v31h146l-35 104h-111v31zM417 388l-29 -104h203l-29 104h-145zM602 388l29 -104h140l35 104
h-204zM174 388l35 -104h139l29 104h-203zM490 645l-64 -226h127zM219 253l66 -199l55 199h-121zM640 253l55 -199l66 199h-121z" />
    <glyph glyph-name="afii57636" unicode="&#x20aa;" horiz-adv-x="832" 
d="M87 0v700h213c150 0 245 -96 245 -285v-153h-42v148c0 177 -76 252 -201 252h-173v-662h-42zM745 700v-700h-213c-150 0 -245 96 -245 285v153h42v-148c0 -177 76 -252 201 -252h173v662h42z" />
    <glyph glyph-name="afii61248" unicode="&#x2105;" horiz-adv-x="996" 
d="M714 696l-393 -708l-31 19l393 708zM36 485c0 -135 84 -226 204 -226c73 0 134 33 173 98l-32 19c-35 -56 -82 -81 -141 -81c-97 0 -164 71 -164 190s67 190 164 190c59 0 106 -25 141 -81l32 19c-39 65 -100 98 -173 98c-120 0 -204 -91 -204 -226zM603 215
c0 -113 65 -189 158 -189s158 76 158 189s-65 189 -158 189s-158 -76 -158 -189zM563 215c0 128 77 225 198 225s198 -97 198 -225s-77 -225 -198 -225s-198 97 -198 225z" />
    <glyph glyph-name="uni2117" unicode="&#x2117;" horiz-adv-x="832" 
d="M556 415c0 65 -43 110 -125 110h-105v-219h105c82 0 125 45 125 109zM593 415c0 -88 -62 -142 -158 -142h-109v-143h-37v427h146c96 0 158 -54 158 -142zM416 712c197 0 359 -162 359 -362s-162 -362 -359 -362s-359 162 -359 362s162 362 359 362zM416 15
c182 0 331 151 331 335s-149 335 -331 335s-331 -151 -331 -335s149 -335 331 -335z" />
    <glyph glyph-name="uni2120" unicode="&#x2120;" horiz-adv-x="675" 
d="M29 426l25 18c21 -23 57 -43 94 -43c51 0 75 26 75 60c0 38 -32 58 -85 75c-66 22 -91 47 -91 90c0 46 38 78 98 78c42 0 79 -17 105 -48l-24 -18c-22 26 -50 37 -79 37c-39 0 -66 -19 -66 -49c0 -27 21 -44 67 -60c71 -25 109 -49 109 -105c0 -54 -42 -87 -107 -87
c-53 0 -94 23 -121 52zM448 439l-112 193v-254h-33v322h30l127 -221l127 221h30v-322h-33v254l-112 -193h-24z" />
    <glyph glyph-name="onefifth" unicode="&#x2155;" horiz-adv-x="960" 
d="M199 654l-88 -67l-24 29l115 85h35v-464h-38v417zM692 696l-393 -708l-31 19l393 708zM747 26c68 0 118 43 118 113c0 71 -49 111 -122 111c-38 0 -71 -7 -102 -21l-5 3v231h241v-34h-203v-154c20 9 46 12 68 12c92 0 161 -56 161 -150c0 -90 -64 -145 -157 -145
c-52 0 -105 18 -142 57l26 24c33 -34 79 -47 117 -47z" />
    <glyph glyph-name="twofifths" unicode="&#x2156;" horiz-adv-x="960" 
d="M187 673c-36 0 -73 -16 -104 -46l-27 23c40 39 85 58 132 58c86 0 135 -49 135 -129c0 -44 -15 -89 -63 -149c-52 -66 -108 -120 -153 -158h220v-35h-274v34c61 51 123 114 176 178c42 53 56 91 56 131c0 61 -36 93 -98 93zM692 696l-393 -708l-31 19l393 708zM747 26
c68 0 118 43 118 113c0 71 -49 111 -122 111c-38 0 -71 -7 -102 -21l-5 3v231h241v-34h-203v-154c20 9 46 12 68 12c92 0 161 -56 161 -150c0 -90 -64 -145 -157 -145c-52 0 -105 18 -142 57l26 24c33 -34 79 -47 117 -47z" />
    <glyph glyph-name="threefifths" unicode="&#x2157;" horiz-adv-x="960" 
d="M198 673c-38 0 -74 -13 -105 -47l-26 22c37 40 82 60 130 60c81 0 130 -49 130 -118c0 -57 -45 -105 -105 -111c67 -9 114 -55 114 -122c0 -71 -50 -128 -144 -128c-55 0 -106 22 -143 68l28 23c29 -36 74 -57 115 -57c72 0 106 47 106 94c0 68 -49 104 -145 104h-30v34
h30c89 0 135 39 135 93c0 50 -28 85 -90 85zM692 696l-393 -708l-31 19l393 708zM747 26c68 0 118 43 118 113c0 71 -49 111 -122 111c-38 0 -71 -7 -102 -21l-5 3v231h241v-34h-203v-154c20 9 46 12 68 12c92 0 161 -56 161 -150c0 -90 -64 -145 -157 -145
c-52 0 -105 18 -142 57l26 24c33 -34 79 -47 117 -47z" />
    <glyph glyph-name="fourfifths" unicode="&#x2158;" horiz-adv-x="960" 
d="M266 343h-232v30l235 327h35v-323h56v-34h-56v-106h-38v106zM266 637l-186 -260h186v260zM692 696l-393 -708l-31 19l393 708zM747 26c68 0 118 43 118 113c0 71 -49 111 -122 111c-38 0 -71 -7 -102 -21l-5 3v231h241v-34h-203v-154c20 9 46 12 68 12
c92 0 161 -56 161 -150c0 -90 -64 -145 -157 -145c-52 0 -105 18 -142 57l26 24c33 -34 79 -47 117 -47z" />
    <glyph glyph-name="onesixth" unicode="&#x2159;" horiz-adv-x="960" 
d="M199 654l-88 -67l-24 29l115 85h35v-464h-38v417zM692 696l-393 -708l-31 19l393 708zM776 437c-77 0 -127 -60 -130 -192c31 31 78 51 120 51c93 0 151 -63 151 -154c0 -90 -65 -150 -149 -150c-91 0 -162 69 -162 224c0 177 68 255 172 255c41 0 80 -14 111 -52
l-26 -21c-26 27 -53 39 -87 39zM764 262c-41 0 -87 -20 -119 -55c4 -132 59 -181 122 -181c70 0 112 52 112 117c0 68 -39 119 -115 119z" />
    <glyph glyph-name="fivesixths" unicode="&#x215a;" horiz-adv-x="960" 
d="M184 263c68 0 118 43 118 113c0 71 -49 111 -122 111c-38 0 -71 -7 -102 -21l-5 3v231h241v-34h-203v-154c20 9 46 12 68 12c92 0 161 -56 161 -150c0 -90 -64 -145 -157 -145c-52 0 -105 18 -142 57l26 24c33 -34 79 -47 117 -47zM776 437c-77 0 -127 -60 -130 -192
c31 31 78 51 120 51c93 0 151 -63 151 -154c0 -90 -65 -150 -149 -150c-91 0 -162 69 -162 224c0 177 68 255 172 255c41 0 80 -14 111 -52l-26 -21c-26 27 -53 39 -87 39zM764 262c-41 0 -87 -20 -119 -55c4 -132 59 -181 122 -181c70 0 112 52 112 117
c0 68 -39 119 -115 119zM692 696l-393 -708l-31 19l393 708z" />
    <glyph glyph-name="uni215F" unicode="&#x215f;" horiz-adv-x="960" 
d="M199 654l-88 -67l-24 29l115 85h35v-464h-38v417zM692 696l-393 -708l-31 19l393 708z" />
    <glyph glyph-name="uni2219" unicode="&#x2219;" horiz-adv-x="286" 
d="M105 311c0 21 17 38 38 38s38 -17 38 -38s-17 -38 -38 -38s-38 17 -38 38z" />
    <glyph glyph-name="uni2318" unicode="&#x2318;" horiz-adv-x="886" 
d="M334 255v135h-74c-90 0 -154 44 -154 130c0 77 53 132 135 132c87 0 133 -62 133 -152v-74h138v74c0 90 46 152 133 152c82 0 135 -55 135 -132c0 -86 -64 -130 -154 -130h-74v-135h74c90 0 154 -44 154 -130c0 -77 -53 -132 -135 -132c-87 0 -133 62 -133 152v74h-138
v-74c0 -90 -46 -152 -133 -152c-82 0 -135 55 -135 132c0 86 64 130 154 130h74zM551 499v-74h73c72 0 116 31 116 95c0 58 -37 96 -95 96c-63 0 -94 -45 -94 -117zM551 220v-74c0 -72 31 -117 94 -117c58 0 95 38 95 96c0 64 -44 95 -116 95h-73zM335 425v74
c0 72 -31 117 -94 117c-58 0 -95 -38 -95 -96c0 -64 44 -95 116 -95h73zM335 146v74h-73c-72 0 -116 -31 -116 -95c0 -58 37 -96 95 -96c63 0 94 45 94 117zM374 390v-135h138v135h-138z" />
    <glyph glyph-name="uogonek" unicode="&#x173;" horiz-adv-x="566" 
d="M283 24c104 0 169 66 169 192v302h41v-305c0 -131 -63 -205 -164 -221c-42 -34 -62 -69 -62 -108c0 -41 27 -69 66 -69c26 0 49 12 66 29l21 -25c-23 -23 -51 -38 -91 -38c-62 0 -100 46 -100 98c0 39 18 78 56 109h-2c-127 0 -210 75 -210 225v305h41v-302
c0 -126 65 -192 169 -192z" />
    <glyph glyph-name="uring" unicode="&#x16f;" horiz-adv-x="566" 
d="M283 24c104 0 169 66 169 192v302h41v-305c0 -150 -83 -225 -210 -225s-210 75 -210 225v305h41v-302c0 -126 65 -192 169 -192zM375 669c0 -51 -41 -90 -92 -90s-92 39 -92 90s41 90 92 90s92 -39 92 -90zM225 669c0 -33 26 -58 58 -58s58 25 58 58s-26 58 -58 58
s-58 -25 -58 -58z" />
    <glyph glyph-name="utilde" unicode="&#x169;" horiz-adv-x="566" 
d="M283 24c-104 0 -169 66 -169 192v302h-41v-305c0 -150 83 -225 210 -225s210 75 210 225v305h-41v-302c0 -126 -65 -192 -169 -192zM274 654c-19 18 -35 30 -60 30c-28 0 -45 -25 -54 -56l-34 7c15 55 49 83 88 83c31 0 54 -13 78 -34c19 -18 35 -30 60 -30
c28 0 45 25 54 56l34 -7c-15 -55 -49 -83 -88 -83c-31 0 -54 13 -78 34z" />
    <glyph glyph-name="wcircumflex" unicode="&#x175;" horiz-adv-x="770" 
d="M363 518h44l144 -466l153 466h45l-176 -518h-43l-145 456l-145 -456h-43l-176 518h45l153 -466zM370 750h30l140 -153l-24 -21l-131 139l-131 -139l-24 21z" />
    <glyph glyph-name="yacute" unicode="&#xfd;" horiz-adv-x="483" 
d="M184 -212h-42l83 219l-203 511h43l180 -459l173 459h43zM344 751l32 -26l-147 -140l-26 22z" />
    <glyph glyph-name="ycircumflex" unicode="&#x177;" horiz-adv-x="483" 
d="M184 -212h-42l83 219l-203 511h43l180 -459l173 459h43zM232 750h30l140 -153l-24 -21l-131 139l-131 -139l-24 21z" />
    <glyph glyph-name="ydieresis" unicode="&#xff;" horiz-adv-x="483" 
d="M184 -212h-42l83 219l-203 511h43l180 -459l173 459h43zM121 669c0 19 15 34 34 34s34 -15 34 -34s-15 -34 -34 -34s-34 15 -34 34zM305 669c0 19 15 34 34 34s34 -15 34 -34s-15 -34 -34 -34s-34 15 -34 34z" />
    <glyph glyph-name="yen" unicode="&#xa5;" horiz-adv-x="576" 
d="M56 309h193l-227 391h48l218 -377l218 377h48l-227 -391h193v-31h-211v-72h211v-31h-211v-175h-42v175h-211v31h211v72h-211v31z" />
    <glyph glyph-name="zacute" unicode="&#x17a;" horiz-adv-x="464" 
d="M32 0v34l339 448h-323v36h374v-34l-339 -448h349v-36h-400zM317 751l32 -26l-147 -140l-26 22z" />
    <glyph glyph-name="zcaron" unicode="&#x17e;" horiz-adv-x="464" 
d="M32 0v34l339 448h-323v36h374v-34l-339 -448h349v-36h-400zM249 588h-30l-140 153l24 21l131 -139l131 139l24 -21z" />
    <glyph glyph-name="zdotaccent" unicode="&#x17c;" horiz-adv-x="464" 
d="M32 0v34l339 448h-323v36h374v-34l-339 -448h349v-36h-400zM195 669c0 18 16 34 34 34s34 -16 34 -34s-16 -34 -34 -34s-34 16 -34 34z" />
    <glyph glyph-name="space" unicode=" " horiz-adv-x="300" 
 />
    <glyph glyph-name="ampersand" unicode="&#x26;" horiz-adv-x="627" 
d="M529 0l-66 80c-55 -54 -124 -92 -208 -92c-122 0 -199 73 -199 173c0 98 63 151 163 215l-9 12c-59 71 -86 116 -86 175c0 89 62 149 153 149c84 0 148 -59 148 -152c0 -68 -41 -124 -133 -184l-13 -8l186 -226c36 44 65 96 85 144l35 -17c-22 -53 -53 -110 -94 -158
l91 -111h-53zM259 26c68 0 129 35 178 85l-193 235c-103 -61 -146 -116 -146 -185c0 -75 60 -135 161 -135zM166 564c0 -53 30 -94 78 -153l10 -13l14 9c82 52 115 93 115 155c0 64 -47 112 -107 112c-72 0 -110 -54 -110 -110z" />
    <glyph glyph-name=".null" horiz-adv-x="0" 
 />
    <glyph glyph-name=".null" horiz-adv-x="0" 
 />
    <glyph glyph-name=".null" horiz-adv-x="0" 
 />
    <glyph glyph-name="CR" unicode="&#x9;" horiz-adv-x="237" 
 />
    <glyph glyph-name="CR" unicode="&#xd;" horiz-adv-x="237" 
 />
    <glyph glyph-name="Scommaaccent" unicode="&#x218;" horiz-adv-x="578" 
d="M299 26c119 0 186 66 186 149c0 93 -64 136 -208 180c-142 43 -206 100 -206 192c0 99 77 165 200 165c93 0 171 -35 233 -102l-32 -26c-53 58 -123 90 -200 90c-103 0 -159 -51 -159 -127c0 -74 62 -119 180 -155c158 -48 234 -101 234 -216c0 -108 -83 -188 -226 -188
c-100 0 -192 38 -259 104l32 26c64 -62 147 -92 225 -92zM222 -242l61 188l37 -12l-67 -186z" />
    <glyph glyph-name="scommaaccent" unicode="&#x219;" horiz-adv-x="482" 
d="M245 24c92 0 148 43 148 107c0 65 -50 100 -159 128c-119 31 -176 69 -176 144c0 77 65 127 172 127c67 0 130 -23 177 -66l-28 -26c-43 39 -98 56 -151 56c-77 0 -128 -32 -128 -90c0 -56 46 -82 154 -110c120 -31 181 -80 181 -162c0 -90 -76 -144 -191 -144
c-77 0 -155 29 -211 84l29 27c51 -50 120 -75 183 -75zM184 -242l61 188l37 -12l-67 -186z" />
    <glyph glyph-name="uni021A" unicode="&#x21a;" horiz-adv-x="536" 
d="M247 0v662h-230v38h502v-38h-230v-662h-42zM186 -242l61 188l37 -12l-67 -186z" />
    <glyph glyph-name="uni021B" unicode="&#x21b;" horiz-adv-x="350" 
d="M277 -12c-89 0 -148 37 -148 146v348h-111v36h111v155h42v-155h151v-36h-151v-345c0 -84 38 -113 105 -113c14 0 31 1 43 2v-36c-11 -1 -29 -2 -42 -2zM147 -242l61 188l37 -12l-67 -186z" />
    <glyph glyph-name="dotlessj" unicode="&#x237;" horiz-adv-x="204" 
d="M-18 -224c-10 0 -25 1 -34 2v36c10 -1 26 -2 37 -2c60 0 97 21 97 110v596h40v-599c0 -111 -52 -143 -140 -143z" />
    <glyph glyph-name="apostrophe" unicode="&#x2bc;" horiz-adv-x="400" 
d="M141 513l78 232l39 -12l-85 -229z" />
    <glyph glyph-name="Wgrave" unicode="&#x1e80;" horiz-adv-x="980" 
d="M309 0h-48l-235 700h45l214 -646l179 646h52l179 -646l214 646h45l-235 -700h-48l-181 645zM343 899l32 26l141 -144l-26 -22z" />
    <glyph glyph-name="wgrave" unicode="&#x1e81;" horiz-adv-x="770" 
d="M363 518h44l144 -466l153 466h45l-176 -518h-43l-145 456l-145 -456h-43l-176 518h45l153 -466zM238 725l32 26l141 -144l-26 -22z" />
    <glyph glyph-name="Wacute" unicode="&#x1e82;" horiz-adv-x="980" 
d="M309 0h-48l-235 700h45l214 -646l179 646h52l179 -646l214 646h45l-235 -700h-48l-181 645zM605 925l32 -26l-147 -140l-26 22z" />
    <glyph glyph-name="wacute" unicode="&#x1e83;" horiz-adv-x="770" 
d="M363 518h44l144 -466l153 466h45l-176 -518h-43l-145 456l-145 -456h-43l-176 518h45l153 -466zM500 751l32 -26l-147 -140l-26 22z" />
    <glyph glyph-name="Wdieresis" unicode="&#x1e84;" horiz-adv-x="980" 
d="M309 0h-48l-235 700h45l214 -646l179 646h52l179 -646l214 646h45l-235 -700h-48l-181 645zM364 843c0 19 15 34 34 34s34 -15 34 -34s-15 -34 -34 -34s-34 15 -34 34zM548 843c0 19 15 34 34 34s34 -15 34 -34s-15 -34 -34 -34s-34 15 -34 34z" />
    <glyph glyph-name="wdieresis" unicode="&#x1e85;" horiz-adv-x="770" 
d="M363 518h44l144 -466l153 466h45l-176 -518h-43l-145 456l-145 -456h-43l-176 518h45l153 -466zM259 669c0 19 15 34 34 34s34 -15 34 -34s-15 -34 -34 -34s-34 15 -34 34zM443 669c0 19 15 34 34 34s34 -15 34 -34s-15 -34 -34 -34s-34 15 -34 34z" />
    <glyph glyph-name="Ygrave" unicode="&#x1ef2;" horiz-adv-x="576" 
d="M554 700l-245 -422v-278h-42v278l-245 422h48l218 -377l218 377h48zM161 899l32 26l141 -144l-26 -22z" />
    <glyph glyph-name="ygrave" unicode="&#x1ef3;" horiz-adv-x="483" 
d="M184 -212h-42l83 219l-203 511h43l180 -459l173 459h43zM121 725l32 26l141 -144l-26 -22z" />
    <glyph glyph-name="uni2215" unicode="&#x2215;" horiz-adv-x="184" 
d="M304 696l-393 -708l-31 19l393 708z" />
    <glyph glyph-name="fi" horiz-adv-x="545" 
d="M423 0v482h-254v-482h-40v482h-111v36h111v66c0 110 56 146 147 146c19 0 39 -1 56 -3v-36c-19 2 -38 3 -57 3c-64 0 -106 -23 -106 -113v-63h295v-518h-41zM407 682c0 20 16 36 36 36s36 -16 36 -36s-16 -36 -36 -36s-36 16 -36 36z" />
    <glyph glyph-name="fl" horiz-adv-x="530" 
d="M408 0v679c-44 9 -88 15 -133 15c-63 0 -106 -26 -106 -116v-60h153v-36h-153v-482h-40v482h-111v36h111v63c0 110 57 149 148 149c42 0 91 -8 131 -17v17h40v-730h-40z" />
    <glyph glyph-name="commaaccent" horiz-adv-x="391" 
d="M147 -242l61 188l37 -12l-67 -186z" />
    <glyph glyph-name="exclam" unicode="!" horiz-adv-x="242" 
d="M136 169h-30l-7 316v215h44v-215zM83 26c0 21 17 38 38 38s38 -17 38 -38s-17 -38 -38 -38s-38 17 -38 38z" />
    <glyph glyph-name="quotedbl" unicode="&#x22;" horiz-adv-x="409" 
d="M105 428l-4 272h47v-56l-9 -216h-34zM265 428l-4 272h47v-56l-9 -216h-34z" />
    <glyph glyph-name="uni2010" unicode="&#x2010;" horiz-adv-x="406" 
d="M339 312h-272v40h272v-40z" />
    <glyph glyph-name="figuredash" unicode="&#x2012;" horiz-adv-x="567" 
d="M527 313h-487v38h487v-38z" />
    <glyph glyph-name="numbersign" unicode="#" horiz-adv-x="679" 
d="M519 508h121v-38h-128l-41 -238h126v-38h-132l-34 -194h-42l34 194h-225l-34 -194h-42l34 194h-115v38h121l41 238h-120v38h127l34 192h42l-34 -192h225l34 192h42zM204 232h225l41 238h-225z" />
    <glyph glyph-name="dollar" unicode="$" horiz-adv-x="578" 
d="M275 -98v87c-90 6 -172 43 -233 103l33 28c58 -60 129 -88 200 -93v328c-142 41 -204 101 -204 187c0 99 77 170 200 170h4v88h34v-90c76 -9 141 -43 195 -100l-32 -26c-45 47 -101 78 -163 87v-284c147 -47 218 -100 218 -211c0 -106 -81 -185 -218 -188v-86h-34z
M485 175c0 85 -56 132 -176 170v-319c113 3 176 68 176 149zM113 542c0 -66 55 -110 162 -145v277h-3c-103 0 -159 -56 -159 -132z" />
    <glyph glyph-name="percent" unicode="%" horiz-adv-x="868" 
d="M128 528c0 -85 40 -141 106 -141s106 56 106 141s-40 141 -106 141s-106 -56 -106 -141zM86 528c0 103 57 179 148 179s148 -76 148 -179s-57 -179 -148 -179s-148 76 -148 179zM165 10l506 702l32 -22l-506 -702zM740 172c0 85 -40 141 -106 141s-106 -56 -106 -141
s40 -141 106 -141s106 56 106 141zM782 172c0 -103 -57 -179 -148 -179s-148 76 -148 179s57 179 148 179s148 -76 148 -179z" />
    <glyph glyph-name="zero.tnum" horiz-adv-x="590" 
d="M97 350c0 -196 73 -324 198 -324s198 128 198 324s-73 324 -198 324s-198 -128 -198 -324zM55 350c0 215 88 362 240 362s240 -147 240 -362s-88 -362 -240 -362s-240 147 -240 362z" />
    <glyph glyph-name="one.tnum" horiz-adv-x="391" 
d="M215 650l-171 -116l-27 29l202 137h38v-700h-42v650z" />
    <glyph glyph-name="two.tnum" horiz-adv-x="530" 
d="M258 712c122 0 205 -73 205 -183c0 -83 -44 -167 -125 -262c-76 -89 -158 -165 -231 -229h364v-38h-426v35c86 76 178 163 254 251c80 93 122 172 122 244c0 81 -64 144 -163 144c-72 0 -143 -34 -199 -95l-31 25c65 71 145 108 230 108z" />
    <glyph glyph-name="three.tnum" horiz-adv-x="545" 
d="M263 674c-70 0 -136 -32 -189 -91l-32 27c66 70 138 102 222 102c131 0 203 -71 203 -168s-67 -162 -149 -177c103 -19 164 -85 164 -188c0 -109 -77 -192 -222 -192c-97 0 -180 39 -240 109l32 26c57 -65 129 -97 206 -97c119 0 182 69 182 155c0 104 -77 168 -208 168
h-70v38h71c109 0 192 57 192 155c0 69 -50 133 -162 133z" />
    <glyph glyph-name="four.tnum" horiz-adv-x="554" 
d="M387 168h-362v37l364 495h40v-494h95v-38h-95v-168h-42v168zM387 629l-312 -423h312v423z" />
    <glyph glyph-name="five.tnum" horiz-adv-x="559" 
d="M272 26c121 0 185 82 185 172c0 111 -79 180 -195 180c-50 0 -111 -11 -158 -27l-7 4v345h367v-38h-325v-266c38 12 91 20 128 20c135 0 232 -82 232 -218c0 -113 -78 -210 -226 -210c-92 0 -169 38 -221 102l31 26c51 -62 119 -90 189 -90z" />
    <glyph glyph-name="six.tnum" horiz-adv-x="557" 
d="M301 674c-110 0 -198 -83 -204 -318c50 52 123 85 203 85c134 0 217 -93 217 -228c0 -137 -98 -225 -223 -225c-136 0 -239 102 -239 337c0 273 98 387 246 387c79 0 137 -31 186 -89l-33 -24c-43 53 -91 75 -153 75zM294 26c106 0 181 78 181 188
c0 112 -65 189 -181 189c-70 0 -146 -36 -197 -97c7 -214 103 -280 197 -280z" />
    <glyph glyph-name="seven.tnum" horiz-adv-x="499" 
d="M464 662l-291 -662h-48l292 662h-397v38h444v-38z" />
    <glyph glyph-name="eight.tnum" horiz-adv-x="576" 
d="M54 180c0 95 56 169 138 209c-75 42 -107 91 -107 154c0 92 82 169 203 169c129 0 204 -76 204 -171c0 -84 -47 -141 -121 -184c109 -49 151 -101 151 -186c0 -113 -101 -183 -234 -183s-234 72 -234 192zM280 351c-18 6 -35 12 -50 19c-89 -42 -134 -112 -134 -190
c0 -91 82 -154 192 -154c111 0 192 60 192 145c0 86 -59 129 -200 180zM127 545c0 -75 55 -116 172 -158c11 -4 23 -9 33 -13c75 42 118 95 118 168c0 72 -58 132 -162 132c-96 0 -161 -60 -161 -129z" />
    <glyph glyph-name="nine.tnum" horiz-adv-x="552" 
d="M455 344c-50 -52 -123 -85 -203 -85c-134 0 -217 93 -217 228c0 137 98 225 223 225c136 0 239 -102 239 -337c0 -273 -95 -387 -252 -387c-68 0 -132 25 -181 71l29 29c42 -41 101 -62 154 -62c113 0 202 82 208 318zM258 674c-106 0 -181 -78 -181 -188
c0 -112 65 -189 181 -189c70 0 146 36 197 97c-7 214 -103 280 -197 280z" />
    <glyph glyph-name="thinspace" unicode="&#x2009;" horiz-adv-x="200" 
 />
    <glyph glyph-name="parenleft.case" horiz-adv-x="332" 
d="M125 350c0 167 48 315 141 440l31 -16c-85 -123 -130 -265 -130 -424s45 -301 130 -424l-31 -16c-93 125 -141 273 -141 440z" />
    <glyph glyph-name="parenright.case" horiz-adv-x="332" 
d="M207 350c0 -167 -48 -315 -141 -440l-31 16c86 123 130 265 130 424s-44 301 -130 424l31 16c93 -125 141 -273 141 -440z" />
    <glyph glyph-name="hyphen.case" horiz-adv-x="406" 
d="M339 330h-272v40h272v-40z" />
    <glyph glyph-name="at.case" horiz-adv-x="957" 
d="M737 132c-53 0 -89 26 -105 70c-35 -43 -94 -79 -164 -79c-124 0 -188 81 -188 223c0 141 64 223 188 223c68 0 121 -32 156 -70v58h40v-304c0 -58 26 -87 76 -87c78 0 104 88 104 209c0 208 -138 380 -367 380c-221 0 -362 -178 -362 -404c0 -216 140 -408 371 -408
c90 0 169 33 235 80l16 -29c-75 -54 -157 -83 -251 -83c-257 0 -406 206 -406 440c0 237 146 436 397 436c254 0 402 -195 402 -412c0 -126 -30 -243 -142 -243zM624 240v212c-34 42 -88 81 -149 81c-109 0 -155 -64 -155 -187c0 -124 46 -187 155 -187c61 0 115 39 149 81z
" />
    <glyph glyph-name="bracketleft.case" horiz-adv-x="391" 
d="M127 -90v880h237v-35h-196v-810h196v-35h-237z" />
    <glyph glyph-name="bracketright.case" horiz-adv-x="391" 
d="M264 790v-880h-237v35h196v810h-196v35h237z" />
    <glyph glyph-name="braceleft.case" horiz-adv-x="365" 
d="M179 9v222c0 59 -39 101 -92 101v36c53 0 92 42 92 101v222c0 69 31 99 96 99h70v-36h-70c-40 0 -54 -18 -54 -60v-231c0 -55 -27 -99 -81 -113c54 -14 81 -58 81 -113v-231c0 -42 14 -60 54 -60h70v-36h-70c-65 0 -96 30 -96 99z" />
    <glyph glyph-name="braceright.case" horiz-adv-x="365" 
d="M186 231v-222c0 -69 -31 -99 -96 -99h-70v36h70c40 0 54 18 54 60v231c0 55 27 99 81 113c-54 14 -81 58 -81 113v231c0 42 -14 60 -54 60h-70v36h70c65 0 96 -30 96 -99v-222c0 -59 39 -101 92 -101v-36c-53 0 -92 -42 -92 -101z" />
    <glyph glyph-name="exclamdown.case" horiz-adv-x="242" 
d="M106 531h30l7 -316v-215h-44v215zM159 674c0 -21 -17 -38 -38 -38s-38 17 -38 38s17 38 38 38s38 -17 38 -38z" />
    <glyph glyph-name="guillemotleft.case" horiz-adv-x="519" 
d="M50 341v18l212 159l21 -28l-187 -140l187 -140l-21 -28zM236 341v18l212 159l21 -28l-186 -140l186 -140l-21 -28z" />
    <glyph glyph-name="periodcentered.case" horiz-adv-x="286" 
d="M105 325c0 21 17 38 38 38s38 -17 38 -38s-17 -38 -38 -38s-38 17 -38 38z" />
    <glyph glyph-name="guillemotright.case" horiz-adv-x="519" 
d="M469 359v-18l-211 -159l-22 28l187 140l-187 140l22 28zM283 359v-18l-212 -159l-21 28l187 140l-187 140l21 28z" />
    <glyph glyph-name="questiondown.case" horiz-adv-x="506" 
d="M261 26c68 0 124 36 167 87l30 -25c-53 -63 -121 -100 -200 -100c-120 0 -188 68 -188 162c0 72 34 131 121 191c66 46 80 87 80 159v31h42v-34c0 -86 -23 -138 -92 -185c-83 -57 -107 -103 -107 -163c0 -74 54 -123 147 -123zM330 674c0 -21 -17 -38 -38 -38
s-39 17 -39 38s18 38 39 38s38 -17 38 -38z" />
    <glyph glyph-name="endash.case" horiz-adv-x="500" 
d="M500 331h-500v38h500v-38z" />
    <glyph glyph-name="emdash.case" horiz-adv-x="1000" 
d="M1000 331h-1000v38h1000v-38z" />
    <glyph glyph-name="bullet.case" horiz-adv-x="414" 
d="M98 350c0 61 48 109 109 109s109 -48 109 -109s-48 -109 -109 -109s-109 48 -109 109z" />
    <glyph glyph-name="guilsinglleft.case" horiz-adv-x="333" 
d="M50 341v18l212 159l21 -28l-187 -140l187 -140l-21 -28z" />
    <glyph glyph-name="guilsinglright.case" horiz-adv-x="333" 
d="M283 359v-18l-212 -159l-21 28l187 140l-187 140l21 28z" />
    <glyph glyph-name="zero.numerator" 
d="M73 469c0 -126 44 -204 125 -204s125 78 125 204s-44 204 -125 204s-125 -78 -125 -204zM35 469c0 144 58 239 163 239s163 -95 163 -239s-58 -239 -163 -239s-163 95 -163 239z" />
    <glyph glyph-name="one.numerator" 
d="M199 654l-88 -67l-24 29l115 85h35v-464h-38v417z" />
    <glyph glyph-name="two.numerator" 
d="M192 673c-36 0 -73 -16 -104 -46l-27 23c40 39 85 58 132 58c86 0 135 -49 135 -129c0 -44 -15 -89 -63 -149c-52 -66 -108 -120 -153 -158h220v-35h-274v34c61 51 123 114 176 178c42 53 56 91 56 131c0 61 -36 93 -98 93z" />
    <glyph glyph-name="three.numerator" 
d="M198 673c-38 0 -74 -13 -105 -47l-26 22c37 40 82 60 130 60c81 0 130 -49 130 -118c0 -57 -45 -105 -105 -111c67 -9 114 -55 114 -122c0 -71 -50 -128 -144 -128c-55 0 -106 22 -143 68l28 23c29 -36 74 -57 115 -57c72 0 106 47 106 94c0 68 -49 104 -145 104h-30v34
h30c89 0 135 39 135 93c0 50 -28 85 -90 85z" />
    <glyph glyph-name="four.numerator" 
d="M266 343h-232v30l235 327h35v-323h56v-34h-56v-106h-38v106zM266 637l-186 -260h186v260z" />
    <glyph glyph-name="five.numerator" 
d="M184 263c68 0 118 43 118 113c0 71 -49 111 -122 111c-38 0 -71 -7 -102 -21l-5 3v231h241v-34h-203v-154c20 9 46 12 68 12c92 0 161 -56 161 -150c0 -90 -64 -145 -157 -145c-52 0 -105 18 -142 57l26 24c33 -34 79 -47 117 -47z" />
    <glyph glyph-name="six.numerator" 
d="M213 674c-77 0 -127 -60 -130 -192c31 31 78 51 120 51c93 0 151 -63 151 -154c0 -90 -65 -150 -149 -150c-91 0 -162 69 -162 224c0 177 68 255 172 255c41 0 80 -14 111 -52l-26 -21c-26 27 -53 39 -87 39zM201 499c-41 0 -87 -20 -119 -55c4 -132 59 -181 122 -181
c70 0 112 52 112 117c0 68 -39 119 -115 119z" />
    <glyph glyph-name="seven.numerator" 
d="M338 666l-183 -429h-42l184 429h-249v34h290v-34z" />
    <glyph glyph-name="eight.numerator" 
d="M43 362c0 57 34 101 82 131c-45 25 -65 58 -65 100c0 67 57 115 138 115c82 0 136 -50 136 -118c0 -46 -21 -87 -64 -119c49 -25 83 -58 83 -115c0 -81 -64 -127 -154 -127c-91 0 -156 52 -156 133zM315 356c0 70 -79 92 -156 122c-50 -29 -78 -71 -78 -117
c0 -61 52 -98 118 -98s116 32 116 93zM98 594c0 -65 84 -86 137 -107c41 29 61 59 61 104c0 47 -38 82 -99 82c-64 0 -99 -37 -99 -79z" />
    <glyph glyph-name="nine.numerator" 
d="M189 263c79 0 121 58 125 192c-32 -31 -78 -51 -120 -51c-93 0 -151 63 -151 154c0 90 65 150 149 150c91 0 162 -69 162 -224c0 -179 -61 -255 -167 -255c-43 0 -88 17 -119 50l26 25c28 -31 63 -41 95 -41zM196 438c41 0 86 20 118 55c-3 131 -59 181 -121 181
c-70 0 -112 -52 -112 -117c0 -68 39 -119 115 -119z" />
    <glyph glyph-name="zero.denominator" 
d="M73 232c0 -126 44 -204 125 -204s125 78 125 204s-44 204 -125 204s-125 -78 -125 -204zM35 232c0 144 58 239 163 239s163 -95 163 -239s-58 -239 -163 -239s-163 95 -163 239z" />
    <glyph glyph-name="one.denominator" 
d="M199 417l-88 -67l-24 29l115 85h35v-464h-38v417z" />
    <glyph glyph-name="two.denominator" 
d="M192 436c-36 0 -73 -16 -104 -46l-27 23c40 39 85 58 132 58c86 0 135 -49 135 -129c0 -44 -15 -89 -63 -149c-52 -66 -108 -120 -153 -158h220v-35h-274v34c61 51 123 114 176 178c42 53 56 91 56 131c0 61 -36 93 -98 93z" />
    <glyph glyph-name="three.denominator" 
d="M198 436c-38 0 -74 -13 -105 -47l-26 22c37 40 82 60 130 60c81 0 130 -49 130 -118c0 -57 -45 -105 -105 -111c67 -9 114 -55 114 -122c0 -71 -50 -128 -144 -128c-55 0 -106 22 -143 68l28 23c29 -36 74 -57 115 -57c72 0 106 47 106 94c0 68 -49 104 -145 104h-30v34
h30c89 0 135 39 135 93c0 50 -28 85 -90 85z" />
    <glyph glyph-name="four.denominator" 
d="M266 106h-232v30l235 327h35v-323h56v-34h-56v-106h-38v106zM266 400l-186 -260h186v260z" />
    <glyph glyph-name="five.denominator" 
d="M184 26c68 0 118 43 118 113c0 71 -49 111 -122 111c-38 0 -71 -7 -102 -21l-5 3v231h241v-34h-203v-154c20 9 46 12 68 12c92 0 161 -56 161 -150c0 -90 -64 -145 -157 -145c-52 0 -105 18 -142 57l26 24c33 -34 79 -47 117 -47z" />
    <glyph glyph-name="six.denominator" 
d="M213 437c-77 0 -127 -60 -130 -192c31 31 78 51 120 51c93 0 151 -63 151 -154c0 -90 -65 -150 -149 -150c-91 0 -162 69 -162 224c0 177 68 255 172 255c41 0 80 -14 111 -52l-26 -21c-26 27 -53 39 -87 39zM201 262c-41 0 -87 -20 -119 -55c4 -132 59 -181 122 -181
c70 0 112 52 112 117c0 68 -39 119 -115 119z" />
    <glyph glyph-name="seven.denominator" 
d="M338 429l-183 -429h-42l184 429h-249v34h290v-34z" />
    <glyph glyph-name="eight.denominator" 
d="M43 125c0 57 34 101 82 131c-45 25 -65 58 -65 100c0 67 57 115 138 115c82 0 136 -50 136 -118c0 -46 -21 -87 -64 -119c49 -25 83 -58 83 -115c0 -81 -64 -127 -154 -127c-91 0 -156 52 -156 133zM315 119c0 70 -79 92 -156 122c-50 -29 -78 -71 -78 -117
c0 -61 52 -98 118 -98s116 32 116 93zM98 357c0 -65 84 -86 137 -107c41 29 61 59 61 104c0 47 -38 82 -99 82c-64 0 -99 -37 -99 -79z" />
    <glyph glyph-name="nine.denominator" 
d="M189 26c79 0 121 58 125 192c-32 -31 -78 -51 -120 -51c-93 0 -151 63 -151 154c0 90 65 150 149 150c91 0 162 -69 162 -224c0 -179 -61 -255 -167 -255c-43 0 -88 17 -119 50l26 25c28 -31 63 -41 95 -41zM196 201c41 0 86 20 118 55c-3 131 -59 181 -121 181
c-70 0 -112 -52 -112 -117c0 -68 39 -119 115 -119z" />
    <glyph glyph-name="uni03A9" unicode="&#x3a9;" horiz-adv-x="702" 
d="M351 674c-164 0 -257 -135 -257 -304c0 -149 79 -259 195 -334v-36h-225v38h166c-99 67 -178 181 -178 332c0 191 107 342 299 342s299 -151 299 -342c0 -151 -79 -265 -178 -332h166v-38h-225v36c116 75 195 185 195 334c0 169 -93 304 -257 304z" />
    <glyph glyph-name="H18533" unicode="&#x25cf;" horiz-adv-x="1000" 
d="M162 326c0 186 152 338 338 338s338 -152 338 -338s-152 -338 -338 -338s-338 152 -338 338z" />
    <glyph glyph-name="V" unicode="V" horiz-adv-x="656" 
d="M328 47l257 653h46l-280 -700h-46l-280 700h46z" />
    <glyph glyph-name="IJ" unicode="&#x132;" horiz-adv-x="766" 
d="M92 700h42v-700h-42v700zM475 26c95 0 162 71 162 197v477h42v-477c0 -159 -88 -235 -202 -235c-90 0 -166 39 -218 131l35 21c42 -75 103 -114 181 -114z" />
    <glyph glyph-name="ij" unicode="&#x133;" horiz-adv-x="408" 
d="M82 0v518h40v-518h-40zM66 682c0 20 16 36 36 36s36 -16 36 -36s-16 -36 -36 -36s-36 16 -36 36zM270 682c0 20 16 36 36 36s36 -16 36 -36s-16 -36 -36 -36s-36 16 -36 36zM186 -224c-10 0 -25 1 -34 2v36c10 -1 26 -2 37 -2c60 0 97 21 97 110v596h40v-599
c0 -111 -52 -143 -140 -143z" />
    </font>
</defs>
</svg>
