<?xml version="1.0" standalone="no"?>
<!DOCTYPE svg PUBLIC "-//W3C//DTD SVG 1.1//EN" "http://www.w3.org/Graphics/SVG/1.1/DTD/svg11.dtd" >
<svg xmlns="http://www.w3.org/2000/svg" xmlns:xlink="http://www.w3.org/1999/xlink" version="1.1">
<metadata>
Created by FontForge 20160407 at Mon Jul 25 16:40:18 2016
 By Jimmy Warting
Copyright (c) 2014 by S-Core Co., Ltd.. All rights reserved.
</metadata>
<defs>
<font id="CoreSansA15Thin" horiz-adv-x="390" >
  <font-face 
    font-family="Core Sans A 15 Thin"
    font-weight="400"
    font-stretch="normal"
    units-per-em="1000"
    panose-1="2 11 4 3 3 3 2 2 2 4"
    ascent="800"
    descent="-200"
    x-height="518"
    cap-height="700"
    bbox="-406 -249 1000 989"
    underline-thickness="24"
    underline-position="-207"
    stemh="74"
    stemv="20"
    unicode-range="U+0008-FB04"
  />
<missing-glyph horiz-adv-x="500" 
d="M430 0h-360v750h360v-750zM145 65h210v620h-210v-620z" />
    <glyph glyph-name="f_i" unicode="fi" horiz-adv-x="541" 
d="M160 588v-70h291v-518h-20v500h-271v-500h-20v500h-120v18h120v72c0 110 59 140 136 140c19 0 39 -1 57 -3v-18c-20 2 -40 3 -60 3c-62 0 -113 -19 -113 -124zM415 684c0 14 12 26 26 26s26 -12 26 -26s-12 -26 -26 -26s-26 12 -26 26z" />
    <glyph glyph-name="f_l" unicode="fl" horiz-adv-x="527" 
d="M160 584v-66h163v-18h-163v-500h-20v500h-120v18h120v68c0 110 60 144 137 144c48 0 98 -9 140 -18v18h20v-730h-20v696c-47 9 -94 16 -143 16c-62 0 -114 -23 -114 -128z" />
    <glyph glyph-name="f_f" unicode="ff" horiz-adv-x="609" 
d="M416 588v-70h163v-18h-163v-500h-20v500h-236v-500h-20v500h-120v18h120v72c0 110 59 140 136 140c19 0 39 -1 57 -3v-18c-20 2 -40 3 -60 3c-62 0 -113 -19 -113 -124v-70h236v72c0 110 59 140 136 140c19 0 39 -1 57 -3v-18c-20 2 -40 3 -60 3
c-62 0 -113 -19 -113 -124z" />
    <glyph glyph-name="f_f_i" unicode="ffi" horiz-adv-x="797" 
d="M687 0v500h-271v-500h-20v500h-236v-500h-20v500h-120v18h120v72c0 110 59 140 136 140c19 0 39 -1 57 -3v-18c-20 2 -40 3 -60 3c-62 0 -113 -19 -113 -124v-70h236v72c0 110 59 140 136 140c19 0 39 -1 57 -3v-18c-20 2 -40 3 -60 3c-62 0 -113 -19 -113 -124v-70h291
v-518h-20zM671 684c0 14 12 26 26 26s26 -12 26 -26s-12 -26 -26 -26s-26 12 -26 26z" />
    <glyph glyph-name="f_f_l" unicode="ffl" horiz-adv-x="783" 
d="M416 584v-66h163v-18h-163v-500h-20v500h-236v-500h-20v500h-120v18h120v72c0 110 59 140 136 140c19 0 39 -1 57 -3v-18c-20 2 -40 3 -60 3c-62 0 -113 -19 -113 -124v-70h236v68c0 110 60 144 137 144c48 0 98 -9 140 -18v18h20v-730h-20v696c-47 9 -94 16 -143 16
c-62 0 -114 -23 -114 -128z" />
    <glyph glyph-name=".notdef" horiz-adv-x="500" 
d="M430 0h-360v750h360v-750zM145 65h210v620h-210v-620z" />
    <glyph glyph-name="quotesingle" unicode="'" horiz-adv-x="230" 
d="M105 428v272h20v-272h-20z" />
    <glyph glyph-name="parenleft" unicode="(" horiz-adv-x="319" 
d="M138 310c0 166 45 316 134 440l17 -9c-86 -122 -131 -268 -131 -431s45 -309 131 -431l-17 -9c-89 124 -134 274 -134 440z" />
    <glyph glyph-name="parenright" unicode=")" horiz-adv-x="319" 
d="M181 310c0 -166 -45 -316 -134 -440l-17 9c86 122 131 268 131 431s-45 309 -131 431l17 9c89 -124 134 -274 134 -440z" />
    <glyph glyph-name="asterisk" unicode="*" horiz-adv-x="508" 
d="M273 332l165 -95l-10 -17l-164 94v-189h-20v189l-164 -94l-10 17l164 95l-164 95l10 17l164 -95v190h20v-190l164 95l10 -17z" />
    <glyph glyph-name="plus" unicode="+" horiz-adv-x="618" 
d="M299 95v228h-229v18h229v228h20v-228h229v-18h-229v-228h-20z" />
    <glyph glyph-name="comma" unicode="," horiz-adv-x="280" 
d="M143 39l19 -6l-63 -184l-19 7z" />
    <glyph glyph-name="hyphen" unicode="-" horiz-adv-x="406" 
d="M336 323h-266v18h266v-18z" />
    <glyph glyph-name="period" unicode="." horiz-adv-x="280" 
d="M114 14c0 14 12 26 26 26s26 -12 26 -26s-12 -26 -26 -26s-26 12 -26 26z" />
    <glyph glyph-name="slash" unicode="/" horiz-adv-x="453" 
d="M-2 -114l440 874l17 -10l-440 -874z" />
    <glyph glyph-name="zero" unicode="0" horiz-adv-x="560" 
d="M47 350c0 217 84 362 233 362s233 -145 233 -362s-84 -362 -233 -362s-233 145 -233 362zM67 350c0 -208 73 -344 213 -344s213 136 213 344s-73 344 -213 344s-213 -136 -213 -344z" />
    <glyph glyph-name="one" unicode="1" horiz-adv-x="560" 
d="M321 677l-193 -128l-13 14l206 137h20v-700h-20v677z" />
    <glyph glyph-name="two" unicode="2" horiz-adv-x="560" 
d="M458 534c0 89 -70 160 -176 160c-80 0 -156 -33 -215 -100l-15 12c61 70 146 106 228 106c118 0 198 -74 198 -178c0 -90 -38 -153 -125 -259c-80 -97 -177 -188 -256 -257h387v-18h-415v18c85 76 193 176 269 269c82 100 120 165 120 247z" />
    <glyph glyph-name="three" unicode="3" horiz-adv-x="560" 
d="M475 175c0 107 -70 184 -218 184h-74v18h76c118 0 205 61 205 168c0 70 -48 149 -178 149c-76 0 -145 -33 -201 -96l-16 14c66 69 134 100 217 100c136 0 198 -79 198 -167c0 -100 -70 -164 -160 -177c108 -17 171 -85 171 -194c0 -105 -71 -187 -214 -187
c-92 0 -172 36 -234 105l16 13c59 -67 136 -100 218 -100c133 0 194 79 194 170z" />
    <glyph glyph-name="four" unicode="4" horiz-adv-x="560" 
d="M408 175h-373v18l373 507h20v-507h96v-18h-96v-175h-20v175zM408 667l-349 -474h349v474z" />
    <glyph glyph-name="five" unicode="5" horiz-adv-x="560" 
d="M281 6c139 0 204 92 204 192c0 117 -81 192 -210 192c-49 0 -109 -11 -154 -27l-6 3v334h356v-18h-336v-296c45 14 101 22 140 22c133 0 230 -77 230 -210c0 -111 -72 -210 -224 -210c-87 0 -163 40 -211 99l15 12c50 -61 124 -93 196 -93z" />
    <glyph glyph-name="six" unicode="6" horiz-adv-x="560" 
d="M300 435c132 0 212 -89 212 -225s-99 -222 -215 -222c-131 0 -235 104 -235 336c0 268 86 388 240 388c76 0 134 -32 175 -84l-16 -12c-39 50 -92 78 -161 78c-133 0 -216 -106 -218 -359c55 65 138 100 218 100zM297 6c111 0 195 87 195 204c0 120 -68 207 -195 207
c-77 0 -158 -34 -215 -108c4 -225 111 -303 215 -303z" />
    <glyph glyph-name="seven" unicode="7" horiz-adv-x="560" 
d="M500 682l-300 -682h-24l300 682h-413v18h437v-18z" />
    <glyph glyph-name="eight" unicode="8" horiz-adv-x="560" 
d="M506 174c0 -117 -100 -186 -226 -186s-226 67 -226 190c0 87 52 170 145 217c-77 37 -116 83 -116 153c0 100 91 164 197 164c122 0 197 -72 197 -166c0 -76 -44 -140 -127 -189c115 -50 156 -108 156 -183zM74 179c0 -108 87 -173 206 -173c122 0 206 68 206 169
c0 83 -57 141 -214 192c-19 6 -37 13 -53 20c-103 -48 -145 -134 -145 -208zM457 546c0 82 -63 148 -177 148c-98 0 -177 -58 -177 -146c0 -80 62 -128 177 -165c18 -6 35 -12 50 -18c94 52 127 115 127 181z" />
    <glyph glyph-name="nine" unicode="9" horiz-adv-x="560" 
d="M260 265c-132 0 -212 89 -212 225s99 222 215 222c131 0 235 -104 235 -336c0 -271 -90 -388 -244 -388c-63 0 -120 22 -164 61l15 15c38 -35 92 -58 149 -58c139 0 221 107 224 359c-55 -65 -138 -100 -218 -100zM478 391c-5 224 -111 303 -215 303
c-111 0 -195 -87 -195 -204c0 -120 68 -207 195 -207c77 0 158 34 215 108z" />
    <glyph glyph-name="colon" unicode=":" horiz-adv-x="280" 
d="M114 14c0 14 12 26 26 26s26 -12 26 -26s-12 -26 -26 -26s-26 12 -26 26zM114 504c0 14 12 26 26 26s26 -12 26 -26s-12 -26 -26 -26s-26 12 -26 26z" />
    <glyph glyph-name="semicolon" unicode=";" horiz-adv-x="280" 
d="M114 504c0 14 12 26 26 26s26 -12 26 -26s-12 -26 -26 -26s-26 12 -26 26zM134 39l19 -6l-63 -184l-19 7z" />
    <glyph glyph-name="less" unicode="&#x3c;" horiz-adv-x="618" 
d="M113 323v18l381 233l11 -19l-367 -223l367 -223l-11 -19z" />
    <glyph glyph-name="equal" unicode="=" horiz-adv-x="618" 
d="M548 433h-478v18h478v-18zM548 213h-478v18h478v-18z" />
    <glyph glyph-name="greater" unicode="&#x3e;" horiz-adv-x="618" 
d="M505 341v-18l-381 -233l-11 19l367 223l-367 223l11 19z" />
    <glyph glyph-name="question" unicode="?" horiz-adv-x="492" 
d="M183 14c0 14 12 26 26 26s26 -12 26 -26s-12 -26 -26 -26s-26 12 -26 26zM248 712c114 0 175 -70 175 -156c0 -68 -33 -127 -121 -190c-71 -51 -83 -97 -83 -176v-21h-20v25c0 90 22 140 91 188c85 60 112 113 112 176c0 80 -58 136 -160 136c-72 0 -131 -37 -176 -93
l-16 13c53 63 121 98 198 98z" />
    <glyph glyph-name="at" unicode="@" horiz-adv-x="958" 
d="M640 154v234c-36 47 -97 88 -164 88c-110 0 -166 -70 -166 -205s56 -205 166 -205c67 0 128 41 164 88zM644 131c-37 -43 -98 -83 -170 -83c-119 0 -184 78 -184 223s65 223 184 223c72 0 128 -36 166 -79v67h20v-309c0 -64 32 -98 86 -98c82 0 112 96 112 228
c0 207 -130 391 -381 391c-235 0 -373 -189 -373 -416c0 -213 136 -424 387 -424c95 0 171 30 238 78l9 -16c-76 -54 -154 -80 -247 -80c-260 0 -407 213 -407 442c0 233 142 434 393 434c260 0 401 -199 401 -409c0 -128 -26 -246 -133 -246c-55 0 -89 30 -101 74z" />
    <glyph glyph-name="A" unicode="A" horiz-adv-x="648" 
d="M313 700h22l283 -700h-22l-85 211h-374l-85 -211h-22zM324 678l-180 -449h360z" />
    <glyph glyph-name="B" unicode="B" horiz-adv-x="606" 
d="M90 0v700h217c132 0 212 -70 212 -175c0 -85 -49 -145 -117 -160c91 -13 154 -74 154 -178c0 -117 -84 -187 -248 -187h-218zM110 373h241c88 0 148 63 148 152c0 95 -73 157 -198 157h-191v-309zM536 187c0 102 -68 168 -185 168h-241v-337h196c149 0 230 61 230 169z
" />
    <glyph glyph-name="C" unicode="C" horiz-adv-x="672" 
d="M55 350c0 209 127 362 304 362c115 0 205 -45 267 -140l-17 -11c-61 92 -142 133 -250 133c-165 0 -284 -145 -284 -344s119 -344 284 -344c108 0 189 41 250 133l17 -11c-62 -95 -152 -140 -267 -140c-177 0 -304 153 -304 362z" />
    <glyph glyph-name="D" unicode="D" horiz-adv-x="654" 
d="M110 18h176c177 0 293 131 293 332s-116 332 -293 332h-176v-664zM289 0h-199v700h199c187 0 310 -139 310 -350s-123 -350 -310 -350z" />
    <glyph glyph-name="E" unicode="E" horiz-adv-x="554" 
d="M90 0v700h405v-18h-385v-311h350v-18h-350v-335h394v-18h-414z" />
    <glyph glyph-name="F" unicode="F" horiz-adv-x="525" 
d="M90 0v700h405v-18h-385v-308h353v-18h-353v-356h-20z" />
    <glyph glyph-name="G" unicode="G" horiz-adv-x="693" 
d="M55 350c0 209 124 362 306 362c111 0 196 -41 259 -133l-17 -11c-60 85 -137 126 -242 126c-170 0 -286 -145 -286 -344c0 -191 105 -344 300 -344c80 0 179 37 228 98v227h-218v18h238v-253c-60 -74 -165 -108 -248 -108c-211 0 -320 163 -320 362z" />
    <glyph glyph-name="H" unicode="H" horiz-adv-x="672" 
d="M90 0v700h20v-317h452v317h20v-700h-20v365h-452v-365h-20z" />
    <glyph glyph-name="I" unicode="I" horiz-adv-x="210" 
d="M95 700h20v-700h-20v700z" />
    <glyph glyph-name="J" unicode="J" horiz-adv-x="526" 
d="M35 115l16 10c45 -79 109 -119 193 -119c95 0 172 71 172 208v486h20v-486c0 -162 -94 -226 -191 -226c-83 0 -156 34 -210 127z" />
    <glyph glyph-name="K" unicode="K" horiz-adv-x="585" 
d="M110 700v-508l397 508h26l-222 -283l254 -417h-24l-243 400l-188 -240v-160h-20v700h20z" />
    <glyph glyph-name="L" unicode="L" horiz-adv-x="512" 
d="M90 0v700h20v-682h382v-18h-402z" />
    <glyph glyph-name="M" unicode="M" horiz-adv-x="824" 
d="M734 700v-700h-20v663l-293 -504h-18l-293 504v-663h-20v700h20l302 -519l302 519h20z" />
    <glyph glyph-name="N" unicode="N" horiz-adv-x="678" 
d="M90 0v700h20l458 -667v667h20v-700h-20l-458 666v-666h-20z" />
    <glyph glyph-name="O" unicode="O" horiz-adv-x="696" 
d="M641 350c0 -206 -111 -362 -293 -362s-293 156 -293 362s111 362 293 362s293 -156 293 -362zM75 350c0 -196 102 -344 273 -344c172 0 273 148 273 344s-101 344 -273 344c-171 0 -273 -148 -273 -344z" />
    <glyph glyph-name="P" unicode="P" horiz-adv-x="564" 
d="M519 494c0 -132 -89 -206 -250 -206h-159v-288h-20v700h179c161 0 250 -74 250 -206zM499 494c0 125 -87 188 -236 188h-153v-376h153c149 0 236 63 236 188z" />
    <glyph glyph-name="Q" unicode="Q" horiz-adv-x="696" 
d="M641 350c0 -106 -29 -199 -83 -264l133 -144l-13 -13l-133 142c-49 -52 -116 -83 -197 -83c-182 0 -293 156 -293 362s111 362 293 362s293 -156 293 -362zM384 247l14 13l147 -160c49 62 76 149 76 250c0 196 -101 344 -273 344c-171 0 -273 -148 -273 -344
s102 -344 273 -344c76 0 139 29 185 79z" />
    <glyph glyph-name="R" unicode="R" horiz-adv-x="582" 
d="M522 509c0 -94 -59 -160 -164 -183l204 -326h-23l-201 323c-21 -3 -43 -5 -67 -5h-161v-318h-20v700h186c159 0 246 -78 246 -191zM502 509c0 107 -82 173 -231 173h-161v-346h161c149 0 231 68 231 173z" />
    <glyph glyph-name="S" unicode="S" horiz-adv-x="567" 
d="M288 6c136 0 204 70 204 166c0 101 -65 150 -216 196c-134 41 -203 89 -203 179c0 99 72 165 190 165c93 0 166 -33 228 -99l-16 -13c-56 62 -129 94 -212 94c-112 0 -170 -63 -170 -147c0 -80 64 -124 192 -163c153 -47 227 -99 227 -213c0 -108 -80 -183 -224 -183
c-94 0 -179 37 -243 96l16 14c66 -65 153 -92 227 -92z" />
    <glyph glyph-name="T" unicode="T" horiz-adv-x="522" 
d="M251 0v682h-236v18h492v-18h-236v-682h-20z" />
    <glyph glyph-name="U" unicode="U" horiz-adv-x="696" 
d="M348 -12c-144 0 -258 86 -258 278v434h20v-431c0 -183 105 -263 238 -263s238 80 238 263v431h20v-434c0 -192 -114 -278 -258 -278z" />
    <glyph glyph-name="W" unicode="W" horiz-adv-x="974" 
d="M474 700h26l194 -677l228 677h22l-238 -700h-25l-194 677l-194 -677h-25l-238 700h22l228 -677z" />
    <glyph glyph-name="X" unicode="X" horiz-adv-x="563" 
d="M270 364l-225 336h23l213 -319l214 319h23l-225 -336l245 -364h-24l-233 347l-232 -347h-24z" />
    <glyph glyph-name="Y" unicode="Y" horiz-adv-x="560" 
d="M535 700l-245 -421v-279h-20v279l-245 421h24l231 -401l231 401h24z" />
    <glyph glyph-name="Z" unicode="Z" horiz-adv-x="558" 
d="M40 18l444 664h-429v18h453v-18l-444 -664h454v-18h-478v18z" />
    <glyph glyph-name="bracketleft" unicode="[" horiz-adv-x="383" 
d="M130 -130v880h223v-18h-203v-844h203v-18h-223z" />
    <glyph glyph-name="backslash" unicode="\" horiz-adv-x="453" 
d="M15 760l440 -874l-17 -10l-440 874z" />
    <glyph glyph-name="bracketright" unicode="]" horiz-adv-x="383" 
d="M253 750v-880h-223v18h203v844h-203v18h223z" />
    <glyph glyph-name="asciicircum" unicode="^" horiz-adv-x="618" 
d="M300 700h18l214 -309l-16 -11l-207 302l-207 -302l-16 11z" />
    <glyph glyph-name="underscore" unicode="_" horiz-adv-x="480" 
d="M0 -146v18h480v-18h-480z" />
    <glyph glyph-name="grave" unicode="`" horiz-adv-x="400" 
d="M120 711l16 13l144 -142l-15 -12z" />
    <glyph glyph-name="a" unicode="a" horiz-adv-x="530" 
d="M435 242v101c0 125 -63 169 -167 169c-67 0 -126 -25 -172 -62l-14 14c51 40 117 66 186 66c115 0 187 -49 187 -182v-348h-20v60c-46 -42 -113 -72 -197 -72c-108 0 -188 63 -188 163s80 163 188 163c84 0 151 -30 197 -72zM237 6c75 0 140 25 198 76v138
c-58 51 -123 76 -198 76c-99 0 -167 -56 -167 -145s68 -145 167 -145z" />
    <glyph glyph-name="b" unicode="b" horiz-adv-x="559" 
d="M100 416v-314c44 -50 118 -96 190 -96c130 0 199 85 199 253s-69 253 -199 253c-72 0 -146 -46 -190 -96zM100 78v-78h-20v730h20v-290c52 52 121 90 197 90c132 0 212 -90 212 -271s-80 -271 -212 -271c-76 0 -145 38 -197 90z" />
    <glyph glyph-name="c" unicode="c" horiz-adv-x="535" 
d="M50 259c0 170 109 271 238 271c88 0 158 -37 202 -104l-16 -10c-43 63 -108 96 -186 96c-116 0 -218 -91 -218 -253s102 -253 218 -253c78 0 143 33 186 96l16 -10c-44 -67 -114 -104 -202 -104c-129 0 -238 101 -238 271z" />
    <glyph glyph-name="d" unicode="d" horiz-adv-x="559" 
d="M459 102v314c-44 50 -118 96 -190 96c-130 0 -199 -85 -199 -253s69 -253 199 -253c72 0 146 46 190 96zM459 0v78c-52 -52 -121 -90 -197 -90c-132 0 -212 90 -212 271s80 271 212 271c76 0 145 -38 197 -90v290h20v-730h-20z" />
    <glyph glyph-name="e" unicode="e" horiz-adv-x="545" 
d="M290 6c73 0 138 31 178 85l16 -11c-44 -59 -111 -92 -194 -92c-154 0 -240 128 -240 273c0 157 100 269 229 269s230 -107 230 -260v-18h-439c3 -135 87 -246 220 -246zM70 270h419c0 144 -89 242 -210 242c-115 0 -206 -100 -209 -242z" />
    <glyph glyph-name="f" unicode="f" horiz-adv-x="353" 
d="M160 588v-70h163v-18h-163v-500h-20v500h-120v18h120v72c0 110 59 140 136 140c19 0 39 -1 57 -3v-18c-20 2 -40 3 -60 3c-62 0 -113 -19 -113 -124z" />
    <glyph glyph-name="g" unicode="g" horiz-adv-x="559" 
d="M459 78c-52 -52 -121 -90 -197 -90c-132 0 -212 90 -212 271s80 271 212 271c76 0 145 -38 197 -90v78h20v-515c0 -139 -67 -227 -201 -227c-83 0 -151 33 -203 100l15 11c50 -65 115 -93 188 -93c124 0 181 83 181 205v79zM459 102v314c-44 50 -118 96 -190 96
c-130 0 -199 -85 -199 -253s69 -253 199 -253c72 0 146 46 190 96z" />
    <glyph glyph-name="h" unicode="h" horiz-adv-x="559" 
d="M306 512c-75 0 -152 -45 -206 -108v-404h-20v730h20v-301c49 53 126 101 207 101c117 0 177 -59 177 -190v-340h-20v333c0 124 -47 179 -158 179z" />
    <glyph glyph-name="i" unicode="i" horiz-adv-x="200" 
d="M90 0v518h20v-518h-20zM74 684c0 14 12 26 26 26s26 -12 26 -26s-12 -26 -26 -26s-26 12 -26 26z" />
    <glyph glyph-name="j" unicode="j" horiz-adv-x="190" 
d="M85 -87v605h20v-607c0 -110 -50 -135 -126 -135c-9 0 -23 1 -31 2v18c9 -1 25 -2 34 -2c57 0 103 14 103 119zM69 684c0 14 12 26 26 26s26 -12 26 -26s-12 -26 -26 -26s-26 12 -26 26z" />
    <glyph glyph-name="k" unicode="k" horiz-adv-x="478" 
d="M100 730v-565l308 353h28l-182 -207l214 -311h-24l-204 296l-140 -159v-137h-20v730h20z" />
    <glyph glyph-name="l" unicode="l" horiz-adv-x="200" 
d="M90 0v730h20v-730h-20z" />
    <glyph glyph-name="m" unicode="m" horiz-adv-x="867" 
d="M289 512c-61 0 -140 -39 -189 -102v-410h-20v518h20v-81c52 59 127 93 192 93c71 0 122 -27 143 -91c53 55 125 91 199 91c117 0 158 -60 158 -184v-346h-20v339c0 110 -28 173 -141 173c-62 0 -135 -36 -191 -92c4 -18 6 -38 6 -60v-360h-20v353c0 109 -45 159 -137 159
z" />
    <glyph glyph-name="n" unicode="n" horiz-adv-x="559" 
d="M306 512c-75 0 -152 -45 -206 -108v-404h-20v518h20v-89c49 53 126 101 207 101c117 0 177 -59 177 -190v-340h-20v333c0 124 -47 179 -158 179z" />
    <glyph glyph-name="o" unicode="o" horiz-adv-x="566" 
d="M516 259c0 -158 -97 -271 -233 -271s-233 113 -233 271s97 271 233 271s233 -113 233 -271zM496 259c0 152 -92 253 -213 253s-213 -101 -213 -253s92 -253 213 -253s213 101 213 253z" />
    <glyph glyph-name="p" unicode="p" horiz-adv-x="559" 
d="M100 419v-320c44 -50 118 -93 190 -93c130 0 199 85 199 253s-69 253 -199 253c-72 0 -146 -43 -190 -93zM100 518v-75c52 52 121 87 197 87c132 0 212 -90 212 -271s-80 -271 -212 -271c-76 0 -145 35 -197 87v-287h-20v730h20z" />
    <glyph glyph-name="q" unicode="q" horiz-adv-x="559" 
d="M459 102v314c-44 50 -118 96 -190 96c-130 0 -199 -85 -199 -253s69 -253 199 -253c72 0 146 46 190 96zM459 440v78h20v-730h-20v290c-52 -52 -121 -90 -197 -90c-132 0 -212 90 -212 271s80 271 212 271c76 0 145 -38 197 -90z" />
    <glyph glyph-name="r" unicode="r" horiz-adv-x="339" 
d="M279 512c-75 0 -138 -48 -179 -106v-406h-20v518h20v-85c46 57 105 97 181 97c10 0 26 -1 38 -2v-18c-13 1 -27 2 -40 2z" />
    <glyph glyph-name="s" unicode="s" horiz-adv-x="474" 
d="M238 6c100 0 166 51 166 124c0 71 -56 111 -171 141c-109 28 -174 59 -174 137c0 74 67 122 163 122c65 0 124 -20 173 -59l-14 -14c-43 36 -102 55 -158 55c-86 0 -144 -41 -144 -104c0 -64 55 -91 165 -120c125 -33 180 -81 180 -158c0 -92 -79 -142 -187 -142
c-73 0 -148 29 -202 78l14 14c53 -48 127 -74 189 -74z" />
    <glyph glyph-name="t" unicode="t" horiz-adv-x="353" 
d="M319 8v-18c-11 -1 -29 -2 -43 -2c-79 0 -136 30 -136 140v372h-120v18h120v155h20v-155h163v-18h-163v-370c0 -105 55 -124 113 -124c15 0 34 1 46 2z" />
    <glyph glyph-name="u" unicode="u" horiz-adv-x="554" 
d="M277 -12c-124 0 -202 78 -202 225v305h20v-303c0 -135 67 -209 182 -209s182 74 182 209v303h20v-305c0 -147 -78 -225 -202 -225z" />
    <glyph glyph-name="v" unicode="v" horiz-adv-x="496" 
d="M449 518h22l-210 -518h-26l-210 518h22l201 -499z" />
    <glyph glyph-name="w" unicode="w" horiz-adv-x="760" 
d="M366 518h28l154 -499l164 499h23l-174 -518h-26l-155 499l-155 -499h-26l-174 518h23l164 -499z" />
    <glyph glyph-name="x" unicode="x" horiz-adv-x="458" 
d="M413 0l-184 257l-184 -257h-25l197 274l-175 244h24l163 -228l163 228h24l-175 -244l197 -274h-25z" />
    <glyph glyph-name="y" unicode="y" horiz-adv-x="485" 
d="M247 33l191 485h22l-287 -730h-22l86 218l-212 512h22z" />
    <glyph glyph-name="z" unicode="z" horiz-adv-x="461" 
d="M35 0v18l356 482h-341v18h366v-18l-357 -482h367v-18h-391z" />
    <glyph glyph-name="braceleft" unicode="{" horiz-adv-x="355" 
d="M186 -44v243c0 58 -34 102 -86 102v18c52 0 86 44 86 102v243c0 61 22 86 77 86h72v-18h-72c-44 0 -57 -19 -57 -66v-250c0 -48 -24 -94 -73 -106c49 -12 73 -58 73 -106v-250c0 -47 13 -66 57 -66h72v-18h-72c-55 0 -77 25 -77 86z" />
    <glyph glyph-name="bar" unicode="|" horiz-adv-x="260" 
d="M120 -200v969h20v-969h-20z" />
    <glyph glyph-name="braceright" unicode="}" horiz-adv-x="355" 
d="M169 199v-243c0 -61 -22 -86 -77 -86h-72v18h72c44 0 57 19 57 66v250c0 48 24 94 73 106c-49 12 -73 58 -73 106v250c0 47 -13 66 -57 66h-72v18h72c55 0 77 -25 77 -86v-243c0 -58 34 -102 86 -102v-18c-52 0 -86 -44 -86 -102z" />
    <glyph glyph-name="asciitilde" unicode="~" horiz-adv-x="618" 
d="M301 325c-43 33 -82 55 -129 55c-56 0 -87 -40 -98 -106l-20 4c14 79 56 120 120 120c48 0 97 -26 143 -63c43 -33 82 -55 129 -55c56 0 87 40 98 106l20 -4c-14 -79 -56 -120 -120 -120c-48 0 -97 26 -143 63z" />
    <glyph glyph-name="periodcentered" unicode="&#xb7;" horiz-adv-x="280" 
d="M114 299c0 14 12 26 26 26s26 -12 26 -26s-12 -26 -26 -26s-26 12 -26 26z" />
    <glyph glyph-name="twodotenleader" unicode="&#x2025;" horiz-adv-x="560" 
d="M114 14c0 14 12 26 26 26s26 -12 26 -26s-12 -26 -26 -26s-26 12 -26 26zM394 14c0 14 12 26 26 26s26 -12 26 -26s-12 -26 -26 -26s-26 12 -26 26z" />
    <glyph glyph-name="ellipsis" unicode="&#x2026;" horiz-adv-x="840" 
d="M114 14c0 14 12 26 26 26s26 -12 26 -26s-12 -26 -26 -26s-26 12 -26 26zM394 14c0 14 12 26 26 26s26 -12 26 -26s-12 -26 -26 -26s-26 12 -26 26zM674 14c0 14 12 26 26 26s26 -12 26 -26s-12 -26 -26 -26s-26 12 -26 26z" />
    <glyph glyph-name="dieresis" unicode="&#xa8;" horiz-adv-x="400" 
d="M91 649c0 12 10 22 22 22s22 -10 22 -22s-10 -22 -22 -22s-22 10 -22 22zM265 649c0 12 10 22 22 22s22 -10 22 -22s-10 -22 -22 -22s-22 10 -22 22z" />
    <glyph glyph-name="uni00AD" unicode="&#xad;" horiz-adv-x="406" 
d="M336 323h-266v18h266v-18z" />
    <glyph glyph-name="afii00208" unicode="&#x2015;" horiz-adv-x="1000" 
d="M900 323h-800v18h800v-18z" />
    <glyph glyph-name="quoteleft" unicode="&#x2018;" horiz-adv-x="280" 
d="M137 549l-19 6l63 184l19 -7z" />
    <glyph glyph-name="quoteright" unicode="&#x2019;" horiz-adv-x="280" 
d="M143 739l19 -6l-63 -184l-19 7z" />
    <glyph glyph-name="quotedblleft" unicode="&#x201c;" horiz-adv-x="408" 
d="M137 549l-19 6l63 184l19 -7zM265 549l-19 6l63 184l19 -7z" />
    <glyph glyph-name="quotedblright" unicode="&#x201d;" horiz-adv-x="408" 
d="M143 739l19 -6l-63 -184l-19 7zM271 739l19 -6l-63 -184l-19 7z" />
    <glyph glyph-name="plusminus" unicode="&#xb1;" horiz-adv-x="618" 
d="M548 0h-478v18h478v-18zM299 103v228h-229v18h229v228h20v-228h229v-18h-229v-228h-20z" />
    <glyph glyph-name="multiply" unicode="&#xd7;" horiz-adv-x="618" 
d="M323 333l175 -172l-14 -14l-175 172l-175 -172l-14 14l175 172l-175 173l14 14l175 -173l175 173l14 -14z" />
    <glyph glyph-name="divide" unicode="&#xf7;" horiz-adv-x="618" 
d="M283 534c0 14 12 26 26 26s26 -12 26 -26s-12 -26 -26 -26s-26 12 -26 26zM548 341h-478v-18h478v18zM283 130c0 -14 12 -26 26 -26s26 12 26 26s-12 26 -26 26s-26 -12 -26 -26z" />
    <glyph glyph-name="notequal" unicode="&#x2260;" horiz-adv-x="618" 
d="M116 12l-19 11l114 190h-141v18h152l122 202h-274v18h285l112 186l18 -11l-105 -175h168v-18h-179l-121 -202h300v-18h-311z" />
    <glyph glyph-name="lessequal" unicode="&#x2264;" horiz-adv-x="618" 
d="M70 349l461 221l7 -17l-443 -213l443 -213l-7 -17l-461 221v18zM548 0h-478v18h478v-18z" />
    <glyph glyph-name="greaterequal" unicode="&#x2265;" horiz-adv-x="618" 
d="M87 570l461 -221v-18l-461 -221l-7 17l443 213l-443 213zM548 0h-478v18h478v-18z" />
    <glyph glyph-name="infinity" unicode="&#x221e;" horiz-adv-x="768" 
d="M570 192c-67 0 -116 29 -186 124c-72 -95 -119 -124 -186 -124c-70 0 -128 55 -128 140s58 140 128 140c67 0 114 -29 186 -124c70 95 119 124 186 124c70 0 128 -55 128 -140s-58 -140 -128 -140zM569 454c-54 0 -102 -24 -174 -122c72 -99 120 -122 174 -122
c60 0 109 46 109 122s-49 122 -109 122zM199 210c55 0 99 23 173 122c-74 99 -118 122 -173 122c-60 0 -109 -46 -109 -122s49 -122 109 -122z" />
    <glyph glyph-name="degree" unicode="&#xb0;" horiz-adv-x="386" 
d="M72 591c0 67 54 121 121 121s121 -54 121 -121s-54 -121 -121 -121s-121 54 -121 121zM92 591c0 -58 45 -103 101 -103s101 45 101 103s-45 103 -101 103s-101 -45 -101 -103z" />
    <glyph glyph-name="minute" unicode="&#x2032;" horiz-adv-x="318" 
d="M137 469l-19 6l63 184l19 -7z" />
    <glyph glyph-name="second" unicode="&#x2033;" horiz-adv-x="446" 
d="M181 659l19 -6l-63 -184l-19 7zM309 659l19 -6l-63 -184l-19 7z" />
    <glyph glyph-name="partialdiff" unicode="&#x2202;" horiz-adv-x="580" 
d="M272 435c83 0 164 -38 218 -99c-2 253 -85 358 -218 358c-69 0 -122 -28 -161 -78l-16 12c41 52 99 84 175 84c154 0 240 -120 240 -388c0 -232 -104 -336 -235 -336c-116 0 -215 86 -215 222s80 225 212 225zM275 6c104 0 211 78 215 303c-55 73 -140 108 -219 108
c-122 0 -191 -87 -191 -207c0 -117 84 -204 195 -204z" />
    <glyph glyph-name="equivalence" unicode="&#x2261;" horiz-adv-x="618" 
d="M548 493h-478v18h478v-18zM548 153h-478v18h478v-18zM548 323h-478v18h478v-18z" />
    <glyph glyph-name="section" unicode="&#xa7;" horiz-adv-x="495" 
d="M435 312c0 -77 -56 -118 -138 -130c95 -31 138 -73 138 -140c0 -92 -78 -142 -188 -142c-69 0 -143 29 -197 78l14 14c53 -48 125 -74 187 -74c100 0 164 51 164 124c0 71 -56 106 -171 136c-109 28 -174 71 -174 147c0 64 52 116 127 131c-81 27 -127 62 -127 127
c0 77 68 129 168 129c63 0 123 -23 168 -59l-14 -14c-42 35 -102 55 -158 55c-87 0 -144 -45 -144 -111c0 -63 55 -94 165 -123c125 -33 180 -71 180 -148zM244 443c-2 0 -3 0 -4 1c-87 -1 -150 -54 -150 -119c0 -62 53 -100 161 -129c99 0 164 43 164 116
c0 71 -56 101 -171 131z" />
    <glyph glyph-name="arrowright" unicode="&#x2192;" horiz-adv-x="860" 
d="M36 322v20h621l-46 153l213 -163l-213 -170l46 160h-621z" />
    <glyph glyph-name="arrowleft" unicode="&#x2190;" horiz-adv-x="860" 
d="M824 342v-20h-621l46 -160l-213 170l213 163l-46 -153h621z" />
    <glyph glyph-name="arrowup" unicode="&#x2191;" horiz-adv-x="860" 
d="M437 -38h-20v621l-153 -46l163 213l170 -213l-160 46v-621z" />
    <glyph glyph-name="arrowdown" unicode="&#x2193;" horiz-adv-x="860" 
d="M420 750h20v-621l160 46l-170 -213l-163 213l153 -46v621z" />
    <glyph glyph-name="arrowboth" unicode="&#x2194;" horiz-adv-x="860" 
d="M204 342h453l-46 153l213 -163l-213 -170l46 160h-453l46 -160l-213 170l213 163z" />
    <glyph glyph-name="radical" unicode="&#x221a;" horiz-adv-x="603" 
d="M110 374h100l153 -344l178 740h22l-189 -770h-18l-162 356h-84v18z" />
    <glyph glyph-name="integral" unicode="&#x222b;" horiz-adv-x="406" 
d="M193 -78v688c0 110 59 140 136 140c19 0 39 -1 57 -3v-18c-20 2 -40 3 -60 3c-62 0 -113 -19 -113 -124v-688c0 -110 -59 -140 -136 -140c-19 0 -39 1 -57 3v18c20 -2 40 -3 60 -3c62 0 113 19 113 124z" />
    <glyph glyph-name="intersection" unicode="&#x2229;" horiz-adv-x="744" 
d="M372 617c171 0 262 -124 262 -351v-266h-20v268c0 216 -87 331 -242 331s-242 -115 -242 -331v-268h-20v266c0 227 91 351 262 351z" />
    <glyph glyph-name="acute" unicode="&#xb4;" horiz-adv-x="400" 
d="M264 724l16 -13l-145 -141l-15 12z" />
    <glyph glyph-name="caron" unicode="&#x2c7;" horiz-adv-x="400" 
d="M207 568h-14l-146 162l14 12l139 -156l139 156l14 -12z" />
    <glyph glyph-name="breve" unicode="&#x2d8;" horiz-adv-x="400" 
d="M200 591c-62 0 -119 41 -140 115l19 5c13 -54 57 -102 121 -102s108 48 121 102l19 -5c-21 -74 -78 -115 -140 -115z" />
    <glyph glyph-name="hungarumlaut" unicode="&#x2dd;" horiz-adv-x="400" 
d="M194 724l16 -13l-145 -141l-15 12zM334 724l16 -13l-145 -141l-15 12z" />
    <glyph glyph-name="ring" unicode="&#x2da;" horiz-adv-x="400" 
d="M115 649c0 47 38 83 85 83s85 -36 85 -83s-38 -83 -85 -83s-85 36 -85 83zM135 649c0 -36 29 -65 65 -65s65 29 65 65s-29 65 -65 65s-65 -29 -65 -65z" />
    <glyph glyph-name="dotaccent" unicode="&#x2d9;" horiz-adv-x="400" 
d="M178 649c0 12 10 22 22 22s22 -10 22 -22s-10 -22 -22 -22s-22 10 -22 22z" />
    <glyph glyph-name="cedilla" unicode="&#xb8;" horiz-adv-x="400" 
d="M181 -238c-28 0 -57 10 -80 28l12 14c19 -16 43 -24 67 -24c53 0 77 27 77 59c0 43 -31 72 -106 78l-3 4l41 79h20l-34 -69c70 -10 102 -45 102 -92c0 -42 -32 -77 -96 -77z" />
    <glyph glyph-name="ogonek" unicode="&#x2db;" horiz-adv-x="400" 
d="M207 0h23c-55 -39 -79 -80 -79 -123c0 -45 30 -78 75 -78c30 0 56 14 76 34l12 -14c-22 -22 -50 -38 -89 -38c-57 0 -94 44 -94 95c0 45 24 88 76 124z" />
    <glyph glyph-name="exclamdown" unicode="&#xa1;" horiz-adv-x="220" 
d="M120 -182h-20v531h20v-531zM84 504c0 14 12 26 26 26s26 -12 26 -26s-12 -26 -26 -26s-26 12 -26 26z" />
    <glyph glyph-name="questiondown" unicode="&#xbf;" horiz-adv-x="492" 
d="M309 505c0 -14 -12 -26 -26 -26s-26 12 -26 26s12 26 26 26s26 -12 26 -26zM244 -193c-114 0 -175 70 -175 156c0 68 33 127 121 190c71 51 83 97 83 176v21h20v-25c0 -90 -22 -140 -91 -188c-85 -60 -112 -113 -112 -176c0 -80 58 -136 160 -136c72 0 131 37 176 93
l16 -13c-53 -63 -121 -98 -198 -98z" />
    <glyph glyph-name="summation" unicode="&#x2211;" horiz-adv-x="606" 
d="M50 -93l262 424l-262 391v18h526v-18h-505l261 -386v-12l-260 -417h504v-18h-526v18z" />
    <glyph glyph-name="product" unicode="&#x220f;" horiz-adv-x="667" 
d="M90 -111v851h487v-851h-20v833h-447v-833h-20z" />
    <glyph glyph-name="currency" unicode="&#xa4;" horiz-adv-x="707" 
d="M207 171l-87 -87l-14 15l87 87c-35 38 -56 90 -56 146s21 107 55 145l-86 87l14 15l87 -87c38 35 90 57 147 57c56 0 108 -22 147 -57l87 87l14 -15l-87 -87c35 -38 57 -89 57 -145c0 -57 -22 -108 -57 -147l87 -86l-14 -15l-87 87c-39 -36 -91 -57 -147 -57
c-57 0 -108 22 -147 57zM157 332c0 -109 88 -198 197 -198s198 89 198 198s-89 197 -198 197s-197 -88 -197 -197z" />
    <glyph glyph-name="uni2109" unicode="&#x2109;" horiz-adv-x="753" 
d="M10 591c0 67 54 121 121 121s121 -54 121 -121s-54 -121 -121 -121s-121 54 -121 121zM30 591c0 -58 45 -103 101 -103s101 45 101 103s-45 103 -101 103s-101 -45 -101 -103zM318 0v700h405v-18h-385v-308h353v-18h-353v-356h-20z" />
    <glyph glyph-name="perthousand" unicode="&#x2030;" horiz-adv-x="998" 
d="M136 -12l-16 11l450 713l16 -11zM356 528c0 -104 -51 -179 -133 -179c-83 0 -133 75 -133 179s50 179 133 179c82 0 133 -75 133 -179zM110 528c0 -96 42 -161 113 -161s113 65 113 161s-42 161 -113 161s-113 -65 -113 -161zM614 171c0 -104 -51 -179 -133 -179
c-83 0 -133 75 -133 179s50 179 133 179c82 0 133 -75 133 -179zM368 171c0 -96 42 -161 113 -161s113 65 113 161s-42 161 -113 161s-113 -65 -113 -161zM908 171c0 -104 -51 -179 -133 -179c-83 0 -133 75 -133 179s50 179 133 179c82 0 133 -75 133 -179zM662 171
c0 -96 42 -161 113 -161s113 65 113 161s-42 161 -113 161s-113 -65 -113 -161z" />
    <glyph glyph-name="paragraph" unicode="&#xb6;" horiz-adv-x="540" 
d="M50 524c0 128 109 176 234 176h156v-831h-20v813h-66v-813h-20v477h-50c-125 0 -234 50 -234 178z" />
    <glyph glyph-name="dagger" unicode="&#x2020;" horiz-adv-x="576" 
d="M298 535v-666h-20v666h-198v18h198v195h20v-195h198v-18h-198z" />
    <glyph glyph-name="daggerdbl" unicode="&#x2021;" horiz-adv-x="576" 
d="M496 82v-18h-198v-195h-20v195h-198v18h198v453h-198v18h198v195h20v-195h198v-18h-198v-453h198z" />
    <glyph glyph-name="arrowupdn" unicode="&#x2195;" horiz-adv-x="860" 
d="M264 175l153 -46v453l-153 -46l163 213l170 -213l-160 46v-453l160 46l-170 -213z" />
    <glyph glyph-name="afii61352" unicode="&#x2116;" horiz-adv-x="892" 
d="M90 0v700h18l315 -652v652h20v-700h-18l-315 652v-652h-20zM847 18v-18h-350v18h350zM505 323c0 120 60 204 167 204s167 -84 167 -204s-60 -204 -167 -204s-167 84 -167 204zM525 323c0 -119 56 -186 147 -186s147 67 147 186s-56 186 -147 186s-147 -67 -147 -186z" />
    <glyph glyph-name="trademark" unicode="&#x2122;" horiz-adv-x="658" 
d="M129 379v303h-109v18h237v-18h-108v-303h-20zM592 700v-322h-20v280l-122 -210h-13l-122 210v-280h-20v322h17l131 -229l132 229h17z" />
    <glyph glyph-name="uni2121" unicode="&#x2121;" horiz-adv-x="856" 
d="M646 270h-309c2 143 63 242 154 242c92 0 155 -102 155 -242zM202 0v682h-187v18h392v-18h-185v-682h-20zM751 0v730h20v-730h-20zM651 70l-17 11c-33 -49 -76 -75 -131 -75c-118 0 -164 114 -166 246h329v19c0 153 -74 259 -175 259s-174 -102 -174 -269
c0 -155 60 -273 187 -273c60 0 108 25 147 82z" />
    <glyph glyph-name="Euro" unicode="&#x20ac;" horiz-adv-x="693" 
d="M76 350c0 18 1 35 3 52h-59v18h61c25 172 142 292 299 292c115 0 205 -45 267 -140l-17 -11c-61 92 -142 133 -250 133c-145 0 -255 -112 -279 -274h360l-6 -18h-356c-2 -17 -3 -34 -3 -52c0 -19 1 -37 3 -54h325l-6 -18h-317c25 -161 134 -272 279 -272
c108 0 189 41 250 133l17 -11c-62 -95 -152 -140 -267 -140c-156 0 -273 119 -299 290h-61v18h59c-2 17 -3 35 -3 54z" />
    <glyph glyph-name="registered" unicode="&#xae;" horiz-adv-x="834" 
d="M60 350c0 200 162 362 357 362s357 -162 357 -362s-162 -362 -357 -362s-357 162 -357 362zM80 350c0 -188 154 -342 337 -342s337 154 337 342s-154 342 -337 342c-184 0 -337 -154 -337 -342zM578 437c0 -57 -32 -96 -88 -113l108 -183h-23l-104 178
c-16 -3 -33 -4 -51 -4h-123v-174h-20v417h143c100 0 158 -44 158 -121zM558 437c0 69 -47 103 -140 103h-121v-207h121c92 0 140 36 140 104z" />
    <glyph glyph-name="afii61289" unicode="&#x2113;" horiz-adv-x="425" 
d="M363 41l12 -17c-32 -24 -70 -36 -110 -36c-61 0 -103 31 -132 79c-24 -13 -49 -25 -75 -33l-8 20c26 8 50 19 72 31c-44 86 -53 210 -53 294c0 202 79 333 174 333c85 0 120 -87 120 -220c0 -161 -73 -327 -214 -416c26 -42 62 -70 114 -70c35 0 70 12 100 35zM343 492
c0 131 -35 202 -100 202c-75 0 -154 -112 -154 -315c0 -81 9 -202 50 -284c132 82 204 239 204 397z" />
    <glyph glyph-name="Omega" unicode="&#x2126;" horiz-adv-x="696" 
d="M348 712c188 0 293 -151 293 -342c0 -161 -92 -282 -199 -352h185v-18h-217v16c122 76 211 194 211 354c0 183 -97 324 -273 324s-273 -141 -273 -324c0 -160 89 -278 211 -354v-16h-217v18h185c-108 69 -199 191 -199 352c0 191 105 342 293 342z" />
    <glyph glyph-name="AE" unicode="&#xc6;" horiz-adv-x="854" 
d="M432 700h363v-18h-332v-311h297v-18h-297v-335h341v-18h-361v210h-268l-120 -210h-25zM443 228v451l-258 -451h258z" />
    <glyph glyph-name="Eth" unicode="&#xd0;" horiz-adv-x="674" 
d="M309 0h-199v341h-90v18h90v341h199c187 0 310 -139 310 -350s-123 -350 -310 -350zM130 18h176c177 0 293 131 293 332s-116 332 -293 332h-176v-323h194v-18h-194v-323z" />
    <glyph glyph-name="ordfeminine" unicode="&#xaa;" horiz-adv-x="410" 
d="M50 442c0 73 63 117 132 117c61 0 111 -20 142 -41v65c0 69 -37 107 -121 107c-35 0 -85 -15 -121 -44l-12 14c41 32 91 48 135 48c88 0 139 -40 139 -122v-253h-20v33c-31 -21 -81 -41 -142 -41c-69 0 -132 44 -132 117zM181 343c54 0 102 15 143 42v114
c-41 27 -89 42 -143 42c-60 0 -111 -39 -111 -99s51 -99 111 -99z" />
    <glyph glyph-name="Hbar" unicode="&#x126;" horiz-adv-x="668" 
d="M88 0v559h-68v18h68v123h20v-123h452v123h20v-123h68v-18h-68v-559h-20v365h-452v-365h-20zM108 383h452v176h-452v-176z" />
    <glyph glyph-name="Ldot" unicode="&#x13f;" horiz-adv-x="512" 
d="M90 0v700h20v-682h382v-18h-402zM313 379c0 12 10 22 22 22s22 -10 22 -22s-10 -22 -22 -22s-22 10 -22 22z" />
    <glyph glyph-name="Lslash" unicode="&#x141;" horiz-adv-x="515" 
d="M96 332v368h20v-354l302 203l11 -16l-313 -211v-304h379v-18h-399v308l-96 -64l-10 17z" />
    <glyph glyph-name="Oslash" unicode="&#xd8;" horiz-adv-x="696" 
d="M71 -26l73 104c-57 65 -89 161 -89 272c0 206 111 362 293 362c77 0 141 -28 190 -76l71 101l17 -10l-75 -105c58 -66 90 -162 90 -272c0 -206 -111 -362 -293 -362c-77 0 -141 28 -190 75l-70 -99zM75 350c0 -104 28 -194 81 -256l371 527c-45 46 -106 73 -179 73
c-171 0 -273 -148 -273 -344zM621 350c0 104 -29 194 -81 256l-371 -527c46 -46 106 -73 179 -73c172 0 273 148 273 344z" />
    <glyph glyph-name="OE" unicode="&#x152;" horiz-adv-x="814" 
d="M55 350c0 219 138 350 341 350h359v-18h-332v-311h297v-18h-297v-335h341v-18h-368c-203 0 -341 131 -341 350zM403 18v664h-7c-192 0 -321 -124 -321 -332s129 -332 321 -332h7z" />
    <glyph glyph-name="ordmasculine" unicode="&#xba;" horiz-adv-x="410" 
d="M38 517c0 109 69 191 167 191s167 -82 167 -191s-69 -191 -167 -191s-167 82 -167 191zM58 517c0 -108 66 -173 147 -173s147 65 147 173s-66 173 -147 173s-147 -65 -147 -173z" />
    <glyph glyph-name="Thorn" unicode="&#xde;" horiz-adv-x="564" 
d="M110 562h159c161 0 250 -74 250 -206s-89 -206 -250 -206h-159v-150h-20v700h20v-138zM263 544h-153v-376h153c149 0 236 63 236 188s-87 188 -236 188z" />
    <glyph glyph-name="Tbar" unicode="&#x166;" horiz-adv-x="522" 
d="M447 361v-18h-176v-343h-20v343h-175v18h175v321h-236v18h492v-18h-236v-321h176z" />
    <glyph glyph-name="Eng" unicode="&#x14a;" horiz-adv-x="678" 
d="M90 0v700h20l458 -667v667h20v-789c0 -110 -50 -135 -126 -135c-9 0 -23 1 -31 2v18c9 -1 25 -2 34 -2c57 0 103 14 103 119v87l-458 666v-666h-20z" />
    <glyph glyph-name="onehalf" unicode="&#xbd;" horiz-adv-x="950" 
d="M204 678l-98 -75l-11 16l109 82h20v-464h-20v441zM880 0h-264v20c67 56 133 122 189 195c39 51 51 95 51 131c0 71 -47 107 -110 107c-49 0 -94 -21 -126 -54l-14 11c33 35 85 61 139 61c81 0 131 -50 131 -124c0 -40 -11 -84 -56 -144c-57 -76 -124 -140 -176 -183h236
v-20zM282 -12l-16 11l402 716l16 -11z" />
    <glyph glyph-name="onethird" unicode="&#x2153;" horiz-adv-x="950" 
d="M204 678l-98 -75l-11 16l109 82h20v-464h-20v441zM282 -12l-16 11l402 716l16 -11zM751 10c82 0 116 53 116 105c0 75 -51 118 -154 118h-31v18h33c92 0 145 45 145 105c0 56 -32 97 -104 97c-35 0 -77 -14 -110 -48l-13 12c38 38 83 54 123 54c80 0 124 -50 124 -115
c0 -61 -48 -102 -101 -113c63 -14 108 -56 108 -128c0 -68 -46 -123 -136 -123c-51 0 -100 19 -138 62l14 13c32 -35 82 -57 124 -57z" />
    <glyph glyph-name="twothirds" unicode="&#x2154;" horiz-adv-x="950" 
d="M751 10c82 0 116 53 116 105c0 75 -51 118 -154 118h-31v18h33c92 0 145 45 145 105c0 56 -32 97 -104 97c-35 0 -77 -14 -110 -48l-13 12c38 38 83 54 123 54c80 0 124 -50 124 -115c0 -61 -48 -102 -101 -113c63 -14 108 -56 108 -128c0 -68 -46 -123 -136 -123
c-51 0 -100 19 -138 62l14 13c32 -35 82 -57 124 -57zM320 237h-264v20c67 56 133 122 189 195c39 51 51 95 51 131c0 71 -47 107 -110 107c-49 0 -94 -21 -126 -54l-14 11c33 35 85 61 139 61c81 0 131 -50 131 -124c0 -40 -11 -84 -56 -144c-57 -76 -124 -140 -176 -183
h236v-20zM282 -12l-16 11l402 716l16 -11z" />
    <glyph glyph-name="onequarter" unicode="&#xbc;" horiz-adv-x="950" 
d="M204 678l-98 -75l-11 16l109 82h20v-464h-20v441zM817 109h-240v18l239 336h21v-336h56v-18h-56v-109h-20v109zM817 432l-217 -305h217v305zM282 -12l-16 11l402 716l16 -11z" />
    <glyph glyph-name="threequarters" unicode="&#xbe;" horiz-adv-x="950" 
d="M202 247c82 0 116 53 116 105c0 75 -51 118 -154 118h-31v18h33c92 0 145 45 145 105c0 56 -32 97 -104 97c-35 0 -77 -14 -110 -48l-13 12c38 38 83 54 123 54c80 0 124 -50 124 -115c0 -61 -48 -102 -101 -113c63 -14 108 -56 108 -128c0 -68 -46 -123 -136 -123
c-51 0 -100 19 -138 62l14 13c32 -35 82 -57 124 -57zM282 -12l-16 11l402 716l16 -11zM817 109h-240v18l239 336h21v-336h56v-18h-56v-109h-20v109zM817 432l-217 -305h217v305z" />
    <glyph glyph-name="oneeighth" unicode="&#x215b;" horiz-adv-x="950" 
d="M204 678l-98 -75l-11 16l109 82h20v-464h-20v441zM282 -12l-16 11l402 716l16 -11zM887 360c0 -48 -17 -91 -68 -128c66 -31 88 -66 88 -115c0 -82 -63 -125 -151 -125c-90 0 -154 52 -154 128c0 60 31 111 90 143c-49 25 -70 54 -70 97c0 63 57 111 134 111
c79 0 131 -50 131 -111zM731 246c-7 2 -13 5 -19 8c-68 -34 -90 -85 -90 -134c0 -68 59 -110 134 -110c73 0 131 35 131 108c0 84 -98 105 -156 128zM784 247c5 -2 10 -4 14 -6c56 36 69 78 69 119c0 52 -43 93 -111 93c-75 0 -114 -44 -114 -93c0 -52 46 -77 142 -113z" />
    <glyph glyph-name="threeeighths" unicode="&#x215c;" horiz-adv-x="950" 
d="M191 247c82 0 116 53 116 105c0 75 -51 118 -154 118h-31v18h33c92 0 145 45 145 105c0 56 -32 97 -104 97c-35 0 -77 -14 -110 -48l-13 12c38 38 83 54 123 54c80 0 124 -50 124 -115c0 -61 -48 -102 -101 -113c63 -14 108 -56 108 -128c0 -68 -46 -123 -136 -123
c-51 0 -100 19 -138 62l14 13c32 -35 82 -57 124 -57zM282 -12l-16 11l402 716l16 -11zM887 360c0 -48 -17 -91 -68 -128c66 -31 88 -66 88 -115c0 -82 -63 -125 -151 -125c-90 0 -154 52 -154 128c0 60 31 111 90 143c-49 25 -70 54 -70 97c0 63 57 111 134 111
c79 0 131 -50 131 -111zM731 246c-7 2 -13 5 -19 8c-68 -34 -90 -85 -90 -134c0 -68 59 -110 134 -110c73 0 131 35 131 108c0 84 -98 105 -156 128zM784 247c5 -2 10 -4 14 -6c56 36 69 78 69 119c0 52 -43 93 -111 93c-75 0 -114 -44 -114 -93c0 -52 46 -77 142 -113z" />
    <glyph glyph-name="fiveeighths" unicode="&#x215d;" horiz-adv-x="950" 
d="M172 247c79 0 138 45 138 128c0 81 -57 128 -145 128c-32 0 -64 -7 -91 -19l-3 2v214h231v-18h-211v-176c21 10 51 15 76 15c92 0 163 -53 163 -146c0 -95 -65 -146 -158 -146c-44 0 -99 17 -135 53l13 13c34 -34 88 -48 122 -48zM282 -12l-16 11l402 716l16 -11z
M887 360c0 -48 -17 -91 -68 -128c66 -31 88 -66 88 -115c0 -82 -63 -125 -151 -125c-90 0 -154 52 -154 128c0 60 31 111 90 143c-49 25 -70 54 -70 97c0 63 57 111 134 111c79 0 131 -50 131 -111zM731 246c-7 2 -13 5 -19 8c-68 -34 -90 -85 -90 -134
c0 -68 59 -110 134 -110c73 0 131 35 131 108c0 84 -98 105 -156 128zM784 247c5 -2 10 -4 14 -6c56 36 69 78 69 119c0 52 -43 93 -111 93c-75 0 -114 -44 -114 -93c0 -52 46 -77 142 -113z" />
    <glyph glyph-name="seveneighths" unicode="&#x215e;" horiz-adv-x="950" 
d="M329 682l-190 -445h-22l191 445h-268v18h289v-18zM282 -12l-16 11l402 716l16 -11zM887 360c0 -48 -17 -91 -68 -128c66 -31 88 -66 88 -115c0 -82 -63 -125 -151 -125c-90 0 -154 52 -154 128c0 60 31 111 90 143c-49 25 -70 54 -70 97c0 63 57 111 134 111
c79 0 131 -50 131 -111zM731 246c-7 2 -13 5 -19 8c-68 -34 -90 -85 -90 -134c0 -68 59 -110 134 -110c73 0 131 35 131 108c0 84 -98 105 -156 128zM784 247c5 -2 10 -4 14 -6c56 36 69 78 69 119c0 52 -43 93 -111 93c-75 0 -114 -44 -114 -93c0 -52 46 -77 142 -113z" />
    <glyph glyph-name="ae" unicode="&#xe6;" horiz-adv-x="930" 
d="M894 252h-439c3 -135 87 -246 220 -246c73 0 138 31 178 85l16 -11c-44 -59 -111 -92 -194 -92c-93 0 -163 48 -202 118c-48 -67 -126 -118 -234 -118c-109 0 -189 63 -189 163s80 163 188 163c84 0 151 -30 197 -72v101c0 125 -63 169 -167 169c-67 0 -126 -25 -172 -62
l-14 14c51 40 117 66 186 66c107 0 179 -44 186 -161c31 98 115 161 210 161c129 0 230 -107 230 -260v-18zM237 296c-99 0 -167 -56 -167 -145s68 -145 167 -145c101 0 180 47 226 119c-14 30 -22 59 -26 93c-60 54 -125 78 -200 78zM455 270h419c0 144 -89 242 -210 242
c-115 0 -206 -100 -209 -242z" />
    <glyph glyph-name="dcroat" unicode="&#x111;" horiz-adv-x="562" 
d="M479 636h68v-18h-68v-618h-20v78c-52 -52 -121 -90 -197 -90c-132 0 -212 90 -212 271s80 271 212 271c76 0 145 -38 197 -90v178h-205v18h205v94h20v-94zM459 102v314c-44 50 -118 96 -190 96c-130 0 -199 -85 -199 -253s69 -253 199 -253c72 0 146 46 190 96z" />
    <glyph glyph-name="eth" unicode="&#xf0;" horiz-adv-x="555" 
d="M173 577l166 50c-43 37 -96 66 -162 83l2 20c75 -19 135 -52 182 -96l160 49l6 -18l-151 -46c70 -74 104 -176 104 -295c0 -214 -79 -336 -226 -336c-122 0 -204 92 -204 254c0 163 78 254 212 254c77 0 154 -48 193 -100c-11 86 -44 160 -100 216l-176 -53zM460 325
c0 13 0 25 -1 38c-51 73 -129 115 -197 115c-117 0 -192 -77 -192 -236c0 -140 66 -236 184 -236c135 0 206 116 206 319z" />
    <glyph glyph-name="hbar" unicode="&#x127;" horiz-adv-x="562" 
d="M15 636h68v94h20v-94h205v-18h-205v-189c49 53 126 101 207 101c117 0 177 -59 177 -190v-340h-20v333c0 124 -47 179 -158 179c-75 0 -152 -45 -206 -108v-404h-20v618h-68v18z" />
    <glyph glyph-name="dotlessi" unicode="&#x131;" horiz-adv-x="200" 
d="M90 0v518h20v-518h-20z" />
    <glyph glyph-name="kgreenlandic" unicode="&#x138;" horiz-adv-x="478" 
d="M100 518v-353l308 353h28l-182 -207l214 -311h-24l-204 296l-140 -159v-137h-20v518h20z" />
    <glyph glyph-name="ldot" unicode="&#x140;" horiz-adv-x="364" 
d="M100 0v730h20v-730h-20zM275 379c0 12 10 22 22 22s22 -10 22 -22s-10 -22 -22 -22s-22 10 -22 22z" />
    <glyph glyph-name="lslash" unicode="&#x142;" horiz-adv-x="325" 
d="M-10 272l162 120v338h20v-323l150 111l13 -16l-163 -121v-381h-20v366l-149 -110z" />
    <glyph glyph-name="oslash" unicode="&#xf8;" horiz-adv-x="566" 
d="M426 477l59 83l14 -10l-60 -84c48 -49 77 -121 77 -207c0 -158 -97 -271 -233 -271c-56 0 -106 19 -144 52l-58 -82l-14 10l59 84c-48 49 -76 121 -76 207c0 158 97 271 233 271c55 0 105 -20 143 -53zM496 259c0 80 -26 146 -68 191l-278 -394c36 -32 82 -50 133 -50
c121 0 213 101 213 253zM283 512c-121 0 -213 -101 -213 -253c0 -80 25 -146 67 -191l278 394c-36 32 -81 50 -132 50z" />
    <glyph glyph-name="oe" unicode="&#x153;" horiz-adv-x="991" 
d="M736 6c73 0 138 31 178 85l16 -11c-44 -59 -111 -92 -194 -92c-123 0 -205 82 -230 194c-25 -118 -113 -194 -223 -194c-136 0 -233 113 -233 271s97 271 233 271c110 0 197 -75 223 -193c26 118 114 193 219 193c129 0 230 -107 230 -260v-18h-439
c3 -135 87 -246 220 -246zM496 250v20c0 140 -95 242 -213 242c-121 0 -213 -101 -213 -253s92 -253 213 -253c118 0 209 97 213 244zM516 270h419c0 144 -89 242 -210 242c-115 0 -206 -100 -209 -242z" />
    <glyph glyph-name="germandbls" unicode="&#xdf;" horiz-adv-x="552" 
d="M189 22l10 17c33 -21 87 -33 115 -33c122 0 178 77 178 171c0 126 -99 193 -248 193v18c131 0 190 67 190 153c0 97 -67 153 -162 153c-108 0 -172 -62 -172 -215v-479h-20v478c0 157 66 234 194 234c101 0 180 -63 180 -171c0 -97 -61 -144 -138 -162
c106 -12 196 -78 196 -202c0 -110 -69 -189 -197 -189c-35 0 -96 15 -126 34z" />
    <glyph glyph-name="thorn" unicode="&#xfe;" horiz-adv-x="559" 
d="M100 419v-320c44 -50 118 -93 190 -93c130 0 199 85 199 253s-69 253 -199 253c-72 0 -146 -43 -190 -93zM100 730v-287c52 52 121 87 197 87c132 0 212 -90 212 -271s-80 -271 -212 -271c-76 0 -145 35 -197 87v-287h-20v942h20z" />
    <glyph glyph-name="tbar" unicode="&#x167;" horiz-adv-x="353" 
d="M160 307h146v-18h-146v-159c0 -105 55 -124 113 -124c15 0 34 1 46 2v-18c-11 -1 -29 -2 -43 -2c-79 0 -136 30 -136 140v161h-102v18h102v193h-120v18h120v155h20v-155h163v-18h-163v-193z" />
    <glyph glyph-name="eng" unicode="&#x14b;" horiz-adv-x="559" 
d="M306 512c-75 0 -152 -45 -206 -108v-404h-20v518h20v-89c49 53 126 101 207 101c117 0 177 -59 177 -190v-429c0 -110 -50 -135 -126 -135c-9 0 -23 1 -31 2v18c9 -1 25 -2 34 -2c57 0 103 14 103 119v420c0 124 -47 179 -158 179z" />
    <glyph glyph-name="napostrophe" unicode="&#x149;" horiz-adv-x="571" 
d="M76 735l19 -5l-85 -231l-19 5zM318 512c-75 0 -152 -45 -206 -108v-404h-20v518h20v-89c49 53 126 101 207 101c117 0 177 -59 177 -190v-340h-20v333c0 124 -47 179 -158 179z" />
    <glyph glyph-name="onesuperior" unicode="&#xb9;" 
d="M204 678l-98 -75l-11 16l109 82h20v-464h-20v441z" />
    <glyph glyph-name="twosuperior" unicode="&#xb2;" 
d="M320 237h-264v20c67 56 133 122 189 195c39 51 51 95 51 131c0 71 -47 107 -110 107c-49 0 -94 -21 -126 -54l-14 11c33 35 85 61 139 61c81 0 131 -50 131 -124c0 -40 -11 -84 -56 -144c-57 -76 -124 -140 -176 -183h236v-20z" />
    <glyph glyph-name="threesuperior" unicode="&#xb3;" 
d="M191 247c82 0 116 53 116 105c0 75 -51 118 -154 118h-31v18h33c92 0 145 45 145 105c0 56 -32 97 -104 97c-35 0 -77 -14 -110 -48l-13 12c38 38 83 54 123 54c80 0 124 -50 124 -115c0 -61 -48 -102 -101 -113c63 -14 108 -56 108 -128c0 -68 -46 -123 -136 -123
c-51 0 -100 19 -138 62l14 13c32 -35 82 -57 124 -57z" />
    <glyph glyph-name="foursuperior" unicode="&#x2074;" 
d="M277 346h-240v18l239 336h21v-336h56v-18h-56v-109h-20v109zM277 669l-217 -305h217v305z" />
    <glyph glyph-name="uni207F" unicode="&#x207f;" 
d="M212 559c-49 0 -102 -30 -134 -61v-261h-20v332h20v-50c38 35 88 58 135 58c86 0 113 -38 113 -128v-212h-20v208c0 85 -24 114 -94 114z" />
    <glyph glyph-name="oneinferior" unicode="&#x2081;" 
d="M204 315l-98 -75l-11 16l109 82h20v-464h-20v441z" />
    <glyph glyph-name="twoinferior" unicode="&#x2082;" 
d="M325 -126h-264v20c67 56 133 122 189 195c39 51 51 95 51 131c0 71 -47 107 -110 107c-49 0 -94 -21 -126 -54l-14 11c33 35 85 61 139 61c81 0 131 -50 131 -124c0 -40 -11 -84 -56 -144c-57 -76 -124 -140 -176 -183h236v-20z" />
    <glyph glyph-name="threeinferior" unicode="&#x2083;" 
d="M191 -116c82 0 116 53 116 105c0 75 -51 118 -154 118h-31v18h33c92 0 145 45 145 105c0 56 -32 97 -104 97c-35 0 -77 -14 -110 -48l-13 12c38 38 83 54 123 54c80 0 124 -50 124 -115c0 -61 -48 -102 -101 -113c63 -14 108 -56 108 -128c0 -68 -46 -123 -136 -123
c-51 0 -100 19 -138 62l14 13c32 -35 82 -57 124 -57z" />
    <glyph glyph-name="fourinferior" unicode="&#x2084;" 
d="M257 -17h-240v18l239 336h21v-336h56v-18h-56v-109h-20v109zM257 306l-217 -305h217v305z" />
    <glyph glyph-name="afii10017" unicode="&#x410;" horiz-adv-x="648" 
d="M313 700h22l283 -700h-22l-85 211h-374l-85 -211h-22zM324 678l-180 -449h360z" />
    <glyph glyph-name="afii10018" unicode="&#x411;" horiz-adv-x="540" 
d="M90 700h351v-18h-331v-292h174c140 0 216 -77 216 -195s-76 -195 -216 -195h-194v700zM480 195c0 104 -65 177 -203 177h-167v-354h167c138 0 203 73 203 177z" />
    <glyph glyph-name="afii10019" unicode="&#x412;" horiz-adv-x="606" 
d="M90 0v700h217c132 0 212 -70 212 -175c0 -85 -49 -145 -117 -160c91 -13 154 -74 154 -178c0 -117 -84 -187 -248 -187h-218zM110 373h241c88 0 148 63 148 152c0 95 -73 157 -198 157h-191v-309zM536 187c0 102 -68 168 -185 168h-241v-337h196c149 0 230 61 230 169z
" />
    <glyph glyph-name="afii10020" unicode="&#x413;" horiz-adv-x="508" 
d="M90 0v700h398v-18h-378v-682h-20z" />
    <glyph glyph-name="afii10021" unicode="&#x414;" horiz-adv-x="591" 
d="M561 18v-138h-20v120h-491v-120h-20v138h49c72 154 83 359 83 523v159h330v-682h69zM103 18h369v664h-291v-145c0 -166 -10 -350 -78 -519z" />
    <glyph glyph-name="afii10022" unicode="&#x415;" horiz-adv-x="554" 
d="M90 0v700h405v-18h-385v-311h350v-18h-350v-335h394v-18h-414z" />
    <glyph glyph-name="afii10023" unicode="&#x401;" horiz-adv-x="554" 
d="M90 0v700h405v-18h-385v-311h350v-18h-350v-335h394v-18h-414zM186 843c0 12 10 22 22 22s22 -10 22 -22s-10 -22 -22 -22s-22 10 -22 22zM360 843c0 12 10 22 22 22s22 -10 22 -22s-10 -22 -22 -22s-22 10 -22 22z" />
    <glyph glyph-name="afii10024" unicode="&#x416;" horiz-adv-x="890" 
d="M455 700v-495l356 495h27l-212 -293l244 -407h-25l-232 389l-158 -218v-171h-20v171l-159 218l-231 -389h-25l244 407l-212 293h27l356 -495v495h20z" />
    <glyph glyph-name="afii10025" unicode="&#x417;" horiz-adv-x="559" 
d="M475 175c0 107 -70 184 -218 184h-74v18h76c118 0 205 61 205 168c0 70 -48 149 -178 149c-76 0 -145 -33 -201 -96l-16 14c66 69 134 100 217 100c136 0 198 -79 198 -167c0 -100 -70 -164 -160 -177c108 -17 171 -85 171 -194c0 -105 -71 -187 -214 -187
c-92 0 -172 36 -234 105l16 13c59 -67 136 -100 218 -100c133 0 194 79 194 170z" />
    <glyph glyph-name="afii10026" unicode="&#x418;" horiz-adv-x="678" 
d="M588 700v-700h-20v666l-458 -666h-20v700h20v-667l458 667h20z" />
    <glyph glyph-name="afii10027" unicode="&#x419;" horiz-adv-x="678" 
d="M588 0v700h-20l-458 -667v667h-20v-700h20l458 666v-666h20zM339 783c-62 0 -119 41 -140 115l19 5c13 -54 57 -102 121 -102s108 48 121 102l19 -5c-21 -74 -78 -115 -140 -115z" />
    <glyph glyph-name="afii10028" unicode="&#x41a;" horiz-adv-x="585" 
d="M110 700v-508l397 508h26l-222 -283l254 -417h-24l-243 400l-188 -240v-160h-20v700h20z" />
    <glyph glyph-name="afii10029" unicode="&#x41b;" horiz-adv-x="702" 
d="M202 682v-541c0 -104 -33 -153 -137 -153c-16 0 -31 1 -45 3v18c17 -2 32 -3 48 -3c82 0 114 37 114 137v557h430v-700h-20v682h-390z" />
    <glyph glyph-name="afii10030" unicode="&#x41c;" horiz-adv-x="824" 
d="M734 700v-700h-20v663l-293 -504h-18l-293 504v-663h-20v700h20l302 -519l302 519h20z" />
    <glyph glyph-name="afii10031" unicode="&#x41d;" horiz-adv-x="672" 
d="M90 0v700h20v-317h452v317h20v-700h-20v365h-452v-365h-20z" />
    <glyph glyph-name="afii10032" unicode="&#x41e;" horiz-adv-x="696" 
d="M641 350c0 -206 -111 -362 -293 -362s-293 156 -293 362s111 362 293 362s293 -156 293 -362zM75 350c0 -196 102 -344 273 -344c172 0 273 148 273 344s-101 344 -273 344c-171 0 -273 -148 -273 -344z" />
    <glyph glyph-name="afii10033" unicode="&#x41f;" horiz-adv-x="677" 
d="M90 0v700h497v-700h-20v682h-457v-682h-20z" />
    <glyph glyph-name="afii10034" unicode="&#x420;" horiz-adv-x="564" 
d="M519 494c0 -132 -89 -206 -250 -206h-159v-288h-20v700h179c161 0 250 -74 250 -206zM499 494c0 125 -87 188 -236 188h-153v-376h153c149 0 236 63 236 188z" />
    <glyph glyph-name="afii10035" unicode="&#x421;" horiz-adv-x="672" 
d="M55 350c0 209 127 362 304 362c115 0 205 -45 267 -140l-17 -11c-61 92 -142 133 -250 133c-165 0 -284 -145 -284 -344s119 -344 284 -344c108 0 189 41 250 133l17 -11c-62 -95 -152 -140 -267 -140c-177 0 -304 153 -304 362z" />
    <glyph glyph-name="afii10036" unicode="&#x422;" horiz-adv-x="522" 
d="M251 0v682h-236v18h492v-18h-236v-682h-20z" />
    <glyph glyph-name="afii10037" unicode="&#x423;" horiz-adv-x="553" 
d="M289 250l217 450h22l-338 -700h-22l110 228l-253 472h22z" />
    <glyph glyph-name="afii10038" unicode="&#x424;" horiz-adv-x="694" 
d="M639 350c0 -150 -118 -242 -284 -245v-105h-20v105c-165 4 -280 96 -280 245c0 148 115 240 280 245v105h20v-105c166 -3 284 -96 284 -245zM619 350c0 138 -106 224 -264 227v-454c158 3 264 88 264 227zM75 350c0 -138 103 -223 260 -227v454
c-157 -4 -260 -90 -260 -227z" />
    <glyph glyph-name="afii10039" unicode="&#x425;" horiz-adv-x="563" 
d="M270 364l-225 336h23l213 -319l214 319h23l-225 -336l245 -364h-24l-233 347l-232 -347h-24z" />
    <glyph glyph-name="afii10040" unicode="&#x426;" horiz-adv-x="685" 
d="M586 18h69v-138h-20v120h-545v700h20v-682h456v682h20v-682z" />
    <glyph glyph-name="afii10041" unicode="&#x427;" horiz-adv-x="593" 
d="M483 700h20v-700h-20v310c-54 -34 -123 -55 -186 -55c-137 0 -212 80 -212 224v221h20v-219c0 -135 67 -208 192 -208c64 0 128 18 186 58v369z" />
    <glyph glyph-name="afii10042" unicode="&#x428;" horiz-adv-x="802" 
d="M90 0v700h20v-682h281v682h20v-682h281v682h20v-700h-622z" />
    <glyph glyph-name="afii10043" unicode="&#x429;" horiz-adv-x="811" 
d="M90 0v700h20v-682h281v682h20v-682h281v682h20v-682h69v-138h-20v120h-671z" />
    <glyph glyph-name="afii10044" unicode="&#x42a;" horiz-adv-x="630" 
d="M20 700h180v-310h174c140 0 216 -77 216 -195s-76 -195 -216 -195h-194v682h-160v18zM570 195c0 104 -65 177 -203 177h-167v-354h167c138 0 203 73 203 177z" />
    <glyph glyph-name="afii10045" unicode="&#x42b;" horiz-adv-x="718" 
d="M608 700h20v-700h-20v700zM90 700h20v-310h174c140 0 216 -77 216 -195s-76 -195 -216 -195h-194v700zM480 195c0 104 -65 177 -203 177h-167v-354h167c138 0 203 73 203 177z" />
    <glyph glyph-name="afii10046" unicode="&#x42c;" horiz-adv-x="540" 
d="M90 700h20v-310h174c140 0 216 -77 216 -195s-76 -195 -216 -195h-194v700zM480 195c0 104 -65 177 -203 177h-167v-354h167c138 0 203 73 203 177z" />
    <glyph glyph-name="afii10047" unicode="&#x42d;" horiz-adv-x="672" 
d="M617 350c0 -209 -127 -362 -304 -362c-115 0 -205 45 -267 140l17 11c61 -92 142 -133 250 -133c163 0 281 140 284 335h-382v18h382c-3 194 -121 335 -284 335c-108 0 -189 -41 -250 -133l-17 11c62 95 152 140 267 140c177 0 304 -153 304 -362z" />
    <glyph glyph-name="afii10048" unicode="&#x42e;" horiz-adv-x="785" 
d="M90 700h20v-341h124c2 212 98 353 248 353c152 0 248 -145 248 -362s-96 -362 -248 -362c-150 0 -246 141 -248 353h-124v-341h-20v700zM254 350c0 -208 86 -344 228 -344s228 136 228 344s-86 344 -228 344s-228 -136 -228 -344z" />
    <glyph glyph-name="afii10049" unicode="&#x42f;" horiz-adv-x="582" 
d="M60 509c0 113 87 191 246 191h186v-700h-20v318h-161c-24 0 -46 2 -67 5l-201 -323h-23l204 326c-105 23 -164 89 -164 183zM80 509c0 -105 82 -173 231 -173h161v346h-161c-149 0 -231 -66 -231 -173z" />
    <glyph glyph-name="afii10065" unicode="&#x430;" horiz-adv-x="530" 
d="M435 242v101c0 125 -63 169 -167 169c-67 0 -126 -25 -172 -62l-14 14c51 40 117 66 186 66c115 0 187 -49 187 -182v-348h-20v60c-46 -42 -113 -72 -197 -72c-108 0 -188 63 -188 163s80 163 188 163c84 0 151 -30 197 -72zM237 6c75 0 140 25 198 76v138
c-58 51 -123 76 -198 76c-99 0 -167 -56 -167 -145s68 -145 167 -145z" />
    <glyph glyph-name="afii10066" unicode="&#x431;" horiz-adv-x="530" 
d="M470 722c-196 -18 -352 -91 -384 -309c46 49 120 83 185 83c133 0 209 -91 209 -254c0 -162 -83 -254 -199 -254c-151 0 -221 130 -221 336c0 244 116 393 414 418zM271 478c-64 0 -137 -33 -188 -91c-2 -19 -3 -40 -3 -62c0 -223 82 -319 201 -319c112 0 179 96 179 236
c0 159 -72 236 -189 236z" />
    <glyph glyph-name="afii10067" unicode="&#x432;" horiz-adv-x="497" 
d="M247 0h-167v518h173c118 0 167 -51 167 -129c0 -54 -27 -104 -102 -119c80 -6 129 -55 129 -131c0 -75 -53 -139 -200 -139zM400 389c0 68 -38 111 -154 111h-146v-222h159c117 0 141 63 141 111zM427 137c0 67 -31 123 -169 123h-158v-242h150c127 0 177 53 177 119z
" />
    <glyph glyph-name="afii10068" unicode="&#x433;" horiz-adv-x="418" 
d="M408 500h-308v-500h-20v518h328v-18z" />
    <glyph glyph-name="afii10069" unicode="&#x434;" horiz-adv-x="536" 
d="M506 18v-128h-20v110h-436v-110h-20v128h49c56 116 74 253 74 374v126h284v-500h69zM101 18h316v482h-244v-104c0 -118 -17 -258 -72 -378z" />
    <glyph glyph-name="afii10070" unicode="&#x435;" horiz-adv-x="545" 
d="M290 6c73 0 138 31 178 85l16 -11c-44 -59 -111 -92 -194 -92c-154 0 -240 128 -240 273c0 157 100 269 229 269s230 -107 230 -260v-18h-439c3 -135 87 -246 220 -246zM70 270h419c0 144 -89 242 -210 242c-115 0 -206 -100 -209 -242z" />
    <glyph glyph-name="afii10071" unicode="&#x451;" horiz-adv-x="545" 
d="M290 6c-133 0 -217 111 -220 246h439v18c0 153 -101 260 -230 260s-229 -112 -229 -269c0 -145 86 -273 240 -273c83 0 150 33 194 92l-16 11c-40 -54 -105 -85 -178 -85zM489 270h-419c3 142 94 242 209 242c121 0 210 -98 210 -242zM173 669c0 12 10 22 22 22
s22 -10 22 -22s-10 -22 -22 -22s-22 10 -22 22zM347 669c0 12 10 22 22 22s22 -10 22 -22s-10 -22 -22 -22s-22 10 -22 22z" />
    <glyph glyph-name="afii10072" unicode="&#x436;" horiz-adv-x="734" 
d="M377 518v-352l287 352h28l-176 -213l208 -305h-24l-197 289l-126 -152v-137h-20v137l-126 152l-197 -289h-24l208 305l-176 213h28l287 -352v352h20z" />
    <glyph glyph-name="afii10073" unicode="&#x437;" horiz-adv-x="469" 
d="M414 134c0 -86 -80 -146 -190 -146c-69 0 -145 27 -199 76l14 14c53 -48 126 -72 188 -72c100 0 167 62 167 128c0 85 -95 131 -201 131h-56v18h53c111 0 186 46 186 123c0 66 -64 106 -151 106c-56 0 -114 -21 -157 -57l-14 14c46 37 106 61 169 61
c100 0 173 -47 173 -124c0 -63 -45 -118 -144 -133c97 -13 162 -60 162 -139z" />
    <glyph glyph-name="afii10074" unicode="&#x438;" horiz-adv-x="572" 
d="M492 0h-20v486l-372 -486h-20v518h20v-486l372 486h20v-518z" />
    <glyph glyph-name="afii10075" unicode="&#x439;" horiz-adv-x="572" 
d="M492 0h-20v486l-372 -486h-20v518h20v-486l372 486h20v-518zM286 611c-62 0 -119 41 -140 115l19 5c13 -54 57 -102 121 -102s108 48 121 102l19 -5c-21 -74 -78 -115 -140 -115z" />
    <glyph glyph-name="afii10076" unicode="&#x43a;" horiz-adv-x="478" 
d="M100 518v-353l308 353h28l-182 -207l214 -311h-24l-204 296l-140 -159v-137h-20v518h20z" />
    <glyph glyph-name="afii10077" unicode="&#x43b;" horiz-adv-x="576" 
d="M10 -10v19c16 -2 28 -3 41 -3c70 0 102 34 102 134v378h343v-518h-20v500h-303v-365c0 -105 -35 -147 -123 -147c-15 0 -29 1 -40 2z" />
    <glyph glyph-name="afii10078" unicode="&#x43c;" horiz-adv-x="668" 
d="M100 0h-20v518h20l234 -361l234 361h20v-518h-20v480l-225 -347h-18l-225 348v-481z" />
    <glyph glyph-name="afii10079" unicode="&#x43d;" horiz-adv-x="554" 
d="M100 291h354v227h20v-518h-20v273h-354v-273h-20v518h20v-227z" />
    <glyph glyph-name="afii10080" unicode="&#x43e;" horiz-adv-x="566" 
d="M516 259c0 -158 -97 -271 -233 -271s-233 113 -233 271s97 271 233 271s233 -113 233 -271zM496 259c0 152 -92 253 -213 253s-213 -101 -213 -253s92 -253 213 -253s213 101 213 253z" />
    <glyph glyph-name="afii10081" unicode="&#x43f;" horiz-adv-x="539" 
d="M80 0v518h379v-518h-20v500h-339v-500h-20z" />
    <glyph glyph-name="afii10082" unicode="&#x440;" horiz-adv-x="559" 
d="M100 419v-320c44 -50 118 -93 190 -93c130 0 199 85 199 253s-69 253 -199 253c-72 0 -146 -43 -190 -93zM100 518v-75c52 52 121 87 197 87c132 0 212 -90 212 -271s-80 -271 -212 -271c-76 0 -145 35 -197 87v-287h-20v730h20z" />
    <glyph glyph-name="afii10083" unicode="&#x441;" horiz-adv-x="535" 
d="M50 259c0 170 109 271 238 271c88 0 158 -37 202 -104l-16 -10c-43 63 -108 96 -186 96c-116 0 -218 -91 -218 -253s102 -253 218 -253c78 0 143 33 186 96l16 -10c-44 -67 -114 -104 -202 -104c-129 0 -238 101 -238 271z" />
    <glyph glyph-name="afii10084" unicode="&#x442;" horiz-adv-x="464" 
d="M222 0v500h-207v18h434v-18h-207v-500h-20z" />
    <glyph glyph-name="afii10085" unicode="&#x443;" horiz-adv-x="485" 
d="M247 33l191 485h22l-287 -730h-22l86 218l-212 512h22z" />
    <glyph glyph-name="afii10086" unicode="&#x444;" horiz-adv-x="872" 
d="M426 -212v283c-48 -53 -103 -83 -177 -83c-130 0 -199 94 -199 271s69 271 199 271c74 0 129 -31 177 -84v284h20v-284c48 53 102 84 177 84c130 0 199 -94 199 -271s-69 -271 -199 -271c-75 0 -129 30 -177 83v-283h-20zM616 512c-71 0 -127 -39 -170 -90v-327
c43 -51 99 -89 170 -89c130 0 186 89 186 253s-56 253 -186 253zM256 6c70 0 126 38 170 89v327c-44 51 -100 90 -170 90c-130 0 -186 -89 -186 -253s56 -253 186 -253z" />
    <glyph glyph-name="afii10087" unicode="&#x445;" horiz-adv-x="458" 
d="M413 0l-184 257l-184 -257h-25l197 274l-175 244h24l163 -228l163 228h24l-175 -244l197 -274h-25z" />
    <glyph glyph-name="afii10088" unicode="&#x446;" horiz-adv-x="558" 
d="M459 18h69v-128h-20v110h-428v518h20v-500h339v500h20v-500z" />
    <glyph glyph-name="afii10089" unicode="&#x447;" horiz-adv-x="565" 
d="M260 218c69 0 157 42 205 96v204h20v-518h-20v290c-51 -51 -138 -90 -210 -90c-117 0 -180 59 -180 190v128h20v-121c0 -124 50 -179 165 -179z" />
    <glyph glyph-name="afii10090" unicode="&#x448;" horiz-adv-x="676" 
d="M348 18h228v500h20v-518h-516v518h20v-500h228v500h20v-500z" />
    <glyph glyph-name="afii10091" unicode="&#x449;" horiz-adv-x="695" 
d="M596 18h69v-128h-20v110h-565v518h20v-500h228v500h20v-500h228v500h20v-500z" />
    <glyph glyph-name="afii10092" unicode="&#x44a;" horiz-adv-x="538" 
d="M306 0h-146v500h-150v18h170v-210h126c137 0 192 -69 192 -154s-55 -154 -192 -154zM478 154c0 75 -43 136 -178 136h-120v-272h120c135 0 178 61 178 136z" />
    <glyph glyph-name="afii10093" unicode="&#x44b;" horiz-adv-x="615" 
d="M535 0h-19v518h19v-518zM80 0h146c137 0 192 69 192 154s-55 154 -192 154h-126v210h-20v-518zM398 154c0 -75 -43 -136 -178 -136h-120v272h120c135 0 178 -61 178 -136z" />
    <glyph glyph-name="afii10094" unicode="&#x44c;" horiz-adv-x="458" 
d="M226 0h-146v518h20v-210h126c137 0 192 -69 192 -154s-55 -154 -192 -154zM398 154c0 75 -43 136 -178 136h-120v-272h120c135 0 178 61 178 136z" />
    <glyph glyph-name="afii10095" unicode="&#x44d;" horiz-adv-x="535" 
d="M485 259c0 -170 -109 -271 -238 -271c-88 0 -158 37 -202 104l16 10c43 -63 108 -96 186 -96c114 0 215 87 218 244h-282v18h282c-3 156 -104 244 -218 244c-78 0 -143 -33 -186 -96l-16 10c44 67 114 104 202 104c129 0 238 -101 238 -271z" />
    <glyph glyph-name="afii10096" unicode="&#x44e;" horiz-adv-x="691" 
d="M99 0h-19v518h19v-250h120c3 156 84 262 211 262c129 0 211 -110 211 -271s-82 -271 -211 -271c-127 0 -208 106 -211 262h-120v-250zM239 259c0 -153 77 -253 191 -253s191 100 191 253s-77 253 -191 253s-191 -100 -191 -253z" />
    <glyph glyph-name="afii10097" unicode="&#x44f;" horiz-adv-x="511" 
d="M207 236l-152 -236h-25l154 239c-84 16 -124 70 -124 137c0 81 58 142 182 142h189v-518h-20v234h-169c-13 0 -24 1 -35 2zM248 252h163v248h-163c-123 0 -168 -57 -168 -124s45 -124 168 -124z" />
    <glyph glyph-name="AEacute" unicode="&#x1fc;" horiz-adv-x="854" 
d="M432 700h363v-18h-332v-311h297v-18h-297v-335h341v-18h-361v210h-268l-120 -210h-25zM443 228v451l-258 -451h258zM614 918l16 -13l-145 -141l-15 12z" />
    <glyph glyph-name="Aacute" unicode="&#xc1;" horiz-adv-x="648" 
d="M313 700h22l283 -700h-22l-85 211h-374l-85 -211h-22zM324 678l-180 -449h360zM433 918l16 -13l-145 -141l-15 12z" />
    <glyph glyph-name="Abreve" unicode="&#x102;" horiz-adv-x="648" 
d="M313 700h22l283 -700h-22l-85 211h-374l-85 -211h-22zM324 678l-180 -449h360zM324 783c-62 0 -119 41 -140 115l19 5c13 -54 57 -102 121 -102s108 48 121 102l19 -5c-21 -74 -78 -115 -140 -115z" />
    <glyph glyph-name="Acircumflex" unicode="&#xc2;" horiz-adv-x="648" 
d="M313 700h22l283 -700h-22l-85 211h-374l-85 -211h-22zM324 678l-180 -449h360zM317 924h14l146 -162l-14 -12l-139 156l-139 -156l-14 12z" />
    <glyph glyph-name="Adieresis" unicode="&#xc4;" horiz-adv-x="648" 
d="M313 700h22l283 -700h-22l-85 211h-374l-85 -211h-22zM324 678l-180 -449h360zM215 843c0 12 10 22 22 22s22 -10 22 -22s-10 -22 -22 -22s-22 10 -22 22zM389 843c0 12 10 22 22 22s22 -10 22 -22s-10 -22 -22 -22s-22 10 -22 22z" />
    <glyph glyph-name="Agrave" unicode="&#xc0;" horiz-adv-x="648" 
d="M313 700h22l283 -700h-22l-85 211h-374l-85 -211h-22zM324 678l-180 -449h360zM199 905l16 13l144 -142l-15 -12z" />
    <glyph glyph-name="Amacron" unicode="&#x100;" horiz-adv-x="648" 
d="M313 700h22l283 -700h-22l-85 211h-374l-85 -211h-22zM324 678l-180 -449h360zM188 834v18h272v-18h-272z" />
    <glyph glyph-name="Aogonek" unicode="&#x104;" horiz-adv-x="633" 
d="M313 700h22l283 -700c-55 -39 -79 -80 -79 -123c0 -45 30 -78 75 -78c30 0 56 14 76 34l12 -14c-22 -22 -50 -38 -89 -38c-57 0 -94 44 -94 95c0 45 24 89 76 125l-84 210h-374l-85 -211h-22zM324 678l-180 -449h360z" />
    <glyph glyph-name="Aring" unicode="&#xc5;" horiz-adv-x="648" 
d="M313 700h22l283 -700h-22l-85 211h-374l-85 -211h-22zM324 678l-180 -449h360zM239 843c0 47 38 83 85 83s85 -36 85 -83s-38 -83 -85 -83s-85 36 -85 83zM259 843c0 -36 29 -65 65 -65s65 29 65 65s-29 65 -65 65s-65 -29 -65 -65z" />
    <glyph glyph-name="Aringacute" unicode="&#x1fa;" horiz-adv-x="648" 
d="M239 749c0 47 38 83 85 83s85 -36 85 -83c0 -39 -26 -70 -61 -80l270 -669h-22l-85 211h-374l-85 -211h-22l270 669c-35 10 -61 41 -61 80zM329 666h-10l-175 -437h360zM259 749c0 -36 29 -65 65 -65s65 29 65 65s-29 65 -65 65s-65 -29 -65 -65zM411 989l13 -15
l-133 -95l-13 15z" />
    <glyph glyph-name="Atilde" unicode="&#xc3;" horiz-adv-x="648" 
d="M313 700h22l283 -700h-22l-85 211h-374l-85 -211h-22zM324 678l-180 -449h360zM319 834c-21 20 -39 34 -67 34c-31 0 -52 -27 -62 -59l-19 4c16 50 49 73 81 73c31 0 54 -15 77 -36c21 -20 39 -34 67 -34c31 0 52 27 62 59l19 -4c-16 -50 -49 -73 -81 -73
c-31 0 -54 15 -77 36z" />
    <glyph glyph-name="Cacute" unicode="&#x106;" horiz-adv-x="672" 
d="M55 350c0 209 127 362 304 362c115 0 205 -45 267 -140l-17 -11c-61 92 -142 133 -250 133c-165 0 -284 -145 -284 -344s119 -344 284 -344c108 0 189 41 250 133l17 -11c-62 -95 -152 -140 -267 -140c-177 0 -304 153 -304 362zM460 918l16 -13l-145 -141l-15 12z" />
    <glyph glyph-name="Ccaron" unicode="&#x10c;" horiz-adv-x="672" 
d="M55 350c0 209 127 362 304 362c115 0 205 -45 267 -140l-17 -11c-61 92 -142 133 -250 133c-165 0 -284 -145 -284 -344s119 -344 284 -344c108 0 189 41 250 133l17 -11c-62 -95 -152 -140 -267 -140c-177 0 -304 153 -304 362zM376 762h-14l-146 162l14 12l139 -156
l139 156l14 -12z" />
    <glyph glyph-name="Ccedilla" unicode="&#xc7;" horiz-adv-x="672" 
d="M55 350c0 209 127 362 304 362c115 0 205 -45 267 -140l-17 -11c-61 92 -142 133 -250 133c-165 0 -284 -145 -284 -344s119 -344 284 -344c108 0 189 41 250 133l17 -11c-58 -88 -139 -132 -240 -139l-27 -58c70 -10 101 -45 101 -92c0 -39 -32 -77 -96 -77
c-28 0 -57 10 -80 28l12 14c19 -16 43 -24 67 -24c53 0 77 30 77 59c0 43 -31 72 -108 78l34 71h-7c-177 0 -304 153 -304 362z" />
    <glyph glyph-name="Ccircumflex" unicode="&#x108;" horiz-adv-x="672" 
d="M55 350c0 209 127 362 304 362c115 0 205 -45 267 -140l-17 -11c-61 92 -142 133 -250 133c-165 0 -284 -145 -284 -344s119 -344 284 -344c108 0 189 41 250 133l17 -11c-62 -95 -152 -140 -267 -140c-177 0 -304 153 -304 362zM367 924h14l146 -162l-14 -12l-139 156
l-139 -156l-14 12z" />
    <glyph glyph-name="Cdotaccent" unicode="&#x10a;" horiz-adv-x="672" 
d="M55 350c0 209 127 362 304 362c115 0 205 -45 267 -140l-17 -11c-61 92 -142 133 -250 133c-165 0 -284 -145 -284 -344s119 -344 284 -344c108 0 189 41 250 133l17 -11c-62 -95 -152 -140 -267 -140c-177 0 -304 153 -304 362zM341 843c0 12 10 22 22 22s22 -10 22 -22
s-10 -22 -22 -22s-22 10 -22 22z" />
    <glyph glyph-name="Dcaron" unicode="&#x10e;" horiz-adv-x="654" 
d="M110 18h176c177 0 293 131 293 332s-116 332 -293 332h-176v-664zM289 0h-199v700h199c187 0 310 -139 310 -350s-123 -350 -310 -350zM297 762h-14l-146 162l14 12l139 -156l139 156l14 -12z" />
    <glyph glyph-name="Dcroat" unicode="&#x110;" horiz-adv-x="674" 
d="M309 0h-199v341h-90v18h90v341h199c187 0 310 -139 310 -350s-123 -350 -310 -350zM130 18h176c177 0 293 131 293 332s-116 332 -293 332h-176v-323h194v-18h-194v-323z" />
    <glyph glyph-name="Eacute" unicode="&#xc9;" horiz-adv-x="554" 
d="M90 0v700h405v-18h-385v-311h350v-18h-350v-335h394v-18h-414zM384 918l16 -13l-145 -141l-15 12z" />
    <glyph glyph-name="Ebreve" unicode="&#x114;" horiz-adv-x="554" 
d="M90 0v700h405v-18h-385v-311h350v-18h-350v-335h394v-18h-414zM291 783c-62 0 -119 41 -140 115l19 5c13 -54 57 -102 121 -102s108 48 121 102l19 -5c-21 -74 -78 -115 -140 -115z" />
    <glyph glyph-name="Ecaron" unicode="&#x11a;" horiz-adv-x="554" 
d="M90 0v700h405v-18h-385v-311h350v-18h-350v-335h394v-18h-414zM304 762h-14l-146 162l14 12l139 -156l139 156l14 -12z" />
    <glyph glyph-name="Ecircumflex" unicode="&#xca;" horiz-adv-x="554" 
d="M90 0v700h405v-18h-385v-311h350v-18h-350v-335h394v-18h-414zM289 924h14l146 -162l-14 -12l-139 156l-139 -156l-14 12z" />
    <glyph glyph-name="Edieresis" unicode="&#xcb;" horiz-adv-x="554" 
d="M90 0v700h405v-18h-385v-311h350v-18h-350v-335h394v-18h-414zM186 843c0 12 10 22 22 22s22 -10 22 -22s-10 -22 -22 -22s-22 10 -22 22zM360 843c0 12 10 22 22 22s22 -10 22 -22s-10 -22 -22 -22s-22 10 -22 22z" />
    <glyph glyph-name="Edotaccent" unicode="&#x116;" horiz-adv-x="554" 
d="M90 0v700h405v-18h-385v-311h350v-18h-350v-335h394v-18h-414zM276 843c0 12 10 22 22 22s22 -10 22 -22s-10 -22 -22 -22s-22 10 -22 22z" />
    <glyph glyph-name="Egrave" unicode="&#xc8;" horiz-adv-x="554" 
d="M90 0v700h405v-18h-385v-311h350v-18h-350v-335h394v-18h-414zM196 905l16 13l144 -142l-15 -12z" />
    <glyph glyph-name="Emacron" unicode="&#x112;" horiz-adv-x="554" 
d="M90 0v700h405v-18h-385v-311h350v-18h-350v-335h394v-18h-414zM158 834v18h272v-18h-272z" />
    <glyph glyph-name="Eogonek" unicode="&#x118;" horiz-adv-x="554" 
d="M90 0v700h405v-18h-385v-311h350v-18h-350v-335h394v-18h-77c-55 -39 -79 -80 -79 -123c0 -45 30 -78 75 -78c30 0 56 14 76 34l12 -14c-22 -22 -50 -38 -89 -38c-57 0 -94 44 -94 95c0 44 25 89 75 124h-313z" />
    <glyph glyph-name="Gbreve" unicode="&#x11e;" horiz-adv-x="693" 
d="M55 350c0 209 124 362 306 362c111 0 196 -41 259 -133l-17 -11c-60 85 -137 126 -242 126c-170 0 -286 -145 -286 -344c0 -191 105 -344 300 -344c80 0 179 37 228 98v227h-218v18h238v-253c-60 -74 -165 -108 -248 -108c-211 0 -320 163 -320 362zM361 783
c-62 0 -119 41 -140 115l19 5c13 -54 57 -102 121 -102s108 48 121 102l19 -5c-21 -74 -78 -115 -140 -115z" />
    <glyph glyph-name="Gcircumflex" unicode="&#x11c;" horiz-adv-x="693" 
d="M55 350c0 209 124 362 306 362c111 0 196 -41 259 -133l-17 -11c-60 85 -137 126 -242 126c-170 0 -286 -145 -286 -344c0 -191 105 -344 300 -344c80 0 179 37 228 98v227h-218v18h238v-253c-60 -74 -165 -108 -248 -108c-211 0 -320 163 -320 362zM349 924h14l146 -162
l-14 -12l-139 156l-139 -156l-14 12z" />
    <glyph glyph-name="Gcommaaccent" unicode="&#x122;" horiz-adv-x="693" 
d="M55 350c0 209 124 362 306 362c111 0 196 -41 259 -133l-17 -11c-60 85 -137 126 -242 126c-170 0 -286 -145 -286 -344c0 -191 105 -344 300 -344c80 0 179 37 228 98v227h-218v18h238v-253c-60 -74 -165 -108 -248 -108c-211 0 -320 163 -320 362zM376 -60l19 -6
l-63 -183l-19 6z" />
    <glyph glyph-name="Gdotaccent" unicode="&#x120;" horiz-adv-x="693" 
d="M55 350c0 209 124 362 306 362c111 0 196 -41 259 -133l-17 -11c-60 85 -137 126 -242 126c-170 0 -286 -145 -286 -344c0 -191 105 -344 300 -344c80 0 179 37 228 98v227h-218v18h238v-253c-60 -74 -165 -108 -248 -108c-211 0 -320 163 -320 362zM339 843
c0 12 10 22 22 22s22 -10 22 -22s-10 -22 -22 -22s-22 10 -22 22z" />
    <glyph glyph-name="Hcircumflex" unicode="&#x124;" horiz-adv-x="672" 
d="M90 0v700h20v-317h452v317h20v-700h-20v365h-452v-365h-20zM329 924h14l146 -162l-14 -12l-139 156l-139 -156l-14 12z" />
    <glyph glyph-name="Iacute" unicode="&#xcd;" horiz-adv-x="210" 
d="M95 700h20v-700h-20v700zM240 918l16 -13l-145 -141l-15 12z" />
    <glyph glyph-name="Ibreve" unicode="&#x12c;" horiz-adv-x="210" 
d="M95 700h20v-700h-20v700zM105 783c-62 0 -119 41 -140 115l19 5c13 -54 57 -102 121 -102s108 48 121 102l19 -5c-21 -74 -78 -115 -140 -115z" />
    <glyph glyph-name="Icircumflex" unicode="&#xce;" horiz-adv-x="210" 
d="M95 700h20v-700h-20v700zM98 924h14l146 -162l-14 -12l-139 156l-139 -156l-14 12z" />
    <glyph glyph-name="Idieresis" unicode="&#xcf;" horiz-adv-x="210" 
d="M95 700h20v-700h-20v700zM-4 843c0 12 10 22 22 22s22 -10 22 -22s-10 -22 -22 -22s-22 10 -22 22zM170 843c0 12 10 22 22 22s22 -10 22 -22s-10 -22 -22 -22s-22 10 -22 22z" />
    <glyph glyph-name="Idotaccent" unicode="&#x130;" horiz-adv-x="210" 
d="M95 700h20v-700h-20v700zM83 843c0 12 10 22 22 22s22 -10 22 -22s-10 -22 -22 -22s-22 10 -22 22z" />
    <glyph glyph-name="Igrave" unicode="&#xcc;" horiz-adv-x="210" 
d="M95 700h20v-700h-20v700zM-46 905l16 13l144 -142l-15 -12z" />
    <glyph glyph-name="Imacron" unicode="&#x12a;" horiz-adv-x="210" 
d="M95 700h20v-700h-20v700zM-31 834v18h272v-18h-272z" />
    <glyph glyph-name="Iogonek" unicode="&#x12e;" horiz-adv-x="210" 
d="M95 700h20v-700c-56 -38 -79 -78 -79 -123s30 -78 75 -78c30 0 56 14 76 34l12 -14c-22 -22 -50 -38 -89 -38c-57 0 -94 44 -94 95c0 45 21 89 79 127v697z" />
    <glyph glyph-name="Itilde" unicode="&#x128;" horiz-adv-x="210" 
d="M95 700h20v-700h-20v700zM100 834c-21 20 -39 34 -67 34c-31 0 -52 -27 -62 -59l-19 4c16 50 49 73 81 73c31 0 54 -15 77 -36c21 -20 39 -34 67 -34c31 0 52 27 62 59l19 -4c-16 -50 -49 -73 -81 -73c-31 0 -54 15 -77 36z" />
    <glyph glyph-name="Jcircumflex" unicode="&#x134;" horiz-adv-x="526" 
d="M35 115l16 10c45 -79 109 -119 193 -119c95 0 172 71 172 208v486h20v-486c0 -162 -94 -226 -191 -226c-83 0 -156 34 -210 127zM419 924h14l146 -162l-14 -12l-139 156l-139 -156l-14 12z" />
    <glyph glyph-name="Kcommaaccent" unicode="&#x136;" horiz-adv-x="585" 
d="M110 700v-508l397 508h26l-222 -283l254 -417h-24l-243 400l-188 -240v-160h-20v700h20zM320 -60l19 -6l-63 -183l-19 6z" />
    <glyph glyph-name="Lacute" unicode="&#x139;" horiz-adv-x="512" 
d="M90 0v700h20v-682h382v-18h-402zM231 918l16 -13l-145 -141l-15 12z" />
    <glyph glyph-name="Lcaron" unicode="&#x13d;" horiz-adv-x="512" 
d="M90 0v700h20v-682h382v-18h-402zM417 735l19 -5l-85 -231l-19 5z" />
    <glyph glyph-name="Lcommaaccent" unicode="&#x13b;" horiz-adv-x="512" 
d="M90 0v700h20v-682h382v-18h-402zM289 -60l19 -6l-63 -183l-19 6z" />
    <glyph glyph-name="Nacute" unicode="&#x143;" horiz-adv-x="678" 
d="M90 0v700h20l458 -667v667h20v-700h-20l-458 666v-666h-20zM464 918l16 -13l-145 -141l-15 12z" />
    <glyph glyph-name="Ncaron" unicode="&#x147;" horiz-adv-x="678" 
d="M90 0v700h20l458 -667v667h20v-700h-20l-458 666v-666h-20zM346 762h-14l-146 162l14 12l139 -156l139 156l14 -12z" />
    <glyph glyph-name="Ncommaaccent" unicode="&#x145;" horiz-adv-x="678" 
d="M90 0v700h20l458 -667v667h20v-700h-20l-458 666v-666h-20zM351 -60l19 -6l-63 -183l-19 6z" />
    <glyph glyph-name="Ntilde" unicode="&#xd1;" horiz-adv-x="678" 
d="M90 0v700h20l458 -667v667h20v-700h-20l-458 666v-666h-20zM334 834c-21 20 -39 34 -67 34c-31 0 -52 -27 -62 -59l-19 4c16 50 49 73 81 73c31 0 54 -15 77 -36c21 -20 39 -34 67 -34c31 0 52 27 62 59l19 -4c-16 -50 -49 -73 -81 -73c-31 0 -54 15 -77 36z" />
    <glyph glyph-name="Oacute" unicode="&#xd3;" horiz-adv-x="696" 
d="M641 350c0 -206 -111 -362 -293 -362s-293 156 -293 362s111 362 293 362s293 -156 293 -362zM75 350c0 -196 102 -344 273 -344c172 0 273 148 273 344s-101 344 -273 344c-171 0 -273 -148 -273 -344zM429 918l16 -13l-145 -141l-15 12z" />
    <glyph glyph-name="Obreve" unicode="&#x14e;" horiz-adv-x="696" 
d="M641 350c0 -206 -111 -362 -293 -362s-293 156 -293 362s111 362 293 362s293 -156 293 -362zM75 350c0 -196 102 -344 273 -344c172 0 273 148 273 344s-101 344 -273 344c-171 0 -273 -148 -273 -344zM348 783c-62 0 -119 41 -140 115l19 5c13 -54 57 -102 121 -102
s108 48 121 102l19 -5c-21 -74 -78 -115 -140 -115z" />
    <glyph glyph-name="Ocircumflex" unicode="&#xd4;" horiz-adv-x="696" 
d="M641 350c0 -206 -111 -362 -293 -362s-293 156 -293 362s111 362 293 362s293 -156 293 -362zM75 350c0 -196 102 -344 273 -344c172 0 273 148 273 344s-101 344 -273 344c-171 0 -273 -148 -273 -344zM341 924h14l146 -162l-14 -12l-139 156l-139 -156l-14 12z" />
    <glyph glyph-name="Odieresis" unicode="&#xd6;" horiz-adv-x="696" 
d="M641 350c0 -206 -111 -362 -293 -362s-293 156 -293 362s111 362 293 362s293 -156 293 -362zM75 350c0 -196 102 -344 273 -344c172 0 273 148 273 344s-101 344 -273 344c-171 0 -273 -148 -273 -344zM239 843c0 12 10 22 22 22s22 -10 22 -22s-10 -22 -22 -22
s-22 10 -22 22zM413 843c0 12 10 22 22 22s22 -10 22 -22s-10 -22 -22 -22s-22 10 -22 22z" />
    <glyph glyph-name="Ograve" unicode="&#xd2;" horiz-adv-x="696" 
d="M641 350c0 -206 -111 -362 -293 -362s-293 156 -293 362s111 362 293 362s293 -156 293 -362zM75 350c0 -196 102 -344 273 -344c172 0 273 148 273 344s-101 344 -273 344c-171 0 -273 -148 -273 -344zM251 905l16 13l144 -142l-15 -12z" />
    <glyph glyph-name="Ohungarumlaut" unicode="&#x150;" horiz-adv-x="696" 
d="M641 350c0 -206 -111 -362 -293 -362s-293 156 -293 362s111 362 293 362s293 -156 293 -362zM75 350c0 -196 102 -344 273 -344c172 0 273 148 273 344s-101 344 -273 344c-171 0 -273 -148 -273 -344zM392 918l16 -13l-145 -141l-15 12zM532 918l16 -13l-145 -141
l-15 12z" />
    <glyph glyph-name="Omacron" unicode="&#x14c;" horiz-adv-x="696" 
d="M641 350c0 -206 -111 -362 -293 -362s-293 156 -293 362s111 362 293 362s293 -156 293 -362zM75 350c0 -196 102 -344 273 -344c172 0 273 148 273 344s-101 344 -273 344c-171 0 -273 -148 -273 -344zM212 834v18h272v-18h-272z" />
    <glyph glyph-name="Oslashacute" unicode="&#x1fe;" horiz-adv-x="696" 
d="M71 -26l73 104c-57 65 -89 161 -89 272c0 206 111 362 293 362c77 0 141 -28 190 -76l71 101l17 -10l-75 -105c58 -66 90 -162 90 -272c0 -206 -111 -362 -293 -362c-77 0 -141 28 -190 75l-70 -99zM75 350c0 -104 28 -194 81 -256l371 527c-45 46 -106 73 -179 73
c-171 0 -273 -148 -273 -344zM621 350c0 104 -29 194 -81 256l-371 -527c46 -46 106 -73 179 -73c172 0 273 148 273 344zM429 918l16 -13l-145 -141l-15 12z" />
    <glyph glyph-name="Otilde" unicode="&#xd5;" horiz-adv-x="696" 
d="M641 350c0 -206 -111 -362 -293 -362s-293 156 -293 362s111 362 293 362s293 -156 293 -362zM75 350c0 -196 102 -344 273 -344c172 0 273 148 273 344s-101 344 -273 344c-171 0 -273 -148 -273 -344zM343 834c-21 20 -39 34 -67 34c-31 0 -52 -27 -62 -59l-19 4
c16 50 49 73 81 73c31 0 54 -15 77 -36c21 -20 39 -34 67 -34c31 0 52 27 62 59l19 -4c-16 -50 -49 -73 -81 -73c-31 0 -54 15 -77 36z" />
    <glyph glyph-name="Racute" unicode="&#x154;" horiz-adv-x="582" 
d="M522 509c0 -94 -59 -160 -164 -183l204 -326h-23l-201 323c-21 -3 -43 -5 -67 -5h-161v-318h-20v700h186c159 0 246 -78 246 -191zM502 509c0 107 -82 173 -231 173h-161v-346h161c149 0 231 68 231 173zM348 918l16 -13l-145 -141l-15 12z" />
    <glyph glyph-name="Rcaron" unicode="&#x158;" horiz-adv-x="582" 
d="M522 509c0 -94 -59 -160 -164 -183l204 -326h-23l-201 323c-21 -3 -43 -5 -67 -5h-161v-318h-20v700h186c159 0 246 -78 246 -191zM502 509c0 107 -82 173 -231 173h-161v-346h161c149 0 231 68 231 173zM284 762h-14l-146 162l14 12l139 -156l139 156l14 -12z" />
    <glyph glyph-name="Rcommaaccent" unicode="&#x156;" horiz-adv-x="582" 
d="M522 509c0 -94 -59 -160 -164 -183l204 -326h-23l-201 323c-21 -3 -43 -5 -67 -5h-161v-318h-20v700h186c159 0 246 -78 246 -191zM502 509c0 107 -82 173 -231 173h-161v-346h161c149 0 231 68 231 173zM317 -60l19 -6l-63 -183l-19 6z" />
    <glyph glyph-name="Sacute" unicode="&#x15a;" horiz-adv-x="567" 
d="M288 6c136 0 204 70 204 166c0 101 -65 150 -216 196c-134 41 -203 89 -203 179c0 99 72 165 190 165c93 0 166 -33 228 -99l-16 -13c-56 62 -129 94 -212 94c-112 0 -170 -63 -170 -147c0 -80 64 -124 192 -163c153 -47 227 -99 227 -213c0 -108 -80 -183 -224 -183
c-94 0 -179 37 -243 96l16 14c66 -65 153 -92 227 -92zM381 918l16 -13l-145 -141l-15 12z" />
    <glyph glyph-name="Scaron" unicode="&#x160;" horiz-adv-x="567" 
d="M288 6c136 0 204 70 204 166c0 101 -65 150 -216 196c-134 41 -203 89 -203 179c0 99 72 165 190 165c93 0 166 -33 228 -99l-16 -13c-56 62 -129 94 -212 94c-112 0 -170 -63 -170 -147c0 -80 64 -124 192 -163c153 -47 227 -99 227 -213c0 -108 -80 -183 -224 -183
c-94 0 -179 37 -243 96l16 14c66 -65 153 -92 227 -92zM296 762h-14l-146 162l14 12l139 -156l139 156l14 -12z" />
    <glyph glyph-name="Scedilla" unicode="&#x15e;" horiz-adv-x="567" 
d="M288 6c136 0 204 70 204 166c0 101 -65 150 -216 196c-134 41 -203 89 -203 179c0 99 72 165 190 165c93 0 166 -33 228 -99l-16 -13c-56 62 -129 94 -212 94c-112 0 -170 -63 -170 -147c0 -80 64 -124 192 -163c153 -47 227 -99 227 -213c0 -103 -73 -176 -205 -182
l-26 -58c70 -10 101 -45 101 -92c0 -39 -32 -77 -96 -77c-28 0 -57 10 -80 28l12 14c19 -16 43 -24 67 -24c53 0 77 30 77 59c0 43 -31 72 -108 78l34 71c-94 0 -179 37 -243 96l16 14c66 -65 153 -92 227 -92z" />
    <glyph glyph-name="Scircumflex" unicode="&#x15c;" horiz-adv-x="567" 
d="M288 6c136 0 204 70 204 166c0 101 -65 150 -216 196c-134 41 -203 89 -203 179c0 99 72 165 190 165c93 0 166 -33 228 -99l-16 -13c-56 62 -129 94 -212 94c-112 0 -170 -63 -170 -147c0 -80 64 -124 192 -163c153 -47 227 -99 227 -213c0 -108 -80 -183 -224 -183
c-94 0 -179 37 -243 96l16 14c66 -65 153 -92 227 -92zM275 924h14l146 -162l-14 -12l-139 156l-139 -156l-14 12z" />
    <glyph glyph-name="Tcaron" unicode="&#x164;" horiz-adv-x="522" 
d="M251 0v682h-236v18h492v-18h-236v-682h-20zM268 762h-14l-146 162l14 12l139 -156l139 156l14 -12z" />
    <glyph glyph-name="Tcommaaccent" unicode="&#x162;" horiz-adv-x="522" 
d="M271 0l-33 -69c70 -10 101 -45 101 -92c0 -39 -32 -77 -96 -77c-28 0 -57 10 -80 28l12 14c19 -16 43 -24 67 -24c53 0 77 30 77 59c0 43 -31 72 -108 78l40 83v682h-236v18h492v-18h-236v-682z" />
    <glyph glyph-name="Uacute" unicode="&#xda;" horiz-adv-x="696" 
d="M348 -12c-144 0 -258 86 -258 278v434h20v-431c0 -183 105 -263 238 -263s238 80 238 263v431h20v-434c0 -192 -114 -278 -258 -278zM479 918l16 -13l-145 -141l-15 12z" />
    <glyph glyph-name="Ubreve" unicode="&#x16c;" horiz-adv-x="696" 
d="M348 -12c-144 0 -258 86 -258 278v434h20v-431c0 -183 105 -263 238 -263s238 80 238 263v431h20v-434c0 -192 -114 -278 -258 -278zM348 783c-62 0 -119 41 -140 115l19 5c13 -54 57 -102 121 -102s108 48 121 102l19 -5c-21 -74 -78 -115 -140 -115z" />
    <glyph glyph-name="Ucircumflex" unicode="&#xdb;" horiz-adv-x="696" 
d="M348 -11c-144 0 -258 86 -258 278v434h20v-431c0 -183 105 -263 238 -263s238 80 238 263v431h20v-434c0 -192 -114 -278 -258 -278zM341 924h14l146 -162l-14 -12l-139 156l-139 -156l-14 12z" />
    <glyph glyph-name="Udieresis" unicode="&#xdc;" horiz-adv-x="696" 
d="M348 -12c-144 0 -258 86 -258 278v434h20v-431c0 -183 105 -263 238 -263s238 80 238 263v431h20v-434c0 -192 -114 -278 -258 -278zM239 843c0 12 10 22 22 22s22 -10 22 -22s-10 -22 -22 -22s-22 10 -22 22zM413 843c0 12 10 22 22 22s22 -10 22 -22s-10 -22 -22 -22
s-22 10 -22 22z" />
    <glyph glyph-name="Ugrave" unicode="&#xd9;" horiz-adv-x="696" 
d="M348 -12c-144 0 -258 86 -258 278v434h20v-431c0 -183 105 -263 238 -263s238 80 238 263v431h20v-434c0 -192 -114 -278 -258 -278zM201 905l16 13l144 -142l-15 -12z" />
    <glyph glyph-name="Uhungarumlaut" unicode="&#x170;" horiz-adv-x="696" 
d="M348 -12c-144 0 -258 86 -258 278v434h20v-431c0 -183 105 -263 238 -263s238 80 238 263v431h20v-434c0 -192 -114 -278 -258 -278zM402 918l16 -13l-145 -141l-15 12zM542 918l16 -13l-145 -141l-15 12z" />
    <glyph glyph-name="Umacron" unicode="&#x16a;" horiz-adv-x="696" 
d="M348 -12c-144 0 -258 86 -258 278v434h20v-431c0 -183 105 -263 238 -263s238 80 238 263v431h20v-434c0 -192 -114 -278 -258 -278zM212 834v18h272v-18h-272z" />
    <glyph glyph-name="Uogonek" unicode="&#x172;" horiz-adv-x="696" 
d="M348 -12c-144 0 -258 86 -258 278v434h20v-431c0 -183 105 -263 238 -263s238 80 238 263v431h20v-434c0 -181 -102 -268 -234 -277c-45 -35 -64 -73 -64 -112c0 -45 30 -78 75 -78c30 0 56 14 76 34l12 -14c-22 -22 -50 -38 -89 -38c-57 0 -94 44 -94 95
c0 40 19 79 60 112z" />
    <glyph glyph-name="Uring" unicode="&#x16e;" horiz-adv-x="696" 
d="M348 -12c-144 0 -258 86 -258 278v434h20v-431c0 -183 105 -263 238 -263s238 80 238 263v431h20v-434c0 -192 -114 -278 -258 -278zM263 843c0 47 38 83 85 83s85 -36 85 -83s-38 -83 -85 -83s-85 36 -85 83zM283 843c0 -36 29 -65 65 -65s65 29 65 65s-29 65 -65 65
s-65 -29 -65 -65z" />
    <glyph glyph-name="Utilde" unicode="&#x168;" horiz-adv-x="696" 
d="M348 -12c-144 0 -258 86 -258 278v434h20v-431c0 -183 105 -263 238 -263s238 80 238 263v431h20v-434c0 -192 -114 -278 -258 -278zM343 834c-21 20 -39 34 -67 34c-31 0 -52 -27 -62 -59l-19 4c16 50 49 73 81 73c31 0 54 -15 77 -36c21 -20 39 -34 67 -34
c31 0 52 27 62 59l19 -4c-16 -50 -49 -73 -81 -73c-31 0 -54 15 -77 36z" />
    <glyph glyph-name="Wcircumflex" unicode="&#x174;" horiz-adv-x="974" 
d="M474 700h26l194 -677l228 677h22l-238 -700h-25l-194 677l-194 -677h-25l-238 700h22l228 -677zM480 924h14l146 -162l-14 -12l-139 156l-139 -156l-14 12z" />
    <glyph glyph-name="Yacute" unicode="&#xdd;" horiz-adv-x="560" 
d="M535 700l-245 -421v-279h-20v279l-245 421h24l231 -401l231 401h24zM399 918l16 -13l-145 -141l-15 12z" />
    <glyph glyph-name="Ycircumflex" unicode="&#x176;" horiz-adv-x="560" 
d="M535 700l-245 -421v-279h-20v279l-245 421h24l231 -401l231 401h24zM273 924h14l146 -162l-14 -12l-139 156l-139 -156l-14 12z" />
    <glyph glyph-name="Ydieresis" unicode="&#x178;" horiz-adv-x="560" 
d="M535 700l-245 -421v-279h-20v279l-245 421h24l231 -401l231 401h24zM171 843c0 12 10 22 22 22s22 -10 22 -22s-10 -22 -22 -22s-22 10 -22 22zM345 843c0 12 10 22 22 22s22 -10 22 -22s-10 -22 -22 -22s-22 10 -22 22z" />
    <glyph glyph-name="Zacute" unicode="&#x179;" horiz-adv-x="558" 
d="M40 18l444 664h-429v18h453v-18l-444 -664h454v-18h-478v18zM373 918l16 -13l-145 -141l-15 12z" />
    <glyph glyph-name="Zcaron" unicode="&#x17d;" horiz-adv-x="558" 
d="M40 18l444 664h-429v18h453v-18l-444 -664h454v-18h-478v18zM288 762h-14l-146 162l14 12l139 -156l139 156l14 -12z" />
    <glyph glyph-name="Zdotaccent" unicode="&#x17b;" horiz-adv-x="558" 
d="M40 18l444 664h-429v18h453v-18l-444 -664h454v-18h-478v18zM254 843c0 12 10 22 22 22s22 -10 22 -22s-10 -22 -22 -22s-22 10 -22 22z" />
    <glyph glyph-name="aacute" unicode="&#xe1;" horiz-adv-x="530" 
d="M435 242v101c0 125 -63 169 -167 169c-67 0 -126 -25 -172 -62l-14 14c51 40 117 66 186 66c115 0 187 -49 187 -182v-348h-20v60c-46 -42 -113 -72 -197 -72c-108 0 -188 63 -188 163s80 163 188 163c84 0 151 -30 197 -72zM237 6c75 0 140 25 198 76v138
c-58 51 -123 76 -198 76c-99 0 -167 -56 -167 -145s68 -145 167 -145zM366 744l16 -13l-145 -141l-15 12z" />
    <glyph glyph-name="abreve" unicode="&#x103;" horiz-adv-x="530" 
d="M435 242v101c0 125 -63 169 -167 169c-67 0 -126 -25 -172 -62l-14 14c51 40 117 66 186 66c115 0 187 -49 187 -182v-348h-20v60c-46 -42 -113 -72 -197 -72c-108 0 -188 63 -188 163s80 163 188 163c84 0 151 -30 197 -72zM237 6c75 0 140 25 198 76v138
c-58 51 -123 76 -198 76c-99 0 -167 -56 -167 -145s68 -145 167 -145zM275 611c-62 0 -119 41 -140 115l19 5c13 -54 57 -102 121 -102s108 48 121 102l19 -5c-21 -74 -78 -115 -140 -115z" />
    <glyph glyph-name="acircumflex" unicode="&#xe2;" horiz-adv-x="530" 
d="M435 242v101c0 125 -63 169 -167 169c-67 0 -126 -25 -172 -62l-14 14c51 40 117 66 186 66c115 0 187 -49 187 -182v-348h-20v60c-46 -42 -113 -72 -197 -72c-108 0 -188 63 -188 163s80 163 188 163c84 0 151 -30 197 -72zM237 6c75 0 140 25 198 76v138
c-58 51 -123 76 -198 76c-99 0 -167 -56 -167 -145s68 -145 167 -145zM264 750h14l146 -162l-14 -12l-139 156l-139 -156l-14 12z" />
    <glyph glyph-name="acutecomb" unicode="&#x301;" horiz-adv-x="0" 
d="M-168 724l16 -13l-145 -141l-15 12z" />
    <glyph glyph-name="adieresis" unicode="&#xe4;" horiz-adv-x="530" 
d="M435 242v101c0 125 -63 169 -167 169c-67 0 -126 -25 -172 -62l-14 14c51 40 117 66 186 66c115 0 187 -49 187 -182v-348h-20v60c-46 -42 -113 -72 -197 -72c-108 0 -188 63 -188 163s80 163 188 163c84 0 151 -30 197 -72zM237 6c75 0 140 25 198 76v138
c-58 51 -123 76 -198 76c-99 0 -167 -56 -167 -145s68 -145 167 -145zM169 669c0 12 10 22 22 22s22 -10 22 -22s-10 -22 -22 -22s-22 10 -22 22zM343 669c0 12 10 22 22 22s22 -10 22 -22s-10 -22 -22 -22s-22 10 -22 22z" />
    <glyph glyph-name="aeacute" unicode="&#x1fd;" horiz-adv-x="930" 
d="M894 252h-439c3 -135 87 -246 220 -246c73 0 138 31 178 85l16 -11c-44 -59 -111 -92 -194 -92c-93 0 -163 48 -202 118c-48 -67 -126 -118 -234 -118c-109 0 -189 63 -189 163s80 163 188 163c84 0 151 -30 197 -72v101c0 125 -63 169 -167 169c-67 0 -126 -25 -172 -62
l-14 14c51 40 117 66 186 66c107 0 179 -44 186 -161c31 98 115 161 210 161c129 0 230 -107 230 -260v-18zM237 296c-99 0 -167 -56 -167 -145s68 -145 167 -145c101 0 180 47 226 119c-14 30 -22 59 -26 93c-60 54 -125 78 -200 78zM455 270h419c0 144 -89 242 -210 242
c-115 0 -206 -100 -209 -242zM576 744l16 -13l-145 -141l-15 12z" />
    <glyph glyph-name="agrave" unicode="&#xe0;" horiz-adv-x="530" 
d="M435 242v101c0 125 -63 169 -167 169c-67 0 -126 -25 -172 -62l-14 14c51 40 117 66 186 66c115 0 187 -49 187 -182v-348h-20v60c-46 -42 -113 -72 -197 -72c-108 0 -188 63 -188 163s80 163 188 163c84 0 151 -30 197 -72zM237 6c75 0 140 25 198 76v138
c-58 51 -123 76 -198 76c-99 0 -167 -56 -167 -145s68 -145 167 -145zM166 731l16 13l144 -142l-15 -12z" />
    <glyph glyph-name="amacron" unicode="&#x101;" horiz-adv-x="530" 
d="M435 242v101c0 125 -63 169 -167 169c-67 0 -126 -25 -172 -62l-14 14c51 40 117 66 186 66c115 0 187 -49 187 -182v-348h-20v60c-46 -42 -113 -72 -197 -72c-108 0 -188 63 -188 163s80 163 188 163c84 0 151 -30 197 -72zM237 6c75 0 140 25 198 76v138
c-58 51 -123 76 -198 76c-99 0 -167 -56 -167 -145s68 -145 167 -145zM131 660v18h272v-18h-272z" />
    <glyph glyph-name="aogonek" unicode="&#x105;" horiz-adv-x="530" 
d="M435 242v101c0 125 -63 169 -167 169c-67 0 -126 -25 -172 -62l-14 14c51 40 117 66 186 66c115 0 187 -49 187 -182v-348c-55 -39 -79 -80 -79 -123c0 -45 30 -78 75 -78c30 0 56 14 76 34l12 -14c-22 -22 -50 -38 -89 -38c-57 0 -94 44 -94 95c0 45 27 90 79 126v58
c-46 -42 -113 -72 -197 -72c-108 0 -188 63 -188 163s80 163 188 163c84 0 151 -30 197 -72zM237 6c75 0 140 25 198 76v138c-58 51 -123 76 -198 76c-99 0 -167 -56 -167 -145s68 -145 167 -145z" />
    <glyph glyph-name="approxequal" unicode="&#x2248;" horiz-adv-x="618" 
d="M301 423c-43 33 -82 55 -129 55c-56 0 -87 -40 -98 -106l-20 4c14 79 56 120 120 120c48 0 97 -26 143 -63c43 -33 82 -55 129 -55c56 0 87 40 98 106l20 -4c-14 -79 -56 -120 -120 -120c-48 0 -97 26 -143 63zM301 235c-43 33 -82 55 -129 55c-56 0 -87 -40 -98 -106
l-20 4c14 79 56 120 120 120c48 0 97 -26 143 -63c43 -33 82 -55 129 -55c56 0 87 40 98 106l20 -4c-14 -79 -56 -120 -120 -120c-48 0 -97 26 -143 63z" />
    <glyph glyph-name="aring" unicode="&#xe5;" horiz-adv-x="530" 
d="M435 242v101c0 125 -63 169 -167 169c-67 0 -126 -25 -172 -62l-14 14c51 40 117 66 186 66c115 0 187 -49 187 -182v-348h-20v60c-46 -42 -113 -72 -197 -72c-108 0 -188 63 -188 163s80 163 188 163c84 0 151 -30 197 -72zM237 6c75 0 140 25 198 76v138
c-58 51 -123 76 -198 76c-99 0 -167 -56 -167 -145s68 -145 167 -145zM192 669c0 47 38 83 85 83s85 -36 85 -83s-38 -83 -85 -83s-85 36 -85 83zM212 669c0 -36 29 -65 65 -65s65 29 65 65s-29 65 -65 65s-65 -29 -65 -65z" />
    <glyph glyph-name="aringacute" unicode="&#x1fb;" horiz-adv-x="530" 
d="M364 909l13 -15l-133 -95l-13 15zM192 669c0 47 38 83 85 83s85 -36 85 -83s-38 -83 -85 -83s-85 36 -85 83zM212 669c0 -36 29 -65 65 -65s65 29 65 65s-29 65 -65 65s-65 -29 -65 -65zM435 242v101c0 125 -63 169 -167 169c-67 0 -126 -25 -172 -62l-14 14
c51 40 117 66 186 66c115 0 187 -49 187 -182v-348h-20v60c-46 -42 -113 -72 -197 -72c-108 0 -188 63 -188 163s80 163 188 163c84 0 151 -30 197 -72zM237 6c75 0 140 25 198 76v138c-58 51 -123 76 -198 76c-99 0 -167 -56 -167 -145s68 -145 167 -145z" />
    <glyph glyph-name="arrowupdnbse" unicode="&#x21a8;" horiz-adv-x="860" 
d="M237 -68h386v-20h-386v20zM264 175l153 -46v453l-153 -46l163 213l170 -213l-160 46v-453l160 46l-170 -213z" />
    <glyph glyph-name="atilde" unicode="&#xe3;" horiz-adv-x="530" 
d="M435 242v101c0 125 -63 169 -167 169c-67 0 -126 -25 -172 -62l-14 14c51 40 117 66 186 66c115 0 187 -49 187 -182v-348h-20v60c-46 -42 -113 -72 -197 -72c-108 0 -188 63 -188 163s80 163 188 163c84 0 151 -30 197 -72zM237 6c75 0 140 25 198 76v138
c-58 51 -123 76 -198 76c-99 0 -167 -56 -167 -145s68 -145 167 -145zM266 660c-21 20 -39 34 -67 34c-31 0 -52 -27 -62 -59l-19 4c16 50 49 73 81 73c31 0 54 -15 77 -36c21 -20 39 -34 67 -34c31 0 52 27 62 59l19 -4c-16 -50 -49 -73 -81 -73c-31 0 -54 15 -77 36z" />
    <glyph glyph-name="brokenbar" unicode="&#xa6;" horiz-adv-x="260" 
d="M120 220h20v-320h-20v320zM120 688h20v-320h-20v320z" />
    <glyph glyph-name="bullet" unicode="&#x2022;" horiz-adv-x="398" 
d="M100 332c0 56 43 99 99 99s99 -43 99 -99s-43 -99 -99 -99s-99 43 -99 99z" />
    <glyph glyph-name="cacute" unicode="&#x107;" horiz-adv-x="535" 
d="M50 259c0 170 109 271 238 271c88 0 158 -37 202 -104l-16 -10c-43 63 -108 96 -186 96c-116 0 -218 -91 -218 -253s102 -253 218 -253c78 0 143 33 186 96l16 -10c-44 -67 -114 -104 -202 -104c-129 0 -238 101 -238 271zM372 744l16 -13l-145 -141l-15 12z" />
    <glyph glyph-name="ccaron" unicode="&#x10d;" horiz-adv-x="535" 
d="M50 259c0 -170 109 -271 238 -271c88 0 158 37 202 104l-16 10c-43 -63 -108 -96 -186 -96c-116 0 -218 91 -218 253s102 253 218 253c78 0 143 -33 186 -96l16 10c-44 67 -114 104 -202 104c-129 0 -238 -101 -238 -271zM300 588h-14l-146 162l14 12l139 -156l139 156
l14 -12z" />
    <glyph glyph-name="ccedilla" unicode="&#xe7;" horiz-adv-x="535" 
d="M50 259c0 170 109 271 238 271c88 0 158 -37 202 -104l-16 -10c-43 63 -108 96 -186 96c-116 0 -218 -91 -218 -253s102 -253 218 -253c78 0 143 33 186 96l16 -10c-41 -63 -106 -99 -186 -103l-27 -58c70 -10 101 -45 101 -92c0 -39 -32 -77 -96 -77
c-28 0 -57 10 -80 28l12 14c19 -16 43 -24 67 -24c53 0 77 30 77 59c0 43 -31 72 -108 78l33 71c-127 3 -233 103 -233 271z" />
    <glyph glyph-name="ccircumflex" unicode="&#x109;" horiz-adv-x="535" 
d="M50 259c0 170 109 271 238 271c88 0 158 -37 202 -104l-16 -10c-43 63 -108 96 -186 96c-116 0 -218 -91 -218 -253s102 -253 218 -253c78 0 143 33 186 96l16 -10c-44 -67 -114 -104 -202 -104c-129 0 -238 101 -238 271zM276 750h14l146 -162l-14 -12l-139 156
l-139 -156l-14 12z" />
    <glyph glyph-name="cdotaccent" unicode="&#x10b;" horiz-adv-x="535" 
d="M50 259c0 -170 109 -271 238 -271c88 0 158 37 202 104l-16 10c-43 -63 -108 -96 -186 -96c-116 0 -218 91 -218 253s102 253 218 253c78 0 143 -33 186 -96l16 10c-44 67 -114 104 -202 104c-129 0 -238 -101 -238 -271zM266 669c0 12 10 22 22 22s22 -10 22 -22
s-10 -22 -22 -22s-22 10 -22 22z" />
    <glyph glyph-name="cent" unicode="&#xa2;" horiz-adv-x="535" 
d="M50 259c0 165 103 265 227 271v86h20v-86c83 -3 150 -40 193 -104l-16 -10c-42 60 -103 93 -177 96v-506c74 2 135 35 177 96l16 -10c-43 -65 -110 -101 -193 -104v-86h-20v86c-124 6 -227 106 -227 271zM70 259c0 -157 95 -248 207 -253v506c-112 -6 -207 -96 -207 -253
z" />
    <glyph glyph-name="circumflex" unicode="&#x2c6;" horiz-adv-x="400" 
d="M193 730h14l146 -162l-14 -12l-139 156l-139 -156l-14 12z" />
    <glyph glyph-name="colonmonetary" unicode="&#x20a1;" horiz-adv-x="672" 
d="M164 -63l27 105c-84 63 -136 174 -136 308c0 209 127 362 304 362h6l20 75l18 -5l-19 -71c33 -2 63 -8 91 -18l25 94l18 -5l-25 -96c53 -22 97 -60 133 -114l-17 -11c-34 51 -74 86 -121 107l-171 -659c13 -2 27 -3 42 -3c108 0 189 41 250 133l17 -11
c-62 -95 -152 -140 -267 -140c-16 0 -32 1 -47 4l-15 -60l-18 5l15 58c-31 7 -60 20 -86 36l-26 -99zM75 350c0 -125 46 -228 121 -288l165 632h-2c-165 0 -284 -145 -284 -344zM213 50c26 -17 54 -31 85 -38l173 663c-28 11 -58 17 -91 18z" />
    <glyph glyph-name="copyright" unicode="&#xa9;" horiz-adv-x="834" 
d="M60 350c0 200 162 362 357 362s357 -162 357 -362s-162 -362 -357 -362s-357 162 -357 362zM754 350c0 188 -154 342 -337 342c-184 0 -337 -154 -337 -342s153 -342 337 -342c183 0 337 154 337 342zM219 348c0 131 86 217 198 217c73 0 137 -32 176 -95l-16 -9
c-39 59 -96 86 -160 86c-110 0 -178 -84 -178 -199s68 -199 178 -199c64 0 121 27 160 86l16 -9c-39 -63 -103 -95 -176 -95c-112 0 -198 86 -198 217z" />
    <glyph glyph-name="dcaron" unicode="&#x10f;" horiz-adv-x="622" 
d="M459 102v314c-44 50 -118 96 -190 96c-130 0 -199 -85 -199 -253s69 -253 199 -253c72 0 146 46 190 96zM459 0v78c-52 -52 -121 -90 -197 -90c-132 0 -212 90 -212 271s80 271 212 271c76 0 145 -38 197 -90v290h20v-730h-20zM614 735l19 -5l-85 -231l-19 5z" />
    <glyph glyph-name="dong" unicode="&#x20ab;" horiz-adv-x="562" 
d="M459 601h-205v18h205v81h20v-81h68v-18h-68v-601h-20v78c-52 -52 -121 -90 -197 -90c-132 0 -212 85 -212 256s80 256 212 256c76 0 145 -38 197 -90v191zM459 102v284c-44 50 -118 96 -190 96c-130 0 -199 -80 -199 -238s69 -238 199 -238c72 0 146 46 190 96zM468 -109
v-18h-324v18h324z" />
    <glyph glyph-name="eacute" unicode="&#xe9;" horiz-adv-x="545" 
d="M290 6c73 0 138 31 178 85l16 -11c-44 -59 -111 -92 -194 -92c-154 0 -240 128 -240 273c0 157 100 269 229 269s230 -107 230 -260v-18h-439c3 -135 87 -246 220 -246zM70 270h419c0 144 -89 242 -210 242c-115 0 -206 -100 -209 -242zM380 744l16 -13l-145 -141l-15 12
z" />
    <glyph glyph-name="ebreve" unicode="&#x115;" horiz-adv-x="545" 
d="M290 6c-133 0 -217 111 -220 246h439v18c0 153 -101 260 -230 260s-229 -112 -229 -269c0 -145 86 -273 240 -273c83 0 150 33 194 92l-16 11c-40 -54 -105 -85 -178 -85zM489 270h-419c3 142 94 242 209 242c121 0 210 -98 210 -242zM275 611c-62 0 -119 41 -140 115
l19 5c13 -54 57 -102 121 -102s108 48 121 102l19 -5c-21 -74 -78 -115 -140 -115z" />
    <glyph glyph-name="ecaron" unicode="&#x11b;" horiz-adv-x="545" 
d="M290 6c73 0 138 31 178 85l16 -11c-44 -59 -111 -92 -194 -92c-154 0 -240 128 -240 273c0 157 100 269 229 269s230 -107 230 -260v-18h-439c3 -135 87 -246 220 -246zM70 270h419c0 144 -89 242 -210 242c-115 0 -206 -100 -209 -242zM293 588h-14l-146 162l14 12
l139 -156l139 156l14 -12z" />
    <glyph glyph-name="ecircumflex" unicode="&#xea;" horiz-adv-x="545" 
d="M290 6c73 0 138 31 178 85l16 -11c-44 -59 -111 -92 -194 -92c-154 0 -240 128 -240 273c0 157 100 269 229 269s230 -107 230 -260v-18h-439c3 -135 87 -246 220 -246zM70 270h419c0 144 -89 242 -210 242c-115 0 -206 -100 -209 -242zM275 750h14l146 -162l-14 -12
l-139 156l-139 -156l-14 12z" />
    <glyph glyph-name="edieresis" unicode="&#xeb;" horiz-adv-x="545" 
d="M290 6c73 0 138 31 178 85l16 -11c-44 -59 -111 -92 -194 -92c-154 0 -240 128 -240 273c0 157 100 269 229 269s230 -107 230 -260v-18h-439c3 -135 87 -246 220 -246zM70 270h419c0 144 -89 242 -210 242c-115 0 -206 -100 -209 -242zM173 669c0 12 10 22 22 22
s22 -10 22 -22s-10 -22 -22 -22s-22 10 -22 22zM347 669c0 12 10 22 22 22s22 -10 22 -22s-10 -22 -22 -22s-22 10 -22 22z" />
    <glyph glyph-name="edotaccent" unicode="&#x117;" horiz-adv-x="545" 
d="M290 6c-133 0 -217 111 -220 246h439v18c0 153 -101 260 -230 260s-229 -112 -229 -269c0 -145 86 -273 240 -273c83 0 150 33 194 92l-16 11c-40 -54 -105 -85 -178 -85zM489 270h-419c3 142 94 242 209 242c121 0 210 -98 210 -242zM256 669c0 12 10 22 22 22
s22 -10 22 -22s-10 -22 -22 -22s-22 10 -22 22z" />
    <glyph glyph-name="egrave" unicode="&#xe8;" horiz-adv-x="545" 
d="M290 6c73 0 138 31 178 85l16 -11c-44 -59 -111 -92 -194 -92c-154 0 -240 128 -240 273c0 157 100 269 229 269s230 -107 230 -260v-18h-439c3 -135 87 -246 220 -246zM70 270h419c0 144 -89 242 -210 242c-115 0 -206 -100 -209 -242zM182 731l16 13l144 -142l-15 -12z
" />
    <glyph glyph-name="emacron" unicode="&#x113;" horiz-adv-x="545" 
d="M290 6c-133 0 -217 111 -220 246h439v18c0 153 -101 260 -230 260s-229 -112 -229 -269c0 -145 86 -273 240 -273c83 0 150 33 194 92l-16 11c-40 -54 -105 -85 -178 -85zM489 270h-419c3 142 94 242 209 242c121 0 210 -98 210 -242zM143 660v18h272v-18h-272z" />
    <glyph glyph-name="emdash" unicode="&#x2014;" horiz-adv-x="1000" 
d="M1000 323h-1000v18h1000v-18z" />
    <glyph glyph-name="endash" unicode="&#x2013;" horiz-adv-x="500" 
d="M500 323h-500v18h500v-18z" />
    <glyph glyph-name="eogonek" unicode="&#x119;" horiz-adv-x="545" 
d="M290 6c73 0 138 31 178 85l16 -11c-38 -51 -92 -82 -159 -90c-45 -36 -65 -73 -65 -113c0 -45 30 -78 75 -78c30 0 56 14 76 34l12 -14c-22 -22 -50 -38 -89 -38c-57 0 -94 44 -94 95c0 40 19 79 60 112h-10c-154 0 -240 128 -240 273c0 157 100 269 229 269
s230 -107 230 -260v-18h-439c3 -135 87 -246 220 -246zM70 270h419c0 144 -89 242 -210 242c-115 0 -206 -100 -209 -242z" />
    <glyph glyph-name="estimated" unicode="&#x212e;" horiz-adv-x="758" 
d="M620 81l15 -14c-57 -54 -133 -79 -220 -79c-264 0 -360 164 -360 362c0 196 119 362 330 362c204 0 318 -165 318 -368v-6h-499v-275c51 -37 122 -57 211 -57c82 0 152 24 205 75zM382 694c-68 0 -131 -19 -178 -58v-278h355v278c-47 39 -109 58 -177 58z" />
    <glyph glyph-name="exclamdbl" unicode="&#x203c;" horiz-adv-x="409" 
d="M100 700h20v-531h-20v531zM84 14c0 14 12 26 26 26s26 -12 26 -26s-12 -26 -26 -26s-26 12 -26 26zM289 700h20v-531h-20v531zM273 14c0 14 12 26 26 26s26 -12 26 -26s-12 -26 -26 -26s-26 12 -26 26z" />
    <glyph glyph-name="florin" unicode="&#x192;" horiz-adv-x="353" 
d="M140 -51v551h-120v18h120v72c0 110 59 140 136 140c19 0 39 -1 57 -3v-18c-20 2 -40 3 -60 3c-62 0 -113 -19 -113 -124v-70h163v-18h-163v-553c0 -110 -59 -140 -136 -140c-19 0 -39 1 -57 3v18c20 -2 40 -3 60 -3c62 0 113 19 113 124z" />
    <glyph glyph-name="fraction" unicode="&#x2044;" horiz-adv-x="178" 
d="M-104 -12l-16 11l402 716l16 -11z" />
    <glyph glyph-name="franc" unicode="&#x20a3;" horiz-adv-x="525" 
d="M30 287v18h59v118h-59v18h59v259h406v-18h-386v-241h333v-18h-333v-118h332v-18h-332v-287h-20v287h-59z" />
    <glyph glyph-name="gbreve" unicode="&#x11f;" horiz-adv-x="559" 
d="M459 78c-52 -52 -121 -90 -197 -90c-132 0 -212 90 -212 271s80 271 212 271c76 0 145 -38 197 -90v78h20v-515c0 -139 -67 -227 -201 -227c-83 0 -151 33 -203 100l15 11c50 -65 115 -93 188 -93c124 0 181 83 181 205v79zM459 102v314c-44 50 -118 96 -190 96
c-130 0 -199 -85 -199 -253s69 -253 199 -253c72 0 146 46 190 96zM284 611c-62 0 -119 41 -140 115l19 5c13 -54 57 -102 121 -102s108 48 121 102l19 -5c-21 -74 -78 -115 -140 -115z" />
    <glyph glyph-name="gcircumflex" unicode="&#x11d;" horiz-adv-x="559" 
d="M459 78c-52 -52 -121 -90 -197 -90c-132 0 -212 90 -212 271s80 271 212 271c76 0 145 -38 197 -90v78h20v-515c0 -139 -67 -227 -201 -227c-83 0 -151 33 -203 100l15 11c50 -65 115 -93 188 -93c124 0 181 83 181 205v79zM459 102v314c-44 50 -118 96 -190 96
c-130 0 -199 -85 -199 -253s69 -253 199 -253c72 0 146 46 190 96zM276 750h14l146 -162l-14 -12l-139 156l-139 -156l-14 12z" />
    <glyph glyph-name="gcommaaccent" unicode="&#x123;" horiz-adv-x="559" 
d="M459 78c-52 -52 -121 -90 -197 -90c-132 0 -212 90 -212 271s80 271 212 271c76 0 145 -38 197 -90v78h20v-515c0 -139 -67 -227 -201 -227c-83 0 -151 33 -203 100l15 11c50 -65 115 -93 188 -93c124 0 181 83 181 205v79zM459 102v314c-44 50 -118 96 -190 96
c-130 0 -199 -85 -199 -253s69 -253 199 -253c72 0 146 46 190 96zM273 596l-19 6l63 183l19 -6z" />
    <glyph glyph-name="gdotaccent" unicode="&#x121;" horiz-adv-x="559" 
d="M459 78c-52 -52 -121 -90 -197 -90c-132 0 -212 90 -212 271s80 271 212 271c76 0 145 -38 197 -90v78h20v-515c0 -139 -67 -227 -201 -227c-83 0 -151 33 -203 100l15 11c50 -65 115 -93 188 -93c124 0 181 83 181 205v79zM459 102v314c-44 50 -118 96 -190 96
c-130 0 -199 -85 -199 -253s69 -253 199 -253c72 0 146 46 190 96zM260 669c0 12 10 22 22 22s22 -10 22 -22s-10 -22 -22 -22s-22 10 -22 22z" />
    <glyph glyph-name="gravecomb" unicode="&#x300;" horiz-adv-x="0" 
d="M-367 711l16 13l144 -142l-15 -12z" />
    <glyph glyph-name="guillemotleft" unicode="&#xab;" horiz-adv-x="487" 
d="M50 307v10l206 159l11 -15l-194 -149l194 -149l-11 -15zM220 307v10l206 159l11 -15l-194 -149l194 -149l-11 -15z" />
    <glyph glyph-name="guillemotright" unicode="&#xbb;" horiz-adv-x="487" 
d="M437 317v-10l-206 -159l-11 15l194 149l-194 149l11 15zM267 317v-10l-206 -159l-11 15l194 149l-194 149l11 15z" />
    <glyph glyph-name="guilsinglleft" unicode="&#x2039;" horiz-adv-x="317" 
d="M50 307v10l206 159l11 -15l-194 -149l194 -149l-11 -15z" />
    <glyph glyph-name="guilsinglright" unicode="&#x203a;" horiz-adv-x="317" 
d="M267 317v-10l-206 -159l-11 15l194 149l-194 149l11 15z" />
    <glyph glyph-name="hcircumflex" unicode="&#x125;" horiz-adv-x="559" 
d="M306 512c-75 0 -152 -45 -206 -108v-404h-20v730h20v-301c49 53 126 101 207 101c117 0 177 -59 177 -190v-340h-20v333c0 124 -47 179 -158 179zM83 924h14l146 -162l-14 -12l-139 156l-139 -156l-14 12z" />
    <glyph glyph-name="house" unicode="&#x2302;" horiz-adv-x="702" 
d="M592 328v-328h-482v328l241 288zM130 18h442v304l-221 265l-221 -265v-304z" />
    <glyph glyph-name="iacute" unicode="&#xed;" horiz-adv-x="200" 
d="M90 0v518h20v-518h-20zM233 744l16 -13l-145 -141l-15 12z" />
    <glyph glyph-name="ibreve" unicode="&#x12d;" horiz-adv-x="200" 
d="M90 0v518h20v-518h-20zM100 611c-62 0 -119 41 -140 115l19 5c13 -54 57 -102 121 -102s108 48 121 102l19 -5c-21 -74 -78 -115 -140 -115z" />
    <glyph glyph-name="icircumflex" unicode="&#xee;" horiz-adv-x="200" 
d="M90 0v518h20v-518h-20zM93 750h14l146 -162l-14 -12l-139 156l-139 -156l-14 12z" />
    <glyph glyph-name="idieresis" unicode="&#xef;" horiz-adv-x="200" 
d="M90 0v518h20v-518h-20zM-9 669c0 12 10 22 22 22s22 -10 22 -22s-10 -22 -22 -22s-22 10 -22 22zM165 669c0 12 10 22 22 22s22 -10 22 -22s-10 -22 -22 -22s-22 10 -22 22z" />
    <glyph glyph-name="igrave" unicode="&#xec;" horiz-adv-x="200" 
d="M90 0v518h20v-518h-20zM-49 731l16 13l144 -142l-15 -12z" />
    <glyph glyph-name="imacron" unicode="&#x12b;" horiz-adv-x="200" 
d="M90 0v518h20v-518h-20zM-36 660v18h272v-18h-272z" />
    <glyph glyph-name="Delta" unicode="&#x2206;" horiz-adv-x="664" 
d="M44 18h576l-288 661zM638 0h-612l-6 8l307 704h10l307 -704z" />
    <glyph glyph-name="iogonek" unicode="&#x12f;" horiz-adv-x="200" 
d="M90 2v516h20v-518c-50 -37 -76 -74 -76 -123c0 -45 30 -78 75 -78c30 0 56 14 76 34l12 -14c-22 -22 -50 -38 -89 -38c-57 0 -94 44 -94 95c0 47 24 89 76 126zM74 684c0 14 12 26 26 26s26 -12 26 -26s-12 -26 -26 -26s-26 12 -26 26z" />
    <glyph glyph-name="itilde" unicode="&#x129;" horiz-adv-x="200" 
d="M90 0v518h20v-518h-20zM95 660c-21 20 -39 34 -67 34c-31 0 -52 -27 -62 -59l-19 4c16 50 49 73 81 73c31 0 54 -15 77 -36c21 -20 39 -34 67 -34c31 0 52 27 62 59l19 -4c-16 -50 -49 -73 -81 -73c-31 0 -54 15 -77 36z" />
    <glyph glyph-name="jcircumflex" unicode="&#x135;" horiz-adv-x="190" 
d="M88 750h14l146 -162l-14 -12l-139 156l-139 -156l-14 12zM85 -87v605h20v-607c0 -110 -50 -135 -126 -135c-9 0 -23 1 -31 2v18c9 -1 25 -2 34 -2c57 0 103 14 103 119z" />
    <glyph glyph-name="kcommaaccent" unicode="&#x137;" horiz-adv-x="478" 
d="M100 730v-565l308 353h28l-182 -207l214 -311h-24l-204 296l-140 -159v-137h-20v730h20zM267 -60l19 -6l-63 -183l-19 6z" />
    <glyph glyph-name="lacute" unicode="&#x13a;" horiz-adv-x="200" 
d="M90 0v730h20v-730h-20zM234 918l16 -13l-145 -141l-15 12z" />
    <glyph glyph-name="lcaron" unicode="&#x13e;" horiz-adv-x="254" 
d="M90 0v730h20v-730h-20zM245 735l19 -5l-85 -231l-19 5z" />
    <glyph glyph-name="lcommaaccent" unicode="&#x13c;" horiz-adv-x="200" 
d="M90 0v730h20v-730h-20zM88 -60l19 -6l-63 -183l-19 6z" />
    <glyph glyph-name="lira" unicode="&#x20a4;" horiz-adv-x="565" 
d="M385 254h-235v-7c0 -94 -26 -174 -75 -229h450v-18h-475v15c53 55 80 135 80 231v8h-80v18h80v118h-80v18h80v102c0 137 72 202 188 202c70 0 142 -27 191 -89l-15 -11c-48 59 -111 82 -176 82c-102 0 -168 -55 -168 -186v-100h235v-18h-235v-118h235v-18z" />
    <glyph glyph-name="logicalnot" unicode="&#xac;" horiz-adv-x="618" 
d="M67 406v18h474v-250h-20v232h-454z" />
    <glyph glyph-name="longs" unicode="&#x17f;" horiz-adv-x="353" 
d="M160 588v-588h-20v500h-120v18h120v72c0 110 59 140 136 140c19 0 39 -1 57 -3v-18c-20 2 -40 3 -60 3c-62 0 -113 -19 -113 -124z" />
    <glyph glyph-name="lozenge" unicode="&#x25ca;" horiz-adv-x="588" 
d="M294 -157l-244 459l244 459l244 -459zM294 721l-222 -419l222 -419l222 419z" />
    <glyph glyph-name="minus" unicode="&#x2212;" horiz-adv-x="618" 
d="M548 323h-478v18h478v-18z" />
    <glyph glyph-name="mu" unicode="&#xb5;" horiz-adv-x="564" 
d="M282 -12c-75 0 -138 30 -182 77v-277h-20v730h20v-430c43 -51 111 -82 182 -82s139 31 182 82v430h20v-518h-20v65c-44 -47 -111 -77 -182 -77z" />
    <glyph glyph-name="nacute" unicode="&#x144;" horiz-adv-x="559" 
d="M386 744l16 -13l-145 -141l-15 12zM306 512c-75 0 -152 -45 -206 -108v-404h-20v518h20v-89c49 53 126 101 207 101c117 0 177 -59 177 -190v-340h-20v333c0 124 -47 179 -158 179z" />
    <glyph glyph-name="uni00A0" unicode="&#xa0;" horiz-adv-x="300" 
 />
    <glyph glyph-name="ncaron" unicode="&#x148;" horiz-adv-x="559" 
d="M290 588h-14l-146 162l14 12l139 -156l139 156l14 -12zM306 512c-75 0 -152 -45 -206 -108v-404h-20v518h20v-89c49 53 126 101 207 101c117 0 177 -59 177 -190v-340h-20v333c0 124 -47 179 -158 179z" />
    <glyph glyph-name="ncommaaccent" unicode="&#x146;" horiz-adv-x="559" 
d="M306 512c-75 0 -152 -45 -206 -108v-404h-20v518h20v-89c49 53 126 101 207 101c117 0 177 -59 177 -190v-340h-20v333c0 124 -47 179 -158 179zM288 -60l19 -6l-63 -183l-19 6z" />
    <glyph glyph-name="ntilde" unicode="&#xf1;" horiz-adv-x="559" 
d="M276 660c-21 20 -39 34 -67 34c-31 0 -52 -27 -62 -59l-19 4c16 50 49 73 81 73c31 0 54 -15 77 -36c21 -20 39 -34 67 -34c31 0 52 27 62 59l19 -4c-16 -50 -49 -73 -81 -73c-31 0 -54 15 -77 36zM306 512c-75 0 -152 -45 -206 -108v-404h-20v518h20v-89
c49 53 126 101 207 101c117 0 177 -59 177 -190v-340h-20v333c0 124 -47 179 -158 179z" />
    <glyph glyph-name="oacute" unicode="&#xf3;" horiz-adv-x="566" 
d="M516 259c0 -158 -97 -271 -233 -271s-233 113 -233 271s97 271 233 271s233 -113 233 -271zM496 259c0 152 -92 253 -213 253s-213 -101 -213 -253s92 -253 213 -253s213 101 213 253zM373 744l16 -13l-145 -141l-15 12z" />
    <glyph glyph-name="obreve" unicode="&#x14f;" horiz-adv-x="566" 
d="M516 259c0 158 -97 271 -233 271s-233 -113 -233 -271s97 -271 233 -271s233 113 233 271zM496 259c0 -152 -92 -253 -213 -253s-213 101 -213 253s92 253 213 253s213 -101 213 -253zM283 611c-62 0 -119 41 -140 115l19 5c13 -54 57 -102 121 -102s108 48 121 102
l19 -5c-21 -74 -78 -115 -140 -115z" />
    <glyph glyph-name="ocircumflex" unicode="&#xf4;" horiz-adv-x="566" 
d="M516 259c0 -158 -97 -271 -233 -271s-233 113 -233 271s97 271 233 271s233 -113 233 -271zM496 259c0 152 -92 253 -213 253s-213 -101 -213 -253s92 -253 213 -253s213 101 213 253zM276 750h14l146 -162l-14 -12l-139 156l-139 -156l-14 12z" />
    <glyph glyph-name="odieresis" unicode="&#xf6;" horiz-adv-x="566" 
d="M516 259c0 158 -97 271 -233 271s-233 -113 -233 -271s97 -271 233 -271s233 113 233 271zM496 259c0 -152 -92 -253 -213 -253s-213 101 -213 253s92 253 213 253s213 -101 213 -253zM174 669c0 12 10 22 22 22s22 -10 22 -22s-10 -22 -22 -22s-22 10 -22 22zM348 669
c0 12 10 22 22 22s22 -10 22 -22s-10 -22 -22 -22s-22 10 -22 22z" />
    <glyph glyph-name="ograve" unicode="&#xf2;" horiz-adv-x="566" 
d="M516 259c0 -158 -97 -271 -233 -271s-233 113 -233 271s97 271 233 271s233 -113 233 -271zM496 259c0 152 -92 253 -213 253s-213 -101 -213 -253s92 -253 213 -253s213 101 213 253zM177 731l16 13l144 -142l-15 -12z" />
    <glyph glyph-name="ohungarumlaut" unicode="&#x151;" horiz-adv-x="566" 
d="M516 259c0 -158 -97 -271 -233 -271s-233 113 -233 271s97 271 233 271s233 -113 233 -271zM496 259c0 152 -92 253 -213 253s-213 -101 -213 -253s92 -253 213 -253s213 101 213 253zM314 744l16 -13l-145 -141l-15 12zM454 744l16 -13l-145 -141l-15 12z" />
    <glyph glyph-name="omacron" unicode="&#x14d;" horiz-adv-x="566" 
d="M516 259c0 -158 -97 -271 -233 -271s-233 113 -233 271s97 271 233 271s233 -113 233 -271zM496 259c0 152 -92 253 -213 253s-213 -101 -213 -253s92 -253 213 -253s213 101 213 253zM147 660v18h272v-18h-272z" />
    <glyph glyph-name="onedotenleader" unicode="&#x2024;" horiz-adv-x="280" 
d="M114 14c0 14 12 26 26 26s26 -12 26 -26s-12 -26 -26 -26s-26 12 -26 26z" />
    <glyph glyph-name="orthogonal" unicode="&#x221f;" horiz-adv-x="630" 
d="M600 18v-18h-490v575h19v-557h471z" />
    <glyph glyph-name="oslashacute" unicode="&#x1ff;" horiz-adv-x="566" 
d="M426 477l59 83l14 -10l-60 -84c48 -49 77 -121 77 -207c0 -158 -97 -271 -233 -271c-56 0 -106 19 -144 52l-58 -82l-14 10l59 84c-48 49 -76 121 -76 207c0 158 97 271 233 271c55 0 105 -20 143 -53zM496 259c0 80 -26 146 -68 191l-278 -394c36 -32 82 -50 133 -50
c121 0 213 101 213 253zM283 512c-121 0 -213 -101 -213 -253c0 -80 25 -146 67 -191l278 394c-36 32 -81 50 -132 50zM373 744l16 -13l-145 -141l-15 12z" />
    <glyph glyph-name="otilde" unicode="&#xf5;" horiz-adv-x="566" 
d="M516 259c0 -158 -97 -271 -233 -271s-233 113 -233 271s97 271 233 271s233 -113 233 -271zM496 259c0 152 -92 253 -213 253s-213 -101 -213 -253s92 -253 213 -253s213 101 213 253zM278 660c-21 20 -39 34 -67 34c-31 0 -52 -27 -62 -59l-19 4c16 50 49 73 81 73
c31 0 54 -15 77 -36c21 -20 39 -34 67 -34c31 0 52 27 62 59l19 -4c-16 -50 -49 -73 -81 -73c-31 0 -54 15 -77 36z" />
    <glyph glyph-name="macron" unicode="&#xaf;" horiz-adv-x="400" 
d="M64 639v18h272v-18h-272z" />
    <glyph glyph-name="peseta" unicode="&#x20a7;" horiz-adv-x="963" 
d="M749 0h-148c-79 0 -111 54 -111 177v323h-78c1 -6 1 -12 1 -18c0 -144 -100 -218 -251 -218h-52v-264h-20v700h72c138 0 233 -62 248 -182h80v155h20v-155h181c22 8 43 12 68 12c54 0 99 -17 140 -55l-14 -15c-35 35 -79 52 -123 52c-72 0 -126 -37 -126 -97
c0 -49 23 -83 139 -138c92 -43 138 -89 138 -148c0 -88 -61 -129 -164 -129zM510 500v-327c0 -113 29 -155 86 -155h153c99 0 144 40 144 111c0 54 -46 94 -126 132c-127 60 -151 99 -151 153c0 37 16 67 42 86h-148zM393 482c0 125 -78 200 -233 200h-50v-400h50
c144 0 233 75 233 200z" />
    <glyph glyph-name="quotedblbase" unicode="&#x201e;" horiz-adv-x="408" 
d="M143 39l19 -6l-63 -184l-19 7zM271 39l19 -6l-63 -184l-19 7z" />
    <glyph glyph-name="quotereversed" unicode="&#x201b;" horiz-adv-x="280" 
d="M200 555l-19 -6l-63 183l19 7z" />
    <glyph glyph-name="quotesinglbase" unicode="&#x201a;" horiz-adv-x="280" 
d="M143 39l19 -6l-63 -184l-19 7z" />
    <glyph glyph-name="racute" unicode="&#x155;" horiz-adv-x="339" 
d="M279 512c-75 0 -138 -48 -179 -106v-406h-20v518h20v-85c46 57 105 97 181 97c10 0 26 -1 38 -2v-18c-13 1 -27 2 -40 2zM271 744l16 -13l-145 -141l-15 12z" />
    <glyph glyph-name="rcaron" unicode="&#x159;" horiz-adv-x="339" 
d="M279 512c-75 0 -138 -48 -179 -106v-406h-20v518h20v-85c46 57 105 97 181 97c10 0 26 -1 38 -2v-18c-13 1 -27 2 -40 2zM193 588h-14l-146 162l14 12l139 -156l139 156l14 -12z" />
    <glyph glyph-name="rcommaaccent" unicode="&#x157;" horiz-adv-x="339" 
d="M279 512c-75 0 -138 -48 -179 -106v-406h-20v518h20v-85c46 57 105 97 181 97c10 0 26 -1 38 -2v-18c-13 1 -27 2 -40 2zM81 -60l19 -6l-63 -183l-19 6z" />
    <glyph glyph-name="revlogicalnot" unicode="&#x2310;" horiz-adv-x="618" 
d="M551 424v-18h-454v-232h-20v250h474z" />
    <glyph glyph-name="sacute" unicode="&#x15b;" horiz-adv-x="474" 
d="M238 6c100 0 166 51 166 124c0 71 -56 111 -171 141c-109 28 -174 59 -174 137c0 74 67 122 163 122c65 0 124 -20 173 -59l-14 -14c-43 36 -102 55 -158 55c-86 0 -144 -41 -144 -104c0 -64 55 -91 165 -120c125 -33 180 -81 180 -158c0 -92 -79 -142 -187 -142
c-73 0 -148 29 -202 78l14 14c53 -48 127 -74 189 -74zM330 744l16 -13l-145 -141l-15 12z" />
    <glyph glyph-name="scaron" unicode="&#x161;" horiz-adv-x="474" 
d="M238 6c100 0 166 51 166 124c0 71 -56 111 -171 141c-109 28 -174 59 -174 137c0 74 67 122 163 122c65 0 124 -20 173 -59l-14 -14c-43 36 -102 55 -158 55c-86 0 -144 -41 -144 -104c0 -64 55 -91 165 -120c125 -33 180 -81 180 -158c0 -92 -79 -142 -187 -142
c-73 0 -148 29 -202 78l14 14c53 -48 127 -74 189 -74zM239 588h-14l-146 162l14 12l139 -156l139 156l14 -12z" />
    <glyph glyph-name="scedilla" unicode="&#x15f;" horiz-adv-x="474" 
d="M238 6c100 0 166 51 166 124c0 71 -56 111 -171 141c-109 28 -174 59 -174 137c0 74 67 122 163 122c65 0 124 -20 173 -59l-14 -14c-43 36 -102 55 -158 55c-86 0 -144 -41 -144 -104c0 -64 55 -91 165 -120c125 -33 180 -81 180 -158c0 -89 -74 -139 -177 -142l-26 -57
c70 -10 101 -45 101 -92c0 -39 -32 -77 -96 -77c-28 0 -57 10 -80 28l12 14c19 -16 43 -24 67 -24c53 0 77 30 77 59c0 43 -31 72 -108 78l34 71c-70 3 -141 31 -193 78l14 14c53 -48 127 -74 189 -74z" />
    <glyph glyph-name="scircumflex" unicode="&#x15d;" horiz-adv-x="474" 
d="M238 6c100 0 166 51 166 124c0 71 -56 111 -171 141c-109 28 -174 59 -174 137c0 74 67 122 163 122c65 0 124 -20 173 -59l-14 -14c-43 36 -102 55 -158 55c-86 0 -144 -41 -144 -104c0 -64 55 -91 165 -120c125 -33 180 -81 180 -158c0 -92 -79 -142 -187 -142
c-73 0 -148 29 -202 78l14 14c53 -48 127 -74 189 -74zM219 750h14l146 -162l-14 -12l-139 156l-139 -156l-14 12z" />
    <glyph glyph-name="sterling" unicode="&#xa3;" horiz-adv-x="565" 
d="M318 712c70 0 142 -27 191 -89l-15 -11c-48 59 -111 82 -176 82c-102 0 -168 -55 -168 -186v-134h235v-18h-235v-109c0 -94 -26 -174 -75 -229h450v-18h-475v15c53 55 80 135 80 231v110h-80v18h80v136c0 137 72 202 188 202z" />
    <glyph glyph-name="tcaron" unicode="&#x165;" horiz-adv-x="453" 
d="M319 8v-18c-11 -1 -29 -2 -43 -2c-79 0 -136 30 -136 140v372h-120v18h120v155h20v-155h163v-18h-163v-370c0 -105 55 -124 113 -124c15 0 34 1 46 2zM445 735l19 -5l-85 -231l-19 5z" />
    <glyph glyph-name="tcommaaccent" unicode="&#x163;" horiz-adv-x="353" 
d="M319 8v-18c-11 -1 -29 -2 -43 -2c-21 0 -41 3 -58 8l-31 -65c70 -10 101 -45 101 -92c0 -39 -32 -77 -96 -77c-28 0 -57 10 -80 28l12 14c19 -16 43 -24 67 -24c53 0 77 30 77 59c0 43 -31 72 -108 78l41 85c-38 18 -61 55 -61 126v372h-120v18h120v155h20v-155h163v-18
h-163v-370c0 -105 55 -124 113 -124c15 0 34 1 46 2z" />
    <glyph glyph-name="tilde" unicode="&#x2dc;" horiz-adv-x="400" 
d="M195 641c-21 20 -39 34 -67 34c-31 0 -52 -27 -62 -59l-19 4c16 50 49 73 81 73c31 0 54 -15 77 -36c21 -20 39 -34 67 -34c31 0 52 27 62 59l19 -4c-16 -50 -49 -73 -81 -73c-31 0 -54 15 -77 36z" />
    <glyph glyph-name="tildecomb" unicode="&#x303;" horiz-adv-x="0" 
d="M-258 641c-21 20 -39 34 -67 34c-31 0 -52 -27 -62 -59l-19 4c16 50 49 73 81 73c31 0 54 -15 77 -36c21 -20 39 -34 67 -34c31 0 52 27 62 59l19 -4c-16 -50 -49 -73 -81 -73c-31 0 -54 15 -77 36z" />
    <glyph glyph-name="uacute" unicode="&#xfa;" horiz-adv-x="554" 
d="M277 -12c-124 0 -202 78 -202 225v305h20v-303c0 -135 67 -209 182 -209s182 74 182 209v303h20v-305c0 -147 -78 -225 -202 -225zM386 744l16 -13l-145 -141l-15 12z" />
    <glyph glyph-name="ubreve" unicode="&#x16d;" horiz-adv-x="554" 
d="M277 -12c124 0 202 78 202 225v305h-20v-303c0 -135 -67 -209 -182 -209s-182 74 -182 209v303h-20v-305c0 -147 78 -225 202 -225zM277 611c-62 0 -119 41 -140 115l19 5c13 -54 57 -102 121 -102s108 48 121 102l19 -5c-21 -74 -78 -115 -140 -115z" />
    <glyph glyph-name="ucircumflex" unicode="&#xfb;" horiz-adv-x="554" 
d="M277 -12c-124 0 -202 78 -202 225v305h20v-303c0 -135 67 -209 182 -209s182 74 182 209v303h20v-305c0 -147 -78 -225 -202 -225zM270 750h14l146 -162l-14 -12l-139 156l-139 -156l-14 12z" />
    <glyph glyph-name="udieresis" unicode="&#xfc;" horiz-adv-x="554" 
d="M277 -12c124 0 202 78 202 225v305h-20v-303c0 -135 -67 -209 -182 -209s-182 74 -182 209v303h-20v-305c0 -147 78 -225 202 -225zM168 669c0 12 10 22 22 22s22 -10 22 -22s-10 -22 -22 -22s-22 10 -22 22zM342 669c0 12 10 22 22 22s22 -10 22 -22s-10 -22 -22 -22
s-22 10 -22 22z" />
    <glyph glyph-name="ugrave" unicode="&#xf9;" horiz-adv-x="554" 
d="M277 -12c-124 0 -202 78 -202 225v305h20v-303c0 -135 67 -209 182 -209s182 74 182 209v303h20v-305c0 -147 -78 -225 -202 -225zM152 731l16 13l144 -142l-15 -12z" />
    <glyph glyph-name="uhungarumlaut" unicode="&#x171;" horiz-adv-x="554" 
d="M277 -12c-124 0 -202 78 -202 225v305h20v-303c0 -135 67 -209 182 -209s182 74 182 209v303h20v-305c0 -147 -78 -225 -202 -225zM316 744l16 -13l-145 -141l-15 12zM456 744l16 -13l-145 -141l-15 12z" />
    <glyph glyph-name="umacron" unicode="&#x16b;" horiz-adv-x="554" 
d="M277 -12c-124 0 -202 78 -202 225v305h20v-303c0 -135 67 -209 182 -209s182 74 182 209v303h20v-305c0 -147 -78 -225 -202 -225zM141 660v18h272v-18h-272z" />
    <glyph glyph-name="underscoredbl" unicode="&#x2017;" horiz-adv-x="620" 
d="M60 -56h500v-18h-500v18zM60 -157h500v-18h-500v18z" />
    <glyph glyph-name="uni0191" unicode="&#x191;" horiz-adv-x="525" 
d="M90 -87v787h405v-18h-385v-308h353v-18h-353v-445c0 -110 -50 -135 -126 -135c-9 0 -23 1 -31 2v18c9 -1 25 -2 34 -2c57 0 103 14 103 119z" />
    <glyph glyph-name="uni02C9" unicode="&#x2c9;" horiz-adv-x="400" 
d="M64 639v18h272v-18h-272z" />
    <glyph glyph-name="uni0302" unicode="&#x302;" horiz-adv-x="0" 
d="M-260 730h14l146 -162l-14 -12l-139 156l-139 -156l-14 12z" />
    <glyph glyph-name="uni0304" unicode="&#x304;" horiz-adv-x="0" 
d="M-391 640v18h272v-18h-272z" />
    <glyph glyph-name="uni0306" unicode="&#x306;" horiz-adv-x="0" 
d="M-253 591c-62 0 -119 41 -140 115l19 5c13 -54 57 -102 121 -102s108 48 121 102l19 -5c-21 -74 -78 -115 -140 -115z" />
    <glyph glyph-name="uni0307" unicode="&#x307;" horiz-adv-x="0" 
d="M-275 649c0 12 10 22 22 22s22 -10 22 -22s-10 -22 -22 -22s-22 10 -22 22z" />
    <glyph glyph-name="uni0308" unicode="&#x308;" horiz-adv-x="0" 
d="M-362 649c0 12 10 22 22 22s22 -10 22 -22s-10 -22 -22 -22s-22 10 -22 22zM-188 649c0 12 10 22 22 22s22 -10 22 -22s-10 -22 -22 -22s-22 10 -22 22z" />
    <glyph glyph-name="uni030A" unicode="&#x30a;" horiz-adv-x="0" 
d="M-338 649c0 47 38 83 85 83s85 -36 85 -83s-38 -83 -85 -83s-85 36 -85 83zM-318 649c0 -36 29 -65 65 -65s65 29 65 65s-29 65 -65 65s-65 -29 -65 -65z" />
    <glyph glyph-name="uni030C" unicode="&#x30c;" horiz-adv-x="0" 
d="M-246 568h-14l-146 162l14 12l139 -156l139 156l14 -12z" />
    <glyph glyph-name="uni0327" unicode="&#x327;" horiz-adv-x="0" 
d="M-269 -238c-28 0 -57 10 -80 28l12 14c19 -16 43 -24 67 -24c53 0 77 27 77 59c0 43 -31 72 -106 78l-3 4l41 79h20l-34 -69c70 -10 102 -45 102 -92c0 -42 -32 -77 -96 -77z" />
    <glyph glyph-name="uni0400" unicode="&#x400;" horiz-adv-x="554" 
d="M90 0v700h405v-18h-385v-311h350v-18h-350v-335h394v-18h-414zM190 905l16 13l144 -142l-15 -12z" />
    <glyph glyph-name="afii10051" unicode="&#x402;" horiz-adv-x="729" 
d="M462 0v18h23c119 0 174 100 174 213c0 124 -67 211 -192 211c-66 0 -142 -30 -196 -76v-366h-20v682h-236v18h492v-18h-236v-295c51 41 128 73 196 73c137 0 212 -94 212 -227c0 -131 -66 -233 -193 -233h-24z" />
    <glyph glyph-name="afii10052" unicode="&#x403;" horiz-adv-x="508" 
d="M382 918l16 -13l-145 -141l-15 12zM90 0v700h398v-18h-378v-682h-20z" />
    <glyph glyph-name="afii10053" unicode="&#x404;" horiz-adv-x="672" 
d="M55 350c0 209 127 362 304 362c115 0 205 -45 267 -140l-17 -11c-61 92 -142 133 -250 133c-163 0 -281 -141 -284 -335h382v-18h-382c3 -195 121 -335 284 -335c108 0 189 41 250 133l17 -11c-62 -95 -152 -140 -267 -140c-177 0 -304 153 -304 362z" />
    <glyph glyph-name="afii10054" unicode="&#x405;" horiz-adv-x="567" 
d="M288 6c136 0 204 70 204 166c0 101 -65 150 -216 196c-134 41 -203 89 -203 179c0 99 72 165 190 165c93 0 166 -33 228 -99l-16 -13c-56 62 -129 94 -212 94c-112 0 -170 -63 -170 -147c0 -80 64 -124 192 -163c153 -47 227 -99 227 -213c0 -108 -80 -183 -224 -183
c-94 0 -179 37 -243 96l16 14c66 -65 153 -92 227 -92z" />
    <glyph glyph-name="afii10055" unicode="&#x406;" horiz-adv-x="210" 
d="M95 700h20v-700h-20v700z" />
    <glyph glyph-name="afii10056" unicode="&#x407;" horiz-adv-x="210" 
d="M95 700h20v-700h-20v700zM-4 843c0 12 10 22 22 22s22 -10 22 -22s-10 -22 -22 -22s-22 10 -22 22zM170 843c0 12 10 22 22 22s22 -10 22 -22s-10 -22 -22 -22s-22 10 -22 22z" />
    <glyph glyph-name="afii10057" unicode="&#x408;" horiz-adv-x="526" 
d="M35 115l16 10c45 -79 109 -119 193 -119c95 0 172 71 172 208v486h20v-486c0 -162 -94 -226 -191 -226c-83 0 -156 34 -210 127z" />
    <glyph glyph-name="afii10058" unicode="&#x409;" horiz-adv-x="1022" 
d="M182 700h410v-310h174c140 0 216 -77 216 -195s-76 -195 -216 -195h-194v682h-370v-541c0 -104 -33 -153 -137 -153c-16 0 -31 1 -45 3v18c17 -2 32 -3 48 -3c82 0 114 37 114 137v557zM962 195c0 104 -65 177 -203 177h-167v-354h167c138 0 203 73 203 177z" />
    <glyph glyph-name="afii10059" unicode="&#x40a;" horiz-adv-x="991" 
d="M541 700h20v-310h174c140 0 216 -77 216 -195s-76 -195 -216 -195h-194v372h-431v-372h-20v700h20v-310h431v310zM931 195c0 104 -65 177 -203 177h-167v-354h167c138 0 203 73 203 177z" />
    <glyph glyph-name="afii10060" unicode="&#x40b;" horiz-adv-x="754" 
d="M251 0v682h-236v18h492v-18h-236v-285c55 39 128 63 196 63c137 0 212 -80 212 -224v-236h-20v234c0 135 -67 208 -192 208c-68 0 -137 -21 -196 -65v-377h-20z" />
    <glyph glyph-name="afii10061" unicode="&#x40c;" horiz-adv-x="585" 
d="M110 700v-508l397 508h26l-222 -283l254 -417h-24l-243 400l-188 -240v-160h-20v700h20zM409 918l16 -13l-145 -141l-15 12z" />
    <glyph glyph-name="uni040D" unicode="&#x40d;" horiz-adv-x="688" 
d="M225 905l16 13l144 -142l-15 -12zM588 0v700h-20l-458 -667v667h-20v-700h20l458 666v-666h20z" />
    <glyph glyph-name="afii10062" unicode="&#x40e;" horiz-adv-x="553" 
d="M289 250l217 450h22l-338 -700h-22l110 228l-253 472h22zM276 783c-62 0 -119 41 -140 115l19 5c13 -54 57 -102 121 -102s108 48 121 102l19 -5c-21 -74 -78 -115 -140 -115z" />
    <glyph glyph-name="afii10145" unicode="&#x40f;" horiz-adv-x="676" 
d="M90 0v700h20v-682h456v682h20v-700h-238v-120h-20v120h-238z" />
    <glyph glyph-name="uni0450" unicode="&#x450;" horiz-adv-x="545" 
d="M290 6c73 0 138 31 178 85l16 -11c-44 -59 -111 -92 -194 -92c-154 0 -240 128 -240 273c0 157 100 269 229 269s230 -107 230 -260v-18h-439c3 -135 87 -246 220 -246zM70 270h419c0 144 -89 242 -210 242c-115 0 -206 -100 -209 -242zM167 731l16 13l144 -142l-15 -12z
" />
    <glyph glyph-name="afii10099" unicode="&#x452;" horiz-adv-x="562" 
d="M15 636h68v94h20v-94h205v-18h-205v-189c49 53 126 101 207 101c117 0 177 -59 177 -190v-429c0 -110 -50 -135 -126 -135c-9 0 -23 1 -31 2v18c9 -1 25 -2 34 -2c57 0 103 14 103 119v420c0 124 -47 179 -158 179c-75 0 -152 -45 -206 -108v-404h-20v618h-68v18z" />
    <glyph glyph-name="afii10100" unicode="&#x453;" horiz-adv-x="418" 
d="M408 500h-308v-500h-20v518h328v-18zM329 744l16 -13l-145 -141l-15 12z" />
    <glyph glyph-name="afii10101" unicode="&#x454;" horiz-adv-x="535" 
d="M50 259c0 170 109 271 238 271c88 0 158 -37 202 -104l-16 -10c-43 63 -108 96 -186 96c-114 0 -215 -88 -218 -244h282v-18h-282c3 -157 104 -244 218 -244c78 0 143 33 186 96l16 -10c-44 -67 -114 -104 -202 -104c-129 0 -238 101 -238 271z" />
    <glyph glyph-name="afii10102" unicode="&#x455;" horiz-adv-x="474" 
d="M238 6c100 0 166 51 166 124c0 71 -56 111 -171 141c-109 28 -174 59 -174 137c0 74 67 122 163 122c65 0 124 -20 173 -59l-14 -14c-43 36 -102 55 -158 55c-86 0 -144 -41 -144 -104c0 -64 55 -91 165 -120c125 -33 180 -81 180 -158c0 -92 -79 -142 -187 -142
c-73 0 -148 29 -202 78l14 14c53 -48 127 -74 189 -74z" />
    <glyph glyph-name="afii10103" unicode="&#x456;" horiz-adv-x="200" 
d="M90 0v518h20v-518h-20zM74 684c0 14 12 26 26 26s26 -12 26 -26s-12 -26 -26 -26s-26 12 -26 26z" />
    <glyph glyph-name="afii10104" unicode="&#x457;" horiz-adv-x="200" 
d="M90 0v518h20v-518h-20zM-9 669c0 12 10 22 22 22s22 -10 22 -22s-10 -22 -22 -22s-22 10 -22 22zM165 669c0 12 10 22 22 22s22 -10 22 -22s-10 -22 -22 -22s-22 10 -22 22z" />
    <glyph glyph-name="afii10105" unicode="&#x458;" horiz-adv-x="190" 
d="M85 -87v605h20v-607c0 -110 -50 -135 -126 -135c-9 0 -23 1 -31 2v18c9 -1 25 -2 34 -2c57 0 103 14 103 119zM69 684c0 14 12 26 26 26s26 -12 26 -26s-12 -26 -26 -26s-26 12 -26 26z" />
    <glyph glyph-name="afii10106" unicode="&#x459;" horiz-adv-x="804" 
d="M754 154c0 75 -43 136 -178 136h-120v-272h120c135 0 178 61 178 136zM153 140v378h303v-210h126c137 0 192 -69 192 -154s-55 -154 -192 -154h-146v500h-263v-365c0 -105 -35 -147 -123 -147c-15 0 -29 1 -40 2v19c16 -2 28 -3 41 -3c70 0 102 34 102 134z" />
    <glyph glyph-name="afii10107" unicode="&#x45a;" horiz-adv-x="792" 
d="M560 0h-146v290h-314v-290h-20v518h20v-210h314v210h20v-210h126c137 0 192 -69 192 -154s-55 -154 -192 -154zM732 154c0 75 -43 136 -178 136h-120v-272h120c135 0 178 61 178 136z" />
    <glyph glyph-name="afii10108" unicode="&#x45b;" horiz-adv-x="562" 
d="M15 636h68v94h20v-94h205v-18h-205v-189c49 53 126 101 207 101c117 0 177 -59 177 -190v-340h-20v333c0 124 -47 179 -158 179c-75 0 -152 -45 -206 -108v-404h-20v618h-68v18z" />
    <glyph glyph-name="afii10109" unicode="&#x45c;" horiz-adv-x="478" 
d="M100 518v-353l308 353h28l-182 -207l214 -311h-24l-204 296l-140 -159v-137h-20v518h20zM351 744l16 -13l-145 -141l-15 12z" />
    <glyph glyph-name="uni045D" unicode="&#x45d;" horiz-adv-x="572" 
d="M492 0h-20v486l-372 -486h-20v518h20v-486l372 486h20v-518zM169 731l16 13l144 -142l-15 -12z" />
    <glyph glyph-name="afii10110" unicode="&#x45e;" horiz-adv-x="485" 
d="M247 33l191 485h22l-287 -730h-22l86 218l-212 512h22zM242 611c-62 0 -119 41 -140 115l19 5c13 -54 57 -102 121 -102s108 48 121 102l19 -5c-21 -74 -78 -115 -140 -115z" />
    <glyph glyph-name="afii10193" unicode="&#x45f;" horiz-adv-x="539" 
d="M80 0v518h20v-500h339v500h20v-518h-180v-110h-20v110h-179z" />
    <glyph glyph-name="afii10050" unicode="&#x490;" horiz-adv-x="508" 
d="M90 0v700h378v123h20v-141h-378v-682h-20z" />
    <glyph glyph-name="afii10098" unicode="&#x491;" horiz-adv-x="418" 
d="M388 650h20v-150h-308v-500h-20v518h308v132z" />
    <glyph glyph-name="uni2016" unicode="&#x2016;" horiz-adv-x="376" 
d="M110 -130v879h20v-879h-20zM246 -130v879h20v-879h-20z" />
    <glyph glyph-name="uni201F" unicode="&#x201f;" horiz-adv-x="408" 
d="M200 555l-19 -6l-63 183l19 7zM328 555l-19 -6l-63 183l19 7z" />
    <glyph glyph-name="uni203E" unicode="&#x203e;" horiz-adv-x="400" 
d="M64 639v18h272v-18h-272z" />
    <glyph glyph-name="zerosuperior" unicode="&#x2070;" 
d="M37 469c0 148 58 239 158 239s158 -91 158 -239s-58 -239 -158 -239s-158 91 -158 239zM57 469c0 -137 49 -221 138 -221s138 84 138 221s-49 221 -138 221s-138 -84 -138 -221z" />
    <glyph glyph-name="uni2071" unicode="&#x2071;" 
d="M205 569v-332h-20v332h20zM175 672c0 11 9 20 20 20s20 -9 20 -20s-9 -20 -20 -20s-20 9 -20 20z" />
    <glyph glyph-name="fivesuperior" unicode="&#x2075;" 
d="M172 247c79 0 138 45 138 128c0 81 -57 128 -145 128c-32 0 -64 -7 -91 -19l-3 2v214h231v-18h-211v-176c21 10 51 15 76 15c92 0 163 -53 163 -146c0 -95 -65 -146 -158 -146c-44 0 -99 17 -135 53l13 13c34 -34 88 -48 122 -48z" />
    <glyph glyph-name="sixsuperior" unicode="&#x2076;" 
d="M216 690c-94 0 -150 -69 -152 -221c33 35 86 58 133 58c93 0 151 -60 151 -151c0 -89 -67 -147 -145 -147c-88 0 -159 69 -159 222c0 181 67 257 174 257c32 0 68 -13 95 -41l-13 -12c-26 24 -51 35 -84 35zM197 509c-47 0 -99 -23 -133 -62c3 -147 67 -200 138 -200
c78 0 126 60 126 129c0 75 -42 133 -131 133z" />
    <glyph glyph-name="sevensuperior" unicode="&#x2077;" 
d="M329 682l-190 -445h-22l191 445h-268v18h289v-18z" />
    <glyph glyph-name="eightsuperior" unicode="&#x2078;" 
d="M327 597c0 -48 -17 -91 -68 -128c66 -31 88 -66 88 -115c0 -82 -63 -125 -151 -125c-90 0 -154 52 -154 128c0 60 31 111 90 143c-49 25 -70 54 -70 97c0 63 57 111 134 111c79 0 131 -50 131 -111zM171 483c-7 2 -13 5 -19 8c-68 -34 -90 -85 -90 -134
c0 -68 59 -110 134 -110c73 0 131 35 131 108c0 84 -98 105 -156 128zM224 484c5 -2 10 -4 14 -6c56 36 69 78 69 119c0 52 -43 93 -111 93c-75 0 -114 -44 -114 -93c0 -52 46 -77 142 -113z" />
    <glyph glyph-name="ninesuperior" unicode="&#x2079;" 
d="M68 278l14 13c32 -34 71 -44 103 -44c93 0 140 68 143 221c-34 -35 -86 -58 -133 -58c-93 0 -151 60 -151 151c0 89 67 147 145 147c88 0 159 -69 159 -222c0 -181 -58 -257 -165 -257c-38 0 -86 17 -115 49zM195 428c46 0 98 22 133 62c-3 146 -68 200 -138 200
c-78 0 -126 -60 -126 -129c0 -75 42 -133 131 -133z" />
    <glyph glyph-name="uni207A" unicode="&#x207a;" 
d="M185 312v150h-154v18h154v150h20v-150h154v-18h-154v-150h-20z" />
    <glyph glyph-name="uni207B" unicode="&#x207b;" 
d="M359 462h-328v18h328v-18z" />
    <glyph glyph-name="uni207C" unicode="&#x207c;" 
d="M359 525h-328v18h328v-18zM359 399h-328v18h328v-18z" />
    <glyph glyph-name="uni207D" unicode="&#x207d;" 
d="M149 469c0 111 33 208 92 290l16 -8c-58 -83 -88 -174 -88 -282s30 -199 88 -282l-16 -8c-59 82 -92 179 -92 290z" />
    <glyph glyph-name="uni207E" unicode="&#x207e;" 
d="M241 469c0 -111 -33 -208 -92 -290l-16 8c58 83 88 174 88 282s-30 199 -88 282l16 8c59 -82 92 -179 92 -290z" />
    <glyph glyph-name="zeroinferior" unicode="&#x2080;" 
d="M37 106c0 148 58 239 158 239s158 -91 158 -239s-58 -239 -158 -239s-158 91 -158 239zM57 106c0 -137 49 -221 138 -221s138 84 138 221s-49 221 -138 221s-138 -84 -138 -221z" />
    <glyph glyph-name="fiveinferior" unicode="&#x2085;" 
d="M172 -116c79 0 138 45 138 128c0 81 -57 128 -145 128c-32 0 -64 -7 -91 -19l-3 2v214h231v-18h-211v-176c21 10 51 15 76 15c92 0 163 -53 163 -146c0 -95 -65 -146 -158 -146c-44 0 -99 17 -135 53l13 13c34 -34 88 -48 122 -48z" />
    <glyph glyph-name="sixinferior" unicode="&#x2086;" 
d="M216 327c-94 0 -150 -69 -152 -221c33 35 86 58 133 58c93 0 151 -60 151 -151c0 -89 -67 -147 -145 -147c-88 0 -159 69 -159 222c0 181 67 257 174 257c32 0 68 -13 95 -41l-13 -12c-26 24 -51 35 -84 35zM197 146c-47 0 -99 -23 -133 -62c3 -147 67 -200 138 -200
c78 0 126 60 126 129c0 75 -42 133 -131 133z" />
    <glyph glyph-name="seveninferior" unicode="&#x2087;" 
d="M329 319l-190 -445h-22l191 445h-268v18h289v-18z" />
    <glyph glyph-name="eightinferior" unicode="&#x2088;" 
d="M327 234c0 -48 -17 -91 -68 -128c66 -31 88 -66 88 -115c0 -82 -63 -125 -151 -125c-90 0 -154 52 -154 128c0 60 31 111 90 143c-49 25 -70 54 -70 97c0 63 57 111 134 111c79 0 131 -50 131 -111zM171 120c-7 2 -13 5 -19 8c-68 -34 -90 -85 -90 -134
c0 -68 59 -110 134 -110c73 0 131 35 131 108c0 84 -98 105 -156 128zM224 121c5 -2 10 -4 14 -6c56 36 69 78 69 119c0 52 -43 93 -111 93c-75 0 -114 -44 -114 -93c0 -52 46 -77 142 -113z" />
    <glyph glyph-name="nineinferior" unicode="&#x2089;" 
d="M68 -85l14 13c32 -34 71 -44 103 -44c93 0 140 68 143 221c-34 -35 -86 -58 -133 -58c-93 0 -151 60 -151 151c0 89 67 147 145 147c88 0 159 -69 159 -222c0 -181 -58 -257 -165 -257c-38 0 -86 17 -115 49zM195 65c46 0 98 22 133 62c-3 146 -68 200 -138 200
c-78 0 -126 -60 -126 -129c0 -75 42 -133 131 -133z" />
    <glyph glyph-name="uni208A" unicode="&#x208a;" 
d="M185 -51v150h-154v18h154v150h20v-150h154v-18h-154v-150h-20z" />
    <glyph glyph-name="uni208B" unicode="&#x208b;" 
d="M359 99h-328v18h328v-18z" />
    <glyph glyph-name="uni208C" unicode="&#x208c;" 
d="M359 162h-328v18h328v-18zM359 36h-328v18h328v-18z" />
    <glyph glyph-name="uni208D" unicode="&#x208d;" 
d="M149 106c0 111 33 208 92 290l16 -8c-58 -83 -88 -174 -88 -282s30 -199 88 -282l-16 -8c-59 82 -92 179 -92 290z" />
    <glyph glyph-name="uni208E" unicode="&#x208e;" 
d="M241 106c0 -111 -33 -208 -92 -290l-16 8c58 83 88 174 88 282s-30 199 -88 282l16 8c59 -82 92 -179 92 -290z" />
    <glyph glyph-name="uni2090" unicode="&#x2090;" 
d="M34 -27c0 68 53 106 122 106c61 0 110 -16 139 -45v65c0 75 -41 108 -113 108c-35 0 -74 -10 -113 -40l-11 14c43 32 85 44 124 44c85 0 133 -42 133 -126v-224h-20v35c-29 -19 -78 -43 -139 -43c-69 0 -122 38 -122 106zM295 -64v70c-28 38 -78 55 -139 55
c-60 0 -102 -37 -102 -88s42 -88 102 -88c61 0 111 25 139 51z" />
    <glyph glyph-name="uni2091" unicode="&#x2091;" 
d="M64 56h265c0 85 -58 151 -132 151c-77 0 -130 -60 -133 -151zM315 -67l15 -12c-25 -28 -64 -54 -119 -54c-106 0 -167 76 -167 180c0 112 66 178 153 178s153 -74 153 -175v-12h-286c3 -94 58 -153 147 -153c42 0 81 21 104 48z" />
    <glyph glyph-name="uni2092" unicode="&#x2092;" 
d="M35 46c0 99 58 179 160 179s160 -80 160 -179s-58 -179 -160 -179s-160 80 -160 179zM55 46c0 -96 60 -161 140 -161s140 65 140 161s-60 161 -140 161s-140 -65 -140 -161z" />
    <glyph glyph-name="uni2093" unicode="&#x2093;" 
d="M338 217l-130 -169l134 -173h-27l-120 156l-120 -156h-27l134 173l-130 169h25l118 -152l118 152h25z" />
    <glyph glyph-name="uni2094" unicode="&#x2094;" 
d="M326 36h-265c0 -85 58 -151 132 -151c77 0 130 60 133 151zM75 159l-15 12c25 28 64 54 119 54c106 0 167 -76 167 -180c0 -112 -66 -178 -153 -178s-153 74 -153 175v12h286c-3 94 -58 153 -147 153c-42 0 -81 -21 -104 -48z" />
    <glyph glyph-name="uni20A0" unicode="&#x20a0;" horiz-adv-x="743" 
d="M391 0v231c-29 -15 -64 -25 -103 -25c-135 0 -233 101 -233 253s96 253 228 253c82 0 143 -39 179 -88l-16 -11c-36 50 -93 81 -163 81c-125 0 -208 -94 -208 -235s87 -235 215 -235c39 0 74 10 101 27v239h300v-18h-280v-212h263v-18h-263v-224h287v-18h-307z" />
    <glyph glyph-name="uni20A2" unicode="&#x20a2;" horiz-adv-x="672" 
d="M55 350c0 209 127 362 304 362c115 0 205 -45 267 -140l-17 -11c-61 92 -142 133 -250 133c-165 0 -284 -145 -284 -344c0 -179 96 -314 235 -340v418h20v-85c46 57 105 97 181 97c10 0 26 -1 38 -2v-18c-13 1 -28 2 -42 2c-73 0 -136 -48 -177 -106v-309
c9 -1 19 -1 29 -1c108 0 189 41 250 133l17 -11c-62 -95 -152 -140 -267 -140c-177 0 -304 153 -304 362z" />
    <glyph glyph-name="uni20A6" unicode="&#x20a6;" horiz-adv-x="678" 
d="M25 427h60v273h20l187 -273h271v273h20v-273h70v-18h-70v-118h70v-18h-70v-273h-20l-188 273h-270v-273h-20v273h-60v18h60v118h-60v18zM305 409l81 -118h177v118h-258zM105 409v-118h258l-81 118h-177zM398 273l165 -240v240h-165zM105 666v-239h164z" />
    <glyph glyph-name="uni20A8" unicode="&#x20a8;" horiz-adv-x="1010" 
d="M522 509c0 -94 -59 -160 -164 -183l204 -326h-23l-201 323c-21 -3 -43 -5 -67 -5h-161v-318h-20v700h181c159 0 251 -74 251 -191zM502 509c0 105 -82 173 -231 173h-161v-346h161c149 0 231 68 231 173zM774 6c100 0 166 51 166 124c0 71 -56 111 -171 141
c-109 28 -174 59 -174 137c0 74 67 122 163 122c65 0 124 -20 173 -59l-14 -14c-43 36 -102 55 -158 55c-86 0 -144 -41 -144 -104c0 -64 55 -91 165 -120c125 -33 180 -81 180 -158c0 -92 -79 -142 -187 -142c-73 0 -148 29 -202 78l14 14c53 -48 127 -74 189 -74z" />
    <glyph glyph-name="uni20A9" unicode="&#x20a9;" horiz-adv-x="974" 
d="M20 413h107l-97 287h22l96 -287h244l82 287h26l82 -287h243l97 287h22l-98 -287h108v-18h-114l-40 -118h154v-18h-160l-88 -259h-25l-74 259h-240l-74 -259h-25l-89 259h-159v18h153l-40 118h-113v18zM406 395l-34 -118h230l-34 118h-162zM154 395l40 -118h159l34 118
h-233zM587 395l34 -118h158l40 118h-232zM487 677l-76 -264h152zM200 259l80 -236l68 236h-148zM626 259l68 -236l79 236h-147z" />
    <glyph glyph-name="afii57636" unicode="&#x20aa;" horiz-adv-x="818" 
d="M90 0v700h194c148 0 242 -96 242 -284v-154h-20v153c0 177 -82 267 -219 267h-177v-682h-20zM728 700v-700h-184c-148 0 -252 96 -252 284v154h20v-153c0 -176 93 -267 229 -267h167v682h20z" />
    <glyph glyph-name="afii61248" unicode="&#x2105;" horiz-adv-x="978" 
d="M550 215c0 128 74 225 194 225s194 -97 194 -225s-74 -225 -194 -225s-194 97 -194 225zM570 215c0 -124 70 -207 174 -207s174 83 174 207s-70 207 -174 207s-174 -83 -174 -207zM305 -12l-16 11l402 716l16 -11zM40 487c0 137 85 225 201 225c69 0 130 -29 169 -94
l-17 -10c-36 61 -90 86 -152 86c-104 0 -181 -76 -181 -207s77 -207 181 -207c62 0 116 25 152 86l17 -10c-39 -65 -100 -94 -169 -94c-116 0 -201 88 -201 225z" />
    <glyph glyph-name="uni2117" unicode="&#x2117;" horiz-adv-x="834" 
d="M60 350c0 200 162 362 357 362s357 -162 357 -362s-162 -362 -357 -362s-357 162 -357 362zM80 350c0 -188 154 -342 337 -342s337 154 337 342s-154 342 -337 342c-184 0 -337 -154 -337 -342zM572 417c0 73 -49 123 -140 123h-121v-246h121c91 0 140 50 140 123z
M436 276h-125v-145h-20v427h145c96 0 156 -53 156 -141s-60 -141 -156 -141z" />
    <glyph glyph-name="uni2120" unicode="&#x2120;" horiz-adv-x="675" 
d="M609 700v-322h-20v280l-122 -210h-13l-122 210v-280h-20v322h17l131 -229l132 229h17zM32 425l16 12c21 -27 62 -47 99 -47c62 0 88 32 88 70c0 41 -37 64 -94 84c-65 23 -89 46 -89 86c0 45 36 74 93 74c47 0 82 -20 102 -48l-15 -11c-18 24 -46 41 -85 41
c-50 0 -75 -23 -75 -56c0 -28 16 -46 75 -68c73 -27 108 -52 108 -102c0 -54 -41 -86 -107 -86c-53 0 -90 22 -116 51z" />
    <glyph glyph-name="onefifth" unicode="&#x2155;" horiz-adv-x="950" 
d="M204 678l-98 -75l-11 16l109 82h20v-464h-20v441zM282 -12l-16 11l402 716l16 -11zM732 10c79 0 138 45 138 128c0 81 -57 128 -145 128c-32 0 -64 -7 -91 -19l-3 2v214h231v-18h-211v-176c21 10 51 15 76 15c92 0 163 -53 163 -146c0 -95 -65 -146 -158 -146
c-44 0 -99 17 -135 53l13 13c34 -34 88 -48 122 -48z" />
    <glyph glyph-name="twofifths" unicode="&#x2156;" horiz-adv-x="950" 
d="M320 237h-264v20c67 56 133 122 189 195c39 51 51 95 51 131c0 71 -47 107 -110 107c-49 0 -94 -21 -126 -54l-14 11c33 35 85 61 139 61c81 0 131 -50 131 -124c0 -40 -11 -84 -56 -144c-57 -76 -124 -140 -176 -183h236v-20zM282 -12l-16 11l402 716l16 -11zM732 10
c79 0 138 45 138 128c0 81 -57 128 -145 128c-32 0 -64 -7 -91 -19l-3 2v214h231v-18h-211v-176c21 10 51 15 76 15c92 0 163 -53 163 -146c0 -95 -65 -146 -158 -146c-44 0 -99 17 -135 53l13 13c34 -34 88 -48 122 -48z" />
    <glyph glyph-name="threefifths" unicode="&#x2157;" horiz-adv-x="950" 
d="M191 247c82 0 116 53 116 105c0 75 -51 118 -154 118h-31v18h33c92 0 145 45 145 105c0 56 -32 97 -104 97c-35 0 -77 -14 -110 -48l-13 12c38 38 83 54 123 54c80 0 124 -50 124 -115c0 -61 -48 -102 -101 -113c63 -14 108 -56 108 -128c0 -68 -46 -123 -136 -123
c-51 0 -100 19 -138 62l14 13c32 -35 82 -57 124 -57zM282 -12l-16 11l402 716l16 -11zM732 10c79 0 138 45 138 128c0 81 -57 128 -145 128c-32 0 -64 -7 -91 -19l-3 2v214h231v-18h-211v-176c21 10 51 15 76 15c92 0 163 -53 163 -146c0 -95 -65 -146 -158 -146
c-44 0 -99 17 -135 53l13 13c34 -34 88 -48 122 -48z" />
    <glyph glyph-name="fourfifths" unicode="&#x2158;" horiz-adv-x="950" 
d="M277 346h-240v18l239 336h21v-336h56v-18h-56v-109h-20v109zM277 669l-217 -305h217v305zM282 -12l-16 11l402 716l16 -11zM732 10c79 0 138 45 138 128c0 81 -57 128 -145 128c-32 0 -64 -7 -91 -19l-3 2v214h231v-18h-211v-176c21 10 51 15 76 15
c92 0 163 -53 163 -146c0 -95 -65 -146 -158 -146c-44 0 -99 17 -135 53l13 13c34 -34 88 -48 122 -48z" />
    <glyph glyph-name="onesixth" unicode="&#x2159;" horiz-adv-x="950" 
d="M204 678l-98 -75l-11 16l109 82h20v-464h-20v441zM282 -12l-16 11l402 716l16 -11zM776 453c-94 0 -150 -69 -152 -221c33 35 86 58 133 58c93 0 151 -60 151 -151c0 -89 -67 -147 -145 -147c-88 0 -159 69 -159 222c0 181 67 257 174 257c32 0 68 -13 95 -41l-13 -12
c-26 24 -51 35 -84 35zM757 272c-47 0 -99 -23 -133 -62c3 -147 67 -200 138 -200c78 0 126 60 126 129c0 75 -42 133 -131 133z" />
    <glyph glyph-name="fivesixths" unicode="&#x215a;" horiz-adv-x="950" 
d="M172 247c79 0 138 45 138 128c0 81 -57 128 -145 128c-32 0 -64 -7 -91 -19l-3 2v214h231v-18h-211v-176c21 10 51 15 76 15c92 0 163 -53 163 -146c0 -95 -65 -146 -158 -146c-44 0 -99 17 -135 53l13 13c34 -34 88 -48 122 -48zM776 453c-94 0 -150 -69 -152 -221
c33 35 86 58 133 58c93 0 151 -60 151 -151c0 -89 -67 -147 -145 -147c-88 0 -159 69 -159 222c0 181 67 257 174 257c32 0 68 -13 95 -41l-13 -12c-26 24 -51 35 -84 35zM757 272c-47 0 -99 -23 -133 -62c3 -147 67 -200 138 -200c78 0 126 60 126 129
c0 75 -42 133 -131 133zM282 -12l-16 11l402 716l16 -11z" />
    <glyph glyph-name="uni215F" unicode="&#x215f;" horiz-adv-x="950" 
d="M204 678l-98 -75l-11 16l109 82h20v-464h-20v441zM282 -12l-16 11l402 716l16 -11z" />
    <glyph glyph-name="uni2219" unicode="&#x2219;" horiz-adv-x="280" 
d="M114 299c0 14 12 26 26 26s26 -12 26 -26s-12 -26 -26 -26s-26 12 -26 26z" />
    <glyph glyph-name="uni2318" unicode="&#x2318;" horiz-adv-x="881" 
d="M515 249v148h-149v-148h149zM515 415v86c0 89 43 151 127 151c79 0 129 -52 129 -129c0 -83 -66 -126 -151 -126h-85v-148h85c85 0 151 -43 151 -126c0 -77 -50 -129 -129 -129c-84 0 -127 62 -127 151v86h-149v-86c0 -89 -43 -151 -127 -151c-79 0 -129 52 -129 129
c0 83 65 126 151 126h85v148h-85c-86 0 -151 43 -151 126c0 77 50 129 129 129c84 0 127 -62 127 -151v-86h149zM346 415v86c0 84 -38 133 -107 133s-109 -47 -109 -111c0 -69 51 -108 131 -108h85zM346 145v86h-85c-80 0 -131 -39 -131 -108c0 -64 40 -111 109 -111
s107 49 107 133zM535 501v-86h85c80 0 131 39 131 108c0 64 -40 111 -109 111s-107 -49 -107 -133zM535 231v-86c0 -84 38 -133 107 -133s109 47 109 111c0 69 -51 108 -131 108h-85z" />
    <glyph glyph-name="uogonek" unicode="&#x173;" horiz-adv-x="554" 
d="M289 -12h-12c-124 0 -202 78 -202 225v305h20v-303c0 -135 67 -209 182 -209s182 74 182 209v303h20v-305c0 -131 -62 -207 -163 -222c-47 -36 -67 -74 -67 -114c0 -45 30 -78 75 -78c30 0 56 14 76 34l12 -14c-22 -22 -50 -38 -89 -38c-57 0 -94 44 -94 95
c0 40 19 79 60 112z" />
    <glyph glyph-name="uring" unicode="&#x16f;" horiz-adv-x="554" 
d="M277 -12c-124 0 -202 78 -202 225v305h20v-303c0 -135 67 -209 182 -209s182 74 182 209v303h20v-305c0 -147 -78 -225 -202 -225zM192 669c0 47 38 83 85 83s85 -36 85 -83s-38 -83 -85 -83s-85 36 -85 83zM212 669c0 -36 29 -65 65 -65s65 29 65 65s-29 65 -65 65
s-65 -29 -65 -65z" />
    <glyph glyph-name="utilde" unicode="&#x169;" horiz-adv-x="554" 
d="M277 -12c124 0 202 78 202 225v305h-20v-303c0 -135 -67 -209 -182 -209s-182 74 -182 209v303h-20v-305c0 -147 78 -225 202 -225zM272 660c-21 20 -39 34 -67 34c-31 0 -52 -27 -62 -59l-19 4c16 50 49 73 81 73c31 0 54 -15 77 -36c21 -20 39 -34 67 -34
c31 0 52 27 62 59l19 -4c-16 -50 -49 -73 -81 -73c-31 0 -54 15 -77 36z" />
    <glyph glyph-name="wcircumflex" unicode="&#x175;" horiz-adv-x="760" 
d="M366 518h28l154 -499l164 499h23l-174 -518h-26l-155 499l-155 -499h-26l-174 518h23l164 -499zM373 750h14l146 -162l-14 -12l-139 156l-139 -156l-14 12z" />
    <glyph glyph-name="yacute" unicode="&#xfd;" horiz-adv-x="485" 
d="M247 33l191 485h22l-287 -730h-22l86 218l-212 512h22zM352 744l16 -13l-145 -141l-15 12z" />
    <glyph glyph-name="ycircumflex" unicode="&#x177;" horiz-adv-x="485" 
d="M247 33l191 485h22l-287 -730h-22l86 218l-212 512h22zM235 750h14l146 -162l-14 -12l-139 156l-139 -156l-14 12z" />
    <glyph glyph-name="ydieresis" unicode="&#xff;" horiz-adv-x="485" 
d="M247 33l191 485h22l-287 -730h-22l86 218l-212 512h22zM133 669c0 12 10 22 22 22s22 -10 22 -22s-10 -22 -22 -22s-22 10 -22 22zM307 669c0 12 10 22 22 22s22 -10 22 -22s-10 -22 -22 -22s-22 10 -22 22z" />
    <glyph glyph-name="yen" unicode="&#xa5;" horiz-adv-x="560" 
d="M58 297h201l-234 403h24l231 -401l231 401h24l-235 -403h204v-18h-214v-91h214v-18h-214v-170h-20v170h-212v18h212v91h-212v18z" />
    <glyph glyph-name="zacute" unicode="&#x17a;" horiz-adv-x="461" 
d="M35 0v18l356 482h-341v18h366v-18l-357 -482h367v-18h-391zM325 744l16 -13l-145 -141l-15 12z" />
    <glyph glyph-name="zcaron" unicode="&#x17e;" horiz-adv-x="461" 
d="M35 0v18l356 482h-341v18h366v-18l-357 -482h367v-18h-391zM241 588h-14l-146 162l14 12l139 -156l139 156l14 -12z" />
    <glyph glyph-name="zdotaccent" unicode="&#x17c;" horiz-adv-x="461" 
d="M35 0v18l356 482h-341v18h366v-18l-357 -482h367v-18h-391zM207 669c0 12 10 22 22 22s22 -10 22 -22s-10 -22 -22 -22s-22 10 -22 22z" />
    <glyph glyph-name="space" unicode=" " horiz-adv-x="300" 
 />
    <glyph glyph-name="ampersand" unicode="&#x26;" horiz-adv-x="625" 
d="M545 0l-79 97c-53 -61 -124 -109 -216 -109c-108 0 -190 70 -190 169c0 87 49 147 174 227l-11 15c-60 81 -90 120 -90 174c0 92 61 139 138 139c73 0 134 -48 134 -144c0 -66 -33 -114 -144 -190l205 -250c43 54 74 115 92 158l17 -9c-19 -44 -50 -108 -96 -165l93 -112
h-27zM251 6c84 0 152 47 203 106l-209 257c-125 -85 -165 -128 -165 -212s67 -151 171 -151zM385 574c0 78 -52 120 -115 120c-75 0 -117 -50 -117 -120c0 -54 29 -94 96 -180c85 53 136 105 136 180z" />
    <glyph glyph-name=".null" horiz-adv-x="0" 
 />
    <glyph glyph-name=".null" horiz-adv-x="0" 
 />
    <glyph glyph-name=".null" horiz-adv-x="0" 
 />
    <glyph glyph-name="CR" unicode="&#x9;" horiz-adv-x="237" 
 />
    <glyph glyph-name="CR" unicode="&#xd;" horiz-adv-x="237" 
 />
    <glyph glyph-name="Scommaaccent" unicode="&#x218;" horiz-adv-x="567" 
d="M288 6c136 0 204 70 204 166c0 101 -65 150 -216 196c-134 41 -203 89 -203 179c0 99 72 165 190 165c93 0 166 -33 228 -99l-16 -13c-56 62 -129 94 -212 94c-112 0 -170 -63 -170 -147c0 -80 64 -124 192 -163c153 -47 227 -99 227 -213c0 -108 -80 -183 -224 -183
c-94 0 -179 37 -243 96l16 14c66 -65 153 -92 227 -92zM282 -60l19 -6l-63 -183l-19 6z" />
    <glyph glyph-name="scommaaccent" unicode="&#x219;" horiz-adv-x="474" 
d="M238 6c100 0 166 51 166 124c0 71 -56 111 -171 141c-109 28 -174 59 -174 137c0 74 67 122 163 122c65 0 124 -20 173 -59l-14 -14c-43 36 -102 55 -158 55c-86 0 -144 -41 -144 -104c0 -64 55 -91 165 -120c125 -33 180 -81 180 -158c0 -92 -79 -142 -187 -142
c-73 0 -148 29 -202 78l14 14c53 -48 127 -74 189 -74zM247 -60l19 -6l-63 -183l-19 6z" />
    <glyph glyph-name="uni021A" unicode="&#x21a;" horiz-adv-x="522" 
d="M251 0v682h-236v18h492v-18h-236v-682h-20zM250 -60l19 -6l-63 -183l-19 6z" />
    <glyph glyph-name="uni021B" unicode="&#x21b;" horiz-adv-x="353" 
d="M319 8v-18c-11 -1 -29 -2 -43 -2c-79 0 -136 30 -136 140v372h-120v18h120v155h20v-155h163v-18h-163v-370c0 -105 55 -124 113 -124c15 0 34 1 46 2zM217 -60l19 -6l-63 -183l-19 6z" />
    <glyph glyph-name="dotlessj" unicode="&#x237;" horiz-adv-x="190" 
d="M85 -87v605h20v-607c0 -110 -50 -135 -126 -135c-9 0 -23 1 -31 2v18c9 -1 25 -2 34 -2c57 0 103 14 103 119z" />
    <glyph glyph-name="apostrophe" unicode="&#x2bc;" horiz-adv-x="400" 
d="M233 743l19 -5l-85 -231l-19 5z" />
    <glyph glyph-name="Wgrave" unicode="&#x1e80;" horiz-adv-x="974" 
d="M474 700h26l194 -677l228 677h22l-238 -700h-25l-194 677l-194 -677h-25l-238 700h22l228 -677zM343 905l16 13l144 -142l-15 -12z" />
    <glyph glyph-name="wgrave" unicode="&#x1e81;" horiz-adv-x="760" 
d="M366 518h28l154 -499l164 499h23l-174 -518h-26l-155 499l-155 -499h-26l-174 518h23l164 -499zM239 731l16 13l144 -142l-15 -12z" />
    <glyph glyph-name="Wacute" unicode="&#x1e82;" horiz-adv-x="974" 
d="M474 700h26l194 -677l228 677h22l-238 -700h-25l-194 677l-194 -677h-25l-238 700h22l228 -677zM615 918l16 -13l-145 -141l-15 12z" />
    <glyph glyph-name="wacute" unicode="&#x1e83;" horiz-adv-x="760" 
d="M366 518h28l154 -499l164 499h23l-174 -518h-26l-155 499l-155 -499h-26l-174 518h23l164 -499zM505 744l16 -13l-145 -141l-15 12z" />
    <glyph glyph-name="Wdieresis" unicode="&#x1e84;" horiz-adv-x="974" 
d="M474 700h26l194 -677l228 677h22l-238 -700h-25l-194 677l-194 -677h-25l-238 700h22l228 -677zM378 843c0 12 10 22 22 22s22 -10 22 -22s-10 -22 -22 -22s-22 10 -22 22zM552 843c0 12 10 22 22 22s22 -10 22 -22s-10 -22 -22 -22s-22 10 -22 22z" />
    <glyph glyph-name="wdieresis" unicode="&#x1e85;" horiz-adv-x="760" 
d="M366 518h28l154 -499l164 499h23l-174 -518h-26l-155 499l-155 -499h-26l-174 518h23l164 -499zM271 669c0 12 10 22 22 22s22 -10 22 -22s-10 -22 -22 -22s-22 10 -22 22zM445 669c0 12 10 22 22 22s22 -10 22 -22s-10 -22 -22 -22s-22 10 -22 22z" />
    <glyph glyph-name="Ygrave" unicode="&#x1ef2;" horiz-adv-x="560" 
d="M535 700l-245 -421v-279h-20v279l-245 421h24l231 -401l231 401h24zM145 905l16 13l144 -142l-15 -12z" />
    <glyph glyph-name="ygrave" unicode="&#x1ef3;" horiz-adv-x="485" 
d="M438 518l-191 -485l-200 485h-22l212 -512l-86 -218h22l287 730h-22zM122 731l16 13l144 -142l-15 -12z" />
    <glyph glyph-name="uni2215" unicode="&#x2215;" horiz-adv-x="178" 
d="M-104 -12l-16 11l402 716l16 -11z" />
    <glyph glyph-name="fi" horiz-adv-x="541" 
d="M160 588v-70h291v-518h-20v500h-271v-500h-20v500h-120v18h120v72c0 110 59 140 136 140c19 0 39 -1 57 -3v-18c-20 2 -40 3 -60 3c-62 0 -113 -19 -113 -124zM415 684c0 14 12 26 26 26s26 -12 26 -26s-12 -26 -26 -26s-26 12 -26 26z" />
    <glyph glyph-name="fl" horiz-adv-x="527" 
d="M160 584v-66h163v-18h-163v-500h-20v500h-120v18h120v68c0 110 60 144 137 144c48 0 98 -9 140 -18v18h20v-730h-20v696c-47 9 -94 16 -143 16c-62 0 -114 -23 -114 -128z" />
    <glyph glyph-name="commaaccent" horiz-adv-x="400" 
d="M217 -60l19 -6l-63 -183l-19 6z" />
    <glyph glyph-name="exclam" unicode="!" horiz-adv-x="220" 
d="M100 700h20v-531h-20v531zM84 14c0 14 12 26 26 26s26 -12 26 -26s-12 -26 -26 -26s-26 12 -26 26z" />
    <glyph glyph-name="quotedbl" unicode="&#x22;" 
d="M110 428v272h20v-272h-20zM260 428v272h20v-272h-20z" />
    <glyph glyph-name="uni2010" unicode="&#x2010;" horiz-adv-x="406" 
d="M336 323h-266v18h266v-18z" />
    <glyph glyph-name="figuredash" unicode="&#x2012;" horiz-adv-x="560" 
d="M520 323h-480v18h480v-18z" />
    <glyph glyph-name="numbersign" unicode="#" horiz-adv-x="679" 
d="M482 490l37 210h22l-37 -210h130v-18h-133l-43 -248h131v-18h-134l-36 -206h-22l36 206h-245l-36 -206h-22l36 206h-121v18h124l43 248h-123v18h126l37 210h22l-37 -210h245zM234 472l-43 -248h245l43 248h-245z" />
    <glyph glyph-name="dollar" unicode="$" horiz-adv-x="567" 
d="M281 -98v86c-91 2 -174 38 -236 96l16 14c64 -63 147 -91 220 -92v360c-2 1 -4 1 -5 2c-134 41 -203 89 -203 179c0 99 72 165 190 165c6 0 12 0 18 -1v89h20v-90c75 -8 136 -41 190 -97l-16 -13c-47 52 -107 83 -174 91v-312c142 -46 211 -98 211 -208
c0 -105 -76 -178 -211 -183v-86h-20zM492 172c0 95 -58 144 -191 188v-354c127 4 191 73 191 166zM93 547c0 -79 62 -123 188 -162v308c-6 1 -12 1 -18 1c-112 0 -170 -63 -170 -147z" />
    <glyph glyph-name="percent" unicode="%" horiz-adv-x="862" 
d="M181 -12l-16 12l515 712l16 -12zM90 528c0 104 55 179 143 179s143 -75 143 -179s-55 -179 -143 -179s-143 75 -143 179zM110 528c0 -93 47 -161 123 -161s123 68 123 161c0 95 -46 161 -123 161c-76 0 -123 -68 -123 -161zM486 171c0 104 55 179 143 179
s143 -75 143 -179s-55 -179 -143 -179s-143 75 -143 179zM506 171c0 -93 47 -161 123 -161s123 68 123 161c0 95 -46 161 -123 161c-76 0 -123 -68 -123 -161z" />
    <glyph glyph-name="zero.tnum" horiz-adv-x="586" 
d="M60 350c0 217 84 362 233 362s233 -145 233 -362s-84 -362 -233 -362s-233 145 -233 362zM80 350c0 -208 73 -344 213 -344s213 136 213 344s-73 344 -213 344s-213 -136 -213 -344z" />
    <glyph glyph-name="one.tnum" horiz-adv-x="386" 
d="M226 677l-193 -128l-13 14l206 137h20v-700h-20v677z" />
    <glyph glyph-name="two.tnum" horiz-adv-x="537" 
d="M446 534c0 89 -70 160 -176 160c-80 0 -156 -33 -215 -100l-15 12c61 70 146 106 228 106c118 0 198 -74 198 -178c0 -90 -38 -153 -125 -259c-80 -97 -177 -188 -256 -257h387v-18h-415v18c85 76 193 176 269 269c82 100 120 165 120 247z" />
    <glyph glyph-name="three.tnum" horiz-adv-x="538" 
d="M453 175c0 107 -70 184 -218 184h-74v18h76c118 0 205 61 205 168c0 70 -48 149 -178 149c-76 0 -145 -33 -201 -96l-16 14c66 69 134 100 217 100c136 0 198 -79 198 -167c0 -100 -70 -164 -160 -177c108 -17 171 -85 171 -194c0 -105 -71 -187 -214 -187
c-92 0 -172 36 -234 105l16 13c59 -67 136 -100 218 -100c133 0 194 79 194 170z" />
    <glyph glyph-name="four.tnum" horiz-adv-x="560" 
d="M405 175h-373v18l373 507h20v-507h96v-18h-96v-175h-20v175zM405 667l-349 -474h349v474z" />
    <glyph glyph-name="five.tnum" horiz-adv-x="550" 
d="M266 6c139 0 204 92 204 192c0 117 -81 192 -210 192c-49 0 -109 -11 -154 -27l-6 3v334h356v-18h-336v-296c45 14 101 22 140 22c133 0 230 -77 230 -210c0 -111 -72 -210 -224 -210c-87 0 -163 40 -211 99l15 12c50 -61 124 -93 196 -93z" />
    <glyph glyph-name="six.tnum" horiz-adv-x="560" 
d="M298 435c132 0 212 -89 212 -225s-99 -222 -215 -222c-131 0 -235 104 -235 336c0 268 86 388 240 388c76 0 134 -32 175 -84l-16 -12c-39 50 -92 78 -161 78c-133 0 -216 -106 -218 -359c55 65 138 100 218 100zM295 6c111 0 195 87 195 204c0 120 -68 207 -195 207
c-77 0 -158 -34 -215 -108c4 -225 111 -303 215 -303z" />
    <glyph glyph-name="seven.tnum" horiz-adv-x="480" 
d="M447 682l-300 -682h-24l300 682h-413v18h437v-18z" />
    <glyph glyph-name="eight.tnum" horiz-adv-x="570" 
d="M510 174c0 -117 -100 -186 -226 -186s-226 67 -226 190c0 87 52 170 145 217c-77 37 -116 83 -116 153c0 100 91 164 197 164c122 0 197 -72 197 -166c0 -76 -44 -140 -127 -189c115 -50 156 -108 156 -183zM78 179c0 -108 87 -173 206 -173c122 0 206 68 206 169
c0 83 -57 141 -214 192c-19 6 -37 13 -53 20c-103 -48 -145 -134 -145 -208zM461 546c0 82 -63 148 -177 148c-98 0 -177 -58 -177 -146c0 -80 62 -128 177 -165c18 -6 35 -12 50 -18c94 52 127 115 127 181z" />
    <glyph glyph-name="nine.tnum" horiz-adv-x="560" 
d="M262 265c-132 0 -212 89 -212 225s99 222 215 222c131 0 235 -104 235 -336c0 -271 -90 -388 -244 -388c-63 0 -120 22 -164 61l15 15c38 -35 92 -58 149 -58c139 0 221 107 224 359c-55 -65 -138 -100 -218 -100zM480 391c-5 224 -111 303 -215 303
c-111 0 -195 -87 -195 -204c0 -120 68 -207 195 -207c77 0 158 34 215 108z" />
    <glyph glyph-name="thinspace" unicode="&#x2009;" horiz-adv-x="200" 
 />
    <glyph glyph-name="parenleft.case" horiz-adv-x="319" 
d="M138 350c0 166 45 316 134 440l17 -9c-86 -122 -131 -268 -131 -431s45 -309 131 -431l-17 -9c-89 124 -134 274 -134 440z" />
    <glyph glyph-name="parenright.case" horiz-adv-x="319" 
d="M181 350c0 -166 -45 -316 -134 -440l-17 9c86 122 131 268 131 431s-45 309 -131 431l17 9c89 -124 134 -274 134 -440z" />
    <glyph glyph-name="hyphen.case" horiz-adv-x="406" 
d="M336 341h-266v18h266v-18z" />
    <glyph glyph-name="at.case" horiz-adv-x="958" 
d="M640 229v234c-36 47 -97 88 -164 88c-110 0 -166 -70 -166 -205s56 -205 166 -205c67 0 128 41 164 88zM644 206c-37 -43 -98 -83 -170 -83c-119 0 -184 78 -184 223s65 223 184 223c72 0 128 -36 166 -79v67h20v-309c0 -64 32 -98 86 -98c82 0 112 96 112 228
c0 207 -130 391 -381 391c-235 0 -373 -189 -373 -416c0 -213 136 -424 387 -424c95 0 171 30 238 78l9 -16c-76 -54 -154 -80 -247 -80c-260 0 -407 213 -407 442c0 233 142 434 393 434c260 0 401 -199 401 -409c0 -128 -26 -246 -133 -246c-55 0 -89 30 -101 74z" />
    <glyph glyph-name="bracketleft.case" horiz-adv-x="383" 
d="M130 -90v880h223v-18h-203v-844h203v-18h-223z" />
    <glyph glyph-name="bracketright.case" horiz-adv-x="383" 
d="M253 790v-880h-223v18h203v844h-203v18h223z" />
    <glyph glyph-name="braceleft.case" horiz-adv-x="355" 
d="M186 -4v243c0 58 -34 102 -86 102v18c52 0 86 44 86 102v243c0 61 22 86 77 86h72v-18h-72c-44 0 -57 -19 -57 -66v-250c0 -48 -24 -94 -73 -106c49 -12 73 -58 73 -106v-250c0 -47 13 -66 57 -66h72v-18h-72c-55 0 -77 25 -77 86z" />
    <glyph glyph-name="braceright.case" horiz-adv-x="355" 
d="M169 239v-243c0 -61 -22 -86 -77 -86h-72v18h72c44 0 57 19 57 66v250c0 48 24 94 73 106c-49 12 -73 58 -73 106v250c0 47 -13 66 -57 66h-72v18h72c55 0 77 -25 77 -86v-243c0 -58 34 -102 86 -102v-18c-52 0 -86 -44 -86 -102z" />
    <glyph glyph-name="exclamdown.case" horiz-adv-x="220" 
d="M120 0h-20v531h20v-531zM84 686c0 14 12 26 26 26s26 -12 26 -26s-12 -26 -26 -26s-26 12 -26 26z" />
    <glyph glyph-name="guillemotleft.case" horiz-adv-x="487" 
d="M50 345v10l206 159l11 -15l-194 -149l194 -149l-11 -15zM220 345v10l206 159l11 -15l-194 -149l194 -149l-11 -15z" />
    <glyph glyph-name="periodcentered.case" horiz-adv-x="280" 
d="M114 313c0 14 12 26 26 26s26 -12 26 -26s-12 -26 -26 -26s-26 12 -26 26z" />
    <glyph glyph-name="guillemotright.case" horiz-adv-x="487" 
d="M437 355v-10l-206 -159l-11 15l194 149l-194 149l11 15zM267 355v-10l-206 -159l-11 15l194 149l-194 149l11 15z" />
    <glyph glyph-name="questiondown.case" horiz-adv-x="492" 
d="M309 686c0 -14 -12 -26 -26 -26s-26 12 -26 26s12 26 26 26s26 -12 26 -26zM244 -12c-114 0 -175 70 -175 156c0 68 33 127 121 190c71 51 83 97 83 176v21h20v-25c0 -90 -22 -140 -91 -188c-85 -60 -112 -113 -112 -176c0 -80 58 -136 160 -136c72 0 131 37 176 93
l16 -13c-53 -63 -121 -98 -198 -98z" />
    <glyph glyph-name="endash.case" horiz-adv-x="500" 
d="M500 341h-500v18h500v-18z" />
    <glyph glyph-name="emdash.case" horiz-adv-x="1000" 
d="M1000 341h-1000v18h1000v-18z" />
    <glyph glyph-name="bullet.case" horiz-adv-x="398" 
d="M100 350c0 56 43 99 99 99s99 -43 99 -99s-43 -99 -99 -99s-99 43 -99 99z" />
    <glyph glyph-name="guilsinglleft.case" horiz-adv-x="317" 
d="M50 345v10l206 159l11 -15l-194 -149l194 -149l-11 -15z" />
    <glyph glyph-name="guilsinglright.case" horiz-adv-x="317" 
d="M267 355v-10l-206 -159l-11 15l194 149l-194 149l11 15z" />
    <glyph glyph-name="zero.numerator" 
d="M37 469c0 148 58 239 158 239s158 -91 158 -239s-58 -239 -158 -239s-158 91 -158 239zM57 469c0 -137 49 -221 138 -221s138 84 138 221s-49 221 -138 221s-138 -84 -138 -221z" />
    <glyph glyph-name="one.numerator" 
d="M204 678l-98 -75l-11 16l109 82h20v-464h-20v441z" />
    <glyph glyph-name="two.numerator" 
d="M320 237h-264v20c67 56 133 122 189 195c39 51 51 95 51 131c0 71 -47 107 -110 107c-49 0 -94 -21 -126 -54l-14 11c33 35 85 61 139 61c81 0 131 -50 131 -124c0 -40 -11 -84 -56 -144c-57 -76 -124 -140 -176 -183h236v-20z" />
    <glyph glyph-name="three.numerator" 
d="M191 247c82 0 116 53 116 105c0 75 -51 118 -154 118h-31v18h33c92 0 145 45 145 105c0 56 -32 97 -104 97c-35 0 -77 -14 -110 -48l-13 12c38 38 83 54 123 54c80 0 124 -50 124 -115c0 -61 -48 -102 -101 -113c63 -14 108 -56 108 -128c0 -68 -46 -123 -136 -123
c-51 0 -100 19 -138 62l14 13c32 -35 82 -57 124 -57z" />
    <glyph glyph-name="four.numerator" 
d="M257 346h-240v18l239 336h21v-336h56v-18h-56v-109h-20v109zM257 669l-217 -305h217v305z" />
    <glyph glyph-name="five.numerator" 
d="M172 247c79 0 138 45 138 128c0 81 -57 128 -145 128c-32 0 -64 -7 -91 -19l-3 2v214h231v-18h-211v-176c21 10 51 15 76 15c92 0 163 -53 163 -146c0 -95 -65 -146 -158 -146c-44 0 -99 17 -135 53l13 13c34 -34 88 -48 122 -48z" />
    <glyph glyph-name="six.numerator" 
d="M216 690c-94 0 -150 -69 -152 -221c33 35 86 58 133 58c93 0 151 -60 151 -151c0 -89 -67 -147 -145 -147c-88 0 -159 69 -159 222c0 181 67 257 174 257c32 0 68 -13 95 -41l-13 -12c-26 24 -51 35 -84 35zM197 509c-47 0 -99 -23 -133 -62c3 -147 67 -200 138 -200
c78 0 126 60 126 129c0 75 -42 133 -131 133z" />
    <glyph glyph-name="seven.numerator" 
d="M329 682l-190 -445h-22l191 445h-268v18h289v-18z" />
    <glyph glyph-name="eight.numerator" 
d="M327 597c0 -48 -17 -91 -68 -128c66 -31 88 -66 88 -115c0 -82 -63 -125 -151 -125c-90 0 -154 52 -154 128c0 60 31 111 90 143c-49 25 -70 54 -70 97c0 63 57 111 134 111c79 0 131 -50 131 -111zM171 483c-7 2 -13 5 -19 8c-68 -34 -90 -85 -90 -134
c0 -68 59 -110 134 -110c73 0 131 35 131 108c0 84 -98 105 -156 128zM224 484c5 -2 10 -4 14 -6c56 36 69 78 69 119c0 52 -43 93 -111 93c-75 0 -114 -44 -114 -93c0 -52 46 -77 142 -113z" />
    <glyph glyph-name="nine.numerator" 
d="M68 278l14 13c32 -34 71 -44 103 -44c93 0 140 68 143 221c-34 -35 -86 -58 -133 -58c-93 0 -151 60 -151 151c0 89 67 147 145 147c88 0 159 -69 159 -222c0 -181 -58 -257 -165 -257c-38 0 -86 17 -115 49zM195 428c46 0 98 22 133 62c-3 146 -68 200 -138 200
c-78 0 -126 -60 -126 -129c0 -75 42 -133 131 -133z" />
    <glyph glyph-name="zero.denominator" 
d="M37 232c0 148 58 239 158 239s158 -91 158 -239s-58 -239 -158 -239s-158 91 -158 239zM57 232c0 -137 49 -221 138 -221s138 84 138 221s-49 221 -138 221s-138 -84 -138 -221z" />
    <glyph glyph-name="one.denominator" 
d="M204 441l-98 -75l-11 16l109 82h20v-464h-20v441z" />
    <glyph glyph-name="two.denominator" 
d="M320 0h-264v20c67 56 133 122 189 195c39 51 51 95 51 131c0 71 -47 107 -110 107c-49 0 -94 -21 -126 -54l-14 11c33 35 85 61 139 61c81 0 131 -50 131 -124c0 -40 -11 -84 -56 -144c-57 -76 -124 -140 -176 -183h236v-20z" />
    <glyph glyph-name="three.denominator" 
d="M191 10c82 0 116 53 116 105c0 75 -51 118 -154 118h-31v18h33c92 0 145 45 145 105c0 56 -32 97 -104 97c-35 0 -77 -14 -110 -48l-13 12c38 38 83 54 123 54c80 0 124 -50 124 -115c0 -61 -48 -102 -101 -113c63 -14 108 -56 108 -128c0 -68 -46 -123 -136 -123
c-51 0 -100 19 -138 62l14 13c32 -35 82 -57 124 -57z" />
    <glyph glyph-name="four.denominator" 
d="M257 109h-240v18l239 336h21v-336h56v-18h-56v-109h-20v109zM257 432l-217 -305h217v305z" />
    <glyph glyph-name="five.denominator" 
d="M172 10c79 0 138 45 138 128c0 81 -57 128 -145 128c-32 0 -64 -7 -91 -19l-3 2v214h231v-18h-211v-176c21 10 51 15 76 15c92 0 163 -53 163 -146c0 -95 -65 -146 -158 -146c-44 0 -99 17 -135 53l13 13c34 -34 88 -48 122 -48z" />
    <glyph glyph-name="six.denominator" 
d="M216 453c-94 0 -150 -69 -152 -221c33 35 86 58 133 58c93 0 151 -60 151 -151c0 -89 -67 -147 -145 -147c-88 0 -159 69 -159 222c0 181 67 257 174 257c32 0 68 -13 95 -41l-13 -12c-26 24 -51 35 -84 35zM197 272c-47 0 -99 -23 -133 -62c3 -147 67 -200 138 -200
c78 0 126 60 126 129c0 75 -42 133 -131 133z" />
    <glyph glyph-name="seven.denominator" 
d="M329 445l-190 -445h-22l191 445h-268v18h289v-18z" />
    <glyph glyph-name="eight.denominator" 
d="M327 360c0 -48 -17 -91 -68 -128c66 -31 88 -66 88 -115c0 -82 -63 -125 -151 -125c-90 0 -154 52 -154 128c0 60 31 111 90 143c-49 25 -70 54 -70 97c0 63 57 111 134 111c79 0 131 -50 131 -111zM171 246c-7 2 -13 5 -19 8c-68 -34 -90 -85 -90 -134
c0 -68 59 -110 134 -110c73 0 131 35 131 108c0 84 -98 105 -156 128zM224 247c5 -2 10 -4 14 -6c56 36 69 78 69 119c0 52 -43 93 -111 93c-75 0 -114 -44 -114 -93c0 -52 46 -77 142 -113z" />
    <glyph glyph-name="nine.denominator" 
d="M68 41l14 13c32 -34 71 -44 103 -44c93 0 140 68 143 221c-34 -35 -86 -58 -133 -58c-93 0 -151 60 -151 151c0 89 67 147 145 147c88 0 159 -69 159 -222c0 -181 -58 -257 -165 -257c-38 0 -86 17 -115 49zM195 191c46 0 98 22 133 62c-3 146 -68 200 -138 200
c-78 0 -126 -60 -126 -129c0 -75 42 -133 131 -133z" />
    <glyph glyph-name="uni03A9" unicode="&#x3a9;" horiz-adv-x="696" 
d="M348 712c188 0 293 -151 293 -342c0 -161 -92 -282 -199 -352h185v-18h-217v16c122 76 211 194 211 354c0 183 -97 324 -273 324s-273 -141 -273 -324c0 -160 89 -278 211 -354v-16h-217v18h185c-108 69 -199 191 -199 352c0 191 105 342 293 342z" />
    <glyph glyph-name="H18533" unicode="&#x25cf;" horiz-adv-x="1000" 
d="M162 326c0 187 151 338 338 338s338 -151 338 -338s-151 -338 -338 -338s-338 151 -338 338z" />
    <glyph glyph-name="V" unicode="V" horiz-adv-x="648" 
d="M335 0h-22l-283 700h22l272 -678l271 678h23z" />
    <glyph glyph-name="IJ" unicode="&#x132;" horiz-adv-x="736" 
d="M95 700h20v-700h-20v700zM245 115l16 10c45 -79 109 -119 193 -119c95 0 172 71 172 208v486h20v-486c0 -162 -94 -226 -191 -226c-83 0 -156 34 -210 127z" />
    <glyph glyph-name="ij" unicode="&#x133;" horiz-adv-x="380" 
d="M90 0v518h20v-518h-20zM74 684c0 14 12 26 26 26s26 -12 26 -26s-12 -26 -26 -26s-26 12 -26 26zM275 -87v605h20v-607c0 -110 -50 -135 -126 -135c-9 0 -23 1 -31 2v18c9 -1 25 -2 34 -2c57 0 103 14 103 119zM259 684c0 14 12 26 26 26s26 -12 26 -26s-12 -26 -26 -26
s-26 12 -26 26z" />
    </font>
</defs>
</svg>
